G04 start of page 8 for group -4062 idx -4062 *
G04 Title: EW10A - linear power supply, soldermask *
G04 Creator: pcb 1.99z *
G04 CreationDate: Mon 08 Sep 2014 07:20:40 PM GMT UTC *
G04 For: eelco *
G04 Format: Gerber/RS-274X *
G04 PCB-Dimensions (mil): 5511.81 5511.81 *
G04 PCB-Coordinate-Origin: lower left *
%MOIN*%
%FSLAX25Y25*%
%LNBOTTOMMASK*%
%ADD117R,0.0748X0.0748*%
%ADD116R,0.0866X0.0866*%
%ADD115R,0.0571X0.0571*%
%ADD114R,0.0236X0.0236*%
%ADD113R,0.0453X0.0453*%
%ADD112C,0.0472*%
%ADD111C,0.0315*%
%ADD110C,0.0886*%
%ADD109C,0.1160*%
%ADD108C,0.0710*%
%ADD107C,0.1083*%
%ADD106C,0.1437*%
%ADD105C,0.2165*%
%ADD104C,0.0001*%
%ADD103C,0.1319*%
%ADD102C,0.0984*%
%ADD101C,0.0610*%
%ADD100C,0.1516*%
G54D100*X98425Y452756D03*
G54D101*X143701Y421181D03*
G54D102*X147402Y451181D03*
G54D103*X235000Y411181D03*
G54D101*X183701Y421181D03*
G54D104*G36*
X175079Y456102D02*Y446260D01*
X184921D01*
Y456102D01*
X175079D01*
G37*
G54D102*X163701Y451181D03*
G54D105*X129882D03*
G54D104*G36*
X172815Y333366D02*Y318996D01*
X187185D01*
Y333366D01*
X172815D01*
G37*
G54D106*X219370Y326181D03*
G54D104*G36*
X92008Y351516D02*Y340689D01*
X102835D01*
Y351516D01*
X92008D01*
G37*
G54D107*X97421Y366102D03*
Y386102D03*
Y406102D03*
G54D100*X452756Y452756D03*
G54D108*X437008Y419764D03*
Y350709D03*
G54D103*X409449Y346457D03*
G54D104*G36*
X325689Y349508D02*Y343406D01*
X331791D01*
Y349508D01*
X325689D01*
G37*
G36*
X380807D02*Y343406D01*
X386909D01*
Y349508D01*
X380807D01*
G37*
G36*
X353248D02*Y343406D01*
X359350D01*
Y349508D01*
X353248D01*
G37*
G36*
X433458Y393314D02*Y386214D01*
X440558D01*
Y393314D01*
X433458D01*
G37*
G54D108*X437008Y399764D03*
Y409764D03*
G54D109*X450508Y382264D03*
G54D104*G36*
X388182Y444495D02*Y437395D01*
X395282D01*
Y444495D01*
X388182D01*
G37*
G54D108*X381732Y440945D03*
X371732D03*
X361732D03*
X351732D03*
G54D109*X399232Y454445D03*
G54D108*X341732Y440945D03*
X331732D03*
X321732D03*
G54D100*X452756Y98425D03*
G54D104*G36*
X433458Y133471D02*Y126371D01*
X440558D01*
Y133471D01*
X433458D01*
G37*
G54D108*X437008Y139921D03*
Y149921D03*
G54D109*X450508Y122421D03*
G54D103*X455709Y170276D03*
G54D104*G36*
X365079Y106102D02*Y96260D01*
X374921D01*
Y106102D01*
X365079D01*
G37*
G54D110*X310000Y126181D03*
G54D104*G36*
X329626Y128067D02*Y121965D01*
X335728D01*
Y128067D01*
X329626D01*
G37*
G54D101*X332677Y105016D03*
G54D102*X386299Y101181D03*
X402598D03*
G54D105*X420118D03*
G54D103*X358268Y147638D03*
G54D104*G36*
X433458Y334259D02*Y327159D01*
X440558D01*
Y334259D01*
X433458D01*
G37*
G54D109*X450508Y323209D03*
G54D108*X437008Y340709D03*
G54D104*G36*
X433458Y279141D02*Y272041D01*
X440558D01*
Y279141D01*
X433458D01*
G37*
G54D108*X437008Y285591D03*
Y295591D03*
G54D109*X450508Y268091D03*
G54D103*X421260Y244094D03*
G54D101*X318740Y336457D03*
X328740Y326457D03*
X373858Y336457D03*
X383858Y326457D03*
X346299Y336457D03*
X356299Y326457D03*
G54D100*X98425Y98425D03*
G54D103*X175197Y102362D03*
G54D110*X140000Y101181D03*
X190000Y126181D03*
X175000D03*
X140000Y221181D03*
G54D104*G36*
X99508Y176516D02*Y165689D01*
X110335D01*
Y176516D01*
X99508D01*
G37*
G54D107*X104921Y191102D03*
Y211102D03*
G54D104*G36*
X99508Y251516D02*Y240689D01*
X110335D01*
Y251516D01*
X99508D01*
G37*
G54D107*X104921Y266102D03*
Y286102D03*
G54D110*X175000Y246181D03*
G54D111*X417323Y305118D03*
Y440945D03*
Y312992D03*
X364075Y403445D03*
X312992Y417323D03*
X393701Y391732D03*
Y415354D03*
X344587Y374902D03*
X336614Y358268D03*
Y370079D03*
X289370Y417323D03*
G54D112*X297244Y385827D03*
X312992Y381890D03*
X320866D03*
X297244Y377953D03*
G54D111*X356299Y279528D03*
X362205D03*
X366142Y291339D03*
Y299213D03*
X391732Y281555D03*
X332677Y253937D03*
X356299Y263780D03*
X362205D03*
X338583Y232283D03*
X324803Y233169D03*
X342520Y252953D03*
X419291Y261811D03*
X415354Y274606D03*
G54D112*X399606Y228937D03*
G54D111*X415354Y295276D03*
X383484Y268701D03*
X373484Y274606D03*
G54D112*X379921Y228937D03*
G54D111*X366142Y200787D03*
X329646Y291339D03*
X334646Y274606D03*
Y268701D03*
X307087Y261811D03*
X314961D03*
X259843Y246063D03*
X267717D03*
Y198819D03*
X259843D03*
X269685Y228346D03*
X205000Y356181D03*
X348425Y190945D03*
X334646Y207677D03*
G54D113*X336122Y282087D02*Y280906D01*
X329232Y282087D02*Y280906D01*
G54D114*X318701Y234252D02*Y232087D01*
X311220Y234252D02*Y232087D01*
X314961Y244291D02*Y242126D01*
G54D113*X333169Y262402D02*Y261220D01*
X340059Y262402D02*Y261220D01*
G54D114*X330906Y244291D02*Y242126D01*
X338386Y244291D02*Y242126D01*
X334646Y234252D02*Y232087D01*
G54D113*X372894Y280020D02*X374075D01*
X372894Y286909D02*X374075D01*
X382894Y263287D02*X384075D01*
X382894Y256398D02*X384075D01*
G54D115*X348327Y96949D02*X356398D01*
X375886Y130413D02*X383957D01*
X375886Y113681D02*X383957D01*
G54D116*X288681Y122953D02*Y119409D01*
X261319Y122953D02*Y119409D01*
G54D115*X348327Y113681D02*X356398D01*
G54D113*X371555Y398228D02*Y397047D01*
X343996Y382480D02*Y381299D01*
X337106Y382480D02*Y381299D01*
X364665Y398228D02*Y397047D01*
G54D117*X172953Y151181D02*X178071D01*
X211929D02*X217047D01*
X177953Y291181D02*X183071D01*
X216929D02*X222047D01*
M02*
