G04 start of page 2 for group 0 idx 0 *
G04 Title: EW10A - linear power supply, top *
G04 Creator: pcb 1.99z *
G04 CreationDate: Mon 08 Sep 2014 07:20:40 PM GMT UTC *
G04 For: eelco *
G04 Format: Gerber/RS-274X *
G04 PCB-Dimensions (mil): 5511.81 5511.81 *
G04 PCB-Coordinate-Origin: lower left *
%MOIN*%
%FSLAX25Y25*%
%LNTOP*%
%ADD38C,0.0400*%
%ADD37C,0.0591*%
%ADD36C,0.1252*%
%ADD35C,0.0787*%
%ADD34C,0.1339*%
%ADD33C,0.0236*%
%ADD32C,0.0157*%
%ADD31C,0.0472*%
%ADD30C,0.0315*%
%ADD29R,0.0453X0.0453*%
%ADD28R,0.0413X0.0413*%
%ADD27R,0.0236X0.0236*%
%ADD26R,0.0748X0.0748*%
%ADD25R,0.0610X0.0610*%
%ADD24R,0.0571X0.0571*%
%ADD23C,0.0827*%
%ADD22C,0.0650*%
%ADD21C,0.1024*%
%ADD20C,0.1378*%
%ADD19C,0.0001*%
%ADD18C,0.1260*%
%ADD17C,0.0925*%
%ADD16C,0.0551*%
%ADD15C,0.0394*%
%ADD14C,0.0197*%
%ADD13C,0.1500*%
%ADD12C,0.0118*%
%ADD11C,0.0295*%
G54D11*X437008Y259843D02*X456693D01*
X458661Y261811D01*
X435039Y255906D02*X458661D01*
X462598Y259843D01*
G54D12*X413169Y262067D02*X413425Y261811D01*
G54D11*X437008Y259843D02*X422244Y274606D01*
X435039Y255906D02*X422244Y268701D01*
G54D12*X383484Y261909D02*Y268701D01*
X373484Y281398D02*Y274606D01*
X334646Y261909D02*Y268701D01*
G54D11*X422244D02*X334646D01*
X422244Y274606D02*X334646D01*
G54D12*Y281398D01*
X398169Y281555D02*X391732D01*
X339646Y255827D02*Y261909D01*
G54D13*X104921Y286102D02*X135079D01*
X175000Y246181D01*
X104921Y211102D02*X129921D01*
X140000Y221181D01*
G54D11*X462598Y259843D02*Y403543D01*
X446378Y419764D01*
X458661Y385827D02*X454724Y389764D01*
X458661Y261811D02*Y385827D01*
G54D12*X415354Y295276D02*X415157Y295472D01*
X409449D01*
X342520Y252953D02*X339646Y255827D01*
G54D11*X454724Y389764D02*X413386D01*
X303150Y212598D02*Y456693D01*
X297244D02*Y253937D01*
G54D12*X344587Y382264D02*Y374902D01*
G54D11*X312992Y381890D02*X336614D01*
G54D12*X344587Y382264D02*X344213Y381890D01*
X337106D01*
G54D11*X370079Y409449D02*X364075Y403445D01*
X370079Y409449D02*X407480D01*
X446358Y419783D02*X418799D01*
G54D12*X393701Y415354D02*X383858D01*
X364075Y403445D02*Y397264D01*
X385630Y401575D02*X385827Y401772D01*
Y409449D01*
G54D11*X413386Y389764D02*X407480Y395669D01*
G54D12*X385630Y391732D02*X393701D01*
G54D11*X407480Y395669D02*Y456693D01*
X401575Y462598D01*
X411417Y458661D02*X403543Y466535D01*
X418799Y419783D02*X411417Y427165D01*
Y458661D01*
X331732Y440945D02*Y462598D01*
X403543Y466535D02*X307087D01*
X401575Y462598D02*X309055D01*
X303150Y456693D01*
X307087Y466535D02*X297244Y456693D01*
G54D13*X147402Y413583D02*Y451181D01*
X180000Y406181D02*Y451181D01*
X147402Y413780D02*X119724Y386102D01*
X97421D01*
X180000Y406181D02*X139921Y366102D01*
X97421D01*
G54D12*X338583Y240354D02*Y232283D01*
G54D14*X285236Y198819D02*Y208661D01*
G54D11*X299409Y208858D02*X303150Y212598D01*
G54D12*X329646Y281398D02*Y291339D01*
X273425Y237992D02*X276476D01*
X269685Y234252D02*X273425Y237992D01*
X269685Y228346D02*Y234252D01*
G54D11*X297244Y253937D02*X293307Y250000D01*
X286516D01*
X297244Y263780D02*X285236D01*
X299409Y208858D02*X285236D01*
G54D12*X339646Y281398D02*Y287402D01*
X338583Y288465D01*
Y295768D01*
X344646Y281398D02*Y287402D01*
X348425Y291181D01*
X352461Y281398D02*X349646D01*
X348425Y291181D02*Y295472D01*
X348622Y295276D02*Y295472D01*
X348425D02*X341240Y302657D01*
X348622Y295472D02*X352362Y299213D01*
X324646Y281398D02*Y287402D01*
X323425Y288622D01*
X320866D01*
X319646Y281398D02*Y287402D01*
X320866Y288622D01*
X341240Y302657D02*X338583D01*
X318740Y336457D02*X348425Y306772D01*
Y302953D01*
X335630Y331693D02*X361220D01*
X328740Y346457D02*Y338583D01*
X335630Y331693D01*
X346299Y336457D02*X336614Y346142D01*
X311024Y358268D02*X314961Y362205D01*
X312992Y366142D02*X307087Y360236D01*
X312992Y366142D02*X383858D01*
X314961Y362205D02*X387795D01*
X336614Y346142D02*Y358268D01*
X266142Y417323D02*X289370D01*
X336614Y370079D02*X312992D01*
X309055Y374016D01*
X312992Y417323D02*X364173D01*
X322835Y439843D02*X321732Y440945D01*
X309055Y374016D02*Y428268D01*
X321732Y440945D01*
X205000Y356181D02*X266142Y417323D01*
X235000Y411181D02*X180000Y356181D01*
Y326181D01*
G54D15*X411417Y167815D02*Y179331D01*
X437008D02*X389764D01*
X437008Y149921D02*Y179331D01*
X395669Y145669D02*X366142Y175197D01*
G54D12*X370000Y136181D02*X342520Y163661D01*
Y175197D01*
X358268D02*X354331D01*
X352362Y177165D01*
G54D15*X370000Y101181D02*Y90630D01*
G54D12*Y101181D02*Y136181D01*
G54D15*Y90630D02*X375984Y84646D01*
X429134D01*
X433071Y88583D01*
Y108268D01*
X402598Y101181D02*X395669Y108110D01*
X411417Y141732D02*Y151083D01*
X433071Y108268D02*X437008Y112205D01*
Y139921D02*Y112205D01*
Y129921D02*X411417D01*
X395669Y108110D02*Y145669D01*
G54D12*X391732Y253937D02*X381890D01*
X413169Y252185D02*Y262067D01*
X413425Y261811D02*X419291D01*
X391732Y253937D02*X411417Y234252D01*
X383858Y240354D02*X387598D01*
X389764Y238189D01*
X437008Y295591D02*Y285591D01*
X385827Y291339D02*X425197D01*
X429134Y295276D01*
X437008D01*
X387598Y295472D02*X401772D01*
X383858Y287402D02*X419291D01*
X431102Y275591D01*
X437008Y220276D02*Y228346D01*
X413169Y252185D02*X437008Y228346D01*
X411417Y220276D02*Y234252D01*
X389764Y238189D02*Y228937D01*
X356299Y279528D02*Y287402D01*
X358268Y289370D01*
Y295472D01*
X352362Y299213D02*X366142D01*
X358268Y295472D02*X381693D01*
X385827Y291339D01*
X379921D02*X366142D01*
X375984Y299213D02*X383858D01*
X379921Y291339D02*X383858Y287402D01*
X356299Y279528D02*X354331D01*
X352461Y281398D01*
X356299Y326457D02*X358268Y324488D01*
Y302953D01*
X366142Y326772D02*Y309055D01*
X375984Y299213D01*
X373858Y336457D02*X399606Y310709D01*
Y302953D01*
X383858Y346457D02*X409449Y320866D01*
Y302953D01*
Y303150D02*X415354D01*
X417323Y338583D02*X409449Y346457D01*
X421260Y309055D02*Y334961D01*
X415354Y303150D02*X421260Y309055D01*
X419291Y299213D02*X425197Y305118D01*
Y328898D02*Y305118D01*
X417323Y312992D02*Y338583D01*
X421260Y334961D02*X437008Y350709D01*
X425197Y328898D02*X437008Y340709D01*
X383858Y299213D02*X387598Y295472D01*
X401772D02*X405512Y299213D01*
X419291D01*
X431102Y275591D02*X437008D01*
X466535Y214567D02*Y413386D01*
X446850Y433071D01*
X425197D01*
X417323Y440945D01*
X456693Y204724D02*X466535Y214567D01*
X370079Y204724D02*X456693D01*
G54D15*X403150Y212008D02*X411417Y220276D01*
X389764Y212008D02*X403150D01*
G54D11*X379921Y228937D02*X399606D01*
G54D12*X374016Y247835D02*Y253937D01*
X373484Y254469D01*
Y261909D01*
G54D15*X358268Y206693D02*Y211614D01*
G54D12*X352362Y204724D02*X350394Y206693D01*
X342520D01*
G54D15*X358268Y211614D02*X356299Y213583D01*
G54D12*X358268Y224409D02*X352362Y218504D01*
X374016Y247835D02*X383858D01*
X364173Y240354D02*X374016D01*
X362205Y263780D02*Y255906D01*
X364173Y253937D01*
Y247835D01*
X363976Y248031D01*
X360236D01*
X358268Y246063D01*
Y224409D01*
G54D15*Y187008D02*Y194882D01*
G54D12*X356299Y251969D02*Y263780D01*
X361220Y331693D02*X366142Y326772D01*
X362205Y279528D02*Y285433D01*
X364173Y287402D01*
X352362Y248031D02*X356299Y251969D01*
X348622Y248031D02*X352362D01*
X348425Y247835D02*X348622Y248031D01*
X349646Y261909D02*Y255906D01*
X348425Y254685D01*
X344646Y255906D02*X345866Y254685D01*
X348425D01*
X344685Y244094D02*X348425Y240354D01*
X381890Y253937D02*X378484Y257343D01*
Y261909D01*
X364173Y287402D02*X375984D01*
X378484Y284902D01*
Y281398D01*
X329646Y256969D02*Y261909D01*
X324646Y256063D02*Y261909D01*
X328740Y251969D02*X324646Y256063D01*
X332677Y253937D02*X329646Y256969D01*
X336614Y253937D02*X332677D01*
X338583Y251969D02*X336614Y253937D01*
X319646Y252717D02*Y261909D01*
X318898Y251969D02*X319646Y252717D01*
X318898Y247539D02*Y251969D01*
X314961Y261811D02*X319646D01*
X344646Y261909D02*X344488Y261752D01*
X344646Y261909D02*Y255906D01*
G54D14*X271654Y263780D02*X277756D01*
X263780Y255906D02*X271654Y263780D01*
X267913Y246260D02*X276476D01*
G54D12*X286516Y238189D02*X281496Y243209D01*
Y251969D01*
X279724Y253740D01*
X276476D01*
X338583Y247835D02*Y251969D01*
X328740Y247835D02*Y251969D01*
Y247835D02*X328543D01*
X328740D02*X332480Y244094D01*
X344685D01*
X328543Y247835D02*X321358Y240650D01*
X324803Y233169D02*X320866D01*
X318898Y235138D01*
Y240650D01*
X328740Y228346D02*Y240354D01*
X311024Y358268D02*Y183071D01*
X307087Y360236D02*Y188976D01*
X326772Y194882D02*X332677D01*
X334646Y196850D01*
Y207677D01*
Y222441D02*X328740Y228346D01*
X303150Y185039D02*X286516D01*
X326772Y187008D02*Y194882D01*
X342520Y187008D02*Y194882D01*
G54D15*X356299Y213583D02*X318898D01*
X314961Y209646D01*
G54D12*X326772Y206693D02*Y213583D01*
X342520Y190945D02*X348425D01*
X352362Y218504D02*X311024D01*
X326772Y175197D02*X343307D01*
G54D15*X366142D02*X358268D01*
Y194882D02*X389764D01*
G54D12*X366142Y200787D02*X370079Y204724D01*
X303150Y185039D02*X307087Y188976D01*
X352362Y177165D02*Y204724D01*
X286516Y227657D02*Y238189D01*
X285236Y226378D02*X286516Y227657D01*
X285236Y220472D02*Y226378D01*
X277756Y220472D02*Y208661D01*
G54D14*X259843Y230315D02*X257677Y228150D01*
X255020Y251969D02*X263780D01*
X259843Y246063D02*Y230315D01*
X267913Y246260D02*X267717Y246063D01*
X263780Y188976D02*Y255906D01*
X257677Y228150D02*X253740D01*
G54D12*X277756Y208661D02*X281496Y204921D01*
G54D14*X253740Y198819D02*Y228346D01*
X246260D02*Y218504D01*
Y198819D02*X250000Y195079D01*
X246260Y198819D02*Y208661D01*
X259843Y198819D02*X253740D01*
X259843Y185039D02*X263780Y188976D01*
X277756Y198819D02*X267717D01*
X277756D02*X277559Y199016D01*
G54D12*X276476Y188780D02*X281496D01*
X279331Y173031D02*X276476D01*
X281496Y175197D02*X279331Y173031D01*
X281496Y204921D02*Y175197D01*
G54D14*X255020Y185039D02*X259843D01*
X253740Y177559D02*Y171260D01*
X250000Y181299D02*X253740Y177559D01*
X250000Y181299D02*Y194980D01*
X244980Y181299D02*X250000D01*
G54D12*X297244Y169291D02*X311024Y183071D01*
G54D14*X253740Y235827D02*Y238189D01*
X246260Y228346D02*X253740Y235827D01*
X249803Y248228D02*X244980D01*
X253937Y244094D02*X249803Y248228D01*
X253937Y238189D02*Y244094D01*
X175000Y246181D02*X222559D01*
X222323D02*X231850Y255709D01*
X244980D01*
X246260Y238189D02*X239508D01*
X235000Y233681D01*
X155000D01*
X142579Y246102D01*
X104921D01*
G54D12*X286516Y169291D02*X297244D01*
X105000Y171181D02*X104921Y171102D01*
G54D14*X246260D01*
X187402Y188780D02*X244980D01*
X187598D02*X172402D01*
X140000Y221181D01*
G54D15*X190000Y126181D02*X228543D01*
X248031Y145669D01*
G54D12*X175197Y102362D02*X190000Y117165D01*
Y126181D01*
G54D15*X248031Y145669D02*X305118D01*
X314961Y155512D01*
Y209646D02*Y155512D01*
G54D12*X371732Y440945D02*X372047Y440630D01*
X383858Y423031D02*X374016D01*
Y438661D01*
X371890Y440787D01*
X356831Y387264D02*X351831Y392264D01*
X359705D02*X354331Y397638D01*
Y411417D01*
G54D11*Y423228D02*Y438346D01*
X351732Y440945D01*
G54D12*X344587Y397264D02*Y401476D01*
X340551Y405512D01*
Y411417D01*
G54D11*Y423228D02*Y439764D01*
X341732Y440945D01*
G54D12*X344587Y387264D02*X350925D01*
X364173Y417323D02*X365945Y415551D01*
X374016D01*
X369547Y387264D02*X356831D01*
X350925D02*X362205Y375984D01*
X351831Y392264D02*X344587D01*
X364075D02*X359705D01*
X383858Y366142D02*X385630Y367913D01*
Y372047D01*
X387795Y362205D02*X391732Y366142D01*
Y379921D01*
X389764Y381890D01*
X385630D01*
X364075Y382264D02*X378150D01*
Y391732D02*X374016D01*
X369547Y387264D01*
X378150Y401575D02*Y391732D01*
Y372047D02*X374213Y375984D01*
X362205D01*
G54D16*X143701Y421181D03*
G54D17*X147402Y451181D03*
G54D18*X235000Y411181D03*
G54D16*X183701Y421181D03*
G54D19*G36*
X175374Y455807D02*Y446555D01*
X184626D01*
Y455807D01*
X175374D01*
G37*
G54D17*X163701Y451181D03*
G54D19*G36*
X173110Y333071D02*Y319291D01*
X186890D01*
Y333071D01*
X173110D01*
G37*
G54D20*X219370Y326181D03*
G54D19*G36*
X92303Y351220D02*Y340984D01*
X102539D01*
Y351220D01*
X92303D01*
G37*
G54D21*X97421Y366102D03*
Y386102D03*
Y406102D03*
G54D22*X437008Y419764D03*
Y350709D03*
G54D18*X409449Y346457D03*
G54D19*G36*
X325984Y349213D02*Y343701D01*
X331496D01*
Y349213D01*
X325984D01*
G37*
G36*
X381102D02*Y343701D01*
X386614D01*
Y349213D01*
X381102D01*
G37*
G36*
X353543D02*Y343701D01*
X359055D01*
Y349213D01*
X353543D01*
G37*
G36*
X433758Y393014D02*Y386514D01*
X440258D01*
Y393014D01*
X433758D01*
G37*
G54D22*X437008Y399764D03*
Y409764D03*
G54D19*G36*
X388482Y444195D02*Y437695D01*
X394982D01*
Y444195D01*
X388482D01*
G37*
G54D22*X381732Y440945D03*
X371732D03*
X361732D03*
X351732D03*
X341732D03*
X331732D03*
X321732D03*
G54D19*G36*
X433758Y133171D02*Y126671D01*
X440258D01*
Y133171D01*
X433758D01*
G37*
G54D22*X437008Y139921D03*
Y149921D03*
G54D18*X455709Y170276D03*
G54D19*G36*
X365374Y105807D02*Y96555D01*
X374626D01*
Y105807D01*
X365374D01*
G37*
G54D23*X310000Y126181D03*
G54D19*G36*
X329921Y127772D02*Y122260D01*
X335433D01*
Y127772D01*
X329921D01*
G37*
G54D16*X332677Y105016D03*
G54D17*X386299Y101181D03*
X402598D03*
G54D18*X358268Y147638D03*
G54D19*G36*
X433758Y333959D02*Y327459D01*
X440258D01*
Y333959D01*
X433758D01*
G37*
G54D22*X437008Y340709D03*
G54D19*G36*
X433758Y278841D02*Y272341D01*
X440258D01*
Y278841D01*
X433758D01*
G37*
G54D22*X437008Y285591D03*
Y295591D03*
G54D18*X421260Y244094D03*
G54D16*X318740Y336457D03*
X328740Y326457D03*
X373858Y336457D03*
X383858Y326457D03*
X346299Y336457D03*
X356299Y326457D03*
G54D18*X175197Y102362D03*
G54D23*X140000Y101181D03*
X190000Y126181D03*
X175000D03*
X140000Y221181D03*
G54D19*G36*
X99803Y176220D02*Y165984D01*
X110039D01*
Y176220D01*
X99803D01*
G37*
G54D21*X104921Y191102D03*
Y211102D03*
G54D19*G36*
X99803Y251220D02*Y240984D01*
X110039D01*
Y251220D01*
X99803D01*
G37*
G54D21*X104921Y266102D03*
Y286102D03*
G54D23*X175000Y246181D03*
G54D24*X407382Y167815D02*X415453D01*
G54D25*X389764Y182087D02*Y178937D01*
G54D26*X437008Y183858D02*Y178740D01*
X411417Y183858D02*Y178740D01*
G54D25*X389764Y199016D02*Y195866D01*
G54D26*X437008Y222835D02*Y217717D01*
X411417Y222835D02*Y217717D01*
G54D25*X389764Y213583D02*Y210433D01*
G54D27*X344646Y284055D02*Y278740D01*
X339646Y284055D02*Y278740D01*
X334646Y284055D02*Y278740D01*
X329646Y284055D02*Y278740D01*
X324646Y284055D02*Y278740D01*
X319646Y284055D02*Y278740D01*
Y264567D02*Y259252D01*
X324646Y264567D02*Y259252D01*
X329646Y264567D02*Y259252D01*
G54D28*X327953Y240354D02*X329528D01*
G54D29*X325394Y206693D02*X328150D01*
X325394Y194882D02*X328150D01*
X325394Y187008D02*X328150D01*
X325394Y175197D02*X328150D01*
X318307Y247539D02*X319488D01*
X318307Y240650D02*X319488D01*
G54D27*X334646Y264567D02*Y259252D01*
X339646Y264567D02*Y259252D01*
X344646Y264567D02*Y259252D01*
G54D28*X327953Y247835D02*X329528D01*
X337795D02*X339370D01*
X337795Y240354D02*X339370D01*
G54D29*X341142Y206693D02*X343898D01*
X341142Y194882D02*X343898D01*
X341142Y187008D02*X343898D01*
X341142Y175197D02*X343898D01*
G54D28*X347638Y247835D02*X349213D01*
X363386D02*X364961D01*
X347638Y240354D02*X349213D01*
X363386D02*X364961D01*
G54D27*X349646Y264567D02*Y259252D01*
X368484Y264567D02*Y259252D01*
X373484Y264567D02*Y259252D01*
X378484Y264567D02*Y259252D01*
G54D29*X373425Y240650D02*X374606D01*
X373425Y247539D02*X374606D01*
G54D27*X349646Y284055D02*Y278740D01*
X378484Y284055D02*Y278740D01*
X373484Y284055D02*Y278740D01*
X368484Y284055D02*Y278740D01*
G54D28*X357480Y302953D02*X359055D01*
X357480Y295472D02*X359055D01*
X347638Y302953D02*X349213D01*
X347638Y295472D02*X349213D01*
G54D29*X337992Y295768D02*X339173D01*
X337992Y302657D02*X339173D01*
G54D25*X389764Y230512D02*Y227362D01*
G54D27*X413169Y284213D02*Y278898D01*
X408169Y284213D02*Y278898D01*
X403169Y284213D02*Y278898D01*
X398169Y284213D02*Y278898D01*
X383484Y284055D02*Y278740D01*
X398169Y264724D02*Y259409D01*
X403169Y264724D02*Y259409D01*
X408169Y264724D02*Y259409D01*
X413169Y264724D02*Y259409D01*
G54D28*X408661Y295472D02*X410236D01*
X408661Y302953D02*X410236D01*
X398819D02*X400394D01*
X398819Y295472D02*X400394D01*
G54D27*X383484Y264567D02*Y259252D01*
G54D28*X383071Y247835D02*X384646D01*
X383071Y240354D02*X384646D01*
G54D24*X407382Y151083D02*X415453D01*
G54D29*X410039Y141732D02*X412795D01*
X410039Y129921D02*X412795D01*
X356890Y206693D02*X359646D01*
X356890Y194882D02*X359646D01*
X356890Y187008D02*X359646D01*
X356890Y175197D02*X359646D01*
G54D28*X277756Y199606D02*Y198031D01*
X285236Y199606D02*Y198031D01*
G54D27*X275394Y188780D02*X277559D01*
X285433Y185039D02*X287598D01*
X275394Y181299D02*X277559D01*
X275394Y173031D02*X277559D01*
X275394Y165551D02*X277559D01*
X285433Y169291D02*X287598D01*
G54D28*X373228Y423031D02*X374803D01*
X373228Y415551D02*X374803D01*
X383071Y423031D02*X384646D01*
X383071Y415551D02*X384646D01*
G54D29*X352953Y411417D02*X355709D01*
X352953Y423228D02*X355709D01*
X339173D02*X341929D01*
G54D28*X385630Y402362D02*Y400787D01*
X378150Y402362D02*Y400787D01*
G54D29*X339173Y411417D02*X341929D01*
G54D27*Y397264D02*X347244D01*
X341929Y392264D02*X347244D01*
X341929Y387264D02*X347244D01*
X341929Y382264D02*X347244D01*
X361417D02*X366732D01*
X361417Y387264D02*X366732D01*
X361417Y392264D02*X366732D01*
X361417Y397264D02*X366732D01*
G54D28*X378150Y392520D02*Y390945D01*
X385630Y392520D02*Y390945D01*
X378150Y382677D02*Y381102D01*
X385630Y382677D02*Y381102D01*
Y372835D02*Y371260D01*
X378150Y372835D02*Y371260D01*
X285236Y209449D02*Y207874D01*
X277756Y209449D02*Y207874D01*
X285236Y221260D02*Y219685D01*
G54D27*X285433Y234252D02*X287598D01*
G54D28*X277756Y221260D02*Y219685D01*
Y264567D02*Y262992D01*
G54D27*X275394Y253740D02*X277559D01*
G54D28*X285236Y264567D02*Y262992D01*
G54D27*X285433Y250000D02*X287598D01*
X275394Y237992D02*X277559D01*
X275394Y230512D02*X277559D01*
X275394Y246260D02*X277559D01*
G54D28*X246260Y238976D02*Y237402D01*
X253740Y238976D02*Y237402D01*
G54D27*X243898Y255709D02*X246063D01*
X243898Y248228D02*X246063D01*
X253937Y251969D02*X256102D01*
G54D28*X246260Y172047D02*Y170472D01*
G54D27*X243898Y188780D02*X246063D01*
X243898Y181299D02*X246063D01*
G54D28*X253740Y172047D02*Y170472D01*
G54D27*X253937Y185039D02*X256102D01*
G54D29*X246555Y209252D02*Y208071D01*
X253445Y209252D02*Y208071D01*
G54D28*X246260Y199606D02*Y198031D01*
X253740Y199606D02*Y198031D01*
G54D29*X246555Y219094D02*Y217913D01*
X253445Y219094D02*Y217913D01*
G54D28*X246260Y229134D02*Y227559D01*
X253740Y229134D02*Y227559D01*
G54D30*X417323Y305118D03*
Y440945D03*
Y312992D03*
X364075Y403445D03*
X312992Y417323D03*
X393701Y391732D03*
Y415354D03*
X344587Y374902D03*
X336614Y358268D03*
Y370079D03*
X289370Y417323D03*
G54D31*X297244Y385827D03*
X312992Y381890D03*
X320866D03*
X297244Y377953D03*
G54D30*X356299Y279528D03*
X362205D03*
X366142Y291339D03*
Y299213D03*
X391732Y281555D03*
X332677Y253937D03*
X356299Y263780D03*
X362205D03*
X338583Y232283D03*
X324803Y233169D03*
X342520Y252953D03*
X419291Y261811D03*
X415354Y274606D03*
G54D31*X399606Y228937D03*
G54D30*X415354Y295276D03*
X383484Y268701D03*
X373484Y274606D03*
G54D31*X379921Y228937D03*
G54D30*X366142Y200787D03*
X334646Y222441D03*
X329646Y291339D03*
X334646Y274606D03*
Y268701D03*
X307087Y261811D03*
X314961D03*
X259843Y246063D03*
X267717D03*
Y198819D03*
X259843D03*
X269685Y228346D03*
X205000Y356181D03*
X348425Y190945D03*
X334646Y207677D03*
G54D32*G54D33*G54D32*G54D33*G54D32*G54D33*G54D32*G54D34*G54D30*G54D16*G54D35*G54D30*G54D16*G54D36*G54D23*G54D37*G54D34*G54D38*G54D35*G54D30*G54D38*G54D22*G54D38*G54D22*G54D38*G54D34*G54D38*G54D22*G54D35*G54D16*G54D31*G54D30*G54D16*G54D36*G54D35*G54D38*G54D22*G54D38*G54D22*G54D35*G54D30*G54D34*G54D35*G54D31*G54D37*G54D31*M02*
