G04 start of page 11 for group -4015 idx -4015 *
G04 Title: EW10A - linear power supply, toppaste *
G04 Creator: pcb 1.99z *
G04 CreationDate: Mon 08 Sep 2014 07:20:40 PM GMT UTC *
G04 For: eelco *
G04 Format: Gerber/RS-274X *
G04 PCB-Dimensions (mil): 5511.81 5511.81 *
G04 PCB-Coordinate-Origin: lower left *
%MOIN*%
%FSLAX25Y25*%
%LNTOPPASTE*%
%ADD135R,0.0413X0.0413*%
%ADD134R,0.0236X0.0236*%
%ADD133R,0.0748X0.0748*%
%ADD132R,0.0610X0.0610*%
%ADD131R,0.0453X0.0453*%
%ADD130R,0.0571X0.0571*%
G54D130*X407382Y167815D02*X415453D01*
X407382Y151083D02*X415453D01*
G54D131*X410039Y141732D02*X412795D01*
X410039Y129921D02*X412795D01*
G54D132*X389764Y199016D02*Y195866D01*
Y182087D02*Y178937D01*
G54D133*X437008Y222835D02*Y217717D01*
Y183858D02*Y178740D01*
X411417Y222835D02*Y217717D01*
Y183858D02*Y178740D01*
G54D132*X389764Y213583D02*Y210433D01*
Y230512D02*Y227362D01*
G54D134*X413169Y284213D02*Y278898D01*
X408169Y284213D02*Y278898D01*
X403169Y284213D02*Y278898D01*
X398169Y284213D02*Y278898D01*
Y264724D02*Y259409D01*
X403169Y264724D02*Y259409D01*
X408169Y264724D02*Y259409D01*
X413169Y264724D02*Y259409D01*
G54D131*X356890Y206693D02*X359646D01*
X356890Y194882D02*X359646D01*
X356890Y187008D02*X359646D01*
X356890Y175197D02*X359646D01*
X318307Y247539D02*X319488D01*
X318307Y240650D02*X319488D01*
G54D135*X327953Y247835D02*X329528D01*
X327953Y240354D02*X329528D01*
X347638Y247835D02*X349213D01*
X347638Y240354D02*X349213D01*
X337795Y247835D02*X339370D01*
X337795Y240354D02*X339370D01*
G54D134*X319646Y264567D02*Y259252D01*
X324646Y264567D02*Y259252D01*
X329646Y264567D02*Y259252D01*
X334646Y264567D02*Y259252D01*
X339646Y264567D02*Y259252D01*
X344646Y264567D02*Y259252D01*
X349646Y264567D02*Y259252D01*
Y284055D02*Y278740D01*
X344646Y284055D02*Y278740D01*
X339646Y284055D02*Y278740D01*
X334646Y284055D02*Y278740D01*
X329646Y284055D02*Y278740D01*
X324646Y284055D02*Y278740D01*
X319646Y284055D02*Y278740D01*
X368484Y264567D02*Y259252D01*
X373484Y264567D02*Y259252D01*
X378484Y264567D02*Y259252D01*
X383484Y264567D02*Y259252D01*
Y284055D02*Y278740D01*
X378484Y284055D02*Y278740D01*
X373484Y284055D02*Y278740D01*
X368484Y284055D02*Y278740D01*
G54D135*X408661Y295472D02*X410236D01*
X408661Y302953D02*X410236D01*
X357480D02*X359055D01*
X357480Y295472D02*X359055D01*
X347638Y302953D02*X349213D01*
X347638Y295472D02*X349213D01*
G54D131*X337992Y295768D02*X339173D01*
X337992Y302657D02*X339173D01*
G54D135*X398819Y302953D02*X400394D01*
X398819Y295472D02*X400394D01*
X373228Y423031D02*X374803D01*
X373228Y415551D02*X374803D01*
X383071Y423031D02*X384646D01*
X383071Y415551D02*X384646D01*
G54D131*X352953Y411417D02*X355709D01*
X352953Y423228D02*X355709D01*
X339173Y411417D02*X341929D01*
X339173Y423228D02*X341929D01*
G54D135*X385630Y402362D02*Y400787D01*
X378150Y402362D02*Y400787D01*
G54D134*X341929Y397264D02*X347244D01*
X341929Y392264D02*X347244D01*
X341929Y387264D02*X347244D01*
X341929Y382264D02*X347244D01*
X361417D02*X366732D01*
X361417Y387264D02*X366732D01*
X361417Y392264D02*X366732D01*
X361417Y397264D02*X366732D01*
G54D135*X378150Y392520D02*Y390945D01*
X385630Y392520D02*Y390945D01*
X378150Y382677D02*Y381102D01*
X385630Y382677D02*Y381102D01*
Y372835D02*Y371260D01*
X378150Y372835D02*Y371260D01*
X285236Y209449D02*Y207874D01*
X277756Y209449D02*Y207874D01*
X285236Y221260D02*Y219685D01*
X277756Y221260D02*Y219685D01*
Y264567D02*Y262992D01*
X285236Y264567D02*Y262992D01*
G54D134*X275394Y237992D02*X277559D01*
X275394Y230512D02*X277559D01*
X285433Y234252D02*X287598D01*
X275394Y253740D02*X277559D01*
X275394Y246260D02*X277559D01*
X285433Y250000D02*X287598D01*
G54D135*X277756Y199606D02*Y198031D01*
X285236Y199606D02*Y198031D01*
G54D134*X275394Y188780D02*X277559D01*
X275394Y181299D02*X277559D01*
X285433Y185039D02*X287598D01*
X275394Y173031D02*X277559D01*
X275394Y165551D02*X277559D01*
X285433Y169291D02*X287598D01*
G54D135*X246260Y238976D02*Y237402D01*
X253740Y238976D02*Y237402D01*
G54D134*X243898Y255709D02*X246063D01*
X243898Y248228D02*X246063D01*
X253937Y251969D02*X256102D01*
G54D135*X246260Y172047D02*Y170472D01*
X253740Y172047D02*Y170472D01*
G54D131*X246555Y209252D02*Y208071D01*
X253445Y209252D02*Y208071D01*
G54D135*X246260Y199606D02*Y198031D01*
X253740Y199606D02*Y198031D01*
G54D134*X243898Y188780D02*X246063D01*
X243898Y181299D02*X246063D01*
X253937Y185039D02*X256102D01*
G54D131*X246555Y219094D02*Y217913D01*
X253445Y219094D02*Y217913D01*
G54D135*X246260Y229134D02*Y227559D01*
X253740Y229134D02*Y227559D01*
G54D131*X341142Y206693D02*X343898D01*
X341142Y194882D02*X343898D01*
X341142Y187008D02*X343898D01*
X341142Y175197D02*X343898D01*
X325394Y206693D02*X328150D01*
X325394Y194882D02*X328150D01*
X325394Y187008D02*X328150D01*
X325394Y175197D02*X328150D01*
G54D135*X383071Y247835D02*X384646D01*
X383071Y240354D02*X384646D01*
G54D131*X373425Y240650D02*X374606D01*
X373425Y247539D02*X374606D01*
G54D135*X363386Y247835D02*X364961D01*
X363386Y240354D02*X364961D01*
M02*
