M48
INCH
T77C0.024
T76C0.016
T75C0.047
T74C0.040
T73C0.059
T72C0.083
T71C0.079
T70C0.055
T69C0.031
%
T76
X020500Y035618
X025984Y024606
X025984Y019882
X026772Y024606
X026772Y019882
X026969Y022835
X028937Y041732
X030709Y026181
X031299Y041732
X031496Y026181
X032480Y023317
X032965Y029134
X033268Y025394
X033465Y027461
X033465Y026870
X033465Y022244
X033465Y020768
X033661Y037008
X033661Y035827
X033858Y023228
X034252Y025295
X034459Y037490
X034843Y019094
X035630Y027953
X035630Y026378
X036220Y027953
X036220Y026378
X036407Y040344
X036614Y029921
X036614Y029134
X036614Y020079
X037348Y027461
X038348Y026870
X039173Y028156
X039370Y041535
X039370Y039173
X041535Y029528
X041535Y027461
X041732Y044094
X041732Y031299
X041732Y030512
X041929Y026181
T77
X029724Y038583
X029724Y037795
X031299Y038189
X032087Y038189
X037992Y022894
X039961Y022894
T69
X014370Y042118
X018370Y042118
X031874Y033646
X032874Y034646
X032874Y032646
X033268Y012502
X033268Y010502
X034630Y033646
X035630Y034646
X035630Y032646
X037386Y033646
X038386Y034646
X038386Y032646
T74
X032173Y044094
X033173Y044094
X034173Y044094
X035173Y044094
X036173Y044094
X037173Y044094
X038173Y044094
X039173Y044094
X043701Y041976
X043701Y040976
X043701Y039976
X043701Y038976
X043701Y035071
X043701Y034071
X043701Y033071
X043701Y029559
X043701Y028559
X043701Y027559
X043701Y014992
X043701Y013992
X043701Y012992
T75
X014000Y022118
X014000Y010118
X017500Y024618
X017500Y012618
X019000Y012618
X031000Y012618
T70
X014740Y045118
X016370Y045118
X018000Y045118
X037000Y010118
X038630Y010118
X040260Y010118
T73
X009742Y040610
X009742Y038610
X009742Y036610
X009742Y034610
X010492Y028610
X010492Y026610
X010492Y024610
X010492Y021110
X010492Y019110
X010492Y017110
T71
X017520Y010236
X023500Y041118
X035827Y014764
X040945Y034646
X042126Y024409
X045571Y017028
T72
X018000Y032618
X021937Y032618
M30
