G04 start of page 7 for group -4063 idx -4063 *
G04 Title: EW10A - linear power supply, componentmask *
G04 Creator: pcb 1.99z *
G04 CreationDate: Mon 08 Sep 2014 07:20:40 PM GMT UTC *
G04 For: eelco *
G04 Format: Gerber/RS-274X *
G04 PCB-Dimensions (mil): 5511.81 5511.81 *
G04 PCB-Coordinate-Origin: lower left *
%MOIN*%
%FSLAX25Y25*%
%LNTOPMASK*%
%ADD99R,0.0453X0.0453*%
%ADD98R,0.0413X0.0413*%
%ADD97R,0.0236X0.0236*%
%ADD96R,0.0748X0.0748*%
%ADD95R,0.0610X0.0610*%
%ADD94R,0.0571X0.0571*%
%ADD93C,0.0472*%
%ADD92C,0.0315*%
%ADD91C,0.0886*%
%ADD90C,0.1160*%
%ADD89C,0.0710*%
%ADD88C,0.1083*%
%ADD87C,0.1437*%
%ADD86C,0.2165*%
%ADD85C,0.0001*%
%ADD84C,0.1319*%
%ADD83C,0.0984*%
%ADD82C,0.0610*%
%ADD81C,0.1516*%
G54D81*X98425Y452756D03*
G54D82*X143701Y421181D03*
G54D83*X147402Y451181D03*
G54D84*X235000Y411181D03*
G54D82*X183701Y421181D03*
G54D85*G36*
X175079Y456102D02*Y446260D01*
X184921D01*
Y456102D01*
X175079D01*
G37*
G54D83*X163701Y451181D03*
G54D86*X129882D03*
G54D85*G36*
X172815Y333366D02*Y318996D01*
X187185D01*
Y333366D01*
X172815D01*
G37*
G54D87*X219370Y326181D03*
G54D85*G36*
X92008Y351516D02*Y340689D01*
X102835D01*
Y351516D01*
X92008D01*
G37*
G54D88*X97421Y366102D03*
Y386102D03*
Y406102D03*
G54D81*X452756Y452756D03*
G54D89*X437008Y419764D03*
Y350709D03*
G54D84*X409449Y346457D03*
G54D85*G36*
X325689Y349508D02*Y343406D01*
X331791D01*
Y349508D01*
X325689D01*
G37*
G36*
X380807D02*Y343406D01*
X386909D01*
Y349508D01*
X380807D01*
G37*
G36*
X353248D02*Y343406D01*
X359350D01*
Y349508D01*
X353248D01*
G37*
G36*
X433458Y393314D02*Y386214D01*
X440558D01*
Y393314D01*
X433458D01*
G37*
G54D89*X437008Y399764D03*
Y409764D03*
G54D90*X450508Y382264D03*
G54D85*G36*
X388182Y444495D02*Y437395D01*
X395282D01*
Y444495D01*
X388182D01*
G37*
G54D89*X381732Y440945D03*
X371732D03*
X361732D03*
X351732D03*
G54D90*X399232Y454445D03*
G54D89*X341732Y440945D03*
X331732D03*
X321732D03*
G54D81*X452756Y98425D03*
G54D85*G36*
X433458Y133471D02*Y126371D01*
X440558D01*
Y133471D01*
X433458D01*
G37*
G54D89*X437008Y139921D03*
Y149921D03*
G54D90*X450508Y122421D03*
G54D84*X455709Y170276D03*
G54D85*G36*
X365079Y106102D02*Y96260D01*
X374921D01*
Y106102D01*
X365079D01*
G37*
G54D91*X310000Y126181D03*
G54D85*G36*
X329626Y128067D02*Y121965D01*
X335728D01*
Y128067D01*
X329626D01*
G37*
G54D82*X332677Y105016D03*
G54D83*X386299Y101181D03*
X402598D03*
G54D86*X420118D03*
G54D84*X358268Y147638D03*
G54D85*G36*
X433458Y334259D02*Y327159D01*
X440558D01*
Y334259D01*
X433458D01*
G37*
G54D90*X450508Y323209D03*
G54D89*X437008Y340709D03*
G54D85*G36*
X433458Y279141D02*Y272041D01*
X440558D01*
Y279141D01*
X433458D01*
G37*
G54D89*X437008Y285591D03*
Y295591D03*
G54D90*X450508Y268091D03*
G54D84*X421260Y244094D03*
G54D82*X318740Y336457D03*
X328740Y326457D03*
X373858Y336457D03*
X383858Y326457D03*
X346299Y336457D03*
X356299Y326457D03*
G54D81*X98425Y98425D03*
G54D84*X175197Y102362D03*
G54D91*X140000Y101181D03*
X190000Y126181D03*
X175000D03*
X140000Y221181D03*
G54D85*G36*
X99508Y176516D02*Y165689D01*
X110335D01*
Y176516D01*
X99508D01*
G37*
G54D88*X104921Y191102D03*
Y211102D03*
G54D85*G36*
X99508Y251516D02*Y240689D01*
X110335D01*
Y251516D01*
X99508D01*
G37*
G54D88*X104921Y266102D03*
Y286102D03*
G54D91*X175000Y246181D03*
G54D92*X417323Y305118D03*
Y440945D03*
Y312992D03*
X364075Y403445D03*
X312992Y417323D03*
X393701Y391732D03*
Y415354D03*
X344587Y374902D03*
X336614Y358268D03*
Y370079D03*
X289370Y417323D03*
G54D93*X297244Y385827D03*
X312992Y381890D03*
X320866D03*
X297244Y377953D03*
G54D92*X356299Y279528D03*
X362205D03*
X366142Y291339D03*
Y299213D03*
X391732Y281555D03*
X332677Y253937D03*
X356299Y263780D03*
X362205D03*
X338583Y232283D03*
X324803Y233169D03*
X342520Y252953D03*
X419291Y261811D03*
X415354Y274606D03*
G54D93*X399606Y228937D03*
G54D92*X415354Y295276D03*
X383484Y268701D03*
X373484Y274606D03*
G54D93*X379921Y228937D03*
G54D92*X366142Y200787D03*
X329646Y291339D03*
X334646Y274606D03*
Y268701D03*
X307087Y261811D03*
X314961D03*
X259843Y246063D03*
X267717D03*
Y198819D03*
X259843D03*
X269685Y228346D03*
X205000Y356181D03*
X348425Y190945D03*
X334646Y207677D03*
G54D94*X407382Y167815D02*X415453D01*
G54D95*X389764Y182087D02*Y178937D01*
G54D96*X437008Y183858D02*Y178740D01*
X411417Y183858D02*Y178740D01*
G54D95*X389764Y199016D02*Y195866D01*
G54D96*X437008Y222835D02*Y217717D01*
X411417Y222835D02*Y217717D01*
G54D95*X389764Y213583D02*Y210433D01*
G54D97*X344646Y284055D02*Y278740D01*
X339646Y284055D02*Y278740D01*
X334646Y284055D02*Y278740D01*
X329646Y284055D02*Y278740D01*
X324646Y284055D02*Y278740D01*
X319646Y284055D02*Y278740D01*
Y264567D02*Y259252D01*
X324646Y264567D02*Y259252D01*
X329646Y264567D02*Y259252D01*
G54D98*X327953Y240354D02*X329528D01*
G54D99*X325394Y206693D02*X328150D01*
X325394Y194882D02*X328150D01*
X325394Y187008D02*X328150D01*
X325394Y175197D02*X328150D01*
X318307Y247539D02*X319488D01*
X318307Y240650D02*X319488D01*
G54D97*X334646Y264567D02*Y259252D01*
X339646Y264567D02*Y259252D01*
X344646Y264567D02*Y259252D01*
G54D98*X327953Y247835D02*X329528D01*
X337795D02*X339370D01*
X337795Y240354D02*X339370D01*
G54D99*X341142Y206693D02*X343898D01*
X341142Y194882D02*X343898D01*
X341142Y187008D02*X343898D01*
X341142Y175197D02*X343898D01*
G54D98*X347638Y247835D02*X349213D01*
X363386D02*X364961D01*
X347638Y240354D02*X349213D01*
X363386D02*X364961D01*
G54D97*X349646Y264567D02*Y259252D01*
X368484Y264567D02*Y259252D01*
X373484Y264567D02*Y259252D01*
X378484Y264567D02*Y259252D01*
G54D99*X373425Y240650D02*X374606D01*
X373425Y247539D02*X374606D01*
G54D97*X349646Y284055D02*Y278740D01*
X378484Y284055D02*Y278740D01*
X373484Y284055D02*Y278740D01*
X368484Y284055D02*Y278740D01*
G54D98*X357480Y302953D02*X359055D01*
X357480Y295472D02*X359055D01*
X347638Y302953D02*X349213D01*
X347638Y295472D02*X349213D01*
G54D99*X337992Y295768D02*X339173D01*
X337992Y302657D02*X339173D01*
G54D95*X389764Y230512D02*Y227362D01*
G54D97*X413169Y284213D02*Y278898D01*
X408169Y284213D02*Y278898D01*
X403169Y284213D02*Y278898D01*
X398169Y284213D02*Y278898D01*
X383484Y284055D02*Y278740D01*
X398169Y264724D02*Y259409D01*
X403169Y264724D02*Y259409D01*
X408169Y264724D02*Y259409D01*
X413169Y264724D02*Y259409D01*
G54D98*X408661Y295472D02*X410236D01*
X408661Y302953D02*X410236D01*
X398819D02*X400394D01*
X398819Y295472D02*X400394D01*
G54D97*X383484Y264567D02*Y259252D01*
G54D98*X383071Y247835D02*X384646D01*
X383071Y240354D02*X384646D01*
G54D94*X407382Y151083D02*X415453D01*
G54D99*X410039Y141732D02*X412795D01*
X410039Y129921D02*X412795D01*
X356890Y206693D02*X359646D01*
X356890Y194882D02*X359646D01*
X356890Y187008D02*X359646D01*
X356890Y175197D02*X359646D01*
G54D98*X277756Y199606D02*Y198031D01*
X285236Y199606D02*Y198031D01*
G54D97*X275394Y188780D02*X277559D01*
X285433Y185039D02*X287598D01*
X275394Y181299D02*X277559D01*
X275394Y173031D02*X277559D01*
X275394Y165551D02*X277559D01*
X285433Y169291D02*X287598D01*
G54D98*X373228Y423031D02*X374803D01*
X373228Y415551D02*X374803D01*
X383071Y423031D02*X384646D01*
X383071Y415551D02*X384646D01*
G54D99*X352953Y411417D02*X355709D01*
X352953Y423228D02*X355709D01*
X339173D02*X341929D01*
G54D98*X385630Y402362D02*Y400787D01*
X378150Y402362D02*Y400787D01*
G54D99*X339173Y411417D02*X341929D01*
G54D97*Y397264D02*X347244D01*
X341929Y392264D02*X347244D01*
X341929Y387264D02*X347244D01*
X341929Y382264D02*X347244D01*
X361417D02*X366732D01*
X361417Y387264D02*X366732D01*
X361417Y392264D02*X366732D01*
X361417Y397264D02*X366732D01*
G54D98*X378150Y392520D02*Y390945D01*
X385630Y392520D02*Y390945D01*
X378150Y382677D02*Y381102D01*
X385630Y382677D02*Y381102D01*
Y372835D02*Y371260D01*
X378150Y372835D02*Y371260D01*
X285236Y209449D02*Y207874D01*
X277756Y209449D02*Y207874D01*
X285236Y221260D02*Y219685D01*
G54D97*X285433Y234252D02*X287598D01*
G54D98*X277756Y221260D02*Y219685D01*
Y264567D02*Y262992D01*
G54D97*X275394Y253740D02*X277559D01*
G54D98*X285236Y264567D02*Y262992D01*
G54D97*X285433Y250000D02*X287598D01*
X275394Y237992D02*X277559D01*
X275394Y230512D02*X277559D01*
X275394Y246260D02*X277559D01*
G54D98*X246260Y238976D02*Y237402D01*
X253740Y238976D02*Y237402D01*
G54D97*X243898Y255709D02*X246063D01*
X243898Y248228D02*X246063D01*
X253937Y251969D02*X256102D01*
G54D98*X246260Y172047D02*Y170472D01*
G54D97*X243898Y188780D02*X246063D01*
X243898Y181299D02*X246063D01*
G54D98*X253740Y172047D02*Y170472D01*
G54D97*X253937Y185039D02*X256102D01*
G54D99*X246555Y209252D02*Y208071D01*
X253445Y209252D02*Y208071D01*
G54D98*X246260Y199606D02*Y198031D01*
X253740Y199606D02*Y198031D01*
G54D99*X246555Y219094D02*Y217913D01*
X253445Y219094D02*Y217913D01*
G54D98*X246260Y229134D02*Y227559D01*
X253740Y229134D02*Y227559D01*
M02*
