G04 start of page 12 for group -4014 idx -4014 *
G04 Title: EW10A - linear power supply, bottompaste *
G04 Creator: pcb 1.99z *
G04 CreationDate: Mon 08 Sep 2014 07:20:40 PM GMT UTC *
G04 For: eelco *
G04 Format: Gerber/RS-274X *
G04 PCB-Dimensions (mil): 5511.81 5511.81 *
G04 PCB-Coordinate-Origin: lower left *
%MOIN*%
%FSLAX25Y25*%
%LNBOTTOMPASTE*%
%ADD140R,0.0236X0.0236*%
%ADD139R,0.0453X0.0453*%
%ADD138R,0.0571X0.0571*%
%ADD137R,0.0866X0.0866*%
%ADD136R,0.0748X0.0748*%
G54D136*X172953Y151181D02*X178071D01*
X211929D02*X217047D01*
X177953Y291181D02*X183071D01*
X216929D02*X222047D01*
G54D137*X288681Y122953D02*Y119409D01*
X261319Y122953D02*Y119409D01*
G54D138*X348327Y113681D02*X356398D01*
X348327Y96949D02*X356398D01*
X375886Y130413D02*X383957D01*
X375886Y113681D02*X383957D01*
G54D139*X336122Y282087D02*Y280906D01*
X329232Y282087D02*Y280906D01*
X333169Y262402D02*Y261220D01*
X340059Y262402D02*Y261220D01*
X382894Y263287D02*X384075D01*
X382894Y256398D02*X384075D01*
X372894Y280020D02*X374075D01*
X372894Y286909D02*X374075D01*
X343996Y382480D02*Y381299D01*
X337106Y382480D02*Y381299D01*
X364665Y398228D02*Y397047D01*
X371555Y398228D02*Y397047D01*
G54D140*X330906Y244291D02*Y242126D01*
X338386Y244291D02*Y242126D01*
X334646Y234252D02*Y232087D01*
X318701Y234252D02*Y232087D01*
X311220Y234252D02*Y232087D01*
X314961Y244291D02*Y242126D01*
M02*
