G04 start of page 3 for group 3 idx 2 *
G04 Title: EW10A - linear power supply, bottom-power *
G04 Creator: pcb 1.99z *
G04 CreationDate: Mon 08 Sep 2014 07:20:40 PM GMT UTC *
G04 For: eelco *
G04 Format: Gerber/RS-274X *
G04 PCB-Dimensions (mil): 5511.81 5511.81 *
G04 PCB-Coordinate-Origin: lower left *
%MOIN*%
%FSLAX25Y25*%
%LNBOTTOM*%
%ADD67C,0.0400*%
%ADD66C,0.0591*%
%ADD65C,0.1252*%
%ADD64C,0.0787*%
%ADD63C,0.1339*%
%ADD62C,0.0236*%
%ADD61C,0.0157*%
%ADD60C,0.0472*%
%ADD59C,0.0315*%
%ADD58R,0.0748X0.0748*%
%ADD57R,0.0866X0.0866*%
%ADD56R,0.0571X0.0571*%
%ADD55R,0.0236X0.0236*%
%ADD54R,0.0453X0.0453*%
%ADD53C,0.0827*%
%ADD52C,0.0650*%
%ADD51C,0.1024*%
%ADD50C,0.1378*%
%ADD49C,0.1260*%
%ADD48C,0.0925*%
%ADD47C,0.0551*%
%ADD46C,0.1575*%
%ADD45C,0.1500*%
%ADD44C,0.1000*%
%ADD43C,0.0001*%
%ADD42C,0.0197*%
%ADD41C,0.0500*%
%ADD40C,0.0295*%
%ADD39C,0.0118*%
G54D39*X356299Y263780D02*Y279528D01*
X366142Y291339D02*Y299213D01*
X419291Y261811D02*Y303150D01*
X417323Y305118D01*
X362205Y263780D02*Y279528D01*
X437008Y295591D02*X419606Y312992D01*
X417323D01*
G54D40*X383858Y103622D02*X386299Y101181D01*
X383858Y103622D02*Y113681D01*
G54D41*X385000Y86181D02*X386299Y87480D01*
Y101181D01*
G54D40*X383858Y113681D02*X352362D01*
G54D39*X417323Y440945D02*X391732D01*
X336614Y358268D02*Y370079D01*
X289370Y417323D02*X312992D01*
G54D41*X163701Y451181D02*Y441181D01*
X155701Y433181D01*
G54D39*X332677Y253937D02*Y250000D01*
X307087Y261811D02*X314961D01*
X334646Y207677D02*Y222441D01*
X205000Y356181D02*Y141181D01*
X190000Y126181D01*
X332677Y250000D02*X330906Y248228D01*
Y243209D01*
X314961D01*
X334646Y233169D02*X318701D01*
G54D42*X267717Y246063D02*X259843D01*
X267717Y198819D02*X259843D01*
G54D39*X348425Y190945D02*X358268Y200787D01*
X366142D01*
G54D41*X385000Y86181D02*X130000D01*
X84000Y425181D02*Y141181D01*
X155701Y433181D02*X92000D01*
X84000Y425181D01*
X130000Y86181D02*X119000Y97181D01*
Y106181D01*
X84000Y141181D01*
G54D43*G36*
X261811Y137795D02*X238189D01*
Y271654D01*
X261811D01*
Y248047D01*
X261484D01*
X261361Y248152D01*
X261015Y248364D01*
X260641Y248519D01*
X260247Y248614D01*
X259843Y248646D01*
X259438Y248614D01*
X259044Y248519D01*
X258670Y248364D01*
X258324Y248152D01*
X258016Y247889D01*
X257753Y247581D01*
X257541Y247236D01*
X257386Y246861D01*
X257292Y246467D01*
X257260Y246063D01*
X257292Y245659D01*
X257386Y245265D01*
X257541Y244890D01*
X257753Y244545D01*
X258016Y244237D01*
X258324Y243974D01*
X258670Y243762D01*
X259044Y243607D01*
X259438Y243512D01*
X259843Y243480D01*
X260247Y243512D01*
X260641Y243607D01*
X261015Y243762D01*
X261361Y243974D01*
X261484Y244079D01*
X261811D01*
Y200803D01*
X261484D01*
X261361Y200908D01*
X261015Y201120D01*
X260641Y201275D01*
X260247Y201370D01*
X259843Y201402D01*
X259438Y201370D01*
X259044Y201275D01*
X258670Y201120D01*
X258324Y200908D01*
X258016Y200645D01*
X257753Y200337D01*
X257541Y199991D01*
X257386Y199617D01*
X257292Y199223D01*
X257260Y198819D01*
X257292Y198415D01*
X257386Y198021D01*
X257541Y197646D01*
X257753Y197301D01*
X258016Y196993D01*
X258324Y196729D01*
X258670Y196518D01*
X259044Y196363D01*
X259438Y196268D01*
X259843Y196236D01*
X260247Y196268D01*
X260641Y196363D01*
X261015Y196518D01*
X261361Y196729D01*
X261484Y196835D01*
X261811D01*
Y137795D01*
G37*
G36*
X371555Y276970D02*X371894Y276970D01*
Y276634D01*
X371658Y276433D01*
X371555Y276312D01*
Y276970D01*
G37*
G36*
X393701Y468504D02*Y445692D01*
X388247Y445681D01*
X388017Y445626D01*
X387799Y445536D01*
X387598Y445412D01*
X387418Y445259D01*
X387265Y445079D01*
X387142Y444878D01*
X387051Y444660D01*
X386996Y444430D01*
X386982Y444195D01*
X386996Y437460D01*
X387051Y437230D01*
X387142Y437012D01*
X387265Y436810D01*
X387418Y436631D01*
X387598Y436478D01*
X387799Y436354D01*
X388017Y436264D01*
X388247Y436209D01*
X388482Y436195D01*
X393701Y436206D01*
Y137795D01*
X392873D01*
X392697Y137809D01*
X392520Y137795D01*
X385564D01*
Y253353D01*
X386462Y253354D01*
X386583Y253383D01*
X386697Y253430D01*
X386803Y253495D01*
X386897Y253575D01*
X386978Y253670D01*
X387042Y253775D01*
X387090Y253890D01*
X387119Y254010D01*
X387126Y254134D01*
X387119Y258785D01*
X387090Y258905D01*
X387042Y259020D01*
X386978Y259126D01*
X386897Y259220D01*
X386803Y259300D01*
X386697Y259365D01*
X386583Y259413D01*
X386462Y259442D01*
X386339Y259449D01*
X385564Y259448D01*
Y260242D01*
X386462Y260244D01*
X386583Y260272D01*
X386697Y260320D01*
X386803Y260385D01*
X386897Y260465D01*
X386978Y260559D01*
X387042Y260665D01*
X387090Y260780D01*
X387119Y260900D01*
X387126Y261024D01*
X387119Y265675D01*
X387090Y265795D01*
X387042Y265910D01*
X386978Y266015D01*
X386897Y266110D01*
X386803Y266190D01*
X386697Y266255D01*
X386583Y266302D01*
X386462Y266331D01*
X386339Y266339D01*
X385564Y266338D01*
Y267171D01*
X385574Y267183D01*
X385785Y267528D01*
X385941Y267903D01*
X386035Y268297D01*
X386059Y268701D01*
X386035Y269105D01*
X385941Y269499D01*
X385785Y269873D01*
X385574Y270219D01*
X385564Y270230D01*
Y322557D01*
X385796Y322653D01*
X386368Y323003D01*
X386877Y323438D01*
X387312Y323947D01*
X387662Y324519D01*
X387918Y325137D01*
X388075Y325789D01*
X388114Y326457D01*
X388075Y327125D01*
X387918Y327776D01*
X387662Y328395D01*
X387312Y328966D01*
X386877Y329475D01*
X386368Y329910D01*
X385796Y330260D01*
X385564Y330357D01*
Y342212D01*
X386850Y342215D01*
X387079Y342270D01*
X387297Y342360D01*
X387499Y342484D01*
X387678Y342637D01*
X387831Y342816D01*
X387955Y343018D01*
X388045Y343236D01*
X388100Y343465D01*
X388114Y343701D01*
X388100Y349448D01*
X388045Y349678D01*
X387955Y349896D01*
X387831Y350097D01*
X387678Y350277D01*
X387499Y350430D01*
X387297Y350553D01*
X387079Y350644D01*
X386850Y350699D01*
X386614Y350713D01*
X385564Y350710D01*
Y438615D01*
X385676Y438649D01*
X385782Y438701D01*
X385879Y438768D01*
X385963Y438850D01*
X386035Y438945D01*
X386088Y439050D01*
X386247Y439453D01*
X386364Y439870D01*
X386443Y440296D01*
X386482Y440728D01*
Y441162D01*
X386443Y441593D01*
X386364Y442020D01*
X386247Y442437D01*
X386092Y442842D01*
X386037Y442947D01*
X385966Y443042D01*
X385881Y443124D01*
X385784Y443192D01*
X385677Y443244D01*
X385564Y443278D01*
Y468504D01*
X393701D01*
G37*
G36*
X385564Y350710D02*X383484Y350705D01*
Y436529D01*
X383629Y436585D01*
X383734Y436640D01*
X383829Y436711D01*
X383911Y436796D01*
X383979Y436894D01*
X384031Y437000D01*
X384066Y437114D01*
X384082Y437231D01*
X384080Y437350D01*
X384060Y437466D01*
X384021Y437579D01*
X383965Y437683D01*
X383894Y437778D01*
X383809Y437860D01*
X383712Y437928D01*
X383605Y437980D01*
X383492Y438015D01*
X383484Y438016D01*
Y443877D01*
X383491Y443878D01*
X383604Y443913D01*
X383710Y443964D01*
X383807Y444032D01*
X383892Y444114D01*
X383963Y444208D01*
X384018Y444313D01*
X384056Y444424D01*
X384077Y444540D01*
X384079Y444658D01*
X384063Y444775D01*
X384028Y444888D01*
X383976Y444994D01*
X383909Y445091D01*
X383827Y445176D01*
X383733Y445247D01*
X383627Y445300D01*
X383484Y445357D01*
Y468504D01*
X385564D01*
Y443278D01*
X385564Y443279D01*
X385446Y443295D01*
X385328Y443293D01*
X385211Y443272D01*
X385099Y443234D01*
X384994Y443178D01*
X384899Y443107D01*
X384817Y443021D01*
X384749Y442924D01*
X384697Y442818D01*
X384662Y442704D01*
X384646Y442587D01*
X384648Y442468D01*
X384669Y442351D01*
X384709Y442240D01*
X384818Y441965D01*
X384898Y441679D01*
X384952Y441388D01*
X384979Y441093D01*
Y440797D01*
X384952Y440502D01*
X384898Y440210D01*
X384818Y439925D01*
X384712Y439648D01*
X384672Y439538D01*
X384651Y439421D01*
X384649Y439303D01*
X384666Y439186D01*
X384700Y439073D01*
X384752Y438967D01*
X384820Y438871D01*
X384901Y438786D01*
X384996Y438715D01*
X385100Y438659D01*
X385212Y438621D01*
X385328Y438600D01*
X385446Y438598D01*
X385563Y438614D01*
X385564Y438615D01*
Y350710D01*
G37*
G36*
Y330357D02*X385177Y330517D01*
X384526Y330673D01*
X383858Y330726D01*
X383484Y330696D01*
Y342207D01*
X385564Y342212D01*
Y330357D01*
G37*
G36*
Y270230D02*X385311Y270527D01*
X385002Y270790D01*
X384657Y271002D01*
X384282Y271157D01*
X383888Y271252D01*
X383484Y271284D01*
Y322217D01*
X383858Y322188D01*
X384526Y322240D01*
X385177Y322397D01*
X385564Y322557D01*
Y270230D01*
G37*
G36*
Y266338D02*X385075Y266337D01*
Y266673D01*
X385311Y266875D01*
X385564Y267171D01*
Y266338D01*
G37*
G36*
Y259448D02*X383484Y259445D01*
Y260240D01*
X385564Y260242D01*
Y259448D01*
G37*
G36*
Y137795D02*X383484D01*
Y253350D01*
X385564Y253353D01*
Y137795D01*
G37*
G36*
X383484D02*X377901D01*
Y335094D01*
X377918Y335137D01*
X378075Y335789D01*
X378114Y336457D01*
X378075Y337125D01*
X377918Y337776D01*
X377901Y337819D01*
Y438611D01*
X377901Y438611D01*
X378018Y438595D01*
X378137Y438597D01*
X378254Y438617D01*
X378366Y438656D01*
X378471Y438712D01*
X378565Y438783D01*
X378648Y438868D01*
X378716Y438966D01*
X378768Y439072D01*
X378802Y439186D01*
X378819Y439303D01*
X378817Y439422D01*
X378796Y439538D01*
X378755Y439650D01*
X378646Y439925D01*
X378566Y440210D01*
X378513Y440502D01*
X378486Y440797D01*
Y441093D01*
X378513Y441388D01*
X378566Y441679D01*
X378646Y441965D01*
X378752Y442242D01*
X378793Y442352D01*
X378813Y442468D01*
X378815Y442587D01*
X378799Y442703D01*
X378764Y442816D01*
X378713Y442922D01*
X378645Y443019D01*
X378563Y443104D01*
X378469Y443175D01*
X378365Y443231D01*
X378253Y443269D01*
X378137Y443290D01*
X378019Y443292D01*
X377902Y443275D01*
X377901Y443275D01*
Y468504D01*
X383484D01*
Y445357D01*
X383224Y445460D01*
X382807Y445577D01*
X382381Y445655D01*
X381949Y445695D01*
X381516D01*
X381084Y445655D01*
X380658Y445577D01*
X380240Y445460D01*
X379835Y445305D01*
X379730Y445250D01*
X379635Y445179D01*
X379553Y445093D01*
X379485Y444996D01*
X379433Y444890D01*
X379399Y444776D01*
X379382Y444659D01*
X379384Y444540D01*
X379405Y444423D01*
X379443Y444311D01*
X379499Y444207D01*
X379571Y444112D01*
X379656Y444029D01*
X379753Y443962D01*
X379860Y443910D01*
X379973Y443875D01*
X380090Y443858D01*
X380209Y443861D01*
X380326Y443881D01*
X380437Y443922D01*
X380712Y444031D01*
X380998Y444111D01*
X381289Y444165D01*
X381584Y444192D01*
X381880D01*
X382175Y444165D01*
X382467Y444111D01*
X382752Y444031D01*
X383029Y443925D01*
X383140Y443884D01*
X383256Y443864D01*
X383374Y443862D01*
X383484Y443877D01*
Y438016D01*
X383374Y438031D01*
X383256Y438029D01*
X383139Y438009D01*
X383028Y437968D01*
X382752Y437859D01*
X382467Y437779D01*
X382175Y437725D01*
X381880Y437698D01*
X381584D01*
X381289Y437725D01*
X380998Y437779D01*
X380712Y437859D01*
X380436Y437965D01*
X380325Y438005D01*
X380209Y438026D01*
X380091Y438028D01*
X379974Y438012D01*
X379861Y437977D01*
X379755Y437925D01*
X379658Y437858D01*
X379573Y437776D01*
X379502Y437681D01*
X379447Y437577D01*
X379408Y437466D01*
X379388Y437349D01*
X379385Y437231D01*
X379402Y437114D01*
X379436Y437001D01*
X379488Y436895D01*
X379556Y436799D01*
X379638Y436714D01*
X379732Y436643D01*
X379837Y436589D01*
X380240Y436430D01*
X380658Y436313D01*
X381084Y436234D01*
X381516Y436195D01*
X381949D01*
X382381Y436234D01*
X382807Y436313D01*
X383224Y436430D01*
X383484Y436529D01*
Y350705D01*
X380867Y350699D01*
X380637Y350644D01*
X380419Y350553D01*
X380218Y350430D01*
X380038Y350277D01*
X379885Y350097D01*
X379762Y349896D01*
X379671Y349678D01*
X379616Y349448D01*
X379602Y349213D01*
X379616Y343465D01*
X379671Y343236D01*
X379762Y343018D01*
X379885Y342816D01*
X380038Y342637D01*
X380218Y342484D01*
X380419Y342360D01*
X380637Y342270D01*
X380867Y342215D01*
X381102Y342201D01*
X383484Y342207D01*
Y330696D01*
X383190Y330673D01*
X382539Y330517D01*
X381920Y330260D01*
X381349Y329910D01*
X380840Y329475D01*
X380405Y328966D01*
X380055Y328395D01*
X379798Y327776D01*
X379642Y327125D01*
X379589Y326457D01*
X379642Y325789D01*
X379798Y325137D01*
X380055Y324519D01*
X380405Y323947D01*
X380840Y323438D01*
X381349Y323003D01*
X381920Y322653D01*
X382539Y322397D01*
X383190Y322240D01*
X383484Y322217D01*
Y271284D01*
X383080Y271252D01*
X382686Y271157D01*
X382312Y271002D01*
X381966Y270790D01*
X381658Y270527D01*
X381395Y270219D01*
X381183Y269873D01*
X381028Y269499D01*
X380933Y269105D01*
X380902Y268701D01*
X380933Y268297D01*
X381028Y267903D01*
X381183Y267528D01*
X381395Y267183D01*
X381658Y266875D01*
X381894Y266673D01*
Y266333D01*
X380506Y266331D01*
X380386Y266302D01*
X380271Y266255D01*
X380166Y266190D01*
X380071Y266110D01*
X379991Y266015D01*
X379926Y265910D01*
X379879Y265795D01*
X379850Y265675D01*
X379843Y265551D01*
X379850Y260900D01*
X379879Y260780D01*
X379926Y260665D01*
X379991Y260559D01*
X380071Y260465D01*
X380166Y260385D01*
X380271Y260320D01*
X380386Y260272D01*
X380506Y260244D01*
X380630Y260236D01*
X383484Y260240D01*
Y259445D01*
X380506Y259442D01*
X380386Y259413D01*
X380271Y259365D01*
X380166Y259300D01*
X380071Y259220D01*
X379991Y259126D01*
X379926Y259020D01*
X379879Y258905D01*
X379850Y258785D01*
X379843Y258661D01*
X379850Y254010D01*
X379879Y253890D01*
X379926Y253775D01*
X379991Y253670D01*
X380071Y253575D01*
X380166Y253495D01*
X380271Y253430D01*
X380386Y253383D01*
X380506Y253354D01*
X380630Y253346D01*
X383484Y253350D01*
Y137795D01*
G37*
G36*
X377901Y337819D02*X377662Y338395D01*
X377312Y338966D01*
X376877Y339475D01*
X376368Y339910D01*
X375796Y340260D01*
X375177Y340517D01*
X374526Y340673D01*
X373858Y340726D01*
X373190Y340673D01*
X372539Y340517D01*
X371920Y340260D01*
X371555Y340037D01*
Y394000D01*
X373942Y394003D01*
X374063Y394032D01*
X374177Y394080D01*
X374283Y394144D01*
X374377Y394225D01*
X374458Y394319D01*
X374523Y394425D01*
X374570Y394539D01*
X374599Y394660D01*
X374606Y394783D01*
X374599Y400616D01*
X374570Y400736D01*
X374523Y400851D01*
X374458Y400956D01*
X374377Y401051D01*
X374283Y401131D01*
X374177Y401196D01*
X374063Y401243D01*
X373942Y401272D01*
X373819Y401280D01*
X371555Y401276D01*
Y436194D01*
X371732Y436180D01*
X372478Y436239D01*
X373205Y436413D01*
X373895Y436700D01*
X374533Y437090D01*
X375101Y437576D01*
X375587Y438144D01*
X375978Y438782D01*
X376264Y439473D01*
X376438Y440200D01*
X376482Y440945D01*
X376438Y441690D01*
X376264Y442417D01*
X375978Y443108D01*
X375587Y443745D01*
X375101Y444314D01*
X374533Y444800D01*
X373895Y445190D01*
X373205Y445476D01*
X372478Y445651D01*
X371732Y445710D01*
X371555Y445696D01*
Y468504D01*
X377901D01*
Y443275D01*
X377789Y443241D01*
X377683Y443189D01*
X377586Y443121D01*
X377501Y443039D01*
X377430Y442945D01*
X377377Y442840D01*
X377218Y442437D01*
X377100Y442020D01*
X377022Y441593D01*
X376982Y441162D01*
Y440728D01*
X377022Y440296D01*
X377100Y439870D01*
X377218Y439453D01*
X377372Y439048D01*
X377427Y438943D01*
X377499Y438848D01*
X377584Y438766D01*
X377681Y438698D01*
X377788Y438646D01*
X377901Y438611D01*
Y337819D01*
G37*
G36*
Y137795D02*X371555D01*
Y272900D01*
X371658Y272780D01*
X371966Y272517D01*
X372312Y272305D01*
X372686Y272150D01*
X373080Y272055D01*
X373484Y272024D01*
X373888Y272055D01*
X374282Y272150D01*
X374657Y272305D01*
X375002Y272517D01*
X375311Y272780D01*
X375574Y273088D01*
X375785Y273434D01*
X375941Y273808D01*
X376035Y274202D01*
X376059Y274606D01*
X376035Y275010D01*
X375941Y275404D01*
X375785Y275779D01*
X375574Y276124D01*
X375311Y276433D01*
X375075Y276634D01*
Y276974D01*
X376462Y276976D01*
X376583Y277005D01*
X376697Y277052D01*
X376803Y277117D01*
X376897Y277197D01*
X376978Y277292D01*
X377042Y277397D01*
X377090Y277512D01*
X377119Y277632D01*
X377126Y277756D01*
X377119Y282407D01*
X377090Y282528D01*
X377042Y282642D01*
X376978Y282748D01*
X376897Y282842D01*
X376803Y282922D01*
X376697Y282987D01*
X376583Y283035D01*
X376462Y283064D01*
X376339Y283071D01*
X371555Y283065D01*
Y283859D01*
X376462Y283866D01*
X376583Y283894D01*
X376697Y283942D01*
X376803Y284007D01*
X376897Y284087D01*
X376978Y284181D01*
X377042Y284287D01*
X377090Y284402D01*
X377119Y284522D01*
X377126Y284646D01*
X377119Y289297D01*
X377090Y289417D01*
X377042Y289532D01*
X376978Y289637D01*
X376897Y289732D01*
X376803Y289812D01*
X376697Y289877D01*
X376583Y289924D01*
X376462Y289953D01*
X376339Y289961D01*
X371555Y289955D01*
Y332877D01*
X371920Y332653D01*
X372539Y332397D01*
X373190Y332240D01*
X373858Y332188D01*
X374526Y332240D01*
X375177Y332397D01*
X375796Y332653D01*
X376368Y333003D01*
X376877Y333438D01*
X377312Y333947D01*
X377662Y334519D01*
X377901Y335094D01*
Y137795D01*
G37*
G36*
X362201Y401675D02*X362249Y401619D01*
X362557Y401355D01*
X362691Y401273D01*
X362278Y401272D01*
X362201Y401254D01*
Y401675D01*
G37*
G36*
X371555Y137795D02*X366138D01*
Y198205D01*
X366142Y198205D01*
X366546Y198236D01*
X366940Y198331D01*
X367314Y198486D01*
X367660Y198698D01*
X367968Y198961D01*
X368231Y199269D01*
X368443Y199615D01*
X368598Y199989D01*
X368693Y200383D01*
X368717Y200787D01*
X368693Y201191D01*
X368598Y201586D01*
X368443Y201960D01*
X368231Y202306D01*
X367968Y202614D01*
X367660Y202877D01*
X367314Y203089D01*
X366940Y203244D01*
X366546Y203338D01*
X366142Y203370D01*
X366138Y203370D01*
Y288756D01*
X366142Y288756D01*
X366546Y288788D01*
X366940Y288882D01*
X367314Y289037D01*
X367660Y289249D01*
X367968Y289512D01*
X368231Y289820D01*
X368443Y290166D01*
X368598Y290540D01*
X368693Y290935D01*
X368717Y291339D01*
X368693Y291743D01*
X368598Y292137D01*
X368443Y292511D01*
X368231Y292857D01*
X367968Y293165D01*
X367732Y293366D01*
Y297185D01*
X367968Y297386D01*
X368231Y297694D01*
X368443Y298040D01*
X368598Y298414D01*
X368693Y298809D01*
X368717Y299213D01*
X368693Y299617D01*
X368598Y300011D01*
X368443Y300385D01*
X368231Y300731D01*
X367968Y301039D01*
X367660Y301302D01*
X367314Y301514D01*
X366940Y301669D01*
X366546Y301764D01*
X366142Y301795D01*
X366138Y301795D01*
Y394002D01*
X367053Y394003D01*
X367173Y394032D01*
X367288Y394080D01*
X367393Y394144D01*
X367488Y394225D01*
X367568Y394319D01*
X367633Y394425D01*
X367680Y394539D01*
X367709Y394660D01*
X367717Y394783D01*
X367709Y400616D01*
X367680Y400736D01*
X367633Y400851D01*
X367568Y400956D01*
X367488Y401051D01*
X367393Y401131D01*
X367288Y401196D01*
X367173Y401243D01*
X367053Y401272D01*
X366929Y401280D01*
X366256Y401278D01*
Y402076D01*
X366376Y402272D01*
X366531Y402647D01*
X366626Y403041D01*
X366650Y403445D01*
X366626Y403849D01*
X366531Y404243D01*
X366376Y404617D01*
X366164Y404963D01*
X366138Y404994D01*
Y439176D01*
X366247Y439453D01*
X366364Y439870D01*
X366443Y440296D01*
X366482Y440728D01*
Y441162D01*
X366443Y441593D01*
X366364Y442020D01*
X366247Y442437D01*
X366138Y442723D01*
Y468504D01*
X371555D01*
Y445696D01*
X370987Y445651D01*
X370260Y445476D01*
X369569Y445190D01*
X368932Y444800D01*
X368363Y444314D01*
X367878Y443745D01*
X367487Y443108D01*
X367201Y442417D01*
X367026Y441690D01*
X366968Y440945D01*
X367026Y440200D01*
X367201Y439473D01*
X367487Y438782D01*
X367878Y438144D01*
X368363Y437576D01*
X368932Y437090D01*
X369569Y436700D01*
X370260Y436413D01*
X370987Y436239D01*
X371555Y436194D01*
Y401276D01*
X369168Y401272D01*
X369047Y401243D01*
X368933Y401196D01*
X368827Y401131D01*
X368733Y401051D01*
X368652Y400956D01*
X368588Y400851D01*
X368540Y400736D01*
X368511Y400616D01*
X368504Y400492D01*
X368511Y394660D01*
X368540Y394539D01*
X368588Y394425D01*
X368652Y394319D01*
X368733Y394225D01*
X368827Y394144D01*
X368933Y394080D01*
X369047Y394032D01*
X369168Y394003D01*
X369291Y393996D01*
X371555Y394000D01*
Y340037D01*
X371349Y339910D01*
X370840Y339475D01*
X370405Y338966D01*
X370055Y338395D01*
X369798Y337776D01*
X369642Y337125D01*
X369589Y336457D01*
X369642Y335789D01*
X369798Y335137D01*
X370055Y334519D01*
X370405Y333947D01*
X370840Y333438D01*
X371349Y333003D01*
X371555Y332877D01*
Y289955D01*
X370506Y289953D01*
X370386Y289924D01*
X370271Y289877D01*
X370166Y289812D01*
X370071Y289732D01*
X369991Y289637D01*
X369926Y289532D01*
X369879Y289417D01*
X369850Y289297D01*
X369843Y289173D01*
X369850Y284522D01*
X369879Y284402D01*
X369926Y284287D01*
X369991Y284181D01*
X370071Y284087D01*
X370166Y284007D01*
X370271Y283942D01*
X370386Y283894D01*
X370506Y283866D01*
X370630Y283858D01*
X371555Y283859D01*
Y283065D01*
X370506Y283064D01*
X370386Y283035D01*
X370271Y282987D01*
X370166Y282922D01*
X370071Y282842D01*
X369991Y282748D01*
X369926Y282642D01*
X369879Y282528D01*
X369850Y282407D01*
X369843Y282283D01*
X369850Y277632D01*
X369879Y277512D01*
X369926Y277397D01*
X369991Y277292D01*
X370071Y277197D01*
X370166Y277117D01*
X370271Y277052D01*
X370386Y277005D01*
X370506Y276976D01*
X370630Y276969D01*
X371555Y276970D01*
Y276312D01*
X371395Y276124D01*
X371183Y275779D01*
X371028Y275404D01*
X370933Y275010D01*
X370902Y274606D01*
X370933Y274202D01*
X371028Y273808D01*
X371183Y273434D01*
X371395Y273088D01*
X371555Y272900D01*
Y137795D01*
G37*
G36*
X366138Y404994D02*X365901Y405271D01*
X365593Y405534D01*
X365247Y405746D01*
X364873Y405901D01*
X364479Y405996D01*
X364075Y406028D01*
X363671Y405996D01*
X363277Y405901D01*
X362902Y405746D01*
X362557Y405534D01*
X362249Y405271D01*
X362201Y405215D01*
Y436218D01*
X362381Y436234D01*
X362807Y436313D01*
X363224Y436430D01*
X363629Y436585D01*
X363734Y436640D01*
X363829Y436711D01*
X363911Y436796D01*
X363979Y436894D01*
X364031Y437000D01*
X364066Y437114D01*
X364082Y437231D01*
X364080Y437350D01*
X364060Y437466D01*
X364021Y437579D01*
X363965Y437683D01*
X363894Y437778D01*
X363809Y437860D01*
X363712Y437928D01*
X363605Y437980D01*
X363492Y438015D01*
X363374Y438031D01*
X363256Y438029D01*
X363139Y438009D01*
X363028Y437968D01*
X362752Y437859D01*
X362467Y437779D01*
X362201Y437730D01*
Y444160D01*
X362467Y444111D01*
X362752Y444031D01*
X363029Y443925D01*
X363140Y443884D01*
X363256Y443864D01*
X363374Y443862D01*
X363491Y443878D01*
X363604Y443913D01*
X363710Y443964D01*
X363807Y444032D01*
X363892Y444114D01*
X363963Y444208D01*
X364018Y444313D01*
X364056Y444424D01*
X364077Y444540D01*
X364079Y444658D01*
X364063Y444775D01*
X364028Y444888D01*
X363976Y444994D01*
X363909Y445091D01*
X363827Y445176D01*
X363733Y445247D01*
X363627Y445300D01*
X363224Y445460D01*
X362807Y445577D01*
X362381Y445655D01*
X362201Y445672D01*
Y468504D01*
X366138D01*
Y442723D01*
X366092Y442842D01*
X366037Y442947D01*
X365966Y443042D01*
X365881Y443124D01*
X365784Y443192D01*
X365677Y443244D01*
X365564Y443279D01*
X365446Y443295D01*
X365328Y443293D01*
X365211Y443272D01*
X365099Y443234D01*
X364994Y443178D01*
X364899Y443107D01*
X364817Y443021D01*
X364749Y442924D01*
X364697Y442818D01*
X364662Y442704D01*
X364646Y442587D01*
X364648Y442468D01*
X364669Y442351D01*
X364709Y442240D01*
X364818Y441965D01*
X364898Y441679D01*
X364952Y441388D01*
X364979Y441093D01*
Y440797D01*
X364952Y440502D01*
X364898Y440210D01*
X364818Y439925D01*
X364712Y439648D01*
X364672Y439538D01*
X364651Y439421D01*
X364649Y439303D01*
X364666Y439186D01*
X364700Y439073D01*
X364752Y438967D01*
X364820Y438871D01*
X364901Y438786D01*
X364996Y438715D01*
X365100Y438659D01*
X365212Y438621D01*
X365328Y438600D01*
X365446Y438598D01*
X365563Y438614D01*
X365676Y438649D01*
X365782Y438701D01*
X365879Y438768D01*
X365963Y438850D01*
X366035Y438945D01*
X366088Y439050D01*
X366138Y439176D01*
Y404994D01*
G37*
G36*
Y203370D02*X365738Y203338D01*
X365344Y203244D01*
X364969Y203089D01*
X364624Y202877D01*
X364315Y202614D01*
X364114Y202378D01*
X362201D01*
Y261197D01*
X362205Y261197D01*
X362609Y261229D01*
X363003Y261323D01*
X363377Y261478D01*
X363723Y261690D01*
X364031Y261953D01*
X364294Y262261D01*
X364506Y262607D01*
X364661Y262981D01*
X364756Y263375D01*
X364780Y263780D01*
X364756Y264184D01*
X364661Y264578D01*
X364506Y264952D01*
X364294Y265298D01*
X364031Y265606D01*
X363795Y265807D01*
Y277500D01*
X364031Y277701D01*
X364294Y278009D01*
X364506Y278355D01*
X364661Y278729D01*
X364756Y279124D01*
X364780Y279528D01*
X364756Y279932D01*
X364661Y280326D01*
X364506Y280700D01*
X364294Y281046D01*
X364031Y281354D01*
X363723Y281617D01*
X363377Y281829D01*
X363003Y281984D01*
X362609Y282079D01*
X362205Y282110D01*
X362201Y282110D01*
Y394022D01*
X362278Y394003D01*
X362402Y393996D01*
X366138Y394002D01*
Y301795D01*
X365738Y301764D01*
X365344Y301669D01*
X364969Y301514D01*
X364624Y301302D01*
X364315Y301039D01*
X364052Y300731D01*
X363840Y300385D01*
X363685Y300011D01*
X363591Y299617D01*
X363559Y299213D01*
X363591Y298809D01*
X363685Y298414D01*
X363840Y298040D01*
X364052Y297694D01*
X364315Y297386D01*
X364551Y297185D01*
Y293366D01*
X364315Y293165D01*
X364052Y292857D01*
X363840Y292511D01*
X363685Y292137D01*
X363591Y291743D01*
X363559Y291339D01*
X363591Y290935D01*
X363685Y290540D01*
X363840Y290166D01*
X364052Y289820D01*
X364315Y289512D01*
X364624Y289249D01*
X364969Y289037D01*
X365344Y288882D01*
X365738Y288788D01*
X366138Y288756D01*
Y203370D01*
G37*
G36*
Y137795D02*X362201D01*
Y140901D01*
X362866Y141309D01*
X363800Y142106D01*
X364597Y143039D01*
X365238Y144086D01*
X365708Y145220D01*
X365995Y146414D01*
X366067Y147638D01*
X365995Y148862D01*
X365708Y150055D01*
X365238Y151189D01*
X364597Y152236D01*
X363800Y153170D01*
X362866Y153967D01*
X362201Y154375D01*
Y199197D01*
X364114D01*
X364315Y198961D01*
X364624Y198698D01*
X364969Y198486D01*
X365344Y198331D01*
X365738Y198236D01*
X366138Y198205D01*
Y137795D01*
G37*
G36*
X359805Y278592D02*X359903Y278355D01*
X360115Y278009D01*
X360378Y277701D01*
X360614Y277500D01*
Y265807D01*
X360378Y265606D01*
X360115Y265298D01*
X359903Y264952D01*
X359805Y264715D01*
Y278592D01*
G37*
G36*
Y443936D02*X359860Y443910D01*
X359973Y443875D01*
X360090Y443858D01*
X360209Y443861D01*
X360326Y443881D01*
X360437Y443922D01*
X360712Y444031D01*
X360998Y444111D01*
X361289Y444165D01*
X361584Y444192D01*
X361880D01*
X362175Y444165D01*
X362201Y444160D01*
Y437730D01*
X362175Y437725D01*
X361880Y437698D01*
X361584D01*
X361289Y437725D01*
X360998Y437779D01*
X360712Y437859D01*
X360436Y437965D01*
X360325Y438005D01*
X360209Y438026D01*
X360091Y438028D01*
X359974Y438012D01*
X359861Y437977D01*
X359805Y437950D01*
Y443936D01*
G37*
G36*
Y468504D02*X362201D01*
Y445672D01*
X361949Y445695D01*
X361516D01*
X361084Y445655D01*
X360658Y445577D01*
X360240Y445460D01*
X359835Y445305D01*
X359805Y445289D01*
Y468504D01*
G37*
G36*
Y324033D02*X360103Y324519D01*
X360359Y325137D01*
X360516Y325789D01*
X360555Y326457D01*
X360516Y327125D01*
X360359Y327776D01*
X360103Y328395D01*
X359805Y328881D01*
Y344448D01*
X359923Y344458D01*
X360038Y344485D01*
X360147Y344530D01*
X360247Y344592D01*
X360337Y344669D01*
X360414Y344759D01*
X360475Y344859D01*
X360521Y344968D01*
X360548Y345083D01*
X360555Y345201D01*
Y347713D01*
X360548Y347830D01*
X360521Y347945D01*
X360475Y348054D01*
X360414Y348155D01*
X360337Y348245D01*
X360247Y348321D01*
X360147Y348383D01*
X360038Y348428D01*
X359923Y348456D01*
X359805Y348465D01*
Y436606D01*
X359837Y436589D01*
X360240Y436430D01*
X360658Y436313D01*
X361084Y436234D01*
X361516Y436195D01*
X361949D01*
X362201Y436218D01*
Y405215D01*
X361985Y404963D01*
X361774Y404617D01*
X361618Y404243D01*
X361524Y403849D01*
X361492Y403445D01*
X361524Y403041D01*
X361618Y402647D01*
X361774Y402272D01*
X361985Y401927D01*
X362201Y401675D01*
Y401254D01*
X362158Y401243D01*
X362043Y401196D01*
X361937Y401131D01*
X361843Y401051D01*
X361763Y400956D01*
X361698Y400851D01*
X361650Y400736D01*
X361621Y400616D01*
X361614Y400492D01*
X361621Y394660D01*
X361650Y394539D01*
X361698Y394425D01*
X361763Y394319D01*
X361843Y394225D01*
X361937Y394144D01*
X362043Y394080D01*
X362158Y394032D01*
X362201Y394022D01*
Y282110D01*
X361801Y282079D01*
X361407Y281984D01*
X361032Y281829D01*
X360687Y281617D01*
X360378Y281354D01*
X360115Y281046D01*
X359903Y280700D01*
X359805Y280463D01*
Y324033D01*
G37*
G36*
X362201Y202378D02*X359805D01*
Y262844D01*
X359903Y262607D01*
X360115Y262261D01*
X360378Y261953D01*
X360687Y261690D01*
X361032Y261478D01*
X361407Y261323D01*
X361801Y261229D01*
X362201Y261197D01*
Y202378D01*
G37*
G36*
X359805Y328881D02*X359753Y328966D01*
X359318Y329475D01*
X358808Y329910D01*
X358237Y330260D01*
X357618Y330517D01*
X357279Y330598D01*
Y342201D01*
X357555D01*
X357673Y342208D01*
X357788Y342235D01*
X357897Y342280D01*
X357997Y342342D01*
X358087Y342419D01*
X358164Y342509D01*
X358225Y342609D01*
X358271Y342718D01*
X358298Y342833D01*
X358307Y342951D01*
X358298Y343068D01*
X358271Y343183D01*
X358225Y343292D01*
X358164Y343393D01*
X358087Y343483D01*
X357997Y343559D01*
X357897Y343621D01*
X357788Y343666D01*
X357673Y343694D01*
X357555Y343701D01*
X357279D01*
Y349213D01*
X357555D01*
X357673Y349220D01*
X357788Y349247D01*
X357897Y349292D01*
X357997Y349354D01*
X358087Y349431D01*
X358164Y349520D01*
X358225Y349621D01*
X358271Y349730D01*
X358298Y349845D01*
X358307Y349963D01*
X358298Y350080D01*
X358271Y350195D01*
X358225Y350304D01*
X358164Y350405D01*
X358087Y350495D01*
X357997Y350571D01*
X357897Y350633D01*
X357788Y350678D01*
X357673Y350706D01*
X357555Y350713D01*
X357279D01*
Y439290D01*
X357372Y439048D01*
X357427Y438943D01*
X357499Y438848D01*
X357584Y438766D01*
X357681Y438698D01*
X357788Y438646D01*
X357901Y438611D01*
X358018Y438595D01*
X358137Y438597D01*
X358254Y438617D01*
X358366Y438656D01*
X358471Y438712D01*
X358565Y438783D01*
X358648Y438868D01*
X358716Y438966D01*
X358768Y439072D01*
X358802Y439186D01*
X358819Y439303D01*
X358817Y439422D01*
X358796Y439538D01*
X358755Y439650D01*
X358646Y439925D01*
X358566Y440210D01*
X358513Y440502D01*
X358486Y440797D01*
Y441093D01*
X358513Y441388D01*
X358566Y441679D01*
X358646Y441965D01*
X358752Y442242D01*
X358793Y442352D01*
X358813Y442468D01*
X358815Y442587D01*
X358799Y442703D01*
X358764Y442816D01*
X358713Y442922D01*
X358645Y443019D01*
X358563Y443104D01*
X358469Y443175D01*
X358365Y443231D01*
X358253Y443269D01*
X358137Y443290D01*
X358019Y443292D01*
X357902Y443275D01*
X357789Y443241D01*
X357683Y443189D01*
X357586Y443121D01*
X357501Y443039D01*
X357430Y442945D01*
X357377Y442840D01*
X357279Y442594D01*
Y468504D01*
X359805D01*
Y445289D01*
X359730Y445250D01*
X359635Y445179D01*
X359553Y445093D01*
X359485Y444996D01*
X359433Y444890D01*
X359399Y444776D01*
X359382Y444659D01*
X359384Y444540D01*
X359405Y444423D01*
X359443Y444311D01*
X359499Y444207D01*
X359571Y444112D01*
X359656Y444029D01*
X359753Y443962D01*
X359805Y443936D01*
Y437950D01*
X359755Y437925D01*
X359658Y437858D01*
X359573Y437776D01*
X359502Y437681D01*
X359447Y437577D01*
X359408Y437466D01*
X359388Y437349D01*
X359385Y437231D01*
X359402Y437114D01*
X359436Y437001D01*
X359488Y436895D01*
X359556Y436799D01*
X359638Y436714D01*
X359732Y436643D01*
X359805Y436606D01*
Y348465D01*
X359687Y348456D01*
X359573Y348428D01*
X359464Y348383D01*
X359363Y348321D01*
X359273Y348245D01*
X359196Y348155D01*
X359135Y348054D01*
X359090Y347945D01*
X359062Y347830D01*
X359055Y347713D01*
Y345201D01*
X359062Y345083D01*
X359090Y344968D01*
X359135Y344859D01*
X359196Y344759D01*
X359273Y344669D01*
X359363Y344592D01*
X359464Y344530D01*
X359573Y344485D01*
X359687Y344458D01*
X359805Y344448D01*
Y328881D01*
G37*
G36*
Y202378D02*X358330D01*
X358268Y202383D01*
X358018Y202363D01*
X357775Y202305D01*
X357543Y202209D01*
X357330Y202078D01*
X357330Y202078D01*
X357279Y202035D01*
Y261399D01*
X357472Y261478D01*
X357817Y261690D01*
X358125Y261953D01*
X358389Y262261D01*
X358600Y262607D01*
X358756Y262981D01*
X358850Y263375D01*
X358874Y263780D01*
X358850Y264184D01*
X358756Y264578D01*
X358600Y264952D01*
X358389Y265298D01*
X358125Y265606D01*
X357890Y265807D01*
Y277500D01*
X358125Y277701D01*
X358389Y278009D01*
X358600Y278355D01*
X358756Y278729D01*
X358850Y279124D01*
X358874Y279528D01*
X358850Y279932D01*
X358756Y280326D01*
X358600Y280700D01*
X358389Y281046D01*
X358125Y281354D01*
X357817Y281617D01*
X357472Y281829D01*
X357279Y281908D01*
Y322315D01*
X357618Y322397D01*
X358237Y322653D01*
X358808Y323003D01*
X359318Y323438D01*
X359753Y323947D01*
X359805Y324033D01*
Y280463D01*
X359748Y280326D01*
X359654Y279932D01*
X359622Y279528D01*
X359654Y279124D01*
X359748Y278729D01*
X359805Y278592D01*
Y264715D01*
X359748Y264578D01*
X359654Y264184D01*
X359622Y263780D01*
X359654Y263375D01*
X359748Y262981D01*
X359805Y262844D01*
Y202378D01*
G37*
G36*
X362201Y154375D02*X361819Y154608D01*
X360685Y155078D01*
X359492Y155365D01*
X358268Y155461D01*
X357279Y155383D01*
Y197550D01*
X358927Y199197D01*
X362201D01*
Y154375D01*
G37*
G36*
Y137795D02*X357279D01*
Y139892D01*
X358268Y139815D01*
X359492Y139911D01*
X360685Y140197D01*
X361819Y140667D01*
X362201Y140901D01*
Y137795D01*
G37*
G36*
X352793Y193064D02*X357279Y197550D01*
Y155383D01*
X357044Y155365D01*
X355850Y155078D01*
X354716Y154608D01*
X353669Y153967D01*
X352793Y153219D01*
Y193064D01*
G37*
G36*
Y324033D02*X352845Y323947D01*
X353281Y323438D01*
X353790Y323003D01*
X354361Y322653D01*
X354980Y322397D01*
X355631Y322240D01*
X356299Y322188D01*
X356967Y322240D01*
X357279Y322315D01*
Y281908D01*
X357097Y281984D01*
X356703Y282079D01*
X356299Y282110D01*
X355895Y282079D01*
X355501Y281984D01*
X355127Y281829D01*
X354781Y281617D01*
X354473Y281354D01*
X354210Y281046D01*
X353998Y280700D01*
X353843Y280326D01*
X353748Y279932D01*
X353716Y279528D01*
X353748Y279124D01*
X353843Y278729D01*
X353998Y278355D01*
X354210Y278009D01*
X354473Y277701D01*
X354709Y277500D01*
Y265807D01*
X354473Y265606D01*
X354210Y265298D01*
X353998Y264952D01*
X353843Y264578D01*
X353748Y264184D01*
X353716Y263780D01*
X353748Y263375D01*
X353843Y262981D01*
X353998Y262607D01*
X354210Y262261D01*
X354473Y261953D01*
X354781Y261690D01*
X355127Y261478D01*
X355501Y261323D01*
X355895Y261229D01*
X356299Y261197D01*
X356703Y261229D01*
X357097Y261323D01*
X357279Y261399D01*
Y202035D01*
X357140Y201916D01*
X357099Y201868D01*
X352793Y197562D01*
Y324033D01*
G37*
G36*
Y468504D02*X357279D01*
Y442594D01*
X357218Y442437D01*
X357100Y442020D01*
X357022Y441593D01*
X356982Y441162D01*
Y440728D01*
X357022Y440296D01*
X357100Y439870D01*
X357218Y439453D01*
X357279Y439290D01*
Y350713D01*
X355043D01*
X354926Y350706D01*
X354811Y350678D01*
X354702Y350633D01*
X354601Y350571D01*
X354511Y350495D01*
X354435Y350405D01*
X354373Y350304D01*
X354328Y350195D01*
X354300Y350080D01*
X354291Y349963D01*
X354300Y349845D01*
X354328Y349730D01*
X354373Y349621D01*
X354435Y349520D01*
X354511Y349431D01*
X354601Y349354D01*
X354702Y349292D01*
X354811Y349247D01*
X354926Y349220D01*
X355043Y349213D01*
X357279D01*
Y343701D01*
X355043D01*
X354926Y343694D01*
X354811Y343666D01*
X354702Y343621D01*
X354601Y343559D01*
X354511Y343483D01*
X354435Y343393D01*
X354373Y343292D01*
X354328Y343183D01*
X354300Y343068D01*
X354291Y342951D01*
X354300Y342833D01*
X354328Y342718D01*
X354373Y342609D01*
X354435Y342509D01*
X354511Y342419D01*
X354601Y342342D01*
X354702Y342280D01*
X354811Y342235D01*
X354926Y342208D01*
X355043Y342201D01*
X357279D01*
Y330598D01*
X356967Y330673D01*
X356299Y330726D01*
X355631Y330673D01*
X354980Y330517D01*
X354361Y330260D01*
X353790Y329910D01*
X353281Y329475D01*
X352845Y328966D01*
X352793Y328881D01*
Y344448D01*
X352911Y344458D01*
X353026Y344485D01*
X353135Y344530D01*
X353236Y344592D01*
X353325Y344669D01*
X353402Y344759D01*
X353464Y344859D01*
X353509Y344968D01*
X353536Y345083D01*
X353543Y345201D01*
Y347713D01*
X353536Y347830D01*
X353509Y347945D01*
X353464Y348054D01*
X353402Y348155D01*
X353325Y348245D01*
X353236Y348321D01*
X353135Y348383D01*
X353026Y348428D01*
X352911Y348456D01*
X352793Y348465D01*
Y436315D01*
X353205Y436413D01*
X353895Y436700D01*
X354533Y437090D01*
X355101Y437576D01*
X355587Y438144D01*
X355978Y438782D01*
X356264Y439473D01*
X356438Y440200D01*
X356482Y440945D01*
X356438Y441690D01*
X356264Y442417D01*
X355978Y443108D01*
X355587Y443745D01*
X355101Y444314D01*
X354533Y444800D01*
X353895Y445190D01*
X353205Y445476D01*
X352793Y445575D01*
Y468504D01*
G37*
G36*
X357279Y137795D02*X352793D01*
Y142057D01*
X353669Y141309D01*
X354716Y140667D01*
X355850Y140197D01*
X357044Y139911D01*
X357279Y139892D01*
Y137795D01*
G37*
G36*
X352793D02*X344053D01*
Y332842D01*
X344361Y332653D01*
X344980Y332397D01*
X345631Y332240D01*
X346299Y332188D01*
X346967Y332240D01*
X347618Y332397D01*
X348237Y332653D01*
X348808Y333003D01*
X349318Y333438D01*
X349753Y333947D01*
X350103Y334519D01*
X350359Y335137D01*
X350516Y335789D01*
X350555Y336457D01*
X350516Y337125D01*
X350359Y337776D01*
X350103Y338395D01*
X349753Y338966D01*
X349318Y339475D01*
X348808Y339910D01*
X348237Y340260D01*
X347618Y340517D01*
X346967Y340673D01*
X346299Y340726D01*
X345631Y340673D01*
X344980Y340517D01*
X344361Y340260D01*
X344053Y340072D01*
Y372382D01*
X344183Y372351D01*
X344587Y372319D01*
X344991Y372351D01*
X345385Y372445D01*
X345759Y372600D01*
X346105Y372812D01*
X346413Y373075D01*
X346676Y373383D01*
X346888Y373729D01*
X347043Y374103D01*
X347138Y374498D01*
X347161Y374902D01*
X347138Y375306D01*
X347043Y375700D01*
X346888Y376074D01*
X346676Y376420D01*
X346413Y376728D01*
X346105Y376991D01*
X345759Y377203D01*
X345587Y377274D01*
Y378254D01*
X346383Y378255D01*
X346504Y378284D01*
X346618Y378332D01*
X346724Y378396D01*
X346818Y378477D01*
X346899Y378571D01*
X346964Y378677D01*
X347011Y378791D01*
X347040Y378912D01*
X347047Y379035D01*
X347040Y384868D01*
X347011Y384988D01*
X346964Y385103D01*
X346899Y385208D01*
X346818Y385303D01*
X346724Y385383D01*
X346618Y385448D01*
X346504Y385495D01*
X346383Y385524D01*
X346260Y385532D01*
X344053Y385528D01*
Y436796D01*
X344533Y437090D01*
X345101Y437576D01*
X345587Y438144D01*
X345978Y438782D01*
X346264Y439473D01*
X346438Y440200D01*
X346482Y440945D01*
X346438Y441690D01*
X346264Y442417D01*
X345978Y443108D01*
X345587Y443745D01*
X345101Y444314D01*
X344533Y444800D01*
X344053Y445094D01*
Y468504D01*
X352793D01*
Y445575D01*
X352478Y445651D01*
X351732Y445710D01*
X350987Y445651D01*
X350260Y445476D01*
X349569Y445190D01*
X348932Y444800D01*
X348363Y444314D01*
X347878Y443745D01*
X347487Y443108D01*
X347201Y442417D01*
X347026Y441690D01*
X346968Y440945D01*
X347026Y440200D01*
X347201Y439473D01*
X347487Y438782D01*
X347878Y438144D01*
X348363Y437576D01*
X348932Y437090D01*
X349569Y436700D01*
X350260Y436413D01*
X350987Y436239D01*
X351732Y436180D01*
X352478Y436239D01*
X352793Y436315D01*
Y348465D01*
X352676Y348456D01*
X352561Y348428D01*
X352452Y348383D01*
X352351Y348321D01*
X352261Y348245D01*
X352185Y348155D01*
X352123Y348054D01*
X352078Y347945D01*
X352050Y347830D01*
X352043Y347713D01*
Y345201D01*
X352050Y345083D01*
X352078Y344968D01*
X352123Y344859D01*
X352185Y344759D01*
X352261Y344669D01*
X352351Y344592D01*
X352452Y344530D01*
X352561Y344485D01*
X352676Y344458D01*
X352793Y344448D01*
Y328881D01*
X352495Y328395D01*
X352239Y327776D01*
X352083Y327125D01*
X352030Y326457D01*
X352083Y325789D01*
X352239Y325137D01*
X352495Y324519D01*
X352793Y324033D01*
Y197562D01*
X348734Y193503D01*
X348425Y193528D01*
X348021Y193496D01*
X347627Y193401D01*
X347253Y193246D01*
X346907Y193034D01*
X346599Y192771D01*
X346336Y192463D01*
X346124Y192117D01*
X345969Y191743D01*
X345874Y191349D01*
X345842Y190945D01*
X345874Y190541D01*
X345969Y190147D01*
X346124Y189772D01*
X346336Y189427D01*
X346599Y189119D01*
X346907Y188855D01*
X347253Y188644D01*
X347627Y188489D01*
X348021Y188394D01*
X348425Y188362D01*
X348829Y188394D01*
X349223Y188489D01*
X349598Y188644D01*
X349943Y188855D01*
X350251Y189119D01*
X350515Y189427D01*
X350726Y189772D01*
X350882Y190147D01*
X350976Y190541D01*
X351000Y190945D01*
X350982Y191252D01*
X352793Y193064D01*
Y153219D01*
X352736Y153170D01*
X351939Y152236D01*
X351297Y151189D01*
X350827Y150055D01*
X350541Y148862D01*
X350444Y147638D01*
X350541Y146414D01*
X350827Y145220D01*
X351297Y144086D01*
X351939Y143039D01*
X352736Y142106D01*
X352793Y142057D01*
Y137795D01*
G37*
G36*
X344053Y445094D02*X343895Y445190D01*
X343205Y445476D01*
X342478Y445651D01*
X341732Y445710D01*
X340987Y445651D01*
X340260Y445476D01*
X339569Y445190D01*
X338932Y444800D01*
X338363Y444314D01*
X337878Y443745D01*
X337487Y443108D01*
X337201Y442417D01*
X337106Y442023D01*
Y468504D01*
X344053D01*
Y445094D01*
G37*
G36*
Y137795D02*X337106D01*
Y206897D01*
X337197Y207273D01*
X337220Y207677D01*
X337197Y208081D01*
X337106Y208457D01*
Y221661D01*
X337197Y222037D01*
X337220Y222441D01*
X337197Y222845D01*
X337106Y223221D01*
Y240163D01*
X337205Y240157D01*
X339690Y240165D01*
X339811Y240194D01*
X339926Y240241D01*
X340031Y240306D01*
X340125Y240386D01*
X340206Y240481D01*
X340271Y240586D01*
X340318Y240701D01*
X340347Y240821D01*
X340354Y240945D01*
X340347Y245596D01*
X340318Y245717D01*
X340271Y245831D01*
X340206Y245937D01*
X340125Y246031D01*
X340031Y246111D01*
X339926Y246176D01*
X339811Y246224D01*
X339690Y246253D01*
X339567Y246260D01*
X337106Y246253D01*
Y258574D01*
X337156Y258492D01*
X337237Y258398D01*
X337331Y258318D01*
X337437Y258253D01*
X337551Y258206D01*
X337672Y258177D01*
X337795Y258169D01*
X342446Y258177D01*
X342567Y258206D01*
X342681Y258253D01*
X342787Y258318D01*
X342881Y258398D01*
X342962Y258492D01*
X343027Y258598D01*
X343074Y258713D01*
X343103Y258833D01*
X343110Y258957D01*
X343103Y264789D01*
X343074Y264909D01*
X343027Y265024D01*
X342962Y265130D01*
X342881Y265224D01*
X342787Y265304D01*
X342681Y265369D01*
X342567Y265417D01*
X342446Y265445D01*
X342323Y265453D01*
X337672Y265445D01*
X337551Y265417D01*
X337437Y265369D01*
X337331Y265304D01*
X337237Y265224D01*
X337156Y265130D01*
X337106Y265048D01*
Y267921D01*
X337197Y268297D01*
X337220Y268701D01*
X337197Y269105D01*
X337106Y269481D01*
Y273826D01*
X337197Y274202D01*
X337220Y274606D01*
X337202Y274914D01*
X337203Y274914D01*
X337250Y274955D01*
X337413Y275145D01*
X337413Y275145D01*
X337544Y275358D01*
X337639Y275590D01*
X337698Y275833D01*
X337718Y276083D01*
X337713Y276145D01*
Y277860D01*
X338509Y277862D01*
X338630Y277891D01*
X338744Y277938D01*
X338850Y278003D01*
X338944Y278083D01*
X339025Y278177D01*
X339090Y278283D01*
X339137Y278398D01*
X339166Y278518D01*
X339173Y278642D01*
X339166Y284474D01*
X339137Y284594D01*
X339090Y284709D01*
X339025Y284815D01*
X338944Y284909D01*
X338850Y284989D01*
X338744Y285054D01*
X338630Y285102D01*
X338509Y285131D01*
X338386Y285138D01*
X337106Y285136D01*
Y355738D01*
X337412Y355811D01*
X337787Y355966D01*
X338132Y356178D01*
X338440Y356441D01*
X338704Y356750D01*
X338915Y357095D01*
X339071Y357470D01*
X339165Y357864D01*
X339189Y358268D01*
X339165Y358672D01*
X339071Y359066D01*
X338915Y359440D01*
X338704Y359786D01*
X338440Y360094D01*
X338205Y360295D01*
Y368051D01*
X338440Y368252D01*
X338704Y368561D01*
X338915Y368906D01*
X339071Y369281D01*
X339165Y369675D01*
X339189Y370079D01*
X339165Y370483D01*
X339071Y370877D01*
X338915Y371251D01*
X338704Y371597D01*
X338440Y371905D01*
X338132Y372168D01*
X337787Y372380D01*
X337412Y372535D01*
X337106Y372609D01*
Y378252D01*
X339494Y378255D01*
X339614Y378284D01*
X339729Y378332D01*
X339834Y378396D01*
X339929Y378477D01*
X340009Y378571D01*
X340074Y378677D01*
X340121Y378791D01*
X340150Y378912D01*
X340157Y379035D01*
X340150Y384868D01*
X340121Y384988D01*
X340074Y385103D01*
X340009Y385208D01*
X339929Y385303D01*
X339834Y385383D01*
X339729Y385448D01*
X339614Y385495D01*
X339494Y385524D01*
X339370Y385532D01*
X337106Y385528D01*
Y439866D01*
X337201Y439473D01*
X337487Y438782D01*
X337878Y438144D01*
X338363Y437576D01*
X338932Y437090D01*
X339569Y436700D01*
X340260Y436413D01*
X340987Y436239D01*
X341732Y436180D01*
X342478Y436239D01*
X343205Y436413D01*
X343895Y436700D01*
X344053Y436796D01*
Y385528D01*
X341609Y385524D01*
X341488Y385495D01*
X341374Y385448D01*
X341268Y385383D01*
X341174Y385303D01*
X341093Y385208D01*
X341029Y385103D01*
X340981Y384988D01*
X340952Y384868D01*
X340945Y384744D01*
X340952Y378912D01*
X340981Y378791D01*
X341029Y378677D01*
X341093Y378571D01*
X341174Y378477D01*
X341268Y378396D01*
X341374Y378332D01*
X341488Y378284D01*
X341609Y378255D01*
X341732Y378248D01*
X342406Y378249D01*
Y376270D01*
X342285Y376074D01*
X342130Y375700D01*
X342036Y375306D01*
X342004Y374902D01*
X342036Y374498D01*
X342130Y374103D01*
X342285Y373729D01*
X342497Y373383D01*
X342760Y373075D01*
X343069Y372812D01*
X343414Y372600D01*
X343789Y372445D01*
X344053Y372382D01*
Y340072D01*
X343790Y339910D01*
X343281Y339475D01*
X342845Y338966D01*
X342495Y338395D01*
X342239Y337776D01*
X342083Y337125D01*
X342030Y336457D01*
X342083Y335789D01*
X342239Y335137D01*
X342495Y334519D01*
X342845Y333947D01*
X343281Y333438D01*
X343790Y333003D01*
X344053Y332842D01*
Y137795D01*
G37*
G36*
X336236Y209705D02*Y220413D01*
X336472Y220615D01*
X336735Y220923D01*
X336947Y221268D01*
X337102Y221643D01*
X337106Y221661D01*
Y208457D01*
X337102Y208475D01*
X336947Y208850D01*
X336735Y209195D01*
X336472Y209503D01*
X336236Y209705D01*
G37*
G36*
X337106Y137795D02*X329232D01*
Y231579D01*
X332683D01*
X332684Y230782D01*
X332713Y230661D01*
X332761Y230547D01*
X332826Y230441D01*
X332906Y230347D01*
X333000Y230267D01*
X333106Y230202D01*
X333220Y230154D01*
X333341Y230125D01*
X333465Y230118D01*
X335950Y230125D01*
X336071Y230154D01*
X336185Y230202D01*
X336291Y230267D01*
X336385Y230347D01*
X336466Y230441D01*
X336531Y230547D01*
X336578Y230661D01*
X336607Y230782D01*
X336614Y230906D01*
X336607Y235557D01*
X336578Y235677D01*
X336531Y235792D01*
X336466Y235897D01*
X336385Y235992D01*
X336291Y236072D01*
X336185Y236137D01*
X336071Y236184D01*
X335950Y236213D01*
X335827Y236220D01*
X333341Y236213D01*
X333220Y236184D01*
X333106Y236137D01*
X333000Y236072D01*
X332906Y235992D01*
X332826Y235897D01*
X332761Y235792D01*
X332713Y235677D01*
X332684Y235557D01*
X332677Y235433D01*
X332678Y234760D01*
X329232D01*
Y240330D01*
X329260Y240306D01*
X329366Y240241D01*
X329480Y240194D01*
X329601Y240165D01*
X329724Y240157D01*
X332210Y240165D01*
X332331Y240194D01*
X332445Y240241D01*
X332551Y240306D01*
X332645Y240386D01*
X332726Y240481D01*
X332790Y240586D01*
X332838Y240701D01*
X332867Y240821D01*
X332874Y240945D01*
X332867Y245596D01*
X332838Y245717D01*
X332790Y245831D01*
X332726Y245937D01*
X332645Y246031D01*
X332551Y246111D01*
X332496Y246145D01*
Y247570D01*
X333758Y248831D01*
X333805Y248872D01*
X333968Y249062D01*
X333968Y249062D01*
X334099Y249276D01*
X334195Y249507D01*
X334253Y249750D01*
X334273Y250000D01*
X334268Y250062D01*
Y251909D01*
X334503Y252111D01*
X334767Y252419D01*
X334978Y252764D01*
X335134Y253139D01*
X335228Y253533D01*
X335252Y253937D01*
X335228Y254341D01*
X335134Y254735D01*
X334978Y255110D01*
X334767Y255455D01*
X334503Y255763D01*
X334195Y256026D01*
X333850Y256238D01*
X333475Y256393D01*
X333081Y256488D01*
X332677Y256520D01*
X332273Y256488D01*
X331879Y256393D01*
X331505Y256238D01*
X331159Y256026D01*
X330851Y255763D01*
X330588Y255455D01*
X330376Y255110D01*
X330221Y254735D01*
X330126Y254341D01*
X330094Y253937D01*
X330126Y253533D01*
X330221Y253139D01*
X330376Y252764D01*
X330588Y252419D01*
X330851Y252111D01*
X331087Y251909D01*
Y250659D01*
X329825Y249397D01*
X329777Y249357D01*
X329615Y249166D01*
X329484Y248953D01*
X329388Y248721D01*
X329330Y248478D01*
X329330Y248478D01*
X329310Y248228D01*
X329315Y248166D01*
Y246145D01*
X329260Y246111D01*
X329232Y246088D01*
Y277858D01*
X331620Y277862D01*
X331740Y277891D01*
X331855Y277938D01*
X331960Y278003D01*
X332055Y278083D01*
X332135Y278177D01*
X332200Y278283D01*
X332247Y278398D01*
X332276Y278518D01*
X332283Y278642D01*
X332276Y284474D01*
X332247Y284594D01*
X332200Y284709D01*
X332135Y284815D01*
X332055Y284909D01*
X331960Y284989D01*
X331855Y285054D01*
X331740Y285102D01*
X331620Y285131D01*
X331496Y285138D01*
X329232Y285134D01*
Y322226D01*
X329408Y322240D01*
X330059Y322397D01*
X330678Y322653D01*
X331249Y323003D01*
X331759Y323438D01*
X332194Y323947D01*
X332544Y324519D01*
X332800Y325137D01*
X332957Y325789D01*
X332996Y326457D01*
X332957Y327125D01*
X332800Y327776D01*
X332544Y328395D01*
X332194Y328966D01*
X331759Y329475D01*
X331249Y329910D01*
X330678Y330260D01*
X330059Y330517D01*
X329408Y330673D01*
X329232Y330687D01*
Y342209D01*
X331731Y342215D01*
X331961Y342270D01*
X332179Y342360D01*
X332380Y342484D01*
X332560Y342637D01*
X332713Y342816D01*
X332837Y343018D01*
X332927Y343236D01*
X332982Y343465D01*
X332996Y343701D01*
X332982Y349448D01*
X332927Y349678D01*
X332837Y349896D01*
X332713Y350097D01*
X332560Y350277D01*
X332380Y350430D01*
X332179Y350553D01*
X331961Y350644D01*
X331731Y350699D01*
X331496Y350713D01*
X329232Y350707D01*
Y436906D01*
X329569Y436700D01*
X330260Y436413D01*
X330987Y436239D01*
X331732Y436180D01*
X332478Y436239D01*
X333205Y436413D01*
X333895Y436700D01*
X334533Y437090D01*
X335101Y437576D01*
X335587Y438144D01*
X335978Y438782D01*
X336264Y439473D01*
X336438Y440200D01*
X336482Y440945D01*
X336438Y441690D01*
X336264Y442417D01*
X335978Y443108D01*
X335587Y443745D01*
X335101Y444314D01*
X334533Y444800D01*
X333895Y445190D01*
X333205Y445476D01*
X332478Y445651D01*
X331732Y445710D01*
X330987Y445651D01*
X330260Y445476D01*
X329569Y445190D01*
X329232Y444984D01*
Y468504D01*
X337106D01*
Y442023D01*
X337026Y441690D01*
X336968Y440945D01*
X337026Y440200D01*
X337106Y439866D01*
Y385528D01*
X334719Y385524D01*
X334598Y385495D01*
X334484Y385448D01*
X334378Y385383D01*
X334284Y385303D01*
X334204Y385208D01*
X334139Y385103D01*
X334091Y384988D01*
X334062Y384868D01*
X334055Y384744D01*
X334062Y378912D01*
X334091Y378791D01*
X334139Y378677D01*
X334204Y378571D01*
X334284Y378477D01*
X334378Y378396D01*
X334484Y378332D01*
X334598Y378284D01*
X334719Y378255D01*
X334843Y378248D01*
X337106Y378252D01*
Y372609D01*
X337018Y372630D01*
X336614Y372661D01*
X336210Y372630D01*
X335816Y372535D01*
X335442Y372380D01*
X335096Y372168D01*
X334788Y371905D01*
X334525Y371597D01*
X334313Y371251D01*
X334158Y370877D01*
X334063Y370483D01*
X334031Y370079D01*
X334063Y369675D01*
X334158Y369281D01*
X334313Y368906D01*
X334525Y368561D01*
X334788Y368252D01*
X335024Y368051D01*
Y360295D01*
X334788Y360094D01*
X334525Y359786D01*
X334313Y359440D01*
X334158Y359066D01*
X334063Y358672D01*
X334031Y358268D01*
X334063Y357864D01*
X334158Y357470D01*
X334313Y357095D01*
X334525Y356750D01*
X334788Y356441D01*
X335096Y356178D01*
X335442Y355966D01*
X335816Y355811D01*
X336210Y355717D01*
X336614Y355685D01*
X337018Y355717D01*
X337106Y355738D01*
Y285136D01*
X333735Y285131D01*
X333614Y285102D01*
X333500Y285054D01*
X333394Y284989D01*
X333300Y284909D01*
X333219Y284815D01*
X333155Y284709D01*
X333107Y284594D01*
X333078Y284474D01*
X333071Y284350D01*
X333078Y278518D01*
X333107Y278398D01*
X333155Y278283D01*
X333219Y278177D01*
X333300Y278083D01*
X333394Y278003D01*
X333500Y277938D01*
X333614Y277891D01*
X333735Y277862D01*
X333858Y277854D01*
X334531Y277855D01*
Y277180D01*
X334242Y277157D01*
X333848Y277063D01*
X333473Y276908D01*
X333128Y276696D01*
X332819Y276433D01*
X332556Y276124D01*
X332344Y275779D01*
X332189Y275404D01*
X332095Y275010D01*
X332063Y274606D01*
X332095Y274202D01*
X332189Y273808D01*
X332344Y273434D01*
X332556Y273088D01*
X332819Y272780D01*
X333128Y272517D01*
X333473Y272305D01*
X333848Y272150D01*
X334242Y272055D01*
X334646Y272024D01*
X335050Y272055D01*
X335444Y272150D01*
X335818Y272305D01*
X336164Y272517D01*
X336472Y272780D01*
X336735Y273088D01*
X336947Y273434D01*
X337102Y273808D01*
X337106Y273826D01*
Y269481D01*
X337102Y269499D01*
X336947Y269873D01*
X336735Y270219D01*
X336472Y270527D01*
X336164Y270790D01*
X335818Y271002D01*
X335444Y271157D01*
X335050Y271252D01*
X334646Y271284D01*
X334242Y271252D01*
X333848Y271157D01*
X333473Y271002D01*
X333128Y270790D01*
X332819Y270527D01*
X332556Y270219D01*
X332344Y269873D01*
X332189Y269499D01*
X332095Y269105D01*
X332063Y268701D01*
X332087Y268392D01*
X332041Y268353D01*
X331879Y268162D01*
X331748Y267949D01*
X331652Y267717D01*
X331593Y267474D01*
X331593Y267474D01*
X331574Y267224D01*
X331579Y267162D01*
Y265447D01*
X330782Y265445D01*
X330661Y265417D01*
X330547Y265369D01*
X330441Y265304D01*
X330347Y265224D01*
X330267Y265130D01*
X330202Y265024D01*
X330154Y264909D01*
X330125Y264789D01*
X330118Y264665D01*
X330125Y258833D01*
X330154Y258713D01*
X330202Y258598D01*
X330267Y258492D01*
X330347Y258398D01*
X330441Y258318D01*
X330547Y258253D01*
X330661Y258206D01*
X330782Y258177D01*
X330906Y258169D01*
X335557Y258177D01*
X335677Y258206D01*
X335792Y258253D01*
X335897Y258318D01*
X335992Y258398D01*
X336072Y258492D01*
X336137Y258598D01*
X336184Y258713D01*
X336213Y258833D01*
X336220Y258957D01*
X336213Y264789D01*
X336184Y264909D01*
X336137Y265024D01*
X336072Y265130D01*
X335992Y265224D01*
X335897Y265304D01*
X335792Y265369D01*
X335677Y265417D01*
X335557Y265445D01*
X335433Y265453D01*
X334760Y265452D01*
Y266127D01*
X335050Y266150D01*
X335444Y266244D01*
X335818Y266400D01*
X336164Y266611D01*
X336472Y266875D01*
X336735Y267183D01*
X336947Y267528D01*
X337102Y267903D01*
X337106Y267921D01*
Y265048D01*
X337092Y265024D01*
X337044Y264909D01*
X337015Y264789D01*
X337008Y264665D01*
X337015Y258833D01*
X337044Y258713D01*
X337092Y258598D01*
X337106Y258574D01*
Y246253D01*
X337081Y246253D01*
X336961Y246224D01*
X336846Y246176D01*
X336740Y246111D01*
X336646Y246031D01*
X336566Y245937D01*
X336501Y245831D01*
X336454Y245717D01*
X336425Y245596D01*
X336417Y245472D01*
X336425Y240821D01*
X336454Y240701D01*
X336501Y240586D01*
X336566Y240481D01*
X336646Y240386D01*
X336740Y240306D01*
X336846Y240241D01*
X336961Y240194D01*
X337081Y240165D01*
X337106Y240163D01*
Y223221D01*
X337102Y223239D01*
X336947Y223613D01*
X336735Y223959D01*
X336472Y224267D01*
X336164Y224530D01*
X335818Y224742D01*
X335444Y224897D01*
X335050Y224992D01*
X334646Y225024D01*
X334242Y224992D01*
X333848Y224897D01*
X333473Y224742D01*
X333128Y224530D01*
X332819Y224267D01*
X332556Y223959D01*
X332344Y223613D01*
X332189Y223239D01*
X332095Y222845D01*
X332063Y222441D01*
X332095Y222037D01*
X332189Y221643D01*
X332344Y221268D01*
X332556Y220923D01*
X332819Y220615D01*
X333055Y220413D01*
Y209705D01*
X332819Y209503D01*
X332556Y209195D01*
X332344Y208850D01*
X332189Y208475D01*
X332095Y208081D01*
X332063Y207677D01*
X332095Y207273D01*
X332189Y206879D01*
X332344Y206505D01*
X332556Y206159D01*
X332819Y205851D01*
X333128Y205588D01*
X333473Y205376D01*
X333848Y205221D01*
X334242Y205126D01*
X334646Y205094D01*
X335050Y205126D01*
X335444Y205221D01*
X335818Y205376D01*
X336164Y205588D01*
X336472Y205851D01*
X336735Y206159D01*
X336947Y206505D01*
X337102Y206879D01*
X337106Y206897D01*
Y137795D01*
G37*
G36*
X321725Y241618D02*X328943D01*
X328944Y240821D01*
X328973Y240701D01*
X329021Y240586D01*
X329085Y240481D01*
X329166Y240386D01*
X329232Y240330D01*
Y234760D01*
X326831D01*
X326629Y234996D01*
X326321Y235259D01*
X325976Y235471D01*
X325601Y235626D01*
X325207Y235720D01*
X324803Y235752D01*
X324399Y235720D01*
X324005Y235626D01*
X323631Y235471D01*
X323285Y235259D01*
X322977Y234996D01*
X322776Y234760D01*
X321725D01*
Y241618D01*
G37*
G36*
Y378638D02*X321908Y378682D01*
X322397Y378885D01*
X322848Y379161D01*
X323251Y379505D01*
X323595Y379907D01*
X323871Y380359D01*
X324074Y380848D01*
X324197Y381362D01*
X324228Y381890D01*
X324197Y382417D01*
X324074Y382932D01*
X323871Y383421D01*
X323595Y383872D01*
X323251Y384275D01*
X322848Y384618D01*
X322397Y384895D01*
X321908Y385097D01*
X321725Y385141D01*
Y436181D01*
X321732Y436180D01*
X322478Y436239D01*
X323205Y436413D01*
X323895Y436700D01*
X324533Y437090D01*
X325101Y437576D01*
X325587Y438144D01*
X325978Y438782D01*
X326264Y439473D01*
X326438Y440200D01*
X326482Y440945D01*
X326438Y441690D01*
X326264Y442417D01*
X325978Y443108D01*
X325587Y443745D01*
X325101Y444314D01*
X324533Y444800D01*
X323895Y445190D01*
X323205Y445476D01*
X322478Y445651D01*
X321732Y445710D01*
X321725Y445709D01*
Y468504D01*
X329232D01*
Y444984D01*
X328932Y444800D01*
X328363Y444314D01*
X327878Y443745D01*
X327487Y443108D01*
X327201Y442417D01*
X327026Y441690D01*
X326968Y440945D01*
X327026Y440200D01*
X327201Y439473D01*
X327487Y438782D01*
X327878Y438144D01*
X328363Y437576D01*
X328932Y437090D01*
X329232Y436906D01*
Y350707D01*
X325749Y350699D01*
X325519Y350644D01*
X325301Y350553D01*
X325100Y350430D01*
X324920Y350277D01*
X324767Y350097D01*
X324644Y349896D01*
X324553Y349678D01*
X324498Y349448D01*
X324484Y349213D01*
X324498Y343465D01*
X324553Y343236D01*
X324644Y343018D01*
X324767Y342816D01*
X324920Y342637D01*
X325100Y342484D01*
X325301Y342360D01*
X325519Y342270D01*
X325749Y342215D01*
X325984Y342201D01*
X329232Y342209D01*
Y330687D01*
X328740Y330726D01*
X328072Y330673D01*
X327421Y330517D01*
X326802Y330260D01*
X326231Y329910D01*
X325721Y329475D01*
X325286Y328966D01*
X324936Y328395D01*
X324680Y327776D01*
X324524Y327125D01*
X324471Y326457D01*
X324524Y325789D01*
X324680Y325137D01*
X324936Y324519D01*
X325286Y323947D01*
X325721Y323438D01*
X326231Y323003D01*
X326802Y322653D01*
X327421Y322397D01*
X328072Y322240D01*
X328740Y322188D01*
X329232Y322226D01*
Y285134D01*
X326845Y285131D01*
X326724Y285102D01*
X326610Y285054D01*
X326504Y284989D01*
X326410Y284909D01*
X326330Y284815D01*
X326265Y284709D01*
X326217Y284594D01*
X326188Y284474D01*
X326181Y284350D01*
X326188Y278518D01*
X326217Y278398D01*
X326265Y278283D01*
X326330Y278177D01*
X326410Y278083D01*
X326504Y278003D01*
X326610Y277938D01*
X326724Y277891D01*
X326845Y277862D01*
X326968Y277854D01*
X329232Y277858D01*
Y246088D01*
X329166Y246031D01*
X329085Y245937D01*
X329021Y245831D01*
X328973Y245717D01*
X328944Y245596D01*
X328937Y245472D01*
X328938Y244799D01*
X321725D01*
Y333409D01*
X321759Y333438D01*
X322194Y333947D01*
X322544Y334519D01*
X322800Y335137D01*
X322957Y335789D01*
X322996Y336457D01*
X322957Y337125D01*
X322800Y337776D01*
X322544Y338395D01*
X322194Y338966D01*
X321759Y339475D01*
X321725Y339504D01*
Y378638D01*
G37*
G36*
X329232Y137795D02*X321725D01*
Y231579D01*
X322776D01*
X322977Y231343D01*
X323285Y231080D01*
X323631Y230868D01*
X324005Y230713D01*
X324399Y230618D01*
X324803Y230587D01*
X325207Y230618D01*
X325601Y230713D01*
X325976Y230868D01*
X326321Y231080D01*
X326629Y231343D01*
X326831Y231579D01*
X329232D01*
Y137795D01*
G37*
G36*
X321725Y385141D02*X321394Y385221D01*
X320866Y385262D01*
X320339Y385221D01*
X319824Y385097D01*
X319335Y384895D01*
X318884Y384618D01*
X318589Y384366D01*
X315270D01*
X314974Y384618D01*
X314523Y384895D01*
X314034Y385097D01*
X313520Y385221D01*
X312992Y385262D01*
X312465Y385221D01*
X311950Y385097D01*
X311461Y384895D01*
X311220Y384747D01*
Y415450D01*
X311474Y415233D01*
X311820Y415022D01*
X312194Y414866D01*
X312588Y414772D01*
X312992Y414740D01*
X313396Y414772D01*
X313790Y414866D01*
X314165Y415022D01*
X314510Y415233D01*
X314818Y415497D01*
X315082Y415805D01*
X315293Y416150D01*
X315448Y416525D01*
X315543Y416919D01*
X315567Y417323D01*
X315543Y417727D01*
X315448Y418121D01*
X315293Y418495D01*
X315082Y418841D01*
X314818Y419149D01*
X314510Y419412D01*
X314165Y419624D01*
X313790Y419779D01*
X313396Y419874D01*
X312992Y419906D01*
X312588Y419874D01*
X312194Y419779D01*
X311820Y419624D01*
X311474Y419412D01*
X311220Y419196D01*
Y468504D01*
X321725D01*
Y445709D01*
X320987Y445651D01*
X320260Y445476D01*
X319569Y445190D01*
X318932Y444800D01*
X318363Y444314D01*
X317878Y443745D01*
X317487Y443108D01*
X317201Y442417D01*
X317026Y441690D01*
X316968Y440945D01*
X317026Y440200D01*
X317201Y439473D01*
X317487Y438782D01*
X317878Y438144D01*
X318363Y437576D01*
X318932Y437090D01*
X319569Y436700D01*
X320260Y436413D01*
X320987Y436239D01*
X321725Y436181D01*
Y385141D01*
G37*
G36*
Y137795D02*X311220D01*
Y230122D01*
X312525Y230125D01*
X312646Y230154D01*
X312760Y230202D01*
X312866Y230267D01*
X312960Y230347D01*
X313041Y230441D01*
X313105Y230547D01*
X313153Y230661D01*
X313182Y230782D01*
X313189Y230906D01*
X313182Y235557D01*
X313153Y235677D01*
X313105Y235792D01*
X313041Y235897D01*
X312960Y235992D01*
X312866Y236072D01*
X312760Y236137D01*
X312646Y236184D01*
X312525Y236213D01*
X312402Y236220D01*
X311220Y236217D01*
Y260220D01*
X312933D01*
X313134Y259985D01*
X313443Y259722D01*
X313788Y259510D01*
X314163Y259355D01*
X314557Y259260D01*
X314961Y259228D01*
X315365Y259260D01*
X315759Y259355D01*
X316133Y259510D01*
X316479Y259722D01*
X316787Y259985D01*
X317050Y260293D01*
X317262Y260638D01*
X317417Y261013D01*
X317512Y261407D01*
X317535Y261811D01*
X317512Y262215D01*
X317417Y262609D01*
X317262Y262984D01*
X317050Y263329D01*
X316787Y263637D01*
X316479Y263901D01*
X316133Y264112D01*
X315759Y264267D01*
X315365Y264362D01*
X314961Y264394D01*
X314557Y264362D01*
X314163Y264267D01*
X313788Y264112D01*
X313443Y263901D01*
X313134Y263637D01*
X312933Y263402D01*
X311220D01*
Y379032D01*
X311461Y378885D01*
X311950Y378682D01*
X312465Y378559D01*
X312992Y378517D01*
X313520Y378559D01*
X314034Y378682D01*
X314523Y378885D01*
X314974Y379161D01*
X315270Y379413D01*
X318589D01*
X318884Y379161D01*
X319335Y378885D01*
X319824Y378682D01*
X320339Y378559D01*
X320866Y378517D01*
X321394Y378559D01*
X321725Y378638D01*
Y339504D01*
X321249Y339910D01*
X320678Y340260D01*
X320059Y340517D01*
X319408Y340673D01*
X318740Y340726D01*
X318072Y340673D01*
X317421Y340517D01*
X316802Y340260D01*
X316231Y339910D01*
X315721Y339475D01*
X315286Y338966D01*
X314936Y338395D01*
X314680Y337776D01*
X314524Y337125D01*
X314471Y336457D01*
X314524Y335789D01*
X314680Y335137D01*
X314936Y334519D01*
X315286Y333947D01*
X315721Y333438D01*
X316231Y333003D01*
X316802Y332653D01*
X317421Y332397D01*
X318072Y332240D01*
X318740Y332188D01*
X319408Y332240D01*
X320059Y332397D01*
X320678Y332653D01*
X321249Y333003D01*
X321725Y333409D01*
Y244799D01*
X316923D01*
X316922Y245596D01*
X316893Y245717D01*
X316845Y245831D01*
X316781Y245937D01*
X316700Y246031D01*
X316606Y246111D01*
X316500Y246176D01*
X316386Y246224D01*
X316265Y246253D01*
X316142Y246260D01*
X313656Y246253D01*
X313535Y246224D01*
X313421Y246176D01*
X313315Y246111D01*
X313221Y246031D01*
X313141Y245937D01*
X313076Y245831D01*
X313028Y245717D01*
X312999Y245596D01*
X312992Y245472D01*
X312999Y240821D01*
X313028Y240701D01*
X313076Y240586D01*
X313141Y240481D01*
X313221Y240386D01*
X313315Y240306D01*
X313421Y240241D01*
X313535Y240194D01*
X313656Y240165D01*
X313780Y240157D01*
X316265Y240165D01*
X316386Y240194D01*
X316500Y240241D01*
X316606Y240306D01*
X316700Y240386D01*
X316781Y240481D01*
X316845Y240586D01*
X316893Y240701D01*
X316922Y240821D01*
X316929Y240945D01*
X316928Y241618D01*
X321725D01*
Y234760D01*
X320663D01*
X320662Y235557D01*
X320633Y235677D01*
X320586Y235792D01*
X320521Y235897D01*
X320440Y235992D01*
X320346Y236072D01*
X320240Y236137D01*
X320126Y236184D01*
X320005Y236213D01*
X319882Y236220D01*
X317396Y236213D01*
X317276Y236184D01*
X317161Y236137D01*
X317055Y236072D01*
X316961Y235992D01*
X316881Y235897D01*
X316816Y235792D01*
X316769Y235677D01*
X316740Y235557D01*
X316732Y235433D01*
X316740Y230782D01*
X316769Y230661D01*
X316816Y230547D01*
X316881Y230441D01*
X316961Y230347D01*
X317055Y230267D01*
X317161Y230202D01*
X317276Y230154D01*
X317396Y230125D01*
X317520Y230118D01*
X320005Y230125D01*
X320126Y230154D01*
X320240Y230202D01*
X320346Y230267D01*
X320440Y230347D01*
X320521Y230441D01*
X320586Y230547D01*
X320633Y230661D01*
X320662Y230782D01*
X320669Y230906D01*
X320668Y231579D01*
X321725D01*
Y137795D01*
G37*
G36*
X311220D02*X259843D01*
Y196236D01*
X260247Y196268D01*
X260641Y196363D01*
X261015Y196518D01*
X261361Y196729D01*
X261484Y196835D01*
X266075D01*
X266198Y196729D01*
X266544Y196518D01*
X266918Y196363D01*
X267313Y196268D01*
X267717Y196236D01*
X268121Y196268D01*
X268515Y196363D01*
X268889Y196518D01*
X269235Y196729D01*
X269543Y196993D01*
X269806Y197301D01*
X270018Y197646D01*
X270173Y198021D01*
X270267Y198415D01*
X270291Y198819D01*
X270267Y199223D01*
X270173Y199617D01*
X270018Y199991D01*
X269806Y200337D01*
X269543Y200645D01*
X269235Y200908D01*
X268889Y201120D01*
X268515Y201275D01*
X268121Y201370D01*
X267717Y201402D01*
X267313Y201370D01*
X266918Y201275D01*
X266544Y201120D01*
X266198Y200908D01*
X266075Y200803D01*
X261484D01*
X261361Y200908D01*
X261015Y201120D01*
X260641Y201275D01*
X260247Y201370D01*
X259843Y201402D01*
Y243480D01*
X260247Y243512D01*
X260641Y243607D01*
X261015Y243762D01*
X261361Y243974D01*
X261484Y244079D01*
X266075D01*
X266198Y243974D01*
X266544Y243762D01*
X266918Y243607D01*
X267313Y243512D01*
X267717Y243480D01*
X268121Y243512D01*
X268515Y243607D01*
X268889Y243762D01*
X269235Y243974D01*
X269543Y244237D01*
X269806Y244545D01*
X270018Y244890D01*
X270173Y245265D01*
X270267Y245659D01*
X270291Y246063D01*
X270267Y246467D01*
X270173Y246861D01*
X270018Y247236D01*
X269806Y247581D01*
X269543Y247889D01*
X269235Y248152D01*
X268889Y248364D01*
X268515Y248519D01*
X268121Y248614D01*
X267717Y248646D01*
X267313Y248614D01*
X266918Y248519D01*
X266544Y248364D01*
X266198Y248152D01*
X266075Y248047D01*
X261484D01*
X261361Y248152D01*
X261015Y248364D01*
X260641Y248519D01*
X260247Y248614D01*
X259843Y248646D01*
Y468504D01*
X311220D01*
Y419196D01*
X311166Y419149D01*
X310965Y418913D01*
X291398D01*
X291196Y419149D01*
X290888Y419412D01*
X290543Y419624D01*
X290168Y419779D01*
X289774Y419874D01*
X289370Y419906D01*
X288966Y419874D01*
X288572Y419779D01*
X288198Y419624D01*
X287852Y419412D01*
X287544Y419149D01*
X287281Y418841D01*
X287069Y418495D01*
X286914Y418121D01*
X286819Y417727D01*
X286787Y417323D01*
X286819Y416919D01*
X286914Y416525D01*
X287069Y416150D01*
X287281Y415805D01*
X287544Y415497D01*
X287852Y415233D01*
X288198Y415022D01*
X288572Y414866D01*
X288966Y414772D01*
X289370Y414740D01*
X289774Y414772D01*
X290168Y414866D01*
X290543Y415022D01*
X290888Y415233D01*
X291196Y415497D01*
X291398Y415732D01*
X310965D01*
X311166Y415497D01*
X311220Y415450D01*
Y384747D01*
X311010Y384618D01*
X310715Y384366D01*
X300278D01*
X300452Y384785D01*
X300575Y385299D01*
X300606Y385827D01*
X300575Y386354D01*
X300452Y386869D01*
X300249Y387358D01*
X299973Y387809D01*
X299629Y388212D01*
X299226Y388555D01*
X298775Y388832D01*
X298286Y389034D01*
X297772Y389158D01*
X297244Y389199D01*
X296717Y389158D01*
X296202Y389034D01*
X295713Y388832D01*
X295262Y388555D01*
X294859Y388212D01*
X294516Y387809D01*
X294239Y387358D01*
X294037Y386869D01*
X293913Y386354D01*
X293872Y385827D01*
X293913Y385299D01*
X294037Y384785D01*
X294239Y384296D01*
X294516Y383844D01*
X294768Y383549D01*
Y381987D01*
X294760Y381890D01*
X294768Y381793D01*
Y380230D01*
X294516Y379935D01*
X294239Y379484D01*
X294037Y378995D01*
X293913Y378480D01*
X293872Y377953D01*
X293913Y377425D01*
X294037Y376911D01*
X294239Y376422D01*
X294516Y375970D01*
X294859Y375568D01*
X295262Y375224D01*
X295713Y374948D01*
X296202Y374745D01*
X296717Y374622D01*
X297244Y374580D01*
X297772Y374622D01*
X298286Y374745D01*
X298775Y374948D01*
X299226Y375224D01*
X299629Y375568D01*
X299973Y375970D01*
X300249Y376422D01*
X300452Y376911D01*
X300575Y377425D01*
X300606Y377953D01*
X300575Y378480D01*
X300452Y378995D01*
X300278Y379413D01*
X310715D01*
X311010Y379161D01*
X311220Y379032D01*
Y263402D01*
X309114D01*
X308913Y263637D01*
X308605Y263901D01*
X308259Y264112D01*
X307885Y264267D01*
X307491Y264362D01*
X307087Y264394D01*
X306683Y264362D01*
X306289Y264267D01*
X305914Y264112D01*
X305569Y263901D01*
X305260Y263637D01*
X304997Y263329D01*
X304785Y262984D01*
X304630Y262609D01*
X304536Y262215D01*
X304504Y261811D01*
X304536Y261407D01*
X304630Y261013D01*
X304785Y260638D01*
X304997Y260293D01*
X305260Y259985D01*
X305569Y259722D01*
X305914Y259510D01*
X306289Y259355D01*
X306683Y259260D01*
X307087Y259228D01*
X307491Y259260D01*
X307885Y259355D01*
X308259Y259510D01*
X308605Y259722D01*
X308913Y259985D01*
X309114Y260220D01*
X311220D01*
Y236217D01*
X309916Y236213D01*
X309795Y236184D01*
X309681Y236137D01*
X309575Y236072D01*
X309481Y235992D01*
X309400Y235897D01*
X309336Y235792D01*
X309288Y235677D01*
X309259Y235557D01*
X309252Y235433D01*
X309259Y230782D01*
X309288Y230661D01*
X309336Y230547D01*
X309400Y230441D01*
X309481Y230347D01*
X309575Y230267D01*
X309681Y230202D01*
X309795Y230154D01*
X309916Y230125D01*
X310039Y230118D01*
X311220Y230122D01*
Y137795D01*
G37*
G36*
X468504Y437008D02*Y110236D01*
X462192D01*
Y165953D01*
X462194Y165955D01*
X462264Y166050D01*
X462617Y166639D01*
X462910Y167261D01*
X463147Y167907D01*
X463327Y168570D01*
X463447Y169247D01*
X463508Y169932D01*
Y170619D01*
X463447Y171304D01*
X463327Y171981D01*
X463147Y172645D01*
X462910Y173290D01*
X462617Y173912D01*
X462270Y174506D01*
X462199Y174601D01*
X462192Y174607D01*
Y437008D01*
X468504D01*
G37*
G36*
X462192Y110236D02*X455712D01*
Y162476D01*
X456052D01*
X456737Y162537D01*
X457414Y162657D01*
X458078Y162837D01*
X458723Y163074D01*
X459345Y163367D01*
X459939Y163714D01*
X460034Y163785D01*
X460116Y163872D01*
X460184Y163969D01*
X460235Y164077D01*
X460269Y164191D01*
X460285Y164309D01*
X460283Y164428D01*
X460261Y164545D01*
X460222Y164657D01*
X460166Y164762D01*
X460093Y164856D01*
X460007Y164939D01*
X459910Y165006D01*
X459802Y165058D01*
X459688Y165092D01*
X459570Y165108D01*
X459451Y165105D01*
X459334Y165084D01*
X459222Y165045D01*
X459118Y164986D01*
X458643Y164701D01*
X458141Y164465D01*
X457620Y164273D01*
X457085Y164129D01*
X456539Y164031D01*
X455986Y163982D01*
X455712D01*
Y176569D01*
X455986D01*
X456539Y176520D01*
X457085Y176423D01*
X457620Y176278D01*
X458141Y176086D01*
X458643Y175850D01*
X459122Y175570D01*
X459224Y175512D01*
X459336Y175473D01*
X459452Y175452D01*
X459570Y175449D01*
X459687Y175465D01*
X459800Y175499D01*
X459906Y175550D01*
X460004Y175617D01*
X460089Y175699D01*
X460160Y175793D01*
X460216Y175897D01*
X460255Y176008D01*
X460277Y176124D01*
X460279Y176242D01*
X460263Y176359D01*
X460230Y176472D01*
X460178Y176579D01*
X460111Y176676D01*
X460030Y176761D01*
X459934Y176831D01*
X459345Y177184D01*
X458723Y177477D01*
X458078Y177714D01*
X457414Y177894D01*
X456737Y178014D01*
X456052Y178075D01*
X455712D01*
Y437008D01*
X462192D01*
Y174607D01*
X462113Y174683D01*
X462015Y174751D01*
X461908Y174802D01*
X461794Y174836D01*
X461676Y174852D01*
X461557Y174850D01*
X461440Y174828D01*
X461327Y174789D01*
X461223Y174733D01*
X461128Y174660D01*
X461046Y174574D01*
X460978Y174476D01*
X460926Y174369D01*
X460892Y174255D01*
X460876Y174137D01*
X460879Y174018D01*
X460900Y173901D01*
X460940Y173789D01*
X460998Y173685D01*
X461283Y173210D01*
X461519Y172708D01*
X461711Y172187D01*
X461856Y171652D01*
X461953Y171106D01*
X462002Y170553D01*
Y169998D01*
X461953Y169446D01*
X461856Y168899D01*
X461711Y168364D01*
X461519Y167843D01*
X461283Y167342D01*
X461003Y166863D01*
X460945Y166760D01*
X460906Y166648D01*
X460885Y166532D01*
X460882Y166414D01*
X460898Y166297D01*
X460932Y166184D01*
X460983Y166078D01*
X461050Y165981D01*
X461132Y165895D01*
X461226Y165824D01*
X461330Y165768D01*
X461441Y165729D01*
X461557Y165708D01*
X461675Y165705D01*
X461792Y165721D01*
X461905Y165755D01*
X462012Y165806D01*
X462109Y165873D01*
X462192Y165953D01*
Y110236D01*
G37*
G36*
X455712D02*X450501D01*
Y117657D01*
X450508Y117657D01*
X451253Y117715D01*
X451980Y117890D01*
X452671Y118176D01*
X453308Y118567D01*
X453877Y119052D01*
X454363Y119621D01*
X454753Y120258D01*
X455039Y120949D01*
X455214Y121676D01*
X455258Y122421D01*
X455214Y123167D01*
X455039Y123894D01*
X454753Y124584D01*
X454363Y125222D01*
X453877Y125790D01*
X453308Y126276D01*
X452671Y126667D01*
X451980Y126953D01*
X451253Y127127D01*
X450508Y127186D01*
X450501Y127185D01*
Y166214D01*
X450525Y166296D01*
X450541Y166414D01*
X450538Y166533D01*
X450517Y166650D01*
X450501Y166697D01*
Y173872D01*
X450511Y173903D01*
X450532Y174019D01*
X450535Y174137D01*
X450519Y174254D01*
X450501Y174316D01*
Y263326D01*
X450508Y263326D01*
X451253Y263385D01*
X451980Y263559D01*
X452671Y263845D01*
X453308Y264236D01*
X453877Y264721D01*
X454363Y265290D01*
X454753Y265927D01*
X455039Y266618D01*
X455214Y267345D01*
X455258Y268091D01*
X455214Y268836D01*
X455039Y269563D01*
X454753Y270254D01*
X454363Y270891D01*
X453877Y271460D01*
X453308Y271945D01*
X452671Y272336D01*
X451980Y272622D01*
X451253Y272797D01*
X450508Y272855D01*
X450501Y272855D01*
Y318445D01*
X450508Y318444D01*
X451253Y318503D01*
X451980Y318677D01*
X452671Y318963D01*
X453308Y319354D01*
X453877Y319840D01*
X454363Y320408D01*
X454753Y321046D01*
X455039Y321736D01*
X455214Y322463D01*
X455258Y323209D01*
X455214Y323954D01*
X455039Y324681D01*
X454753Y325372D01*
X454363Y326009D01*
X453877Y326578D01*
X453308Y327063D01*
X452671Y327454D01*
X451980Y327740D01*
X451253Y327915D01*
X450508Y327973D01*
X450501Y327973D01*
Y377500D01*
X450508Y377499D01*
X451253Y377558D01*
X451980Y377732D01*
X452671Y378018D01*
X453308Y378409D01*
X453877Y378895D01*
X454363Y379463D01*
X454753Y380101D01*
X455039Y380791D01*
X455214Y381518D01*
X455258Y382264D01*
X455214Y383009D01*
X455039Y383736D01*
X454753Y384427D01*
X454363Y385064D01*
X453877Y385633D01*
X453308Y386118D01*
X452671Y386509D01*
X451980Y386795D01*
X451253Y386970D01*
X450508Y387028D01*
X450501Y387028D01*
Y437008D01*
X455712D01*
Y178075D01*
X455365D01*
X454680Y178014D01*
X454003Y177894D01*
X453340Y177714D01*
X452694Y177477D01*
X452072Y177184D01*
X451479Y176837D01*
X451384Y176766D01*
X451301Y176680D01*
X451234Y176582D01*
X451182Y176475D01*
X451148Y176361D01*
X451132Y176243D01*
X451135Y176124D01*
X451156Y176007D01*
X451195Y175894D01*
X451252Y175789D01*
X451324Y175695D01*
X451410Y175613D01*
X451508Y175545D01*
X451615Y175493D01*
X451729Y175459D01*
X451847Y175443D01*
X451966Y175446D01*
X452083Y175467D01*
X452195Y175506D01*
X452299Y175565D01*
X452775Y175850D01*
X453276Y176086D01*
X453797Y176278D01*
X454333Y176423D01*
X454879Y176520D01*
X455431Y176569D01*
X455712D01*
Y163982D01*
X455431D01*
X454879Y164031D01*
X454333Y164129D01*
X453797Y164273D01*
X453276Y164465D01*
X452775Y164701D01*
X452296Y164981D01*
X452193Y165039D01*
X452081Y165078D01*
X451965Y165099D01*
X451847Y165102D01*
X451730Y165086D01*
X451617Y165052D01*
X451511Y165001D01*
X451414Y164934D01*
X451328Y164852D01*
X451257Y164758D01*
X451201Y164654D01*
X451162Y164543D01*
X451141Y164427D01*
X451138Y164309D01*
X451154Y164192D01*
X451188Y164079D01*
X451239Y163972D01*
X451306Y163875D01*
X451388Y163790D01*
X451483Y163720D01*
X452072Y163367D01*
X452694Y163074D01*
X453340Y162837D01*
X454003Y162657D01*
X454680Y162537D01*
X455365Y162476D01*
X455712D01*
Y110236D01*
G37*
G36*
X450414Y173689D02*X450472Y173791D01*
X450501Y173872D01*
Y166697D01*
X450478Y166762D01*
X450419Y166866D01*
X450134Y167342D01*
X449898Y167843D01*
X449707Y168364D01*
X449562Y168899D01*
X449464Y169446D01*
X449416Y169998D01*
Y170553D01*
X449464Y171106D01*
X449562Y171652D01*
X449707Y172187D01*
X449898Y172708D01*
X450134Y173210D01*
X450414Y173689D01*
G37*
G36*
X450501Y110236D02*X440840D01*
Y125289D01*
X440941Y125331D01*
X441142Y125454D01*
X441322Y125607D01*
X441475Y125787D01*
X441599Y125988D01*
X441689Y126206D01*
X441744Y126436D01*
X441758Y126671D01*
X441744Y133407D01*
X441689Y133636D01*
X441599Y133854D01*
X441475Y134056D01*
X441322Y134235D01*
X441142Y134389D01*
X440941Y134512D01*
X440840Y134554D01*
Y137094D01*
X440863Y137121D01*
X441253Y137758D01*
X441539Y138449D01*
X441714Y139176D01*
X441758Y139921D01*
X441714Y140667D01*
X441539Y141394D01*
X441253Y142084D01*
X440863Y142722D01*
X440840Y142749D01*
Y147094D01*
X440863Y147121D01*
X441253Y147758D01*
X441539Y148449D01*
X441714Y149176D01*
X441758Y149921D01*
X441714Y150667D01*
X441539Y151394D01*
X441253Y152084D01*
X440863Y152722D01*
X440840Y152749D01*
Y270958D01*
X440941Y271000D01*
X441142Y271123D01*
X441322Y271277D01*
X441475Y271456D01*
X441599Y271657D01*
X441689Y271876D01*
X441744Y272105D01*
X441758Y272341D01*
X441744Y279076D01*
X441689Y279306D01*
X441599Y279524D01*
X441475Y279725D01*
X441322Y279904D01*
X441142Y280058D01*
X440941Y280181D01*
X440840Y280223D01*
Y282763D01*
X440863Y282790D01*
X441253Y283427D01*
X441539Y284118D01*
X441714Y284845D01*
X441758Y285591D01*
X441714Y286336D01*
X441539Y287063D01*
X441253Y287754D01*
X440863Y288391D01*
X440840Y288418D01*
Y292763D01*
X440863Y292790D01*
X441253Y293427D01*
X441539Y294118D01*
X441714Y294845D01*
X441758Y295591D01*
X441714Y296336D01*
X441539Y297063D01*
X441253Y297754D01*
X440863Y298391D01*
X440840Y298418D01*
Y326076D01*
X440941Y326118D01*
X441142Y326241D01*
X441322Y326395D01*
X441475Y326574D01*
X441599Y326776D01*
X441689Y326994D01*
X441744Y327223D01*
X441758Y327459D01*
X441744Y334194D01*
X441689Y334424D01*
X441599Y334642D01*
X441475Y334843D01*
X441322Y335023D01*
X441142Y335176D01*
X440941Y335299D01*
X440840Y335341D01*
Y337881D01*
X440863Y337908D01*
X441253Y338546D01*
X441539Y339236D01*
X441714Y339963D01*
X441758Y340709D01*
X441714Y341454D01*
X441539Y342181D01*
X441253Y342872D01*
X440863Y343509D01*
X440840Y343536D01*
Y347881D01*
X440863Y347908D01*
X441253Y348546D01*
X441539Y349236D01*
X441714Y349963D01*
X441758Y350709D01*
X441714Y351454D01*
X441539Y352181D01*
X441253Y352872D01*
X440863Y353509D01*
X440840Y353536D01*
Y385131D01*
X440941Y385173D01*
X441142Y385297D01*
X441322Y385450D01*
X441475Y385629D01*
X441599Y385831D01*
X441689Y386049D01*
X441744Y386278D01*
X441758Y386514D01*
X441744Y393249D01*
X441689Y393479D01*
X441599Y393697D01*
X441475Y393898D01*
X441322Y394078D01*
X441142Y394231D01*
X440941Y394354D01*
X440840Y394396D01*
Y397434D01*
X440951Y397468D01*
X441057Y397520D01*
X441154Y397587D01*
X441239Y397669D01*
X441310Y397764D01*
X441363Y397869D01*
X441523Y398272D01*
X441640Y398689D01*
X441718Y399115D01*
X441758Y399547D01*
Y399981D01*
X441718Y400412D01*
X441640Y400839D01*
X441523Y401256D01*
X441368Y401661D01*
X441313Y401766D01*
X441242Y401861D01*
X441156Y401943D01*
X441059Y402011D01*
X440953Y402063D01*
X440840Y402097D01*
Y407434D01*
X440951Y407468D01*
X441057Y407520D01*
X441154Y407587D01*
X441239Y407669D01*
X441310Y407764D01*
X441363Y407869D01*
X441523Y408272D01*
X441640Y408689D01*
X441718Y409115D01*
X441758Y409547D01*
Y409981D01*
X441718Y410412D01*
X441640Y410839D01*
X441523Y411256D01*
X441368Y411661D01*
X441313Y411766D01*
X441242Y411861D01*
X441156Y411943D01*
X441059Y412011D01*
X440953Y412063D01*
X440840Y412097D01*
Y416936D01*
X440863Y416963D01*
X441253Y417601D01*
X441539Y418291D01*
X441714Y419018D01*
X441758Y419764D01*
X441714Y420509D01*
X441539Y421236D01*
X441253Y421927D01*
X440863Y422564D01*
X440840Y422591D01*
Y437008D01*
X450501D01*
Y387028D01*
X449763Y386970D01*
X449036Y386795D01*
X448345Y386509D01*
X447707Y386118D01*
X447139Y385633D01*
X446653Y385064D01*
X446263Y384427D01*
X445976Y383736D01*
X445802Y383009D01*
X445743Y382264D01*
X445802Y381518D01*
X445976Y380791D01*
X446263Y380101D01*
X446653Y379463D01*
X447139Y378895D01*
X447707Y378409D01*
X448345Y378018D01*
X449036Y377732D01*
X449763Y377558D01*
X450501Y377500D01*
Y327973D01*
X449763Y327915D01*
X449036Y327740D01*
X448345Y327454D01*
X447707Y327063D01*
X447139Y326578D01*
X446653Y326009D01*
X446263Y325372D01*
X445976Y324681D01*
X445802Y323954D01*
X445743Y323209D01*
X445802Y322463D01*
X445976Y321736D01*
X446263Y321046D01*
X446653Y320408D01*
X447139Y319840D01*
X447707Y319354D01*
X448345Y318963D01*
X449036Y318677D01*
X449763Y318503D01*
X450501Y318445D01*
Y272855D01*
X449763Y272797D01*
X449036Y272622D01*
X448345Y272336D01*
X447707Y271945D01*
X447139Y271460D01*
X446653Y270891D01*
X446263Y270254D01*
X445976Y269563D01*
X445802Y268836D01*
X445743Y268091D01*
X445802Y267345D01*
X445976Y266618D01*
X446263Y265927D01*
X446653Y265290D01*
X447139Y264721D01*
X447707Y264236D01*
X448345Y263845D01*
X449036Y263559D01*
X449763Y263385D01*
X450501Y263326D01*
Y174316D01*
X450485Y174367D01*
X450434Y174473D01*
X450367Y174570D01*
X450285Y174656D01*
X450191Y174727D01*
X450088Y174783D01*
X449976Y174822D01*
X449860Y174843D01*
X449742Y174846D01*
X449625Y174830D01*
X449512Y174796D01*
X449406Y174745D01*
X449308Y174678D01*
X449223Y174597D01*
X449154Y174501D01*
X448800Y173912D01*
X448507Y173290D01*
X448270Y172645D01*
X448090Y171981D01*
X447970Y171304D01*
X447909Y170619D01*
Y169932D01*
X447970Y169247D01*
X448090Y168570D01*
X448270Y167907D01*
X448507Y167261D01*
X448800Y166639D01*
X449147Y166046D01*
X449219Y165951D01*
X449305Y165868D01*
X449402Y165801D01*
X449510Y165749D01*
X449624Y165715D01*
X449742Y165699D01*
X449861Y165702D01*
X449978Y165723D01*
X450090Y165762D01*
X450195Y165819D01*
X450289Y165891D01*
X450372Y165977D01*
X450439Y166075D01*
X450491Y166182D01*
X450501Y166214D01*
Y127185D01*
X449763Y127127D01*
X449036Y126953D01*
X448345Y126667D01*
X447707Y126276D01*
X447139Y125790D01*
X446653Y125222D01*
X446263Y124584D01*
X445976Y123894D01*
X445802Y123167D01*
X445743Y122421D01*
X445802Y121676D01*
X445976Y120949D01*
X446263Y120258D01*
X446653Y119621D01*
X447139Y119052D01*
X447707Y118567D01*
X448345Y118176D01*
X449036Y117890D01*
X449763Y117715D01*
X450501Y117657D01*
Y110236D01*
G37*
G36*
X440840Y422591D02*X440377Y423133D01*
X439808Y423618D01*
X439171Y424009D01*
X438480Y424295D01*
X437753Y424470D01*
X437008Y424528D01*
X437001Y424528D01*
Y468504D01*
X437008D01*
Y437008D01*
X440840D01*
Y422591D01*
G37*
G36*
Y394396D02*X440723Y394445D01*
X440493Y394500D01*
X440258Y394514D01*
X437001Y394507D01*
Y395014D01*
X437225D01*
X437656Y395053D01*
X438083Y395132D01*
X438500Y395249D01*
X438905Y395404D01*
X439010Y395459D01*
X439105Y395530D01*
X439187Y395615D01*
X439255Y395713D01*
X439307Y395819D01*
X439342Y395933D01*
X439358Y396050D01*
X439356Y396169D01*
X439335Y396285D01*
X439297Y396397D01*
X439241Y396502D01*
X439170Y396597D01*
X439084Y396679D01*
X438987Y396747D01*
X438881Y396799D01*
X438767Y396834D01*
X438650Y396850D01*
X438531Y396848D01*
X438414Y396828D01*
X438303Y396787D01*
X438028Y396678D01*
X437742Y396598D01*
X437451Y396544D01*
X437156Y396517D01*
X437001D01*
Y403010D01*
X437156D01*
X437451Y402983D01*
X437742Y402930D01*
X438028Y402850D01*
X438305Y402744D01*
X438415Y402703D01*
X438531Y402683D01*
X438650Y402681D01*
X438766Y402697D01*
X438879Y402732D01*
X438985Y402783D01*
X439082Y402851D01*
X439167Y402933D01*
X439238Y403027D01*
X439294Y403131D01*
X439332Y403243D01*
X439353Y403359D01*
X439355Y403477D01*
X439338Y403594D01*
X439304Y403707D01*
X439252Y403813D01*
X439184Y403910D01*
X439102Y403995D01*
X439008Y404066D01*
X438903Y404119D01*
X438500Y404279D01*
X438083Y404396D01*
X437656Y404474D01*
X437225Y404514D01*
X437001D01*
Y405014D01*
X437225D01*
X437656Y405053D01*
X438083Y405132D01*
X438500Y405249D01*
X438905Y405404D01*
X439010Y405459D01*
X439105Y405530D01*
X439187Y405615D01*
X439255Y405713D01*
X439307Y405819D01*
X439342Y405933D01*
X439358Y406050D01*
X439356Y406169D01*
X439335Y406285D01*
X439297Y406397D01*
X439241Y406502D01*
X439170Y406597D01*
X439084Y406679D01*
X438987Y406747D01*
X438881Y406799D01*
X438767Y406834D01*
X438650Y406850D01*
X438531Y406848D01*
X438414Y406828D01*
X438303Y406787D01*
X438028Y406678D01*
X437742Y406598D01*
X437451Y406544D01*
X437156Y406517D01*
X437001D01*
Y413010D01*
X437156D01*
X437451Y412983D01*
X437742Y412930D01*
X438028Y412850D01*
X438305Y412744D01*
X438415Y412703D01*
X438531Y412683D01*
X438650Y412681D01*
X438766Y412697D01*
X438879Y412732D01*
X438985Y412783D01*
X439082Y412851D01*
X439167Y412933D01*
X439238Y413027D01*
X439294Y413131D01*
X439332Y413243D01*
X439353Y413359D01*
X439355Y413477D01*
X439338Y413594D01*
X439304Y413707D01*
X439252Y413813D01*
X439184Y413910D01*
X439102Y413995D01*
X439008Y414066D01*
X438903Y414119D01*
X438500Y414279D01*
X438083Y414396D01*
X437656Y414474D01*
X437225Y414514D01*
X437001D01*
Y415000D01*
X437008Y414999D01*
X437753Y415058D01*
X438480Y415232D01*
X439171Y415518D01*
X439808Y415909D01*
X440377Y416395D01*
X440840Y416936D01*
Y412097D01*
X440839Y412098D01*
X440722Y412114D01*
X440603Y412112D01*
X440486Y412091D01*
X440374Y412053D01*
X440270Y411997D01*
X440175Y411926D01*
X440092Y411840D01*
X440024Y411743D01*
X439973Y411636D01*
X439938Y411523D01*
X439921Y411406D01*
X439924Y411287D01*
X439944Y411170D01*
X439985Y411059D01*
X440094Y410784D01*
X440174Y410498D01*
X440228Y410207D01*
X440254Y409912D01*
Y409616D01*
X440228Y409321D01*
X440174Y409029D01*
X440094Y408744D01*
X439988Y408467D01*
X439947Y408356D01*
X439927Y408240D01*
X439925Y408122D01*
X439941Y408005D01*
X439976Y407892D01*
X440027Y407786D01*
X440095Y407689D01*
X440177Y407605D01*
X440271Y407533D01*
X440376Y407478D01*
X440487Y407440D01*
X440603Y407419D01*
X440721Y407417D01*
X440838Y407433D01*
X440840Y407434D01*
Y402097D01*
X440839Y402098D01*
X440722Y402114D01*
X440603Y402112D01*
X440486Y402091D01*
X440374Y402053D01*
X440270Y401997D01*
X440175Y401926D01*
X440092Y401840D01*
X440024Y401743D01*
X439973Y401636D01*
X439938Y401523D01*
X439921Y401406D01*
X439924Y401287D01*
X439944Y401170D01*
X439985Y401059D01*
X440094Y400784D01*
X440174Y400498D01*
X440228Y400207D01*
X440254Y399912D01*
Y399616D01*
X440228Y399321D01*
X440174Y399029D01*
X440094Y398744D01*
X439988Y398467D01*
X439947Y398356D01*
X439927Y398240D01*
X439925Y398122D01*
X439941Y398005D01*
X439976Y397892D01*
X440027Y397786D01*
X440095Y397689D01*
X440177Y397605D01*
X440271Y397533D01*
X440376Y397478D01*
X440487Y397440D01*
X440603Y397419D01*
X440721Y397417D01*
X440838Y397433D01*
X440840Y397434D01*
Y394396D01*
G37*
G36*
Y353536D02*X440377Y354078D01*
X439808Y354563D01*
X439171Y354954D01*
X438480Y355240D01*
X437753Y355415D01*
X437008Y355473D01*
X437001Y355473D01*
Y385020D01*
X440493Y385028D01*
X440723Y385083D01*
X440840Y385131D01*
Y353536D01*
G37*
G36*
Y343536D02*X440377Y344078D01*
X439808Y344563D01*
X439171Y344954D01*
X438480Y345240D01*
X437753Y345415D01*
X437008Y345473D01*
X437001Y345473D01*
Y345945D01*
X437008Y345944D01*
X437753Y346003D01*
X438480Y346177D01*
X439171Y346463D01*
X439808Y346854D01*
X440377Y347340D01*
X440840Y347881D01*
Y343536D01*
G37*
G36*
Y335341D02*X440723Y335390D01*
X440493Y335445D01*
X440258Y335459D01*
X437001Y335452D01*
Y335945D01*
X437008Y335944D01*
X437753Y336003D01*
X438480Y336177D01*
X439171Y336463D01*
X439808Y336854D01*
X440377Y337340D01*
X440840Y337881D01*
Y335341D01*
G37*
G36*
Y298418D02*X440377Y298960D01*
X439808Y299445D01*
X439171Y299836D01*
X438480Y300122D01*
X437753Y300297D01*
X437008Y300355D01*
X437001Y300355D01*
Y325965D01*
X440493Y325973D01*
X440723Y326028D01*
X440840Y326076D01*
Y298418D01*
G37*
G36*
Y288418D02*X440377Y288960D01*
X439808Y289445D01*
X439171Y289836D01*
X438480Y290122D01*
X437753Y290297D01*
X437008Y290355D01*
X437001Y290355D01*
Y290826D01*
X437008Y290826D01*
X437753Y290885D01*
X438480Y291059D01*
X439171Y291345D01*
X439808Y291736D01*
X440377Y292221D01*
X440840Y292763D01*
Y288418D01*
G37*
G36*
Y280223D02*X440723Y280272D01*
X440493Y280327D01*
X440258Y280341D01*
X437001Y280334D01*
Y280826D01*
X437008Y280826D01*
X437753Y280885D01*
X438480Y281059D01*
X439171Y281345D01*
X439808Y281736D01*
X440377Y282221D01*
X440840Y282763D01*
Y280223D01*
G37*
G36*
Y152749D02*X440377Y153290D01*
X439808Y153776D01*
X439171Y154167D01*
X438480Y154453D01*
X437753Y154627D01*
X437008Y154686D01*
X437001Y154685D01*
Y270847D01*
X440493Y270854D01*
X440723Y270910D01*
X440840Y270958D01*
Y152749D01*
G37*
G36*
Y142749D02*X440377Y143290D01*
X439808Y143776D01*
X439171Y144167D01*
X438480Y144453D01*
X437753Y144627D01*
X437008Y144686D01*
X437001Y144685D01*
Y145157D01*
X437008Y145157D01*
X437753Y145215D01*
X438480Y145390D01*
X439171Y145676D01*
X439808Y146067D01*
X440377Y146552D01*
X440840Y147094D01*
Y142749D01*
G37*
G36*
Y134554D02*X440723Y134602D01*
X440493Y134657D01*
X440258Y134671D01*
X437001Y134665D01*
Y135157D01*
X437008Y135157D01*
X437753Y135215D01*
X438480Y135390D01*
X439171Y135676D01*
X439808Y136067D01*
X440377Y136552D01*
X440840Y137094D01*
Y134554D01*
G37*
G36*
Y110236D02*X437001D01*
Y125178D01*
X440493Y125185D01*
X440723Y125240D01*
X440840Y125289D01*
Y110236D01*
G37*
G36*
X433176Y337881D02*X433639Y337340D01*
X434207Y336854D01*
X434845Y336463D01*
X435536Y336177D01*
X436263Y336003D01*
X437001Y335945D01*
Y335452D01*
X433523Y335445D01*
X433293Y335390D01*
X433176Y335341D01*
Y337881D01*
G37*
G36*
Y347881D02*X433639Y347340D01*
X434207Y346854D01*
X434845Y346463D01*
X435536Y346177D01*
X436263Y346003D01*
X437001Y345945D01*
Y345473D01*
X436263Y345415D01*
X435536Y345240D01*
X434845Y344954D01*
X434207Y344563D01*
X433639Y344078D01*
X433176Y343536D01*
Y347881D01*
G37*
G36*
Y385131D02*X433293Y385083D01*
X433523Y385028D01*
X433758Y385014D01*
X437001Y385020D01*
Y355473D01*
X436263Y355415D01*
X435536Y355240D01*
X434845Y354954D01*
X434207Y354563D01*
X433639Y354078D01*
X433176Y353536D01*
Y385131D01*
G37*
G36*
Y416936D02*X433639Y416395D01*
X434207Y415909D01*
X434845Y415518D01*
X435536Y415232D01*
X436263Y415058D01*
X437001Y415000D01*
Y414514D01*
X436791D01*
X436359Y414474D01*
X435933Y414396D01*
X435516Y414279D01*
X435111Y414124D01*
X435006Y414069D01*
X434911Y413997D01*
X434829Y413912D01*
X434761Y413815D01*
X434709Y413708D01*
X434674Y413595D01*
X434658Y413478D01*
X434660Y413359D01*
X434680Y413242D01*
X434719Y413130D01*
X434775Y413025D01*
X434846Y412931D01*
X434931Y412848D01*
X435029Y412780D01*
X435135Y412728D01*
X435249Y412694D01*
X435366Y412677D01*
X435485Y412679D01*
X435601Y412700D01*
X435713Y412741D01*
X435988Y412850D01*
X436273Y412930D01*
X436565Y412983D01*
X436860Y413010D01*
X437001D01*
Y406517D01*
X436860D01*
X436565Y406544D01*
X436273Y406598D01*
X435988Y406678D01*
X435711Y406784D01*
X435601Y406824D01*
X435484Y406845D01*
X435366Y406847D01*
X435249Y406830D01*
X435136Y406796D01*
X435030Y406744D01*
X434934Y406677D01*
X434849Y406595D01*
X434778Y406500D01*
X434722Y406396D01*
X434684Y406284D01*
X434663Y406168D01*
X434661Y406050D01*
X434677Y405933D01*
X434712Y405820D01*
X434764Y405714D01*
X434831Y405618D01*
X434913Y405533D01*
X435008Y405462D01*
X435113Y405408D01*
X435516Y405249D01*
X435933Y405132D01*
X436359Y405053D01*
X436791Y405014D01*
X437001D01*
Y404514D01*
X436791D01*
X436359Y404474D01*
X435933Y404396D01*
X435516Y404279D01*
X435111Y404124D01*
X435006Y404069D01*
X434911Y403997D01*
X434829Y403912D01*
X434761Y403815D01*
X434709Y403708D01*
X434674Y403595D01*
X434658Y403478D01*
X434660Y403359D01*
X434680Y403242D01*
X434719Y403130D01*
X434775Y403025D01*
X434846Y402931D01*
X434931Y402848D01*
X435029Y402780D01*
X435135Y402728D01*
X435249Y402694D01*
X435366Y402677D01*
X435485Y402679D01*
X435601Y402700D01*
X435713Y402741D01*
X435988Y402850D01*
X436273Y402930D01*
X436565Y402983D01*
X436860Y403010D01*
X437001D01*
Y396517D01*
X436860D01*
X436565Y396544D01*
X436273Y396598D01*
X435988Y396678D01*
X435711Y396784D01*
X435601Y396824D01*
X435484Y396845D01*
X435366Y396847D01*
X435249Y396830D01*
X435136Y396796D01*
X435030Y396744D01*
X434934Y396677D01*
X434849Y396595D01*
X434778Y396500D01*
X434722Y396396D01*
X434684Y396284D01*
X434663Y396168D01*
X434661Y396050D01*
X434677Y395933D01*
X434712Y395820D01*
X434764Y395714D01*
X434831Y395618D01*
X434913Y395533D01*
X435008Y395462D01*
X435113Y395408D01*
X435516Y395249D01*
X435933Y395132D01*
X436359Y395053D01*
X436791Y395014D01*
X437001D01*
Y394507D01*
X433523Y394500D01*
X433293Y394445D01*
X433176Y394396D01*
Y397430D01*
X433177Y397430D01*
X433294Y397414D01*
X433413Y397416D01*
X433529Y397436D01*
X433642Y397475D01*
X433746Y397531D01*
X433841Y397602D01*
X433923Y397687D01*
X433991Y397784D01*
X434043Y397891D01*
X434078Y398005D01*
X434094Y398122D01*
X434092Y398240D01*
X434072Y398357D01*
X434031Y398468D01*
X433922Y398744D01*
X433842Y399029D01*
X433788Y399321D01*
X433761Y399616D01*
Y399912D01*
X433788Y400207D01*
X433842Y400498D01*
X433922Y400784D01*
X434028Y401060D01*
X434068Y401171D01*
X434089Y401287D01*
X434091Y401405D01*
X434075Y401522D01*
X434040Y401635D01*
X433988Y401741D01*
X433921Y401838D01*
X433839Y401923D01*
X433744Y401994D01*
X433640Y402050D01*
X433529Y402088D01*
X433412Y402109D01*
X433294Y402111D01*
X433177Y402094D01*
X433176Y402094D01*
Y407430D01*
X433177Y407430D01*
X433294Y407414D01*
X433413Y407416D01*
X433529Y407436D01*
X433642Y407475D01*
X433746Y407531D01*
X433841Y407602D01*
X433923Y407687D01*
X433991Y407784D01*
X434043Y407891D01*
X434078Y408005D01*
X434094Y408122D01*
X434092Y408240D01*
X434072Y408357D01*
X434031Y408468D01*
X433922Y408744D01*
X433842Y409029D01*
X433788Y409321D01*
X433761Y409616D01*
Y409912D01*
X433788Y410207D01*
X433842Y410498D01*
X433922Y410784D01*
X434028Y411060D01*
X434068Y411171D01*
X434089Y411287D01*
X434091Y411405D01*
X434075Y411522D01*
X434040Y411635D01*
X433988Y411741D01*
X433921Y411838D01*
X433839Y411923D01*
X433744Y411994D01*
X433640Y412050D01*
X433529Y412088D01*
X433412Y412109D01*
X433294Y412111D01*
X433177Y412094D01*
X433176Y412094D01*
Y416936D01*
G37*
G36*
Y468504D02*X437001D01*
Y424528D01*
X436263Y424470D01*
X435536Y424295D01*
X434845Y424009D01*
X434207Y423618D01*
X433639Y423133D01*
X433176Y422591D01*
Y468504D01*
G37*
G36*
X437001Y300355D02*X436263Y300297D01*
X435536Y300122D01*
X434963Y299885D01*
X433176Y301672D01*
Y326076D01*
X433293Y326028D01*
X433523Y325973D01*
X433758Y325959D01*
X437001Y325965D01*
Y300355D01*
G37*
G36*
X433176Y301672D02*X428249Y306599D01*
Y468504D01*
X433176D01*
Y422591D01*
X433153Y422564D01*
X432763Y421927D01*
X432476Y421236D01*
X432302Y420509D01*
X432243Y419764D01*
X432302Y419018D01*
X432476Y418291D01*
X432763Y417601D01*
X433153Y416963D01*
X433176Y416936D01*
Y412094D01*
X433064Y412060D01*
X432958Y412008D01*
X432862Y411940D01*
X432777Y411858D01*
X432706Y411764D01*
X432652Y411659D01*
X432493Y411256D01*
X432376Y410839D01*
X432297Y410412D01*
X432258Y409981D01*
Y409547D01*
X432297Y409115D01*
X432376Y408689D01*
X432493Y408272D01*
X432648Y407867D01*
X432703Y407762D01*
X432774Y407667D01*
X432859Y407585D01*
X432957Y407517D01*
X433063Y407465D01*
X433176Y407430D01*
Y402094D01*
X433064Y402060D01*
X432958Y402008D01*
X432862Y401940D01*
X432777Y401858D01*
X432706Y401764D01*
X432652Y401659D01*
X432493Y401256D01*
X432376Y400839D01*
X432297Y400412D01*
X432258Y399981D01*
Y399547D01*
X432297Y399115D01*
X432376Y398689D01*
X432493Y398272D01*
X432648Y397867D01*
X432703Y397762D01*
X432774Y397667D01*
X432859Y397585D01*
X432957Y397517D01*
X433063Y397465D01*
X433176Y397430D01*
Y394396D01*
X433075Y394354D01*
X432873Y394231D01*
X432694Y394078D01*
X432541Y393898D01*
X432417Y393697D01*
X432327Y393479D01*
X432272Y393249D01*
X432258Y393014D01*
X432272Y386278D01*
X432327Y386049D01*
X432417Y385831D01*
X432541Y385629D01*
X432694Y385450D01*
X432873Y385297D01*
X433075Y385173D01*
X433176Y385131D01*
Y353536D01*
X433153Y353509D01*
X432763Y352872D01*
X432476Y352181D01*
X432302Y351454D01*
X432243Y350709D01*
X432302Y349963D01*
X432476Y349236D01*
X432763Y348546D01*
X433153Y347908D01*
X433176Y347881D01*
Y343536D01*
X433153Y343509D01*
X432763Y342872D01*
X432476Y342181D01*
X432302Y341454D01*
X432243Y340709D01*
X432302Y339963D01*
X432476Y339236D01*
X432763Y338546D01*
X433153Y337908D01*
X433176Y337881D01*
Y335341D01*
X433075Y335299D01*
X432873Y335176D01*
X432694Y335023D01*
X432541Y334843D01*
X432417Y334642D01*
X432327Y334424D01*
X432272Y334194D01*
X432258Y333959D01*
X432272Y327223D01*
X432327Y326994D01*
X432417Y326776D01*
X432541Y326574D01*
X432694Y326395D01*
X432873Y326241D01*
X433075Y326118D01*
X433176Y326076D01*
Y301672D01*
G37*
G36*
X437001Y110236D02*X428249D01*
Y240588D01*
X428700Y241677D01*
X428987Y242871D01*
X429059Y244094D01*
X428987Y245318D01*
X428700Y246512D01*
X428249Y247601D01*
Y302100D01*
X432714Y297635D01*
X432476Y297063D01*
X432302Y296336D01*
X432243Y295591D01*
X432302Y294845D01*
X432476Y294118D01*
X432763Y293427D01*
X433153Y292790D01*
X433639Y292221D01*
X434207Y291736D01*
X434845Y291345D01*
X435536Y291059D01*
X436263Y290885D01*
X437001Y290826D01*
Y290355D01*
X436263Y290297D01*
X435536Y290122D01*
X434845Y289836D01*
X434207Y289445D01*
X433639Y288960D01*
X433153Y288391D01*
X432763Y287754D01*
X432476Y287063D01*
X432302Y286336D01*
X432243Y285591D01*
X432302Y284845D01*
X432476Y284118D01*
X432763Y283427D01*
X433153Y282790D01*
X433639Y282221D01*
X434207Y281736D01*
X434845Y281345D01*
X435536Y281059D01*
X436263Y280885D01*
X437001Y280826D01*
Y280334D01*
X433523Y280327D01*
X433293Y280272D01*
X433075Y280181D01*
X432873Y280058D01*
X432694Y279904D01*
X432541Y279725D01*
X432417Y279524D01*
X432327Y279306D01*
X432272Y279076D01*
X432258Y278841D01*
X432272Y272105D01*
X432327Y271876D01*
X432417Y271657D01*
X432541Y271456D01*
X432694Y271277D01*
X432873Y271123D01*
X433075Y271000D01*
X433293Y270910D01*
X433523Y270854D01*
X433758Y270841D01*
X437001Y270847D01*
Y154685D01*
X436263Y154627D01*
X435536Y154453D01*
X434845Y154167D01*
X434207Y153776D01*
X433639Y153290D01*
X433153Y152722D01*
X432763Y152084D01*
X432476Y151394D01*
X432302Y150667D01*
X432243Y149921D01*
X432302Y149176D01*
X432476Y148449D01*
X432763Y147758D01*
X433153Y147121D01*
X433639Y146552D01*
X434207Y146067D01*
X434845Y145676D01*
X435536Y145390D01*
X436263Y145215D01*
X437001Y145157D01*
Y144685D01*
X436263Y144627D01*
X435536Y144453D01*
X434845Y144167D01*
X434207Y143776D01*
X433639Y143290D01*
X433153Y142722D01*
X432763Y142084D01*
X432476Y141394D01*
X432302Y140667D01*
X432243Y139921D01*
X432302Y139176D01*
X432476Y138449D01*
X432763Y137758D01*
X433153Y137121D01*
X433639Y136552D01*
X434207Y136067D01*
X434845Y135676D01*
X435536Y135390D01*
X436263Y135215D01*
X437001Y135157D01*
Y134665D01*
X433523Y134657D01*
X433293Y134602D01*
X433075Y134512D01*
X432873Y134389D01*
X432694Y134235D01*
X432541Y134056D01*
X432417Y133854D01*
X432327Y133636D01*
X432272Y133407D01*
X432258Y133171D01*
X432272Y126436D01*
X432327Y126206D01*
X432417Y125988D01*
X432541Y125787D01*
X432694Y125607D01*
X432873Y125454D01*
X433075Y125331D01*
X433293Y125240D01*
X433523Y125185D01*
X433758Y125171D01*
X437001Y125178D01*
Y110236D01*
G37*
G36*
X417319Y272942D02*X417444Y273088D01*
X417656Y273434D01*
X417701Y273543D01*
Y263839D01*
X417465Y263637D01*
X417319Y263466D01*
Y272942D01*
G37*
G36*
Y302536D02*X417323Y302535D01*
X417632Y302560D01*
X417701Y302491D01*
Y296339D01*
X417656Y296448D01*
X417444Y296794D01*
X417319Y296940D01*
Y302536D01*
G37*
G36*
Y310410D02*X417323Y310409D01*
X417727Y310441D01*
X418121Y310536D01*
X418495Y310691D01*
X418841Y310903D01*
X419149Y311166D01*
X419165Y311184D01*
X428249Y302100D01*
Y247601D01*
X428230Y247646D01*
X427589Y248693D01*
X426792Y249626D01*
X425858Y250424D01*
X424812Y251065D01*
X423677Y251535D01*
X422484Y251821D01*
X421260Y251918D01*
X420036Y251821D01*
X418842Y251535D01*
X417708Y251065D01*
X417319Y250827D01*
Y260156D01*
X417465Y259985D01*
X417773Y259722D01*
X418119Y259510D01*
X418493Y259355D01*
X418887Y259260D01*
X419291Y259228D01*
X419695Y259260D01*
X420089Y259355D01*
X420464Y259510D01*
X420809Y259722D01*
X421118Y259985D01*
X421381Y260293D01*
X421593Y260638D01*
X421748Y261013D01*
X421842Y261407D01*
X421866Y261811D01*
X421842Y262215D01*
X421748Y262609D01*
X421593Y262984D01*
X421381Y263329D01*
X421118Y263637D01*
X420882Y263839D01*
Y303087D01*
X420887Y303150D01*
X420867Y303399D01*
X420867Y303399D01*
X420809Y303643D01*
X420713Y303874D01*
X420582Y304087D01*
X420420Y304278D01*
X420372Y304318D01*
X419879Y304811D01*
X419898Y305118D01*
X419874Y305522D01*
X419779Y305916D01*
X419624Y306291D01*
X419412Y306636D01*
X419149Y306944D01*
X418841Y307208D01*
X418495Y307419D01*
X418121Y307574D01*
X417727Y307669D01*
X417323Y307701D01*
X417319Y307701D01*
Y310410D01*
G37*
G36*
Y438362D02*X417323Y438362D01*
X417727Y438394D01*
X418121Y438489D01*
X418495Y438644D01*
X418841Y438855D01*
X419149Y439119D01*
X419412Y439427D01*
X419624Y439772D01*
X419779Y440147D01*
X419874Y440541D01*
X419898Y440945D01*
X419874Y441349D01*
X419779Y441743D01*
X419624Y442117D01*
X419412Y442463D01*
X419149Y442771D01*
X418841Y443034D01*
X418495Y443246D01*
X418121Y443401D01*
X417727Y443496D01*
X417323Y443528D01*
X417319Y443527D01*
Y468504D01*
X428249D01*
Y306599D01*
X420775Y314073D01*
X420734Y314120D01*
X420544Y314283D01*
X420331Y314414D01*
X420099Y314510D01*
X419856Y314568D01*
X419856Y314568D01*
X419606Y314588D01*
X419544Y314583D01*
X419350D01*
X419149Y314818D01*
X418841Y315082D01*
X418495Y315293D01*
X418121Y315448D01*
X417727Y315543D01*
X417323Y315575D01*
X417319Y315575D01*
Y438362D01*
G37*
G36*
X428249Y110236D02*X417319D01*
Y237362D01*
X417708Y237124D01*
X418842Y236654D01*
X420036Y236368D01*
X421260Y236271D01*
X422484Y236368D01*
X423677Y236654D01*
X424812Y237124D01*
X425858Y237765D01*
X426792Y238563D01*
X427589Y239496D01*
X428230Y240543D01*
X428249Y240588D01*
Y110236D01*
G37*
G36*
X417319Y443527D02*X416919Y443496D01*
X416525Y443401D01*
X416150Y443246D01*
X415805Y443034D01*
X415497Y442771D01*
X415295Y442535D01*
X399225D01*
Y449681D01*
X399232Y449680D01*
X399978Y449739D01*
X400705Y449913D01*
X401395Y450200D01*
X402033Y450590D01*
X402601Y451076D01*
X403087Y451644D01*
X403478Y452282D01*
X403764Y452973D01*
X403938Y453700D01*
X403982Y454445D01*
X403938Y455190D01*
X403764Y455917D01*
X403478Y456608D01*
X403087Y457245D01*
X402601Y457814D01*
X402033Y458300D01*
X401395Y458690D01*
X400705Y458976D01*
X399978Y459151D01*
X399232Y459210D01*
X399225Y459209D01*
Y468504D01*
X417319D01*
Y443527D01*
G37*
G36*
X399225Y442535D02*X396472D01*
X396468Y444430D01*
X396413Y444660D01*
X396323Y444878D01*
X396200Y445079D01*
X396046Y445259D01*
X395867Y445412D01*
X395665Y445536D01*
X395447Y445626D01*
X395218Y445681D01*
X394982Y445695D01*
X391732Y445688D01*
Y468504D01*
X399225D01*
Y459209D01*
X398487Y459151D01*
X397760Y458976D01*
X397069Y458690D01*
X396432Y458300D01*
X395863Y457814D01*
X395378Y457245D01*
X394987Y456608D01*
X394701Y455917D01*
X394526Y455190D01*
X394468Y454445D01*
X394526Y453700D01*
X394701Y452973D01*
X394987Y452282D01*
X395378Y451644D01*
X395863Y451076D01*
X396432Y450590D01*
X397069Y450200D01*
X397760Y449913D01*
X398487Y449739D01*
X399225Y449681D01*
Y442535D01*
G37*
G36*
X417319Y110236D02*X409437D01*
Y112774D01*
X409983Y113414D01*
X410732Y114635D01*
X411280Y115959D01*
X411614Y117352D01*
X411726Y118780D01*
X411614Y120207D01*
X411280Y121600D01*
X410732Y122924D01*
X409983Y124145D01*
X409437Y124760D01*
Y338634D01*
X409449Y338633D01*
X410673Y338730D01*
X411866Y339016D01*
X413001Y339486D01*
X414047Y340128D01*
X414981Y340925D01*
X415778Y341858D01*
X416419Y342905D01*
X416889Y344039D01*
X417176Y345233D01*
X417248Y346457D01*
X417176Y347681D01*
X416889Y348874D01*
X416419Y350008D01*
X415778Y351055D01*
X414981Y351989D01*
X414047Y352786D01*
X413001Y353427D01*
X411866Y353897D01*
X410673Y354184D01*
X409449Y354280D01*
X409437Y354279D01*
Y439354D01*
X415295D01*
X415497Y439119D01*
X415805Y438855D01*
X416150Y438644D01*
X416525Y438489D01*
X416919Y438394D01*
X417319Y438362D01*
Y315575D01*
X416919Y315543D01*
X416525Y315448D01*
X416150Y315293D01*
X415805Y315082D01*
X415497Y314818D01*
X415233Y314510D01*
X415022Y314165D01*
X414866Y313790D01*
X414772Y313396D01*
X414740Y312992D01*
X414772Y312588D01*
X414866Y312194D01*
X415022Y311820D01*
X415233Y311474D01*
X415497Y311166D01*
X415805Y310903D01*
X416150Y310691D01*
X416525Y310536D01*
X416919Y310441D01*
X417319Y310410D01*
Y307701D01*
X416919Y307669D01*
X416525Y307574D01*
X416150Y307419D01*
X415805Y307208D01*
X415497Y306944D01*
X415233Y306636D01*
X415022Y306291D01*
X414866Y305916D01*
X414772Y305522D01*
X414740Y305118D01*
X414772Y304714D01*
X414866Y304320D01*
X415022Y303946D01*
X415233Y303600D01*
X415497Y303292D01*
X415805Y303029D01*
X416150Y302817D01*
X416525Y302662D01*
X416919Y302567D01*
X417319Y302536D01*
Y296940D01*
X417181Y297102D01*
X416872Y297365D01*
X416527Y297577D01*
X416152Y297732D01*
X415758Y297827D01*
X415354Y297858D01*
X414950Y297827D01*
X414556Y297732D01*
X414182Y297577D01*
X413836Y297365D01*
X413528Y297102D01*
X413265Y296794D01*
X413053Y296448D01*
X412898Y296074D01*
X412803Y295680D01*
X412772Y295276D01*
X412803Y294872D01*
X412898Y294477D01*
X413053Y294103D01*
X413265Y293757D01*
X413528Y293449D01*
X413764Y293248D01*
Y276634D01*
X413528Y276433D01*
X413265Y276124D01*
X413053Y275779D01*
X412898Y275404D01*
X412803Y275010D01*
X412772Y274606D01*
X412803Y274202D01*
X412898Y273808D01*
X413053Y273434D01*
X413265Y273088D01*
X413528Y272780D01*
X413836Y272517D01*
X414182Y272305D01*
X414556Y272150D01*
X414950Y272055D01*
X415354Y272024D01*
X415758Y272055D01*
X416152Y272150D01*
X416527Y272305D01*
X416872Y272517D01*
X417181Y272780D01*
X417319Y272942D01*
Y263466D01*
X417202Y263329D01*
X416990Y262984D01*
X416835Y262609D01*
X416740Y262215D01*
X416709Y261811D01*
X416740Y261407D01*
X416835Y261013D01*
X416990Y260638D01*
X417202Y260293D01*
X417319Y260156D01*
Y250827D01*
X416661Y250424D01*
X415728Y249626D01*
X414931Y248693D01*
X414289Y247646D01*
X413819Y246512D01*
X413533Y245318D01*
X413437Y244094D01*
X413533Y242871D01*
X413819Y241677D01*
X414289Y240543D01*
X414931Y239496D01*
X415728Y238563D01*
X416661Y237765D01*
X417319Y237362D01*
Y110236D01*
G37*
G36*
X409437Y124760D02*X409033Y125214D01*
X399132Y135116D01*
X398062Y136066D01*
X396841Y136814D01*
X395518Y137362D01*
X394125Y137697D01*
X392697Y137809D01*
X391732Y137733D01*
Y436202D01*
X395218Y436209D01*
X395447Y436264D01*
X395665Y436354D01*
X395867Y436478D01*
X396046Y436631D01*
X396200Y436810D01*
X396323Y437012D01*
X396413Y437230D01*
X396468Y437460D01*
X396482Y437695D01*
X396479Y439354D01*
X409437D01*
Y354279D01*
X408225Y354184D01*
X407031Y353897D01*
X405897Y353427D01*
X404850Y352786D01*
X403917Y351989D01*
X403120Y351055D01*
X402478Y350008D01*
X402008Y348874D01*
X401722Y347681D01*
X401626Y346457D01*
X401722Y345233D01*
X402008Y344039D01*
X402478Y342905D01*
X403120Y341858D01*
X403917Y340925D01*
X404850Y340128D01*
X405897Y339486D01*
X407031Y339016D01*
X408225Y338730D01*
X409437Y338634D01*
Y124760D01*
G37*
G36*
Y110236D02*X408598D01*
Y111937D01*
X409053Y112325D01*
X409437Y112774D01*
Y110236D01*
G37*
G54D44*X357000Y101181D02*X370000D01*
X402598Y116181D02*Y101181D01*
G54D45*X357000D02*X240000D01*
G54D41*X261319Y121181D02*Y101181D01*
X295000Y121181D02*X288681D01*
G54D46*X423228Y118110D02*X405512D01*
G54D45*X190000Y126181D02*X165000D01*
X219370Y121811D02*X240000Y101181D01*
X165000Y126181D02*X140000Y101181D01*
X392697Y128681D02*X402598Y118780D01*
X392697Y128681D02*X312500D01*
X310000Y126181D01*
G54D41*X300000D01*
X295000Y121181D01*
G54D39*X329232Y281496D02*X324646D01*
X336122D02*Y276083D01*
X334646Y274606D01*
G54D45*X219370Y366811D02*Y121811D01*
G54D41*X175000Y126181D02*Y151181D01*
G54D39*X329232Y287402D02*Y275591D01*
G54D45*X180000Y281181D02*Y331181D01*
X165079Y346102D01*
X97421D01*
G54D39*X334646Y268701D02*X333169Y267224D01*
G54D45*X125000Y266181D02*Y191181D01*
X105000D01*
X104921Y191102D01*
X180000Y281181D02*X164921Y266102D01*
X104921D01*
G54D39*X333169Y267224D02*Y261811D01*
X340059D02*X344646D01*
X340059Y267717D02*Y255906D01*
X383484Y256398D02*Y251811D01*
X377579Y256398D02*X389390D01*
X415354Y274606D02*Y295276D01*
X373484Y291496D02*Y286909D01*
X367579D02*X379390D01*
X373484Y274606D02*Y280020D01*
X383484Y268701D02*Y263287D01*
X364075Y403445D02*X364665Y402854D01*
Y397638D01*
X371555D02*X376142D01*
X371555Y403543D02*Y391732D01*
X344587Y374902D02*X343996Y375492D01*
Y381890D01*
X332520D02*X337106D01*
Y387795D02*Y375984D01*
G54D40*X320866Y381890D02*X297244D01*
Y377953D02*Y385827D01*
G54D45*X219370Y366811D02*X190000Y396181D01*
X135000D01*
X125079Y406102D01*
X97421D01*
G54D47*X143701Y421181D03*
G54D48*X147402Y451181D03*
G54D49*X235000Y411181D03*
G54D47*X183701Y421181D03*
G54D43*G36*
X175374Y455807D02*Y446555D01*
X184626D01*
Y455807D01*
X175374D01*
G37*
G54D48*X163701Y451181D03*
G54D43*G36*
X173110Y333071D02*Y319291D01*
X186890D01*
Y333071D01*
X173110D01*
G37*
G54D50*X219370Y326181D03*
G54D43*G36*
X92303Y351220D02*Y340984D01*
X102539D01*
Y351220D01*
X92303D01*
G37*
G54D51*X97421Y366102D03*
Y386102D03*
Y406102D03*
G54D52*X437008Y419764D03*
Y350709D03*
G54D49*X409449Y346457D03*
G54D43*G36*
X325984Y349213D02*Y343701D01*
X331496D01*
Y349213D01*
X325984D01*
G37*
G36*
X381102D02*Y343701D01*
X386614D01*
Y349213D01*
X381102D01*
G37*
G36*
X353543D02*Y343701D01*
X359055D01*
Y349213D01*
X353543D01*
G37*
G36*
X433758Y393014D02*Y386514D01*
X440258D01*
Y393014D01*
X433758D01*
G37*
G54D52*X437008Y399764D03*
Y409764D03*
G54D43*G36*
X388482Y444195D02*Y437695D01*
X394982D01*
Y444195D01*
X388482D01*
G37*
G54D52*X381732Y440945D03*
X371732D03*
X361732D03*
X351732D03*
X341732D03*
X331732D03*
X321732D03*
G54D43*G36*
X433758Y133171D02*Y126671D01*
X440258D01*
Y133171D01*
X433758D01*
G37*
G54D52*X437008Y139921D03*
Y149921D03*
G54D49*X455709Y170276D03*
G54D43*G36*
X365374Y105807D02*Y96555D01*
X374626D01*
Y105807D01*
X365374D01*
G37*
G54D53*X310000Y126181D03*
G54D43*G36*
X329921Y127772D02*Y122260D01*
X335433D01*
Y127772D01*
X329921D01*
G37*
G54D47*X332677Y105016D03*
G54D48*X386299Y101181D03*
X402598D03*
G54D49*X358268Y147638D03*
G54D43*G36*
X433758Y333959D02*Y327459D01*
X440258D01*
Y333959D01*
X433758D01*
G37*
G54D52*X437008Y340709D03*
G54D43*G36*
X433758Y278841D02*Y272341D01*
X440258D01*
Y278841D01*
X433758D01*
G37*
G54D52*X437008Y285591D03*
Y295591D03*
G54D49*X421260Y244094D03*
G54D47*X318740Y336457D03*
X328740Y326457D03*
X373858Y336457D03*
X383858Y326457D03*
X346299Y336457D03*
X356299Y326457D03*
G54D49*X175197Y102362D03*
G54D53*X140000Y101181D03*
X190000Y126181D03*
X175000D03*
X140000Y221181D03*
G54D43*G36*
X99803Y176220D02*Y165984D01*
X110039D01*
Y176220D01*
X99803D01*
G37*
G54D51*X104921Y191102D03*
Y211102D03*
G54D43*G36*
X99803Y251220D02*Y240984D01*
X110039D01*
Y251220D01*
X99803D01*
G37*
G54D51*X104921Y266102D03*
Y286102D03*
G54D53*X175000Y246181D03*
G54D54*X336122Y282087D02*Y280906D01*
X329232Y282087D02*Y280906D01*
G54D55*X318701Y234252D02*Y232087D01*
X311220Y234252D02*Y232087D01*
X314961Y244291D02*Y242126D01*
G54D54*X333169Y262402D02*Y261220D01*
X340059Y262402D02*Y261220D01*
G54D55*X330906Y244291D02*Y242126D01*
X338386Y244291D02*Y242126D01*
X334646Y234252D02*Y232087D01*
G54D54*X372894Y280020D02*X374075D01*
X372894Y286909D02*X374075D01*
X382894Y263287D02*X384075D01*
X382894Y256398D02*X384075D01*
G54D56*X348327Y96949D02*X356398D01*
X375886Y130413D02*X383957D01*
X375886Y113681D02*X383957D01*
G54D57*X288681Y122953D02*Y119409D01*
X261319Y122953D02*Y119409D01*
G54D56*X348327Y113681D02*X356398D01*
G54D54*X371555Y398228D02*Y397047D01*
X343996Y382480D02*Y381299D01*
X337106Y382480D02*Y381299D01*
X364665Y398228D02*Y397047D01*
G54D58*X172953Y151181D02*X178071D01*
X211929D02*X217047D01*
X177953Y291181D02*X183071D01*
X216929D02*X222047D01*
G54D59*X417323Y305118D03*
Y440945D03*
Y312992D03*
X364075Y403445D03*
X312992Y417323D03*
X393701Y391732D03*
Y415354D03*
X344587Y374902D03*
X336614Y358268D03*
Y370079D03*
X289370Y417323D03*
G54D60*X297244Y385827D03*
X312992Y381890D03*
X320866D03*
X297244Y377953D03*
G54D59*X356299Y279528D03*
X362205D03*
X366142Y291339D03*
Y299213D03*
X391732Y281555D03*
X332677Y253937D03*
X356299Y263780D03*
X362205D03*
X338583Y232283D03*
X324803Y233169D03*
X342520Y252953D03*
X419291Y261811D03*
X415354Y274606D03*
G54D60*X399606Y228937D03*
G54D59*X415354Y295276D03*
X383484Y268701D03*
X373484Y274606D03*
G54D60*X379921Y228937D03*
G54D59*X366142Y200787D03*
X334646Y222441D03*
X329646Y291339D03*
X334646Y274606D03*
Y268701D03*
X307087Y261811D03*
X314961D03*
X259843Y246063D03*
X267717D03*
Y198819D03*
X259843D03*
X269685Y228346D03*
X205000Y356181D03*
X348425Y190945D03*
X334646Y207677D03*
G54D61*G54D62*G54D61*G54D62*G54D61*G54D62*G54D61*G54D63*G54D59*G54D47*G54D64*G54D59*G54D47*G54D65*G54D53*G54D66*G54D63*G54D67*G54D64*G54D59*G54D67*G54D52*G54D67*G54D52*G54D67*G54D63*G54D67*G54D52*G54D64*G54D47*G54D60*G54D59*G54D47*G54D65*G54D64*G54D67*G54D52*G54D67*G54D52*G54D64*G54D59*G54D63*G54D64*G54D60*G54D66*G54D60*M02*
