G04 start of page 13 for group -3984 idx -3984 *
G04 Title: EW10A - linear power supply, fab *
G04 Creator: pcb 1.99z *
G04 CreationDate: Mon 08 Sep 2014 07:20:40 PM GMT UTC *
G04 For: eelco *
G04 Format: Gerber/RS-274X *
G04 PCB-Dimensions (mil): 5511.81 5511.81 *
G04 PCB-Coordinate-Origin: lower left *
%MOIN*%
%FSLAX25Y25*%
%LNFAB*%
%ADD144C,0.0100*%
%ADD143C,0.0075*%
%ADD142C,0.0060*%
%ADD141R,0.0080X0.0080*%
G54D141*X98425Y457556D02*Y447956D01*
X93625Y452756D02*X103225D01*
X96825Y454356D02*X100025D01*
X96825D02*Y451156D01*
X100025D01*
Y454356D02*Y451156D01*
X95225Y455956D02*X101625D01*
X95225D02*Y449556D01*
X101625D01*
Y455956D02*Y449556D01*
X452756Y457556D02*Y447956D01*
X447956Y452756D02*X457556D01*
X451156Y454356D02*X454356D01*
X451156D02*Y451156D01*
X454356D01*
Y454356D02*Y451156D01*
X449556Y455956D02*X455956D01*
X449556D02*Y449556D01*
X455956D01*
Y455956D02*Y449556D01*
X98425Y103225D02*Y93625D01*
X93625Y98425D02*X103225D01*
X96825Y100025D02*X100025D01*
X96825D02*Y96825D01*
X100025D01*
Y100025D02*Y96825D01*
X95225Y101625D02*X101625D01*
X95225D02*Y95225D01*
X101625D01*
Y101625D02*Y95225D01*
X452756Y103225D02*Y93625D01*
X447956Y98425D02*X457556D01*
X451156Y100025D02*X454356D01*
X451156D02*Y96825D01*
X454356D01*
Y100025D02*Y96825D01*
X449556Y101625D02*X455956D01*
X449556D02*Y95225D01*
X455956D01*
Y101625D02*Y95225D01*
X15000Y567231D02*Y557631D01*
X10200Y562431D02*X19800D01*
X13400Y564031D02*X16600D01*
X13400D02*Y560831D01*
X16600D01*
Y564031D02*Y560831D01*
X11800Y565631D02*X18200D01*
X11800D02*Y559231D01*
X18200D01*
Y565631D02*Y559231D01*
G54D142*X140000Y564681D02*Y558681D01*
Y564681D02*X143750Y558681D01*
Y564681D02*Y558681D01*
X145550Y563931D02*Y559431D01*
Y563931D02*X146300Y564681D01*
X147800D01*
X148550Y563931D01*
Y559431D01*
X147800Y558681D02*X148550Y559431D01*
X146300Y558681D02*X147800D01*
X145550Y559431D02*X146300Y558681D01*
X98000Y560931D02*X101000Y564681D01*
X98000Y560931D02*X101750D01*
X101000Y564681D02*Y558681D01*
X45000Y559431D02*X45750Y558681D01*
X45000Y563931D02*Y559431D01*
Y563931D02*X45750Y564681D01*
X47250D01*
X48000Y563931D01*
Y559431D01*
X47250Y558681D02*X48000Y559431D01*
X45750Y558681D02*X47250D01*
X45000Y560181D02*X48000Y563181D01*
X49800Y558681D02*X50550D01*
X52350Y563481D02*X53550Y564681D01*
Y558681D01*
X52350D02*X54600D01*
X56400Y563931D02*X57150Y564681D01*
X58650D01*
X59400Y563931D01*
X58650Y558681D02*X59400Y559431D01*
X57150Y558681D02*X58650D01*
X56400Y559431D02*X57150Y558681D01*
Y561981D02*X58650D01*
X59400Y563931D02*Y562731D01*
Y561231D02*Y559431D01*
Y561231D02*X58650Y561981D01*
X59400Y562731D02*X58650Y561981D01*
X61200Y560931D02*X64200Y564681D01*
X61200Y560931D02*X64950D01*
X64200Y564681D02*Y558681D01*
X420118Y101181D02*Y96381D01*
Y101181D02*X424278Y103581D01*
X420118Y101181D02*X415958Y103581D01*
X418518Y101181D02*G75*G03X421718Y101181I1600J0D01*G01*
G75*G03X418518Y101181I-1600J0D01*G01*
X416918D02*G75*G03X423318Y101181I3200J0D01*G01*
G75*G03X416918Y101181I-3200J0D01*G01*
X129882Y451181D02*Y446381D01*
Y451181D02*X134042Y453581D01*
X129882Y451181D02*X125722Y453581D01*
X128282Y451181D02*G75*G03X131482Y451181I1600J0D01*G01*
G75*G03X128282Y451181I-1600J0D01*G01*
X126682D02*G75*G03X133082Y451181I3200J0D01*G01*
G75*G03X126682Y451181I-3200J0D01*G01*
X15000Y577431D02*Y572631D01*
Y577431D02*X19160Y579831D01*
X15000Y577431D02*X10840Y579831D01*
X13400Y577431D02*G75*G03X16600Y577431I1600J0D01*G01*
G75*G03X13400Y577431I-1600J0D01*G01*
X11800D02*G75*G03X18200Y577431I3200J0D01*G01*
G75*G03X11800Y577431I-3200J0D01*G01*
X140000Y579681D02*Y573681D01*
Y579681D02*X143750Y573681D01*
Y579681D02*Y573681D01*
X145550Y578931D02*Y574431D01*
Y578931D02*X146300Y579681D01*
X147800D01*
X148550Y578931D01*
Y574431D01*
X147800Y573681D02*X148550Y574431D01*
X146300Y573681D02*X147800D01*
X145550Y574431D02*X146300Y573681D01*
X98000Y578931D02*X98750Y579681D01*
X101000D01*
X101750Y578931D01*
Y577431D01*
X98000Y573681D02*X101750Y577431D01*
X98000Y573681D02*X101750D01*
X45000Y574431D02*X45750Y573681D01*
X45000Y578931D02*Y574431D01*
Y578931D02*X45750Y579681D01*
X47250D01*
X48000Y578931D01*
Y574431D01*
X47250Y573681D02*X48000Y574431D01*
X45750Y573681D02*X47250D01*
X45000Y575181D02*X48000Y578181D01*
X49800Y573681D02*X50550D01*
X52350Y578481D02*X53550Y579681D01*
Y573681D01*
X52350D02*X54600D01*
X56400Y578931D02*X57150Y579681D01*
X59400D01*
X60150Y578931D01*
Y577431D01*
X56400Y573681D02*X60150Y577431D01*
X56400Y573681D02*X60150D01*
X61950Y579681D02*X64950D01*
X61950D02*Y576681D01*
X62700Y577431D01*
X64200D01*
X64950Y576681D01*
Y574431D01*
X64200Y573681D02*X64950Y574431D01*
X62700Y573681D02*X64200D01*
X61950Y574431D02*X62700Y573681D01*
X178400Y327781D02*X181600D01*
X178400D02*Y324581D01*
X181600D01*
Y327781D02*Y324581D01*
X176800Y329381D02*X183200D01*
X176800D02*Y322981D01*
X183200D01*
Y329381D02*Y322981D01*
X217770Y327781D02*X220970D01*
X217770D02*Y324581D01*
X220970D01*
Y327781D02*Y324581D01*
X216170Y329381D02*X222570D01*
X216170D02*Y322981D01*
X222570D01*
Y329381D02*Y322981D01*
X13400Y594031D02*X16600D01*
X13400D02*Y590831D01*
X16600D01*
Y594031D02*Y590831D01*
X11800Y595631D02*X18200D01*
X11800D02*Y589231D01*
X18200D01*
Y595631D02*Y589231D01*
X135000Y594681D02*X136500Y591681D01*
X138000Y594681D01*
X136500Y591681D02*Y588681D01*
X139800Y591981D02*X142050D01*
X139800Y588681D02*X142800D01*
X139800Y594681D02*Y588681D01*
Y594681D02*X142800D01*
X147600D02*X148350Y593931D01*
X145350Y594681D02*X147600D01*
X144600Y593931D02*X145350Y594681D01*
X144600Y593931D02*Y592431D01*
X145350Y591681D01*
X147600D01*
X148350Y590931D01*
Y589431D01*
X147600Y588681D02*X148350Y589431D01*
X145350Y588681D02*X147600D01*
X144600Y589431D02*X145350Y588681D01*
X98000Y593931D02*X98750Y594681D01*
X101000D01*
X101750Y593931D01*
Y592431D01*
X98000Y588681D02*X101750Y592431D01*
X98000Y588681D02*X101750D01*
X45000Y589431D02*X45750Y588681D01*
X45000Y593931D02*Y589431D01*
Y593931D02*X45750Y594681D01*
X47250D01*
X48000Y593931D01*
Y589431D01*
X47250Y588681D02*X48000Y589431D01*
X45750Y588681D02*X47250D01*
X45000Y590181D02*X48000Y593181D01*
X49800Y588681D02*X50550D01*
X52350Y589431D02*X53100Y588681D01*
X52350Y593931D02*Y589431D01*
Y593931D02*X53100Y594681D01*
X54600D01*
X55350Y593931D01*
Y589431D01*
X54600Y588681D02*X55350Y589431D01*
X53100Y588681D02*X54600D01*
X52350Y590181D02*X55350Y593181D01*
X57150Y589431D02*X57900Y588681D01*
X57150Y590631D02*Y589431D01*
Y590631D02*X58200Y591681D01*
X59100D01*
X60150Y590631D01*
Y589431D01*
X59400Y588681D02*X60150Y589431D01*
X57900Y588681D02*X59400D01*
X57150Y592731D02*X58200Y591681D01*
X57150Y593931D02*Y592731D01*
Y593931D02*X57900Y594681D01*
X59400D01*
X60150Y593931D01*
Y592731D01*
X59100Y591681D02*X60150Y592731D01*
X61950Y593931D02*X62700Y594681D01*
X64200D01*
X64950Y593931D01*
X64200Y588681D02*X64950Y589431D01*
X62700Y588681D02*X64200D01*
X61950Y589431D02*X62700Y588681D01*
Y591981D02*X64200D01*
X64950Y593931D02*Y592731D01*
Y591231D02*Y589431D01*
Y591231D02*X64200Y591981D01*
X64950Y592731D02*X64200Y591981D01*
X234200Y411181D02*G75*G03X235800Y411181I800J0D01*G01*
G75*G03X234200Y411181I-800J0D01*G01*
X232600D02*G75*G03X237400Y411181I2400J0D01*G01*
G75*G03X232600Y411181I-2400J0D01*G01*
X174397Y102362D02*G75*G03X175997Y102362I800J0D01*G01*
G75*G03X174397Y102362I-800J0D01*G01*
X172797D02*G75*G03X177597Y102362I2400J0D01*G01*
G75*G03X172797Y102362I-2400J0D01*G01*
X420460Y244094D02*G75*G03X422060Y244094I800J0D01*G01*
G75*G03X420460Y244094I-800J0D01*G01*
X418860D02*G75*G03X423660Y244094I2400J0D01*G01*
G75*G03X418860Y244094I-2400J0D01*G01*
X454909Y170276D02*G75*G03X456509Y170276I800J0D01*G01*
G75*G03X454909Y170276I-800J0D01*G01*
X453309D02*G75*G03X458109Y170276I2400J0D01*G01*
G75*G03X453309Y170276I-2400J0D01*G01*
X408649Y346457D02*G75*G03X410249Y346457I800J0D01*G01*
G75*G03X408649Y346457I-800J0D01*G01*
X407049D02*G75*G03X411849Y346457I2400J0D01*G01*
G75*G03X407049Y346457I-2400J0D01*G01*
X357468Y147638D02*G75*G03X359068Y147638I800J0D01*G01*
G75*G03X357468Y147638I-800J0D01*G01*
X355868D02*G75*G03X360668Y147638I2400J0D01*G01*
G75*G03X355868Y147638I-2400J0D01*G01*
X14200Y607431D02*G75*G03X15800Y607431I800J0D01*G01*
G75*G03X14200Y607431I-800J0D01*G01*
X12600D02*G75*G03X17400Y607431I2400J0D01*G01*
G75*G03X12600Y607431I-2400J0D01*G01*
X135000Y609681D02*X136500Y606681D01*
X138000Y609681D01*
X136500Y606681D02*Y603681D01*
X139800Y606981D02*X142050D01*
X139800Y603681D02*X142800D01*
X139800Y609681D02*Y603681D01*
Y609681D02*X142800D01*
X147600D02*X148350Y608931D01*
X145350Y609681D02*X147600D01*
X144600Y608931D02*X145350Y609681D01*
X144600Y608931D02*Y607431D01*
X145350Y606681D01*
X147600D01*
X148350Y605931D01*
Y604431D01*
X147600Y603681D02*X148350Y604431D01*
X145350Y603681D02*X147600D01*
X144600Y604431D02*X145350Y603681D01*
X100250Y609681D02*X101000Y608931D01*
X98750Y609681D02*X100250D01*
X98000Y608931D02*X98750Y609681D01*
X98000Y608931D02*Y604431D01*
X98750Y603681D01*
X100250Y606981D02*X101000Y606231D01*
X98000Y606981D02*X100250D01*
X98750Y603681D02*X100250D01*
X101000Y604431D01*
Y606231D02*Y604431D01*
X45000D02*X45750Y603681D01*
X45000Y608931D02*Y604431D01*
Y608931D02*X45750Y609681D01*
X47250D01*
X48000Y608931D01*
Y604431D01*
X47250Y603681D02*X48000Y604431D01*
X45750Y603681D02*X47250D01*
X45000Y605181D02*X48000Y608181D01*
X49800Y603681D02*X50550D01*
X52350Y604431D02*X53100Y603681D01*
X52350Y608931D02*Y604431D01*
Y608931D02*X53100Y609681D01*
X54600D01*
X55350Y608931D01*
Y604431D01*
X54600Y603681D02*X55350Y604431D01*
X53100Y603681D02*X54600D01*
X52350Y605181D02*X55350Y608181D01*
X57900Y603681D02*X60900Y609681D01*
X57150D02*X60900D01*
X63450Y603681D02*X65700Y606681D01*
Y608931D02*Y606681D01*
X64950Y609681D02*X65700Y608931D01*
X63450Y609681D02*X64950D01*
X62700Y608931D02*X63450Y609681D01*
X62700Y608931D02*Y607431D01*
X63450Y606681D01*
X65700D01*
X448108Y384664D02*X452908Y379864D01*
X448108D02*X452908Y384664D01*
X448908Y383864D02*X452108D01*
X448908D02*Y380664D01*
X452108D01*
Y383864D02*Y380664D01*
X448108Y325609D02*X452908Y320809D01*
X448108D02*X452908Y325609D01*
X448908Y324809D02*X452108D01*
X448908D02*Y321609D01*
X452108D01*
Y324809D02*Y321609D01*
X448108Y270491D02*X452908Y265691D01*
X448108D02*X452908Y270491D01*
X448908Y269691D02*X452108D01*
X448908D02*Y266491D01*
X452108D01*
Y269691D02*Y266491D01*
X396832Y456845D02*X401632Y452045D01*
X396832D02*X401632Y456845D01*
X397632Y456045D02*X400832D01*
X397632D02*Y452845D01*
X400832D01*
Y456045D02*Y452845D01*
X448108Y124821D02*X452908Y120021D01*
X448108D02*X452908Y124821D01*
X448908Y124021D02*X452108D01*
X448908D02*Y120821D01*
X452108D01*
Y124021D02*Y120821D01*
X12600Y624831D02*X17400Y620031D01*
X12600D02*X17400Y624831D01*
X13400Y624031D02*X16600D01*
X13400D02*Y620831D01*
X16600D01*
Y624031D02*Y620831D01*
X140000Y624681D02*Y618681D01*
Y624681D02*X143750Y618681D01*
Y624681D02*Y618681D01*
X145550Y623931D02*Y619431D01*
Y623931D02*X146300Y624681D01*
X147800D01*
X148550Y623931D01*
Y619431D01*
X147800Y618681D02*X148550Y619431D01*
X146300Y618681D02*X147800D01*
X145550Y619431D02*X146300Y618681D01*
X98000Y624681D02*X101000D01*
X98000D02*Y621681D01*
X98750Y622431D01*
X100250D01*
X101000Y621681D01*
Y619431D01*
X100250Y618681D02*X101000Y619431D01*
X98750Y618681D02*X100250D01*
X98000Y619431D02*X98750Y618681D01*
X45000Y619431D02*X45750Y618681D01*
X45000Y623931D02*Y619431D01*
Y623931D02*X45750Y624681D01*
X47250D01*
X48000Y623931D01*
Y619431D01*
X47250Y618681D02*X48000Y619431D01*
X45750Y618681D02*X47250D01*
X45000Y620181D02*X48000Y623181D01*
X49800Y618681D02*X50550D01*
X52350Y619431D02*X53100Y618681D01*
X52350Y623931D02*Y619431D01*
Y623931D02*X53100Y624681D01*
X54600D01*
X55350Y623931D01*
Y619431D01*
X54600Y618681D02*X55350Y619431D01*
X53100Y618681D02*X54600D01*
X52350Y620181D02*X55350Y623181D01*
X59400Y624681D02*X60150Y623931D01*
X57900Y624681D02*X59400D01*
X57150Y623931D02*X57900Y624681D01*
X57150Y623931D02*Y619431D01*
X57900Y618681D01*
X59400Y621981D02*X60150Y621231D01*
X57150Y621981D02*X59400D01*
X57900Y618681D02*X59400D01*
X60150Y619431D01*
Y621231D02*Y619431D01*
X61950Y624681D02*X64950D01*
X61950D02*Y621681D01*
X62700Y622431D01*
X64200D01*
X64950Y621681D01*
Y619431D01*
X64200Y618681D02*X64950Y619431D01*
X62700Y618681D02*X64200D01*
X61950Y619431D02*X62700Y618681D01*
X104921Y174302D02*Y167902D01*
X101721Y171102D02*X108121D01*
X103321Y172702D02*X106521D01*
X103321D02*Y169502D01*
X106521D01*
Y172702D02*Y169502D01*
X104921Y194302D02*Y187902D01*
X101721Y191102D02*X108121D01*
X103321Y192702D02*X106521D01*
X103321D02*Y189502D01*
X106521D01*
Y192702D02*Y189502D01*
X104921Y214302D02*Y207902D01*
X101721Y211102D02*X108121D01*
X103321Y212702D02*X106521D01*
X103321D02*Y209502D01*
X106521D01*
Y212702D02*Y209502D01*
X97421Y349302D02*Y342902D01*
X94221Y346102D02*X100621D01*
X95821Y347702D02*X99021D01*
X95821D02*Y344502D01*
X99021D01*
Y347702D02*Y344502D01*
X97421Y369302D02*Y362902D01*
X94221Y366102D02*X100621D01*
X95821Y367702D02*X99021D01*
X95821D02*Y364502D01*
X99021D01*
Y367702D02*Y364502D01*
X97421Y389302D02*Y382902D01*
X94221Y386102D02*X100621D01*
X95821Y387702D02*X99021D01*
X95821D02*Y384502D01*
X99021D01*
Y387702D02*Y384502D01*
X97421Y409302D02*Y402902D01*
X94221Y406102D02*X100621D01*
X95821Y407702D02*X99021D01*
X95821D02*Y404502D01*
X99021D01*
Y407702D02*Y404502D01*
X104921Y249302D02*Y242902D01*
X101721Y246102D02*X108121D01*
X103321Y247702D02*X106521D01*
X103321D02*Y244502D01*
X106521D01*
Y247702D02*Y244502D01*
X104921Y269302D02*Y262902D01*
X101721Y266102D02*X108121D01*
X103321Y267702D02*X106521D01*
X103321D02*Y264502D01*
X106521D01*
Y267702D02*Y264502D01*
X104921Y289302D02*Y282902D01*
X101721Y286102D02*X108121D01*
X103321Y287702D02*X106521D01*
X103321D02*Y284502D01*
X106521D01*
Y287702D02*Y284502D01*
X15000Y640631D02*Y634231D01*
X11800Y637431D02*X18200D01*
X13400Y639031D02*X16600D01*
X13400D02*Y635831D01*
X16600D01*
Y639031D02*Y635831D01*
X135000Y639681D02*X136500Y636681D01*
X138000Y639681D01*
X136500Y636681D02*Y633681D01*
X139800Y636981D02*X142050D01*
X139800Y633681D02*X142800D01*
X139800Y639681D02*Y633681D01*
Y639681D02*X142800D01*
X147600D02*X148350Y638931D01*
X145350Y639681D02*X147600D01*
X144600Y638931D02*X145350Y639681D01*
X144600Y638931D02*Y637431D01*
X145350Y636681D01*
X147600D01*
X148350Y635931D01*
Y634431D01*
X147600Y633681D02*X148350Y634431D01*
X145350Y633681D02*X147600D01*
X144600Y634431D02*X145350Y633681D01*
X98000Y638481D02*X99200Y639681D01*
Y633681D01*
X98000D02*X100250D01*
X102050Y634431D02*X102800Y633681D01*
X102050Y638931D02*Y634431D01*
Y638931D02*X102800Y639681D01*
X104300D01*
X105050Y638931D01*
Y634431D01*
X104300Y633681D02*X105050Y634431D01*
X102800Y633681D02*X104300D01*
X102050Y635181D02*X105050Y638181D01*
X45000Y634431D02*X45750Y633681D01*
X45000Y638931D02*Y634431D01*
Y638931D02*X45750Y639681D01*
X47250D01*
X48000Y638931D01*
Y634431D01*
X47250Y633681D02*X48000Y634431D01*
X45750Y633681D02*X47250D01*
X45000Y635181D02*X48000Y638181D01*
X49800Y633681D02*X50550D01*
X52350Y634431D02*X53100Y633681D01*
X52350Y638931D02*Y634431D01*
Y638931D02*X53100Y639681D01*
X54600D01*
X55350Y638931D01*
Y634431D01*
X54600Y633681D02*X55350Y634431D01*
X53100Y633681D02*X54600D01*
X52350Y635181D02*X55350Y638181D01*
X57150Y639681D02*X60150D01*
X57150D02*Y636681D01*
X57900Y637431D01*
X59400D01*
X60150Y636681D01*
Y634431D01*
X59400Y633681D02*X60150Y634431D01*
X57900Y633681D02*X59400D01*
X57150Y634431D02*X57900Y633681D01*
X62700D02*X64950Y636681D01*
Y638931D02*Y636681D01*
X64200Y639681D02*X64950Y638931D01*
X62700Y639681D02*X64200D01*
X61950Y638931D02*X62700Y639681D01*
X61950Y638931D02*Y637431D01*
X62700Y636681D01*
X64950D01*
X370000Y101181D02*Y97981D01*
Y101181D02*X372773Y102781D01*
X370000Y101181D02*X367227Y102781D01*
X368400Y101181D02*G75*G03X371600Y101181I1600J0D01*G01*
G75*G03X368400Y101181I-1600J0D01*G01*
X386299D02*Y97981D01*
Y101181D02*X389073Y102781D01*
X386299Y101181D02*X383526Y102781D01*
X384699Y101181D02*G75*G03X387899Y101181I1600J0D01*G01*
G75*G03X384699Y101181I-1600J0D01*G01*
X402598D02*Y97981D01*
Y101181D02*X405372Y102781D01*
X402598Y101181D02*X399825Y102781D01*
X400998Y101181D02*G75*G03X404198Y101181I1600J0D01*G01*
G75*G03X400998Y101181I-1600J0D01*G01*
X180000Y451181D02*Y447981D01*
Y451181D02*X182773Y452781D01*
X180000Y451181D02*X177227Y452781D01*
X178400Y451181D02*G75*G03X181600Y451181I1600J0D01*G01*
G75*G03X178400Y451181I-1600J0D01*G01*
X163701D02*Y447981D01*
Y451181D02*X166474Y452781D01*
X163701Y451181D02*X160927Y452781D01*
X162101Y451181D02*G75*G03X165301Y451181I1600J0D01*G01*
G75*G03X162101Y451181I-1600J0D01*G01*
X147402D02*Y447981D01*
Y451181D02*X150175Y452781D01*
X147402Y451181D02*X144628Y452781D01*
X145802Y451181D02*G75*G03X149002Y451181I1600J0D01*G01*
G75*G03X145802Y451181I-1600J0D01*G01*
X15000Y652431D02*Y649231D01*
Y652431D02*X17773Y654031D01*
X15000Y652431D02*X12227Y654031D01*
X13400Y652431D02*G75*G03X16600Y652431I1600J0D01*G01*
G75*G03X13400Y652431I-1600J0D01*G01*
X135000Y654681D02*X136500Y651681D01*
X138000Y654681D01*
X136500Y651681D02*Y648681D01*
X139800Y651981D02*X142050D01*
X139800Y648681D02*X142800D01*
X139800Y654681D02*Y648681D01*
Y654681D02*X142800D01*
X147600D02*X148350Y653931D01*
X145350Y654681D02*X147600D01*
X144600Y653931D02*X145350Y654681D01*
X144600Y653931D02*Y652431D01*
X145350Y651681D01*
X147600D01*
X148350Y650931D01*
Y649431D01*
X147600Y648681D02*X148350Y649431D01*
X145350Y648681D02*X147600D01*
X144600Y649431D02*X145350Y648681D01*
X100250Y654681D02*X101000Y653931D01*
X98750Y654681D02*X100250D01*
X98000Y653931D02*X98750Y654681D01*
X98000Y653931D02*Y649431D01*
X98750Y648681D01*
X100250Y651981D02*X101000Y651231D01*
X98000Y651981D02*X100250D01*
X98750Y648681D02*X100250D01*
X101000Y649431D01*
Y651231D02*Y649431D01*
X45000D02*X45750Y648681D01*
X45000Y653931D02*Y649431D01*
Y653931D02*X45750Y654681D01*
X47250D01*
X48000Y653931D01*
Y649431D01*
X47250Y648681D02*X48000Y649431D01*
X45750Y648681D02*X47250D01*
X45000Y650181D02*X48000Y653181D01*
X49800Y648681D02*X50550D01*
X52350Y649431D02*X53100Y648681D01*
X52350Y653931D02*Y649431D01*
Y653931D02*X53100Y654681D01*
X54600D01*
X55350Y653931D01*
Y649431D01*
X54600Y648681D02*X55350Y649431D01*
X53100Y648681D02*X54600D01*
X52350Y650181D02*X55350Y653181D01*
X57150Y654681D02*X60150D01*
X57150D02*Y651681D01*
X57900Y652431D01*
X59400D01*
X60150Y651681D01*
Y649431D01*
X59400Y648681D02*X60150Y649431D01*
X57900Y648681D02*X59400D01*
X57150Y649431D02*X57900Y648681D01*
X61950Y654681D02*X64950D01*
X61950D02*Y651681D01*
X62700Y652431D01*
X64200D01*
X64950Y651681D01*
Y649431D01*
X64200Y648681D02*X64950Y649431D01*
X62700Y648681D02*X64200D01*
X61950Y649431D02*X62700Y648681D01*
X138400Y222781D02*X141600D01*
X138400D02*Y219581D01*
X141600D01*
Y222781D02*Y219581D01*
X138400Y102781D02*X141600D01*
X138400D02*Y99581D01*
X141600D01*
Y102781D02*Y99581D01*
X188400Y127781D02*X191600D01*
X188400D02*Y124581D01*
X191600D01*
Y127781D02*Y124581D01*
X308400Y127781D02*X311600D01*
X308400D02*Y124581D01*
X311600D01*
Y127781D02*Y124581D01*
X173400Y247781D02*X176600D01*
X173400D02*Y244581D01*
X176600D01*
Y247781D02*Y244581D01*
X173400Y127781D02*X176600D01*
X173400D02*Y124581D01*
X176600D01*
Y127781D02*Y124581D01*
X13400Y669031D02*X16600D01*
X13400D02*Y665831D01*
X16600D01*
Y669031D02*Y665831D01*
X135000Y669681D02*X136500Y666681D01*
X138000Y669681D01*
X136500Y666681D02*Y663681D01*
X139800Y666981D02*X142050D01*
X139800Y663681D02*X142800D01*
X139800Y669681D02*Y663681D01*
Y669681D02*X142800D01*
X147600D02*X148350Y668931D01*
X145350Y669681D02*X147600D01*
X144600Y668931D02*X145350Y669681D01*
X144600Y668931D02*Y667431D01*
X145350Y666681D01*
X147600D01*
X148350Y665931D01*
Y664431D01*
X147600Y663681D02*X148350Y664431D01*
X145350Y663681D02*X147600D01*
X144600Y664431D02*X145350Y663681D01*
X100250Y669681D02*X101000Y668931D01*
X98750Y669681D02*X100250D01*
X98000Y668931D02*X98750Y669681D01*
X98000Y668931D02*Y664431D01*
X98750Y663681D01*
X100250Y666981D02*X101000Y666231D01*
X98000Y666981D02*X100250D01*
X98750Y663681D02*X100250D01*
X101000Y664431D01*
Y666231D02*Y664431D01*
X45000D02*X45750Y663681D01*
X45000Y668931D02*Y664431D01*
Y668931D02*X45750Y669681D01*
X47250D01*
X48000Y668931D01*
Y664431D01*
X47250Y663681D02*X48000Y664431D01*
X45750Y663681D02*X47250D01*
X45000Y665181D02*X48000Y668181D01*
X49800Y663681D02*X50550D01*
X52350Y664431D02*X53100Y663681D01*
X52350Y668931D02*Y664431D01*
Y668931D02*X53100Y669681D01*
X54600D01*
X55350Y668931D01*
Y664431D01*
X54600Y663681D02*X55350Y664431D01*
X53100Y663681D02*X54600D01*
X52350Y665181D02*X55350Y668181D01*
X57150Y665931D02*X60150Y669681D01*
X57150Y665931D02*X60900D01*
X60150Y669681D02*Y663681D01*
X63450D02*X66450Y669681D01*
X62700D02*X66450D01*
X436208Y389764D02*G75*G03X437808Y389764I800J0D01*G01*
G75*G03X436208Y389764I-800J0D01*G01*
Y399764D02*G75*G03X437808Y399764I800J0D01*G01*
G75*G03X436208Y399764I-800J0D01*G01*
Y409764D02*G75*G03X437808Y409764I800J0D01*G01*
G75*G03X436208Y409764I-800J0D01*G01*
Y419764D02*G75*G03X437808Y419764I800J0D01*G01*
G75*G03X436208Y419764I-800J0D01*G01*
Y330709D02*G75*G03X437808Y330709I800J0D01*G01*
G75*G03X436208Y330709I-800J0D01*G01*
Y340709D02*G75*G03X437808Y340709I800J0D01*G01*
G75*G03X436208Y340709I-800J0D01*G01*
Y350709D02*G75*G03X437808Y350709I800J0D01*G01*
G75*G03X436208Y350709I-800J0D01*G01*
Y275591D02*G75*G03X437808Y275591I800J0D01*G01*
G75*G03X436208Y275591I-800J0D01*G01*
Y285591D02*G75*G03X437808Y285591I800J0D01*G01*
G75*G03X436208Y285591I-800J0D01*G01*
Y295591D02*G75*G03X437808Y295591I800J0D01*G01*
G75*G03X436208Y295591I-800J0D01*G01*
X390932Y440945D02*G75*G03X392532Y440945I800J0D01*G01*
G75*G03X390932Y440945I-800J0D01*G01*
X380932D02*G75*G03X382532Y440945I800J0D01*G01*
G75*G03X380932Y440945I-800J0D01*G01*
X370932D02*G75*G03X372532Y440945I800J0D01*G01*
G75*G03X370932Y440945I-800J0D01*G01*
X360932D02*G75*G03X362532Y440945I800J0D01*G01*
G75*G03X360932Y440945I-800J0D01*G01*
X350932D02*G75*G03X352532Y440945I800J0D01*G01*
G75*G03X350932Y440945I-800J0D01*G01*
X340932D02*G75*G03X342532Y440945I800J0D01*G01*
G75*G03X340932Y440945I-800J0D01*G01*
X330932D02*G75*G03X332532Y440945I800J0D01*G01*
G75*G03X330932Y440945I-800J0D01*G01*
X320932D02*G75*G03X322532Y440945I800J0D01*G01*
G75*G03X320932Y440945I-800J0D01*G01*
X436208Y129921D02*G75*G03X437808Y129921I800J0D01*G01*
G75*G03X436208Y129921I-800J0D01*G01*
Y139921D02*G75*G03X437808Y139921I800J0D01*G01*
G75*G03X436208Y139921I-800J0D01*G01*
Y149921D02*G75*G03X437808Y149921I800J0D01*G01*
G75*G03X436208Y149921I-800J0D01*G01*
X14200Y682431D02*G75*G03X15800Y682431I800J0D01*G01*
G75*G03X14200Y682431I-800J0D01*G01*
X135000Y684681D02*X136500Y681681D01*
X138000Y684681D01*
X136500Y681681D02*Y678681D01*
X139800Y681981D02*X142050D01*
X139800Y678681D02*X142800D01*
X139800Y684681D02*Y678681D01*
Y684681D02*X142800D01*
X147600D02*X148350Y683931D01*
X145350Y684681D02*X147600D01*
X144600Y683931D02*X145350Y684681D01*
X144600Y683931D02*Y682431D01*
X145350Y681681D01*
X147600D01*
X148350Y680931D01*
Y679431D01*
X147600Y678681D02*X148350Y679431D01*
X145350Y678681D02*X147600D01*
X144600Y679431D02*X145350Y678681D01*
X98000Y683931D02*X98750Y684681D01*
X101000D01*
X101750Y683931D01*
Y682431D01*
X98000Y678681D02*X101750Y682431D01*
X98000Y678681D02*X101750D01*
X103550Y683481D02*X104750Y684681D01*
Y678681D01*
X103550D02*X105800D01*
X45000Y679431D02*X45750Y678681D01*
X45000Y683931D02*Y679431D01*
Y683931D02*X45750Y684681D01*
X47250D01*
X48000Y683931D01*
Y679431D01*
X47250Y678681D02*X48000Y679431D01*
X45750Y678681D02*X47250D01*
X45000Y680181D02*X48000Y683181D01*
X49800Y678681D02*X50550D01*
X52350Y679431D02*X53100Y678681D01*
X52350Y683931D02*Y679431D01*
Y683931D02*X53100Y684681D01*
X54600D01*
X55350Y683931D01*
Y679431D01*
X54600Y678681D02*X55350Y679431D01*
X53100Y678681D02*X54600D01*
X52350Y680181D02*X55350Y683181D01*
X57150Y680931D02*X60150Y684681D01*
X57150Y680931D02*X60900D01*
X60150Y684681D02*Y678681D01*
X62700Y679431D02*X63450Y678681D01*
X62700Y683931D02*Y679431D01*
Y683931D02*X63450Y684681D01*
X64950D01*
X65700Y683931D01*
Y679431D01*
X64950Y678681D02*X65700Y679431D01*
X63450Y678681D02*X64950D01*
X62700Y680181D02*X65700Y683181D01*
X327540Y347657D02*X329940Y345257D01*
X327540D02*X329940Y347657D01*
X317540Y337657D02*X319940Y335257D01*
X317540D02*X319940Y337657D01*
X327540Y327657D02*X329940Y325257D01*
X327540D02*X329940Y327657D01*
X382658Y347657D02*X385058Y345257D01*
X382658D02*X385058Y347657D01*
X372658Y337657D02*X375058Y335257D01*
X372658D02*X375058Y337657D01*
X382658Y327657D02*X385058Y325257D01*
X382658D02*X385058Y327657D01*
X355099Y347657D02*X357499Y345257D01*
X355099D02*X357499Y347657D01*
X345099Y337657D02*X347499Y335257D01*
X345099D02*X347499Y337657D01*
X355099Y327657D02*X357499Y325257D01*
X355099D02*X357499Y327657D01*
X182501Y422381D02*X184901Y419981D01*
X182501D02*X184901Y422381D01*
X142501D02*X144901Y419981D01*
X142501D02*X144901Y422381D01*
X331477Y126216D02*X333877Y123816D01*
X331477D02*X333877Y126216D01*
X331477Y106216D02*X333877Y103816D01*
X331477D02*X333877Y106216D01*
X13800Y698631D02*X16200Y696231D01*
X13800D02*X16200Y698631D01*
X135000Y699681D02*X136500Y696681D01*
X138000Y699681D01*
X136500Y696681D02*Y693681D01*
X139800Y696981D02*X142050D01*
X139800Y693681D02*X142800D01*
X139800Y699681D02*Y693681D01*
Y699681D02*X142800D01*
X147600D02*X148350Y698931D01*
X145350Y699681D02*X147600D01*
X144600Y698931D02*X145350Y699681D01*
X144600Y698931D02*Y697431D01*
X145350Y696681D01*
X147600D01*
X148350Y695931D01*
Y694431D01*
X147600Y693681D02*X148350Y694431D01*
X145350Y693681D02*X147600D01*
X144600Y694431D02*X145350Y693681D01*
X98000Y698481D02*X99200Y699681D01*
Y693681D01*
X98000D02*X100250D01*
X102050Y698931D02*X102800Y699681D01*
X104300D01*
X105050Y698931D01*
X104300Y693681D02*X105050Y694431D01*
X102800Y693681D02*X104300D01*
X102050Y694431D02*X102800Y693681D01*
Y696981D02*X104300D01*
X105050Y698931D02*Y697731D01*
Y696231D02*Y694431D01*
Y696231D02*X104300Y696981D01*
X105050Y697731D02*X104300Y696981D01*
X45000Y694431D02*X45750Y693681D01*
X45000Y698931D02*Y694431D01*
Y698931D02*X45750Y699681D01*
X47250D01*
X48000Y698931D01*
Y694431D01*
X47250Y693681D02*X48000Y694431D01*
X45750Y693681D02*X47250D01*
X45000Y695181D02*X48000Y698181D01*
X49800Y693681D02*X50550D01*
X52350Y694431D02*X53100Y693681D01*
X52350Y698931D02*Y694431D01*
Y698931D02*X53100Y699681D01*
X54600D01*
X55350Y698931D01*
Y694431D01*
X54600Y693681D02*X55350Y694431D01*
X53100Y693681D02*X54600D01*
X52350Y695181D02*X55350Y698181D01*
X57150Y698931D02*X57900Y699681D01*
X59400D01*
X60150Y698931D01*
X59400Y693681D02*X60150Y694431D01*
X57900Y693681D02*X59400D01*
X57150Y694431D02*X57900Y693681D01*
Y696981D02*X59400D01*
X60150Y698931D02*Y697731D01*
Y696231D02*Y694431D01*
Y696231D02*X59400Y696981D01*
X60150Y697731D02*X59400Y696981D01*
X61950Y698481D02*X63150Y699681D01*
Y693681D01*
X61950D02*X64200D01*
X399606Y230537D02*Y227337D01*
X398006Y228937D02*X401206D01*
X379921Y230537D02*Y227337D01*
X378321Y228937D02*X381521D01*
X297244Y387427D02*Y384227D01*
X295644Y385827D02*X298844D01*
X297244Y379553D02*Y376353D01*
X295644Y377953D02*X298844D01*
X312992Y383490D02*Y380290D01*
X311392Y381890D02*X314592D01*
X320866Y383490D02*Y380290D01*
X319266Y381890D02*X322466D01*
X15000Y714031D02*Y710831D01*
X13400Y712431D02*X16600D01*
X135000Y714681D02*X136500Y711681D01*
X138000Y714681D01*
X136500Y711681D02*Y708681D01*
X139800Y711981D02*X142050D01*
X139800Y708681D02*X142800D01*
X139800Y714681D02*Y708681D01*
Y714681D02*X142800D01*
X147600D02*X148350Y713931D01*
X145350Y714681D02*X147600D01*
X144600Y713931D02*X145350Y714681D01*
X144600Y713931D02*Y712431D01*
X145350Y711681D01*
X147600D01*
X148350Y710931D01*
Y709431D01*
X147600Y708681D02*X148350Y709431D01*
X145350Y708681D02*X147600D01*
X144600Y709431D02*X145350Y708681D01*
X100250Y714681D02*X101000Y713931D01*
X98750Y714681D02*X100250D01*
X98000Y713931D02*X98750Y714681D01*
X98000Y713931D02*Y709431D01*
X98750Y708681D01*
X100250Y711981D02*X101000Y711231D01*
X98000Y711981D02*X100250D01*
X98750Y708681D02*X100250D01*
X101000Y709431D01*
Y711231D02*Y709431D01*
X45000D02*X45750Y708681D01*
X45000Y713931D02*Y709431D01*
Y713931D02*X45750Y714681D01*
X47250D01*
X48000Y713931D01*
Y709431D01*
X47250Y708681D02*X48000Y709431D01*
X45750Y708681D02*X47250D01*
X45000Y710181D02*X48000Y713181D01*
X49800Y708681D02*X50550D01*
X52350Y709431D02*X53100Y708681D01*
X52350Y713931D02*Y709431D01*
Y713931D02*X53100Y714681D01*
X54600D01*
X55350Y713931D01*
Y709431D01*
X54600Y708681D02*X55350Y709431D01*
X53100Y708681D02*X54600D01*
X52350Y710181D02*X55350Y713181D01*
X57150Y713931D02*X57900Y714681D01*
X60150D01*
X60900Y713931D01*
Y712431D01*
X57150Y708681D02*X60900Y712431D01*
X57150Y708681D02*X60900D01*
X62700Y710931D02*X65700Y714681D01*
X62700Y710931D02*X66450D01*
X65700Y714681D02*Y708681D01*
X332677Y253937D02*Y252337D01*
Y253937D02*X334064Y254737D01*
X332677Y253937D02*X331290Y254737D01*
X356299Y263780D02*Y262180D01*
Y263780D02*X357686Y264580D01*
X356299Y263780D02*X354913Y264580D01*
X356299Y279528D02*Y277928D01*
Y279528D02*X357686Y280328D01*
X356299Y279528D02*X354913Y280328D01*
X362205Y263780D02*Y262180D01*
Y263780D02*X363591Y264580D01*
X362205Y263780D02*X360818Y264580D01*
X362205Y279528D02*Y277928D01*
Y279528D02*X363591Y280328D01*
X362205Y279528D02*X360818Y280328D01*
X366142Y291339D02*Y289739D01*
Y291339D02*X367528Y292139D01*
X366142Y291339D02*X364755Y292139D01*
X366142Y299213D02*Y297613D01*
Y299213D02*X367528Y300013D01*
X366142Y299213D02*X364755Y300013D01*
X419291Y261811D02*Y260211D01*
Y261811D02*X420678Y262611D01*
X419291Y261811D02*X417905Y262611D01*
X417323Y305118D02*Y303518D01*
Y305118D02*X418710Y305918D01*
X417323Y305118D02*X415936Y305918D01*
X364075Y403445D02*Y401845D01*
Y403445D02*X365461Y404245D01*
X364075Y403445D02*X362688Y404245D01*
X344587Y374902D02*Y373302D01*
Y374902D02*X345973Y375702D01*
X344587Y374902D02*X343200Y375702D01*
X417323Y440945D02*Y439345D01*
Y440945D02*X418710Y441745D01*
X417323Y440945D02*X415936Y441745D01*
X336614Y358268D02*Y356668D01*
Y358268D02*X338001Y359068D01*
X336614Y358268D02*X335228Y359068D01*
X415354Y274606D02*Y273006D01*
Y274606D02*X416741Y275406D01*
X415354Y274606D02*X413968Y275406D01*
X336614Y370079D02*Y368479D01*
Y370079D02*X338001Y370879D01*
X336614Y370079D02*X335228Y370879D01*
X312992Y417323D02*Y415723D01*
Y417323D02*X314379Y418123D01*
X312992Y417323D02*X311605Y418123D01*
X417323Y312992D02*Y311392D01*
Y312992D02*X418710Y313792D01*
X417323Y312992D02*X415936Y313792D01*
X338583Y232283D02*Y230683D01*
Y232283D02*X339969Y233083D01*
X338583Y232283D02*X337196Y233083D01*
X391732Y281555D02*Y279955D01*
Y281555D02*X393119Y282355D01*
X391732Y281555D02*X390346Y282355D01*
X393701Y391732D02*Y390132D01*
Y391732D02*X395087Y392532D01*
X393701Y391732D02*X392314Y392532D01*
X393701Y415354D02*Y413754D01*
Y415354D02*X395087Y416154D01*
X393701Y415354D02*X392314Y416154D01*
X329646Y291339D02*Y289739D01*
Y291339D02*X331032Y292139D01*
X329646Y291339D02*X328259Y292139D01*
X334646Y274606D02*Y273006D01*
Y274606D02*X336032Y275406D01*
X334646Y274606D02*X333259Y275406D01*
X334646Y268701D02*Y267101D01*
Y268701D02*X336032Y269501D01*
X334646Y268701D02*X333259Y269501D01*
X383484Y268701D02*Y267101D01*
Y268701D02*X384871Y269501D01*
X383484Y268701D02*X382098Y269501D01*
X373484Y274606D02*Y273006D01*
Y274606D02*X374871Y275406D01*
X373484Y274606D02*X372098Y275406D01*
X415354Y295276D02*Y293676D01*
Y295276D02*X416741Y296076D01*
X415354Y295276D02*X413968Y296076D01*
X324803Y233169D02*Y231569D01*
Y233169D02*X326190Y233969D01*
X324803Y233169D02*X323416Y233969D01*
X259843Y246063D02*Y244463D01*
Y246063D02*X261229Y246863D01*
X259843Y246063D02*X258456Y246863D01*
X267717Y246063D02*Y244463D01*
Y246063D02*X269103Y246863D01*
X267717Y246063D02*X266330Y246863D01*
X267717Y198819D02*Y197219D01*
Y198819D02*X269103Y199619D01*
X267717Y198819D02*X266330Y199619D01*
X259843Y198819D02*Y197219D01*
Y198819D02*X261229Y199619D01*
X259843Y198819D02*X258456Y199619D01*
X307087Y261811D02*Y260211D01*
Y261811D02*X308473Y262611D01*
X307087Y261811D02*X305700Y262611D01*
X314961Y261811D02*Y260211D01*
Y261811D02*X316347Y262611D01*
X314961Y261811D02*X313574Y262611D01*
X205000Y356181D02*Y354581D01*
Y356181D02*X206387Y356981D01*
X205000Y356181D02*X203613Y356981D01*
X289370Y417323D02*Y415723D01*
Y417323D02*X290757Y418123D01*
X289370Y417323D02*X287983Y418123D01*
X348425Y190945D02*Y189345D01*
Y190945D02*X349812Y191745D01*
X348425Y190945D02*X347039Y191745D01*
X334646Y207677D02*Y206077D01*
Y207677D02*X336032Y208477D01*
X334646Y207677D02*X333259Y208477D01*
X366142Y200787D02*Y199187D01*
Y200787D02*X367528Y201587D01*
X366142Y200787D02*X364755Y201587D01*
X269685Y228346D02*Y226746D01*
Y228346D02*X271072Y229146D01*
X269685Y228346D02*X268298Y229146D01*
X342520Y252953D02*Y251353D01*
Y252953D02*X343906Y253753D01*
X342520Y252953D02*X341133Y253753D01*
X334646Y222441D02*Y220841D01*
Y222441D02*X336032Y223241D01*
X334646Y222441D02*X333259Y223241D01*
X15000Y727431D02*Y725831D01*
Y727431D02*X16387Y728231D01*
X15000Y727431D02*X13613Y728231D01*
X135000Y729681D02*X136500Y726681D01*
X138000Y729681D01*
X136500Y726681D02*Y723681D01*
X139800Y726981D02*X142050D01*
X139800Y723681D02*X142800D01*
X139800Y729681D02*Y723681D01*
Y729681D02*X142800D01*
X147600D02*X148350Y728931D01*
X145350Y729681D02*X147600D01*
X144600Y728931D02*X145350Y729681D01*
X144600Y728931D02*Y727431D01*
X145350Y726681D01*
X147600D01*
X148350Y725931D01*
Y724431D01*
X147600Y723681D02*X148350Y724431D01*
X145350Y723681D02*X147600D01*
X144600Y724431D02*X145350Y723681D01*
X98000Y725931D02*X101000Y729681D01*
X98000Y725931D02*X101750D01*
X101000Y729681D02*Y723681D01*
X103550Y728931D02*X104300Y729681D01*
X106550D01*
X107300Y728931D01*
Y727431D01*
X103550Y723681D02*X107300Y727431D01*
X103550Y723681D02*X107300D01*
X45000Y724431D02*X45750Y723681D01*
X45000Y728931D02*Y724431D01*
Y728931D02*X45750Y729681D01*
X47250D01*
X48000Y728931D01*
Y724431D01*
X47250Y723681D02*X48000Y724431D01*
X45750Y723681D02*X47250D01*
X45000Y725181D02*X48000Y728181D01*
X49800Y723681D02*X50550D01*
X52350Y724431D02*X53100Y723681D01*
X52350Y728931D02*Y724431D01*
Y728931D02*X53100Y729681D01*
X54600D01*
X55350Y728931D01*
Y724431D01*
X54600Y723681D02*X55350Y724431D01*
X53100Y723681D02*X54600D01*
X52350Y725181D02*X55350Y728181D01*
X57150Y728481D02*X58350Y729681D01*
Y723681D01*
X57150D02*X59400D01*
X63450Y729681D02*X64200Y728931D01*
X61950Y729681D02*X63450D01*
X61200Y728931D02*X61950Y729681D01*
X61200Y728931D02*Y724431D01*
X61950Y723681D01*
X63450Y726981D02*X64200Y726231D01*
X61200Y726981D02*X63450D01*
X61950Y723681D02*X63450D01*
X64200Y724431D01*
Y726231D02*Y724431D01*
X3000Y744681D02*X3750Y743931D01*
X750Y744681D02*X3000D01*
X0Y743931D02*X750Y744681D01*
X0Y743931D02*Y742431D01*
X750Y741681D01*
X3000D01*
X3750Y740931D01*
Y739431D01*
X3000Y738681D02*X3750Y739431D01*
X750Y738681D02*X3000D01*
X0Y739431D02*X750Y738681D01*
X5550Y741681D02*Y739431D01*
X6300Y738681D01*
X8550Y741681D02*Y737181D01*
X7800Y736431D02*X8550Y737181D01*
X6300Y736431D02*X7800D01*
X5550Y737181D02*X6300Y736431D01*
Y738681D02*X7800D01*
X8550Y739431D01*
X11100Y740931D02*Y738681D01*
Y740931D02*X11850Y741681D01*
X12600D01*
X13350Y740931D01*
Y738681D01*
Y740931D02*X14100Y741681D01*
X14850D01*
X15600Y740931D01*
Y738681D01*
X10350Y741681D02*X11100Y740931D01*
X17400Y744681D02*Y738681D01*
Y739431D02*X18150Y738681D01*
X19650D01*
X20400Y739431D01*
Y740931D02*Y739431D01*
X19650Y741681D02*X20400Y740931D01*
X18150Y741681D02*X19650D01*
X17400Y740931D02*X18150Y741681D01*
X22200Y740931D02*Y739431D01*
Y740931D02*X22950Y741681D01*
X24450D01*
X25200Y740931D01*
Y739431D01*
X24450Y738681D02*X25200Y739431D01*
X22950Y738681D02*X24450D01*
X22200Y739431D02*X22950Y738681D01*
X27000Y744681D02*Y739431D01*
X27750Y738681D01*
X0Y735431D02*X29250D01*
X41750Y744681D02*Y738681D01*
X43700Y744681D02*X44750Y743631D01*
Y739731D01*
X43700Y738681D02*X44750Y739731D01*
X41000Y738681D02*X43700D01*
X41000Y744681D02*X43700D01*
G54D143*X46550Y743181D02*Y743031D01*
G54D142*Y740931D02*Y738681D01*
X50300Y741681D02*X51050Y740931D01*
X48800Y741681D02*X50300D01*
X48050Y740931D02*X48800Y741681D01*
X48050Y740931D02*Y739431D01*
X48800Y738681D01*
X51050Y741681D02*Y739431D01*
X51800Y738681D01*
X48800D02*X50300D01*
X51050Y739431D01*
X54350Y740931D02*Y738681D01*
Y740931D02*X55100Y741681D01*
X55850D01*
X56600Y740931D01*
Y738681D01*
Y740931D02*X57350Y741681D01*
X58100D01*
X58850Y740931D01*
Y738681D01*
X53600Y741681D02*X54350Y740931D01*
X60650Y738681D02*X61400D01*
X65900Y739431D02*X66650Y738681D01*
X65900Y743931D02*X66650Y744681D01*
X65900Y743931D02*Y739431D01*
X68450Y744681D02*X69950D01*
X69200D02*Y738681D01*
X68450D02*X69950D01*
X72500Y740931D02*Y738681D01*
Y740931D02*X73250Y741681D01*
X74000D01*
X74750Y740931D01*
Y738681D01*
X71750Y741681D02*X72500Y740931D01*
X77300Y741681D02*X79550D01*
X76550Y740931D02*X77300Y741681D01*
X76550Y740931D02*Y739431D01*
X77300Y738681D01*
X79550D01*
X81350Y744681D02*Y738681D01*
Y740931D02*X82100Y741681D01*
X83600D01*
X84350Y740931D01*
Y738681D01*
X86150Y744681D02*X86900Y743931D01*
Y739431D01*
X86150Y738681D02*X86900Y739431D01*
X41000Y735431D02*X88700D01*
X96050Y738681D02*X98000D01*
X95000Y739731D02*X96050Y738681D01*
X95000Y743631D02*Y739731D01*
Y743631D02*X96050Y744681D01*
X98000D01*
X99800Y740931D02*Y739431D01*
Y740931D02*X100550Y741681D01*
X102050D01*
X102800Y740931D01*
Y739431D01*
X102050Y738681D02*X102800Y739431D01*
X100550Y738681D02*X102050D01*
X99800Y739431D02*X100550Y738681D01*
X104600Y741681D02*Y739431D01*
X105350Y738681D01*
X106850D01*
X107600Y739431D01*
Y741681D02*Y739431D01*
X110150Y740931D02*Y738681D01*
Y740931D02*X110900Y741681D01*
X111650D01*
X112400Y740931D01*
Y738681D01*
X109400Y741681D02*X110150Y740931D01*
X114950Y744681D02*Y739431D01*
X115700Y738681D01*
X114200Y742431D02*X115700D01*
X95000Y735431D02*X117200D01*
X130750Y744681D02*Y738681D01*
X130000Y744681D02*X133000D01*
X133750Y743931D01*
Y742431D01*
X133000Y741681D02*X133750Y742431D01*
X130750Y741681D02*X133000D01*
X135550Y744681D02*Y739431D01*
X136300Y738681D01*
X140050Y741681D02*X140800Y740931D01*
X138550Y741681D02*X140050D01*
X137800Y740931D02*X138550Y741681D01*
X137800Y740931D02*Y739431D01*
X138550Y738681D01*
X140800Y741681D02*Y739431D01*
X141550Y738681D01*
X138550D02*X140050D01*
X140800Y739431D01*
X144100Y744681D02*Y739431D01*
X144850Y738681D01*
X143350Y742431D02*X144850D01*
X147100Y738681D02*X149350D01*
X146350Y739431D02*X147100Y738681D01*
X146350Y740931D02*Y739431D01*
Y740931D02*X147100Y741681D01*
X148600D01*
X149350Y740931D01*
X146350Y740181D02*X149350D01*
Y740931D02*Y740181D01*
X154150Y744681D02*Y738681D01*
X153400D02*X154150Y739431D01*
X151900Y738681D02*X153400D01*
X151150Y739431D02*X151900Y738681D01*
X151150Y740931D02*Y739431D01*
Y740931D02*X151900Y741681D01*
X153400D01*
X154150Y740931D01*
X157450Y741681D02*Y740931D01*
Y739431D02*Y738681D01*
X155950Y743931D02*Y743181D01*
Y743931D02*X156700Y744681D01*
X158200D01*
X158950Y743931D01*
Y743181D01*
X157450Y741681D02*X158950Y743181D01*
X130000Y735431D02*X160750D01*
X0Y759681D02*X3000D01*
X1500D02*Y753681D01*
X4800Y759681D02*Y753681D01*
Y755931D02*X5550Y756681D01*
X7050D01*
X7800Y755931D01*
Y753681D01*
X10350D02*X12600D01*
X9600Y754431D02*X10350Y753681D01*
X9600Y755931D02*Y754431D01*
Y755931D02*X10350Y756681D01*
X11850D01*
X12600Y755931D01*
X9600Y755181D02*X12600D01*
Y755931D02*Y755181D01*
X15150Y755931D02*Y753681D01*
Y755931D02*X15900Y756681D01*
X17400D01*
X14400D02*X15150Y755931D01*
X19950Y753681D02*X22200D01*
X19200Y754431D02*X19950Y753681D01*
X19200Y755931D02*Y754431D01*
Y755931D02*X19950Y756681D01*
X21450D01*
X22200Y755931D01*
X19200Y755181D02*X22200D01*
Y755931D02*Y755181D01*
X28950Y756681D02*X29700Y755931D01*
X27450Y756681D02*X28950D01*
X26700Y755931D02*X27450Y756681D01*
X26700Y755931D02*Y754431D01*
X27450Y753681D01*
X29700Y756681D02*Y754431D01*
X30450Y753681D01*
X27450D02*X28950D01*
X29700Y754431D01*
X33000Y755931D02*Y753681D01*
Y755931D02*X33750Y756681D01*
X35250D01*
X32250D02*X33000Y755931D01*
X37800Y753681D02*X40050D01*
X37050Y754431D02*X37800Y753681D01*
X37050Y755931D02*Y754431D01*
Y755931D02*X37800Y756681D01*
X39300D01*
X40050Y755931D01*
X37050Y755181D02*X40050D01*
Y755931D02*Y755181D01*
X44550Y758481D02*X45750Y759681D01*
Y753681D01*
X44550D02*X46800D01*
X48600Y758931D02*X49350Y759681D01*
X51600D01*
X52350Y758931D01*
Y757431D01*
X48600Y753681D02*X52350Y757431D01*
X48600Y753681D02*X52350D01*
X59850Y759681D02*Y753681D01*
X59100D02*X59850Y754431D01*
X57600Y753681D02*X59100D01*
X56850Y754431D02*X57600Y753681D01*
X56850Y755931D02*Y754431D01*
Y755931D02*X57600Y756681D01*
X59100D01*
X59850Y755931D01*
G54D143*X61650Y758181D02*Y758031D01*
G54D142*Y755931D02*Y753681D01*
X63900Y758931D02*Y753681D01*
Y758931D02*X64650Y759681D01*
X65400D01*
X63150Y756681D02*X64650D01*
X67650Y758931D02*Y753681D01*
Y758931D02*X68400Y759681D01*
X69150D01*
X66900Y756681D02*X68400D01*
X71400Y753681D02*X73650D01*
X70650Y754431D02*X71400Y753681D01*
X70650Y755931D02*Y754431D01*
Y755931D02*X71400Y756681D01*
X72900D01*
X73650Y755931D01*
X70650Y755181D02*X73650D01*
Y755931D02*Y755181D01*
X76200Y755931D02*Y753681D01*
Y755931D02*X76950Y756681D01*
X78450D01*
X75450D02*X76200Y755931D01*
X81000Y753681D02*X83250D01*
X80250Y754431D02*X81000Y753681D01*
X80250Y755931D02*Y754431D01*
Y755931D02*X81000Y756681D01*
X82500D01*
X83250Y755931D01*
X80250Y755181D02*X83250D01*
Y755931D02*Y755181D01*
X85800Y755931D02*Y753681D01*
Y755931D02*X86550Y756681D01*
X87300D01*
X88050Y755931D01*
Y753681D01*
X85050Y756681D02*X85800Y755931D01*
X90600Y759681D02*Y754431D01*
X91350Y753681D01*
X89850Y757431D02*X91350D01*
X98550Y759681D02*Y753681D01*
X97800D02*X98550Y754431D01*
X96300Y753681D02*X97800D01*
X95550Y754431D02*X96300Y753681D01*
X95550Y755931D02*Y754431D01*
Y755931D02*X96300Y756681D01*
X97800D01*
X98550Y755931D01*
X101100D02*Y753681D01*
Y755931D02*X101850Y756681D01*
X103350D01*
X100350D02*X101100Y755931D01*
G54D143*X105150Y758181D02*Y758031D01*
G54D142*Y755931D02*Y753681D01*
X106650Y759681D02*Y754431D01*
X107400Y753681D01*
X108900Y759681D02*Y754431D01*
X109650Y753681D01*
X114600D02*X116850D01*
X117600Y754431D01*
X116850Y755181D02*X117600Y754431D01*
X114600Y755181D02*X116850D01*
X113850Y755931D02*X114600Y755181D01*
X113850Y755931D02*X114600Y756681D01*
X116850D01*
X117600Y755931D01*
X113850Y754431D02*X114600Y753681D01*
G54D143*X119400Y758181D02*Y758031D01*
G54D142*Y755931D02*Y753681D01*
X120900Y756681D02*X123900D01*
X120900Y753681D02*X123900Y756681D01*
X120900Y753681D02*X123900D01*
X126450D02*X128700D01*
X125700Y754431D02*X126450Y753681D01*
X125700Y755931D02*Y754431D01*
Y755931D02*X126450Y756681D01*
X127950D01*
X128700Y755931D01*
X125700Y755181D02*X128700D01*
Y755931D02*Y755181D01*
X131250Y753681D02*X133500D01*
X134250Y754431D01*
X133500Y755181D02*X134250Y754431D01*
X131250Y755181D02*X133500D01*
X130500Y755931D02*X131250Y755181D01*
X130500Y755931D02*X131250Y756681D01*
X133500D01*
X134250Y755931D01*
X130500Y754431D02*X131250Y753681D01*
X138750Y756681D02*Y754431D01*
X139500Y753681D01*
X141000D01*
X141750Y754431D01*
Y756681D02*Y754431D01*
X144300Y753681D02*X146550D01*
X147300Y754431D01*
X146550Y755181D02*X147300Y754431D01*
X144300Y755181D02*X146550D01*
X143550Y755931D02*X144300Y755181D01*
X143550Y755931D02*X144300Y756681D01*
X146550D01*
X147300Y755931D01*
X143550Y754431D02*X144300Y753681D01*
X149850D02*X152100D01*
X149100Y754431D02*X149850Y753681D01*
X149100Y755931D02*Y754431D01*
Y755931D02*X149850Y756681D01*
X151350D01*
X152100Y755931D01*
X149100Y755181D02*X152100D01*
Y755931D02*Y755181D01*
X156900Y759681D02*Y753681D01*
X156150D02*X156900Y754431D01*
X154650Y753681D02*X156150D01*
X153900Y754431D02*X154650Y753681D01*
X153900Y755931D02*Y754431D01*
Y755931D02*X154650Y756681D01*
X156150D01*
X156900Y755931D01*
G54D143*X161400Y758181D02*Y758031D01*
G54D142*Y755931D02*Y753681D01*
X163650Y755931D02*Y753681D01*
Y755931D02*X164400Y756681D01*
X165150D01*
X165900Y755931D01*
Y753681D01*
X162900Y756681D02*X163650Y755931D01*
X171150Y759681D02*Y754431D01*
X171900Y753681D01*
X170400Y757431D02*X171900D01*
X173400Y759681D02*Y753681D01*
Y755931D02*X174150Y756681D01*
X175650D01*
X176400Y755931D01*
Y753681D01*
G54D143*X178200Y758181D02*Y758031D01*
G54D142*Y755931D02*Y753681D01*
X180450D02*X182700D01*
X183450Y754431D01*
X182700Y755181D02*X183450Y754431D01*
X180450Y755181D02*X182700D01*
X179700Y755931D02*X180450Y755181D01*
X179700Y755931D02*X180450Y756681D01*
X182700D01*
X183450Y755931D01*
X179700Y754431D02*X180450Y753681D01*
X187950Y759681D02*Y754431D01*
X188700Y753681D01*
X192450Y756681D02*X193200Y755931D01*
X190950Y756681D02*X192450D01*
X190200Y755931D02*X190950Y756681D01*
X190200Y755931D02*Y754431D01*
X190950Y753681D01*
X193200Y756681D02*Y754431D01*
X193950Y753681D01*
X190950D02*X192450D01*
X193200Y754431D01*
X195750Y756681D02*Y754431D01*
X196500Y753681D01*
X198750Y756681D02*Y752181D01*
X198000Y751431D02*X198750Y752181D01*
X196500Y751431D02*X198000D01*
X195750Y752181D02*X196500Y751431D01*
Y753681D02*X198000D01*
X198750Y754431D01*
X200550Y755931D02*Y754431D01*
Y755931D02*X201300Y756681D01*
X202800D01*
X203550Y755931D01*
Y754431D01*
X202800Y753681D02*X203550Y754431D01*
X201300Y753681D02*X202800D01*
X200550Y754431D02*X201300Y753681D01*
X205350Y756681D02*Y754431D01*
X206100Y753681D01*
X207600D01*
X208350Y754431D01*
Y756681D02*Y754431D01*
X210900Y759681D02*Y754431D01*
X211650Y753681D01*
X210150Y757431D02*X211650D01*
X213150Y752181D02*X214650Y753681D01*
X219150Y758481D02*X220350Y759681D01*
Y753681D01*
X219150D02*X221400D01*
X223200Y758931D02*X223950Y759681D01*
X226200D01*
X226950Y758931D01*
Y757431D01*
X223200Y753681D02*X226950Y757431D01*
X223200Y753681D02*X226950D01*
X228750Y758931D02*X229500Y759681D01*
X231000D01*
X231750Y758931D01*
X231000Y753681D02*X231750Y754431D01*
X229500Y753681D02*X231000D01*
X228750Y754431D02*X229500Y753681D01*
Y756981D02*X231000D01*
X231750Y758931D02*Y757731D01*
Y756231D02*Y754431D01*
Y756231D02*X231000Y756981D01*
X231750Y757731D02*X231000Y756981D01*
X236250Y759681D02*Y753681D01*
Y755931D02*X237000Y756681D01*
X238500D01*
X239250Y755931D01*
Y753681D01*
X241050Y755931D02*Y754431D01*
Y755931D02*X241800Y756681D01*
X243300D01*
X244050Y755931D01*
Y754431D01*
X243300Y753681D02*X244050Y754431D01*
X241800Y753681D02*X243300D01*
X241050Y754431D02*X241800Y753681D01*
X245850Y759681D02*Y754431D01*
X246600Y753681D01*
X248850D02*X251100D01*
X248100Y754431D02*X248850Y753681D01*
X248100Y755931D02*Y754431D01*
Y755931D02*X248850Y756681D01*
X250350D01*
X251100Y755931D01*
X248100Y755181D02*X251100D01*
Y755931D02*Y755181D01*
X253650Y753681D02*X255900D01*
X256650Y754431D01*
X255900Y755181D02*X256650Y754431D01*
X253650Y755181D02*X255900D01*
X252900Y755931D02*X253650Y755181D01*
X252900Y755931D02*X253650Y756681D01*
X255900D01*
X256650Y755931D01*
X252900Y754431D02*X253650Y753681D01*
X261900Y759681D02*Y754431D01*
X262650Y753681D01*
X261150Y757431D02*X262650D01*
X264150Y755931D02*Y754431D01*
Y755931D02*X264900Y756681D01*
X266400D01*
X267150Y755931D01*
Y754431D01*
X266400Y753681D02*X267150Y754431D01*
X264900Y753681D02*X266400D01*
X264150Y754431D02*X264900Y753681D01*
X269700Y759681D02*Y754431D01*
X270450Y753681D01*
X268950Y757431D02*X270450D01*
X274200Y756681D02*X274950Y755931D01*
X272700Y756681D02*X274200D01*
X271950Y755931D02*X272700Y756681D01*
X271950Y755931D02*Y754431D01*
X272700Y753681D01*
X274950Y756681D02*Y754431D01*
X275700Y753681D01*
X272700D02*X274200D01*
X274950Y754431D01*
X277500Y759681D02*Y754431D01*
X278250Y753681D01*
G54D144*X78740Y78740D02*Y472441D01*
X472441Y78740D02*X78740D01*
X472441Y472441D02*Y78740D01*
X78740Y472441D02*X472441D01*
G54D142*X189265Y-9500D02*X192265D01*
X193015Y-8750D01*
Y-6950D02*Y-8750D01*
X192265Y-6200D02*X193015Y-6950D01*
X190015Y-6200D02*X192265D01*
X190015Y-3500D02*Y-9500D01*
X189265Y-3500D02*X192265D01*
X193015Y-4250D01*
Y-5450D01*
X192265Y-6200D02*X193015Y-5450D01*
X194815Y-7250D02*Y-8750D01*
Y-7250D02*X195565Y-6500D01*
X197065D01*
X197815Y-7250D01*
Y-8750D01*
X197065Y-9500D02*X197815Y-8750D01*
X195565Y-9500D02*X197065D01*
X194815Y-8750D02*X195565Y-9500D01*
X201865Y-6500D02*X202615Y-7250D01*
X200365Y-6500D02*X201865D01*
X199615Y-7250D02*X200365Y-6500D01*
X199615Y-7250D02*Y-8750D01*
X200365Y-9500D01*
X202615Y-6500D02*Y-8750D01*
X203365Y-9500D01*
X200365D02*X201865D01*
X202615Y-8750D01*
X205915Y-7250D02*Y-9500D01*
Y-7250D02*X206665Y-6500D01*
X208165D01*
X205165D02*X205915Y-7250D01*
X212965Y-3500D02*Y-9500D01*
X212215D02*X212965Y-8750D01*
X210715Y-9500D02*X212215D01*
X209965Y-8750D02*X210715Y-9500D01*
X209965Y-7250D02*Y-8750D01*
Y-7250D02*X210715Y-6500D01*
X212215D01*
X212965Y-7250D01*
X217465D02*Y-8750D01*
Y-7250D02*X218215Y-6500D01*
X219715D01*
X220465Y-7250D01*
Y-8750D01*
X219715Y-9500D02*X220465Y-8750D01*
X218215Y-9500D02*X219715D01*
X217465Y-8750D02*X218215Y-9500D01*
X222265Y-6500D02*Y-8750D01*
X223015Y-9500D01*
X224515D01*
X225265Y-8750D01*
Y-6500D02*Y-8750D01*
X227815Y-3500D02*Y-8750D01*
X228565Y-9500D01*
X227065Y-5750D02*X228565D01*
X230065Y-3500D02*Y-8750D01*
X230815Y-9500D01*
G54D143*X232315Y-5000D02*Y-5150D01*
G54D142*Y-7250D02*Y-9500D01*
X234566Y-7250D02*Y-9500D01*
Y-7250D02*X235316Y-6500D01*
X236066D01*
X236816Y-7250D01*
Y-9500D01*
X233816Y-6500D02*X234566Y-7250D01*
X239366Y-9500D02*X241616D01*
X238616Y-8750D02*X239366Y-9500D01*
X238616Y-7250D02*Y-8750D01*
Y-7250D02*X239366Y-6500D01*
X240866D01*
X241616Y-7250D01*
X238616Y-8000D02*X241616D01*
Y-7250D02*Y-8000D01*
G54D143*X246116Y-5000D02*Y-5150D01*
G54D142*Y-7250D02*Y-9500D01*
X248366D02*X250616D01*
X251366Y-8750D01*
X250616Y-8000D02*X251366Y-8750D01*
X248366Y-8000D02*X250616D01*
X247616Y-7250D02*X248366Y-8000D01*
X247616Y-7250D02*X248366Y-6500D01*
X250616D01*
X251366Y-7250D01*
X247616Y-8750D02*X248366Y-9500D01*
X256616Y-3500D02*Y-8750D01*
X257366Y-9500D01*
X255866Y-5750D02*X257366D01*
X258866Y-3500D02*Y-9500D01*
Y-7250D02*X259616Y-6500D01*
X261116D01*
X261866Y-7250D01*
Y-9500D01*
X264416D02*X266666D01*
X263666Y-8750D02*X264416Y-9500D01*
X263666Y-7250D02*Y-8750D01*
Y-7250D02*X264416Y-6500D01*
X265916D01*
X266666Y-7250D01*
X263666Y-8000D02*X266666D01*
Y-7250D02*Y-8000D01*
X271916Y-6500D02*X274166D01*
X271166Y-7250D02*X271916Y-6500D01*
X271166Y-7250D02*Y-8750D01*
X271916Y-9500D01*
X274166D01*
X276716D02*X278966D01*
X275966Y-8750D02*X276716Y-9500D01*
X275966Y-7250D02*Y-8750D01*
Y-7250D02*X276716Y-6500D01*
X278216D01*
X278966Y-7250D01*
X275966Y-8000D02*X278966D01*
Y-7250D02*Y-8000D01*
X281516Y-7250D02*Y-9500D01*
Y-7250D02*X282266Y-6500D01*
X283016D01*
X283766Y-7250D01*
Y-9500D01*
X280766Y-6500D02*X281516Y-7250D01*
X286316Y-3500D02*Y-8750D01*
X287066Y-9500D01*
X285566Y-5750D02*X287066D01*
X289316Y-9500D02*X291566D01*
X288566Y-8750D02*X289316Y-9500D01*
X288566Y-7250D02*Y-8750D01*
Y-7250D02*X289316Y-6500D01*
X290816D01*
X291566Y-7250D01*
X288566Y-8000D02*X291566D01*
Y-7250D02*Y-8000D01*
X294116Y-7250D02*Y-9500D01*
Y-7250D02*X294866Y-6500D01*
X296366D01*
X293366D02*X294116Y-7250D01*
X298166Y-3500D02*Y-8750D01*
X298916Y-9500D01*
G54D143*X300416Y-5000D02*Y-5150D01*
G54D142*Y-7250D02*Y-9500D01*
X302666Y-7250D02*Y-9500D01*
Y-7250D02*X303416Y-6500D01*
X304166D01*
X304916Y-7250D01*
Y-9500D01*
X301916Y-6500D02*X302666Y-7250D01*
X307466Y-9500D02*X309716D01*
X306716Y-8750D02*X307466Y-9500D01*
X306716Y-7250D02*Y-8750D01*
Y-7250D02*X307466Y-6500D01*
X308966D01*
X309716Y-7250D01*
X306716Y-8000D02*X309716D01*
Y-7250D02*Y-8000D01*
X314216Y-7250D02*Y-8750D01*
Y-7250D02*X314966Y-6500D01*
X316466D01*
X317216Y-7250D01*
Y-8750D01*
X316466Y-9500D02*X317216Y-8750D01*
X314966Y-9500D02*X316466D01*
X314216Y-8750D02*X314966Y-9500D01*
X319766Y-4250D02*Y-9500D01*
Y-4250D02*X320516Y-3500D01*
X321266D01*
X319016Y-6500D02*X320516D01*
X326216Y-3500D02*Y-8750D01*
X326966Y-9500D01*
X325466Y-5750D02*X326966D01*
X328466Y-3500D02*Y-9500D01*
Y-7250D02*X329216Y-6500D01*
X330716D01*
X331466Y-7250D01*
Y-9500D01*
G54D143*X333266Y-5000D02*Y-5150D01*
G54D142*Y-7250D02*Y-9500D01*
X335516D02*X337766D01*
X338516Y-8750D01*
X337766Y-8000D02*X338516Y-8750D01*
X335516Y-8000D02*X337766D01*
X334766Y-7250D02*X335516Y-8000D01*
X334766Y-7250D02*X335516Y-6500D01*
X337766D01*
X338516Y-7250D01*
X334766Y-8750D02*X335516Y-9500D01*
X343766Y-7250D02*Y-11750D01*
X343016Y-6500D02*X343766Y-7250D01*
X344516Y-6500D01*
X346016D01*
X346766Y-7250D01*
Y-8750D01*
X346016Y-9500D02*X346766Y-8750D01*
X344516Y-9500D02*X346016D01*
X343766Y-8750D02*X344516Y-9500D01*
X350816Y-6500D02*X351566Y-7250D01*
X349316Y-6500D02*X350816D01*
X348566Y-7250D02*X349316Y-6500D01*
X348566Y-7250D02*Y-8750D01*
X349316Y-9500D01*
X351566Y-6500D02*Y-8750D01*
X352316Y-9500D01*
X349316D02*X350816D01*
X351566Y-8750D01*
X354866Y-3500D02*Y-8750D01*
X355616Y-9500D01*
X354116Y-5750D02*X355616D01*
X357116Y-3500D02*Y-9500D01*
Y-7250D02*X357866Y-6500D01*
X359366D01*
X360116Y-7250D01*
Y-9500D01*
X200750Y579681D02*Y573681D01*
X202700Y579681D02*X203750Y578631D01*
Y574731D01*
X202700Y573681D02*X203750Y574731D01*
X200000Y573681D02*X202700D01*
X200000Y579681D02*X202700D01*
X207800Y576681D02*X208550Y575931D01*
X206300Y576681D02*X207800D01*
X205550Y575931D02*X206300Y576681D01*
X205550Y575931D02*Y574431D01*
X206300Y573681D01*
X208550Y576681D02*Y574431D01*
X209300Y573681D01*
X206300D02*X207800D01*
X208550Y574431D01*
X211850Y579681D02*Y574431D01*
X212600Y573681D01*
X211100Y577431D02*X212600D01*
X214850Y573681D02*X217100D01*
X214100Y574431D02*X214850Y573681D01*
X214100Y575931D02*Y574431D01*
Y575931D02*X214850Y576681D01*
X216350D01*
X217100Y575931D01*
X214100Y575181D02*X217100D01*
Y575931D02*Y575181D01*
X218900Y577431D02*X219650D01*
X218900Y575931D02*X219650D01*
X224150Y579681D02*Y573681D01*
Y579681D02*X226400Y576681D01*
X228650Y579681D01*
Y573681D01*
X230450Y575931D02*Y574431D01*
Y575931D02*X231200Y576681D01*
X232700D01*
X233450Y575931D01*
Y574431D01*
X232700Y573681D02*X233450Y574431D01*
X231200Y573681D02*X232700D01*
X230450Y574431D02*X231200Y573681D01*
X236000Y575931D02*Y573681D01*
Y575931D02*X236750Y576681D01*
X237500D01*
X238250Y575931D01*
Y573681D01*
X235250Y576681D02*X236000Y575931D01*
X242750Y574431D02*X243500Y573681D01*
X242750Y578931D02*Y574431D01*
Y578931D02*X243500Y579681D01*
X245000D01*
X245750Y578931D01*
Y574431D01*
X245000Y573681D02*X245750Y574431D01*
X243500Y573681D02*X245000D01*
X242750Y575181D02*X245750Y578181D01*
X247550Y574431D02*X248300Y573681D01*
X247550Y575631D02*Y574431D01*
Y575631D02*X248600Y576681D01*
X249500D01*
X250550Y575631D01*
Y574431D01*
X249800Y573681D02*X250550Y574431D01*
X248300Y573681D02*X249800D01*
X247550Y577731D02*X248600Y576681D01*
X247550Y578931D02*Y577731D01*
Y578931D02*X248300Y579681D01*
X249800D01*
X250550Y578931D01*
Y577731D01*
X249500Y576681D02*X250550Y577731D01*
X258050Y579681D02*X258800Y578931D01*
X255800Y579681D02*X258050D01*
X255050Y578931D02*X255800Y579681D01*
X255050Y578931D02*Y577431D01*
X255800Y576681D01*
X258050D01*
X258800Y575931D01*
Y574431D01*
X258050Y573681D02*X258800Y574431D01*
X255800Y573681D02*X258050D01*
X255050Y574431D02*X255800Y573681D01*
X261350D02*X263600D01*
X260600Y574431D02*X261350Y573681D01*
X260600Y575931D02*Y574431D01*
Y575931D02*X261350Y576681D01*
X262850D01*
X263600Y575931D01*
X260600Y575181D02*X263600D01*
Y575931D02*Y575181D01*
X266150Y575931D02*Y571431D01*
X265400Y576681D02*X266150Y575931D01*
X266900Y576681D01*
X268400D01*
X269150Y575931D01*
Y574431D01*
X268400Y573681D02*X269150Y574431D01*
X266900Y573681D02*X268400D01*
X266150Y574431D02*X266900Y573681D01*
X273650Y578931D02*X274400Y579681D01*
X276650D01*
X277400Y578931D01*
Y577431D01*
X273650Y573681D02*X277400Y577431D01*
X273650Y573681D02*X277400D01*
X279200Y574431D02*X279950Y573681D01*
X279200Y578931D02*Y574431D01*
Y578931D02*X279950Y579681D01*
X281450D01*
X282200Y578931D01*
Y574431D01*
X281450Y573681D02*X282200Y574431D01*
X279950Y573681D02*X281450D01*
X279200Y575181D02*X282200Y578181D01*
X284000Y578481D02*X285200Y579681D01*
Y573681D01*
X284000D02*X286250D01*
X288050Y575931D02*X291050Y579681D01*
X288050Y575931D02*X291800D01*
X291050Y579681D02*Y573681D01*
X296300Y574431D02*X297050Y573681D01*
X296300Y578931D02*Y574431D01*
Y578931D02*X297050Y579681D01*
X298550D01*
X299300Y578931D01*
Y574431D01*
X298550Y573681D02*X299300Y574431D01*
X297050Y573681D02*X298550D01*
X296300Y575181D02*X299300Y578181D01*
X301850Y573681D02*X304850Y579681D01*
X301100D02*X304850D01*
X306650Y577431D02*X307400D01*
X306650Y575931D02*X307400D01*
X309200Y578931D02*X309950Y579681D01*
X312200D01*
X312950Y578931D01*
Y577431D01*
X309200Y573681D02*X312950Y577431D01*
X309200Y573681D02*X312950D01*
X314750Y574431D02*X315500Y573681D01*
X314750Y578931D02*Y574431D01*
Y578931D02*X315500Y579681D01*
X317000D01*
X317750Y578931D01*
Y574431D01*
X317000Y573681D02*X317750Y574431D01*
X315500Y573681D02*X317000D01*
X314750Y575181D02*X317750Y578181D01*
X319550Y577431D02*X320300D01*
X319550Y575931D02*X320300D01*
X322100D02*X325100Y579681D01*
X322100Y575931D02*X325850D01*
X325100Y579681D02*Y573681D01*
X327650Y574431D02*X328400Y573681D01*
X327650Y578931D02*Y574431D01*
Y578931D02*X328400Y579681D01*
X329900D01*
X330650Y578931D01*
Y574431D01*
X329900Y573681D02*X330650Y574431D01*
X328400Y573681D02*X329900D01*
X327650Y575181D02*X330650Y578181D01*
X335900Y579681D02*Y573681D01*
X335150Y579681D02*X338150D01*
X338900Y578931D01*
Y577431D01*
X338150Y576681D02*X338900Y577431D01*
X335900Y576681D02*X338150D01*
X340700Y579681D02*Y573681D01*
Y579681D02*X342950Y576681D01*
X345200Y579681D01*
Y573681D01*
X352700Y579681D02*X353450Y578931D01*
X350450Y579681D02*X352700D01*
X349700Y578931D02*X350450Y579681D01*
X349700Y578931D02*Y574431D01*
X350450Y573681D01*
X352700D01*
X353450Y574431D01*
Y575931D02*Y574431D01*
X352700Y576681D02*X353450Y575931D01*
X351200Y576681D02*X352700D01*
X355250Y579681D02*Y573681D01*
Y579681D02*X357500Y576681D01*
X359750Y579681D01*
Y573681D01*
X361550Y579681D02*X364550D01*
X363050D02*Y573681D01*
X369050Y579681D02*Y574431D01*
X369800Y573681D01*
X371300D01*
X372050Y574431D01*
Y579681D02*Y574431D01*
X373850Y579681D02*X376850D01*
X375350D02*Y573681D01*
X379700D02*X381650D01*
X378650Y574731D02*X379700Y573681D01*
X378650Y578631D02*Y574731D01*
Y578631D02*X379700Y579681D01*
X381650D01*
X200000Y593181D02*Y588681D01*
Y593181D02*X201050Y594681D01*
X202700D01*
X203750Y593181D01*
Y588681D01*
X200000Y591681D02*X203750D01*
X205550D02*Y589431D01*
X206300Y588681D01*
X207800D01*
X208550Y589431D01*
Y591681D02*Y589431D01*
X211100Y594681D02*Y589431D01*
X211850Y588681D01*
X210350Y592431D02*X211850D01*
X213350Y594681D02*Y588681D01*
Y590931D02*X214100Y591681D01*
X215600D01*
X216350Y590931D01*
Y588681D01*
X218150Y590931D02*Y589431D01*
Y590931D02*X218900Y591681D01*
X220400D01*
X221150Y590931D01*
Y589431D01*
X220400Y588681D02*X221150Y589431D01*
X218900Y588681D02*X220400D01*
X218150Y589431D02*X218900Y588681D01*
X223700Y590931D02*Y588681D01*
Y590931D02*X224450Y591681D01*
X225950D01*
X222950D02*X223700Y590931D01*
X227750Y592431D02*X228500D01*
X227750Y590931D02*X228500D01*
X233000Y591981D02*X235250D01*
X233000Y588681D02*X236000D01*
X233000Y594681D02*Y588681D01*
Y594681D02*X236000D01*
X238550Y588681D02*X240800D01*
X237800Y589431D02*X238550Y588681D01*
X237800Y590931D02*Y589431D01*
Y590931D02*X238550Y591681D01*
X240050D01*
X240800Y590931D01*
X237800Y590181D02*X240800D01*
Y590931D02*Y590181D01*
X242600Y594681D02*Y589431D01*
X243350Y588681D01*
X245600Y591681D02*X247850D01*
X244850Y590931D02*X245600Y591681D01*
X244850Y590931D02*Y589431D01*
X245600Y588681D01*
X247850D01*
X249650Y590931D02*Y589431D01*
Y590931D02*X250400Y591681D01*
X251900D01*
X252650Y590931D01*
Y589431D01*
X251900Y588681D02*X252650Y589431D01*
X250400Y588681D02*X251900D01*
X249650Y589431D02*X250400Y588681D01*
X257150Y591681D02*X258650Y588681D01*
X260150Y591681D02*X258650Y588681D01*
X264200Y591681D02*X264950Y590931D01*
X262700Y591681D02*X264200D01*
X261950Y590931D02*X262700Y591681D01*
X261950Y590931D02*Y589431D01*
X262700Y588681D01*
X264950Y591681D02*Y589431D01*
X265700Y588681D01*
X262700D02*X264200D01*
X264950Y589431D01*
X268250Y590931D02*Y588681D01*
Y590931D02*X269000Y591681D01*
X269750D01*
X270500Y590931D01*
Y588681D01*
X267500Y591681D02*X268250Y590931D01*
X278000Y594681D02*Y588681D01*
X277250D02*X278000Y589431D01*
X275750Y588681D02*X277250D01*
X275000Y589431D02*X275750Y588681D01*
X275000Y590931D02*Y589431D01*
Y590931D02*X275750Y591681D01*
X277250D01*
X278000Y590931D01*
X280550Y588681D02*X282800D01*
X279800Y589431D02*X280550Y588681D01*
X279800Y590931D02*Y589431D01*
Y590931D02*X280550Y591681D01*
X282050D01*
X282800Y590931D01*
X279800Y590181D02*X282800D01*
Y590931D02*Y590181D01*
X285350Y590931D02*Y588681D01*
Y590931D02*X286100Y591681D01*
X287600D01*
X284600D02*X285350Y590931D01*
X292100Y594681D02*Y591681D01*
X292850Y588681D01*
X294350Y591681D01*
X295850Y588681D01*
X296600Y591681D01*
Y594681D02*Y591681D01*
X299150Y588681D02*X301400D01*
X298400Y589431D02*X299150Y588681D01*
X298400Y590931D02*Y589431D01*
Y590931D02*X299150Y591681D01*
X300650D01*
X301400Y590931D01*
X298400Y590181D02*X301400D01*
Y590931D02*Y590181D01*
X303950Y590931D02*Y588681D01*
Y590931D02*X304700Y591681D01*
X306200D01*
X303200D02*X303950Y590931D01*
X308750Y593931D02*Y588681D01*
Y593931D02*X309500Y594681D01*
X310250D01*
X308000Y591681D02*X309500D01*
X312500Y593931D02*Y588681D01*
Y593931D02*X313250Y594681D01*
X314000D01*
X311750Y591681D02*X313250D01*
X200000Y609681D02*X203000D01*
X201500D02*Y603681D01*
G54D143*X204800Y608181D02*Y608031D01*
G54D142*Y605931D02*Y603681D01*
X207050Y609681D02*Y604431D01*
X207800Y603681D01*
X206300Y607431D02*X207800D01*
X209300Y609681D02*Y604431D01*
X210050Y603681D01*
X212300D02*X214550D01*
X211550Y604431D02*X212300Y603681D01*
X211550Y605931D02*Y604431D01*
Y605931D02*X212300Y606681D01*
X213800D01*
X214550Y605931D01*
X211550Y605181D02*X214550D01*
Y605931D02*Y605181D01*
X216350Y607431D02*X217100D01*
X216350Y605931D02*X217100D01*
X221600Y606981D02*X223850D01*
X221600Y603681D02*X224600D01*
X221600Y609681D02*Y603681D01*
Y609681D02*X224600D01*
X226400D02*Y606681D01*
X227150Y603681D01*
X228650Y606681D01*
X230150Y603681D01*
X230900Y606681D01*
Y609681D02*Y606681D01*
X232700Y608481D02*X233900Y609681D01*
Y603681D01*
X232700D02*X234950D01*
X236750Y604431D02*X237500Y603681D01*
X236750Y608931D02*Y604431D01*
Y608931D02*X237500Y609681D01*
X239000D01*
X239750Y608931D01*
Y604431D01*
X239000Y603681D02*X239750Y604431D01*
X237500Y603681D02*X239000D01*
X236750Y605181D02*X239750Y608181D01*
X241550D02*Y603681D01*
Y608181D02*X242600Y609681D01*
X244250D01*
X245300Y608181D01*
Y603681D01*
X241550Y606681D02*X245300D01*
X249800D02*X252800D01*
X257300Y609681D02*Y604431D01*
X258050Y603681D01*
G54D143*X259550Y608181D02*Y608031D01*
G54D142*Y605931D02*Y603681D01*
X261800Y605931D02*Y603681D01*
Y605931D02*X262550Y606681D01*
X263300D01*
X264050Y605931D01*
Y603681D01*
X261050Y606681D02*X261800Y605931D01*
X266600Y603681D02*X268850D01*
X265850Y604431D02*X266600Y603681D01*
X265850Y605931D02*Y604431D01*
Y605931D02*X266600Y606681D01*
X268100D01*
X268850Y605931D01*
X265850Y605181D02*X268850D01*
Y605931D02*Y605181D01*
X272900Y606681D02*X273650Y605931D01*
X271400Y606681D02*X272900D01*
X270650Y605931D02*X271400Y606681D01*
X270650Y605931D02*Y604431D01*
X271400Y603681D01*
X273650Y606681D02*Y604431D01*
X274400Y603681D01*
X271400D02*X272900D01*
X273650Y604431D01*
X276950Y605931D02*Y603681D01*
Y605931D02*X277700Y606681D01*
X279200D01*
X276200D02*X276950Y605931D01*
X284450D02*Y601431D01*
X283700Y606681D02*X284450Y605931D01*
X285200Y606681D01*
X286700D01*
X287450Y605931D01*
Y604431D01*
X286700Y603681D02*X287450Y604431D01*
X285200Y603681D02*X286700D01*
X284450Y604431D02*X285200Y603681D01*
X289250Y605931D02*Y604431D01*
Y605931D02*X290000Y606681D01*
X291500D01*
X292250Y605931D01*
Y604431D01*
X291500Y603681D02*X292250Y604431D01*
X290000Y603681D02*X291500D01*
X289250Y604431D02*X290000Y603681D01*
X294050Y606681D02*Y604431D01*
X294800Y603681D01*
X295550D01*
X296300Y604431D01*
Y606681D02*Y604431D01*
X297050Y603681D01*
X297800D01*
X298550Y604431D01*
Y606681D02*Y604431D01*
X301100Y603681D02*X303350D01*
X300350Y604431D02*X301100Y603681D01*
X300350Y605931D02*Y604431D01*
Y605931D02*X301100Y606681D01*
X302600D01*
X303350Y605931D01*
X300350Y605181D02*X303350D01*
Y605931D02*Y605181D01*
X305900Y605931D02*Y603681D01*
Y605931D02*X306650Y606681D01*
X308150D01*
X305150D02*X305900Y605931D01*
X313400Y603681D02*X315650D01*
X316400Y604431D01*
X315650Y605181D02*X316400Y604431D01*
X313400Y605181D02*X315650D01*
X312650Y605931D02*X313400Y605181D01*
X312650Y605931D02*X313400Y606681D01*
X315650D01*
X316400Y605931D01*
X312650Y604431D02*X313400Y603681D01*
X318200Y606681D02*Y604431D01*
X318950Y603681D01*
X320450D01*
X321200Y604431D01*
Y606681D02*Y604431D01*
X323750Y605931D02*Y601431D01*
X323000Y606681D02*X323750Y605931D01*
X324500Y606681D01*
X326000D01*
X326750Y605931D01*
Y604431D01*
X326000Y603681D02*X326750Y604431D01*
X324500Y603681D02*X326000D01*
X323750Y604431D02*X324500Y603681D01*
X329300Y605931D02*Y601431D01*
X328550Y606681D02*X329300Y605931D01*
X330050Y606681D01*
X331550D01*
X332300Y605931D01*
Y604431D01*
X331550Y603681D02*X332300Y604431D01*
X330050Y603681D02*X331550D01*
X329300Y604431D02*X330050Y603681D01*
X334100Y609681D02*Y604431D01*
X334850Y603681D01*
X336350Y606681D02*Y604431D01*
X337100Y603681D01*
X339350Y606681D02*Y602181D01*
X338600Y601431D02*X339350Y602181D01*
X337100Y601431D02*X338600D01*
X336350Y602181D02*X337100Y601431D01*
Y603681D02*X338600D01*
X339350Y604431D01*
X343850Y606681D02*X346850D01*
X351350Y609681D02*Y603681D01*
Y609681D02*X354350D01*
X351350Y606981D02*X353600D01*
X358400Y606681D02*X359150Y605931D01*
X356900Y606681D02*X358400D01*
X356150Y605931D02*X356900Y606681D01*
X356150Y605931D02*Y604431D01*
X356900Y603681D01*
X359150Y606681D02*Y604431D01*
X359900Y603681D01*
X356900D02*X358400D01*
X359150Y604431D01*
X361700Y609681D02*Y603681D01*
Y604431D02*X362450Y603681D01*
X363950D01*
X364700Y604431D01*
Y605931D02*Y604431D01*
X363950Y606681D02*X364700Y605931D01*
X362450Y606681D02*X363950D01*
X361700Y605931D02*X362450Y606681D01*
X367250Y605931D02*Y603681D01*
Y605931D02*X368000Y606681D01*
X369500D01*
X366500D02*X367250Y605931D01*
G54D143*X371300Y608181D02*Y608031D01*
G54D142*Y605931D02*Y603681D01*
X373550Y606681D02*X375800D01*
X372800Y605931D02*X373550Y606681D01*
X372800Y605931D02*Y604431D01*
X373550Y603681D01*
X375800D01*
X379850Y606681D02*X380600Y605931D01*
X378350Y606681D02*X379850D01*
X377600Y605931D02*X378350Y606681D01*
X377600Y605931D02*Y604431D01*
X378350Y603681D01*
X380600Y606681D02*Y604431D01*
X381350Y603681D01*
X378350D02*X379850D01*
X380600Y604431D01*
X383900Y609681D02*Y604431D01*
X384650Y603681D01*
X383150Y607431D02*X384650D01*
G54D143*X386150Y608181D02*Y608031D01*
G54D142*Y605931D02*Y603681D01*
X387650Y605931D02*Y604431D01*
Y605931D02*X388400Y606681D01*
X389900D01*
X390650Y605931D01*
Y604431D01*
X389900Y603681D02*X390650Y604431D01*
X388400Y603681D02*X389900D01*
X387650Y604431D02*X388400Y603681D01*
X393200Y605931D02*Y603681D01*
Y605931D02*X393950Y606681D01*
X394700D01*
X395450Y605931D01*
Y603681D01*
X392450Y606681D02*X393200Y605931D01*
X400700Y609681D02*Y603681D01*
X402650Y609681D02*X403700Y608631D01*
Y604731D01*
X402650Y603681D02*X403700Y604731D01*
X399950Y603681D02*X402650D01*
X399950Y609681D02*X402650D01*
X406250Y605931D02*Y603681D01*
Y605931D02*X407000Y606681D01*
X408500D01*
X405500D02*X406250Y605931D01*
X412550Y606681D02*X413300Y605931D01*
X411050Y606681D02*X412550D01*
X410300Y605931D02*X411050Y606681D01*
X410300Y605931D02*Y604431D01*
X411050Y603681D01*
X413300Y606681D02*Y604431D01*
X414050Y603681D01*
X411050D02*X412550D01*
X413300Y604431D01*
X415850Y606681D02*Y604431D01*
X416600Y603681D01*
X417350D01*
X418100Y604431D01*
Y606681D02*Y604431D01*
X418850Y603681D01*
X419600D01*
X420350Y604431D01*
Y606681D02*Y604431D01*
G54D143*X422150Y608181D02*Y608031D01*
G54D142*Y605931D02*Y603681D01*
X424400Y605931D02*Y603681D01*
Y605931D02*X425150Y606681D01*
X425900D01*
X426650Y605931D01*
Y603681D01*
X423650Y606681D02*X424400Y605931D01*
X430700Y606681D02*X431450Y605931D01*
X429200Y606681D02*X430700D01*
X428450Y605931D02*X429200Y606681D01*
X428450Y605931D02*Y604431D01*
X429200Y603681D01*
X430700D01*
X431450Y604431D01*
X428450Y602181D02*X429200Y601431D01*
X430700D01*
X431450Y602181D01*
Y606681D02*Y602181D01*
M02*
