G04 start of page 10 for group -4078 idx -4078 *
G04 Title: EW10A - linear power supply, bottomsilk *
G04 Creator: pcb 1.99z *
G04 CreationDate: Mon 08 Sep 2014 07:20:40 PM GMT UTC *
G04 For: eelco *
G04 Format: Gerber/RS-274X *
G04 PCB-Dimensions (mil): 5511.81 5511.81 *
G04 PCB-Coordinate-Origin: lower left *
%MOIN*%
%FSLAX25Y25*%
%LNBOTTOMSILK*%
%ADD129C,0.0079*%
%ADD128C,0.0157*%
%ADD127C,0.0081*%
G54D127*X339370Y377835D02*X341732D01*
X339370Y385945D02*X341732D01*
X366929Y401693D02*X369291D01*
X366929Y393583D02*X369291D01*
X387539Y261024D02*Y258661D01*
X379429Y261024D02*Y258661D01*
X369429Y284646D02*Y282283D01*
X377539Y284646D02*Y282283D01*
X321063Y234724D02*Y231299D01*
X308858Y241654D02*Y234724D01*
Y241654D02*X312598D01*
X317323D02*X321063D01*
Y234724D01*
G54D128*X318701Y229331D03*
G54D127*X328543Y245079D02*Y241654D01*
X340748D02*Y234724D01*
X337008D02*X340748D01*
X328543D02*X332283D01*
X328543Y241654D02*Y234724D01*
G54D128*X330906Y247047D03*
G54D127*X178740Y302598D02*X221260D01*
Y296102D01*
Y286260D02*Y279764D01*
X178740D02*X221260D01*
X178740Y286260D02*Y279764D01*
Y302598D02*Y296102D01*
X331496Y277441D02*X333858D01*
X331496Y285551D02*X333858D01*
X335433Y265866D02*X337795D01*
X335433Y257756D02*X337795D01*
X173740Y162598D02*X216260D01*
Y156102D01*
Y146260D02*Y139764D01*
X173740D02*X216260D01*
X173740Y146260D02*Y139764D01*
Y162598D02*Y156102D01*
X258976Y108937D02*X291024D01*
X258976Y113898D02*Y108937D01*
Y133425D02*Y128465D01*
Y133425D02*X291024D01*
Y128465D01*
Y113898D02*Y108937D01*
Y128465D02*X292598D01*
X291024Y113898D02*X292598D01*
G54D128*X294606Y121181D03*
G54D127*X360433Y110827D02*Y99803D01*
X344291Y110827D02*Y99803D01*
X387992Y127559D02*Y116535D01*
X371850Y127559D02*Y116535D01*
G54D129*X214083Y168803D02*X216083D01*
X214083D02*X213583Y168303D01*
Y167303D02*Y168303D01*
X214083Y166803D02*X213583Y167303D01*
X214083Y166803D02*X215583D01*
Y164803D02*Y168803D01*
X214783Y166803D02*X213583Y164803D01*
X212383Y166303D02*X210383Y168803D01*
X209883Y166303D02*X212383D01*
X210383Y164803D02*Y168803D01*
X207183D02*X206683Y168303D01*
X207183Y168803D02*X208183D01*
X208683Y168303D02*X208183Y168803D01*
X208683Y165303D02*Y168303D01*
Y165303D02*X208183Y164803D01*
X207183Y167003D02*X206683Y166503D01*
X207183Y167003D02*X208683D01*
X207183Y164803D02*X208183D01*
X207183D02*X206683Y165303D01*
Y166503D01*
X380854Y136161D02*X382154D01*
X382854Y136861D02*X382154Y136161D01*
X382854Y136861D02*Y139461D01*
X382154Y140161D01*
X380854D02*X382154D01*
X377654D02*X379654D01*
Y138161D02*Y140161D01*
Y138161D02*X379154Y138661D01*
X378154D02*X379154D01*
X378154D02*X377654Y138161D01*
Y136661D02*Y138161D01*
X378154Y136161D02*X377654Y136661D01*
X378154Y136161D02*X379154D01*
X379654Y136661D02*X379154Y136161D01*
X353315Y259764D02*X354615D01*
X355315Y260464D02*X354615Y259764D01*
X355315Y260464D02*Y263064D01*
X354615Y263764D01*
X353315D02*X354615D01*
X352115Y261264D02*X350115Y263764D01*
X349615Y261264D02*X352115D01*
X350115Y259764D02*Y263764D01*
X348415Y263264D02*X347915Y263764D01*
X346915D02*X347915D01*
X346915D02*X346415Y263264D01*
X346915Y259764D02*X346415Y260264D01*
X346915Y259764D02*X347915D01*
X348415Y260264D02*X347915Y259764D01*
X346915Y261964D02*X347915D01*
X346415Y262464D02*Y263264D01*
Y260264D02*Y261464D01*
X346915Y261964D01*
X346415Y262464D02*X346915Y261964D01*
X396622Y258169D02*X397922D01*
X398622Y258869D02*X397922Y258169D01*
X398622Y258869D02*Y261469D01*
X397922Y262169D01*
X396622D02*X397922D01*
X395422Y259669D02*X393422Y262169D01*
X392922Y259669D02*X395422D01*
X393422Y258169D02*Y262169D01*
X391722Y261369D02*X390922Y262169D01*
Y258169D02*Y262169D01*
X390222Y258169D02*X391722D01*
X337567Y222362D02*X338867D01*
X339567Y223062D02*X338867Y222362D01*
X339567Y223062D02*Y225662D01*
X338867Y226362D01*
X337567D02*X338867D01*
X334367D02*X336367D01*
X334367D02*X333867Y225862D01*
Y224862D02*Y225862D01*
X334367Y224362D02*X333867Y224862D01*
X334367Y224362D02*X335867D01*
Y222362D02*Y226362D01*
X335067Y224362D02*X333867Y222362D01*
X332667Y225562D02*X331867Y226362D01*
Y222362D02*Y226362D01*
X331167Y222362D02*X332667D01*
X329967Y222862D02*X329467Y222362D01*
X329967Y222862D02*Y225862D01*
X329467Y226362D01*
X328467D02*X329467D01*
X328467D02*X327967Y225862D01*
Y222862D02*Y225862D01*
X328467Y222362D02*X327967Y222862D01*
X328467Y222362D02*X329467D01*
X329967Y223362D02*X327967Y225362D01*
X316898Y222362D02*X318198D01*
X318898Y223062D02*X318198Y222362D01*
X318898Y223062D02*Y225662D01*
X318198Y226362D01*
X316898D02*X318198D01*
X313698D02*X315698D01*
X313698D02*X313198Y225862D01*
Y224862D02*Y225862D01*
X313698Y224362D02*X313198Y224862D01*
X313698Y224362D02*X315198D01*
Y222362D02*Y226362D01*
X314398Y224362D02*X313198Y222362D01*
X311998Y225562D02*X311198Y226362D01*
Y222362D02*Y226362D01*
X310498Y222362D02*X311998D01*
X309298Y225562D02*X308498Y226362D01*
Y222362D02*Y226362D01*
X307798Y222362D02*X309298D01*
X288945Y136299D02*X290245D01*
X290945Y136999D02*X290245Y136299D01*
X290945Y136999D02*Y139599D01*
X290245Y140299D01*
X288945D02*X290245D01*
X285745D02*X287745D01*
X285745D02*X285245Y139799D01*
Y138799D02*Y139799D01*
X285745Y138299D02*X285245Y138799D01*
X285745Y138299D02*X287245D01*
Y136299D02*Y140299D01*
X286445Y138299D02*X285245Y136299D01*
X284045Y139799D02*X283545Y140299D01*
X282545D02*X283545D01*
X282545D02*X282045Y139799D01*
X282545Y136299D02*X282045Y136799D01*
X282545Y136299D02*X283545D01*
X284045Y136799D02*X283545Y136299D01*
X282545Y138499D02*X283545D01*
X282045Y138999D02*Y139799D01*
Y136799D02*Y137999D01*
X282545Y138499D01*
X282045Y138999D02*X282545Y138499D01*
X353551Y119154D02*X354851D01*
X355551Y119854D02*X354851Y119154D01*
X355551Y119854D02*Y122454D01*
X354851Y123154D01*
X353551D02*X354851D01*
X352351Y120654D02*X350351Y123154D01*
X349851Y120654D02*X352351D01*
X350351Y119154D02*Y123154D01*
X384811Y395591D02*X386111D01*
X386811Y396291D02*X386111Y395591D01*
X386811Y396291D02*Y398891D01*
X386111Y399591D01*
X384811D02*X386111D01*
X383611Y397091D02*X381611Y399591D01*
X381111Y397091D02*X383611D01*
X381611Y395591D02*Y399591D01*
X377911D02*X379911D01*
Y397591D02*Y399591D01*
Y397591D02*X379411Y398091D01*
X378411D02*X379411D01*
X378411D02*X377911Y397591D01*
Y396091D02*Y397591D01*
X378411Y395591D02*X377911Y396091D01*
X378411Y395591D02*X379411D01*
X379911Y396091D02*X379411Y395591D01*
X349378Y279449D02*X350678D01*
X351378Y280149D02*X350678Y279449D01*
X351378Y280149D02*Y282749D01*
X350678Y283449D01*
X349378D02*X350678D01*
X348178Y280949D02*X346178Y283449D01*
X345678Y280949D02*X348178D01*
X346178Y279449D02*Y283449D01*
X344478Y282949D02*X343978Y283449D01*
X342478D02*X343978D01*
X342478D02*X341978Y282949D01*
Y281949D02*Y282949D01*
X344478Y279449D02*X341978Y281949D01*
Y279449D02*X344478D01*
X386780Y281870D02*X388080D01*
X388780Y282570D02*X388080Y281870D01*
X388780Y282570D02*Y285170D01*
X388080Y285870D01*
X386780D02*X388080D01*
X385580Y283370D02*X383580Y285870D01*
X383080Y283370D02*X385580D01*
X383580Y281870D02*Y285870D01*
X381880Y282370D02*X381380Y281870D01*
X381880Y282370D02*Y285370D01*
X381380Y285870D01*
X380380D02*X381380D01*
X380380D02*X379880Y285370D01*
Y282370D02*Y285370D01*
X380380Y281870D02*X379880Y282370D01*
X380380Y281870D02*X381380D01*
X381880Y282870D02*X379880Y284870D01*
X357252Y379843D02*X358552D01*
X359252Y380543D02*X358552Y379843D01*
X359252Y380543D02*Y383143D01*
X358552Y383843D01*
X357252D02*X358552D01*
X356052Y381343D02*X354052Y383843D01*
X353552Y381343D02*X356052D01*
X354052Y379843D02*Y383843D01*
X350852D02*X350352Y383343D01*
X350852Y383843D02*X351852D01*
X352352Y383343D02*X351852Y383843D01*
X352352Y380343D02*Y383343D01*
Y380343D02*X351852Y379843D01*
X350852Y382043D02*X350352Y381543D01*
X350852Y382043D02*X352352D01*
X350852Y379843D02*X351852D01*
X350852D02*X350352Y380343D01*
Y381543D01*
X218551Y309315D02*X220551D01*
X218551D02*X218051Y308815D01*
Y307815D02*Y308815D01*
X218551Y307315D02*X218051Y307815D01*
X218551Y307315D02*X220051D01*
Y305315D02*Y309315D01*
X219251Y307315D02*X218051Y305315D01*
X216851Y308515D02*X216051Y309315D01*
Y305315D02*Y309315D01*
X215351Y305315D02*X216851D01*
M02*
