G04 start of page 10 for group -4078 idx -4078 *
G04 Title: EW10A - bias supply, bottomsilk *
G04 Creator: pcb 1.99z *
G04 CreationDate: Wed 13 Aug 2014 11:07:00 PM GMT UTC *
G04 For: eelco *
G04 Format: Gerber/RS-274X *
G04 PCB-Dimensions (mil): 4724.41 3149.61 *
G04 PCB-Coordinate-Origin: lower left *
%MOIN*%
%FSLAX25Y25*%
%LNBOTTOMSILK*%
%ADD85C,0.0080*%
%ADD84C,0.0157*%
%ADD83C,0.0081*%
G54D83*X361024Y179291D02*X383071D01*
X361024Y190787D02*X383071D01*
X384764D01*
X383071Y179291D02*X384764D01*
G54D84*X386732Y185039D03*
G54D83*X352244Y235433D02*Y233071D01*
X360354Y235433D02*Y233071D01*
X362087Y235945D02*Y232559D01*
X370197Y235945D02*Y232559D01*
X382362Y207402D02*X389291D01*
X382362Y194173D02*X389291D01*
X371929Y235945D02*Y232559D01*
X380039Y235945D02*Y232559D01*
X274409Y179291D02*X296457D01*
X274409Y190787D02*X296457D01*
X298150D01*
X296457Y179291D02*X298150D01*
G54D84*X300118Y185039D03*
G54D83*X305000Y167047D02*Y163661D01*
X313110Y167047D02*Y163661D01*
X267598Y100118D02*Y88858D01*
X283583Y100118D02*Y88858D01*
X313937Y146654D02*X316929D01*
X344488D02*X347480D01*
X316929Y155236D02*Y146654D01*
X347480D02*Y121063D01*
X344488D02*X347480D01*
X313937D02*X316929D01*
X313937Y146654D02*Y121063D01*
G54D84*X320669Y157205D03*
G54D83*X348307Y167047D02*Y163661D01*
X356417Y167047D02*Y163661D01*
X354803Y194173D02*X361732D01*
X354803Y207402D02*X361732D01*
X268189D02*X275118D01*
X268189Y194173D02*X275118D01*
X273740Y235433D02*Y233071D01*
X265630Y235433D02*Y233071D01*
X293425Y235945D02*Y232559D01*
X285315Y235945D02*Y232559D01*
X283583Y235945D02*Y232559D01*
X275472Y235945D02*Y232559D01*
X295748Y194173D02*X302677D01*
X295748Y207402D02*X302677D01*
X232165Y111929D02*Y100669D01*
X248150Y111929D02*Y100669D01*
X157598Y237913D02*Y234528D01*
X149488Y237913D02*Y234528D01*
X167441Y237913D02*Y234528D01*
X159331Y237913D02*Y234528D01*
X149488Y163110D02*Y159724D01*
X157598Y163110D02*Y159724D01*
X178150Y138819D02*Y135827D01*
Y108268D02*Y105276D01*
Y135827D02*X186732D01*
X152559Y105276D02*X178150D01*
X152559Y108268D02*Y105276D01*
Y138819D02*Y135827D01*
Y138819D02*X178150D01*
G54D84*X188701Y132087D03*
G54D83*X116417Y157598D02*X127677D01*
X116417Y141614D02*X127677D01*
X148425Y179291D02*X170472D01*
X148425Y190787D02*X170472D01*
X172165D01*
X170472Y179291D02*X172165D01*
G54D84*X174134Y185039D03*
G54D83*X147756Y237402D02*Y235039D01*
X139646Y237402D02*Y235039D01*
X169764Y194173D02*X176693D01*
X169764Y207402D02*X176693D01*
X142205D02*X149134D01*
X142205Y194173D02*X149134D01*
G54D85*X183319Y182756D02*Y186756D01*
X182019D02*X181319Y186056D01*
Y183456D02*Y186056D01*
X182019Y182756D02*X181319Y183456D01*
X182019Y182756D02*X183819D01*
X182019Y186756D02*X183819D01*
X180119Y185956D02*X179319Y186756D01*
Y182756D02*Y186756D01*
X178619Y182756D02*X180119D01*
X154496Y174197D02*X156496D01*
X154496D02*X153996Y173697D01*
Y172697D02*Y173697D01*
X154496Y172197D02*X153996Y172697D01*
X154496Y172197D02*X155996D01*
Y170197D02*Y174197D01*
X155196Y172197D02*X153996Y170197D01*
X152796Y173397D02*X151996Y174197D01*
Y170197D02*Y174197D01*
X151296Y170197D02*X152796D01*
X188945Y206614D02*X190245D01*
X190945Y207314D02*X190245Y206614D01*
X190945Y207314D02*Y209914D01*
X190245Y210614D01*
X188945D02*X190245D01*
X187745Y208114D02*X185745Y210614D01*
X185245Y208114D02*X187745D01*
X185745Y206614D02*Y210614D01*
X189929Y140669D02*X191929D01*
X189929D02*X189429Y141169D01*
Y142369D01*
X189929Y142869D02*X189429Y142369D01*
X189929Y142869D02*X191429D01*
Y140669D02*Y144669D01*
X189929D02*X191929D01*
X189929D02*X189429Y144169D01*
Y143369D02*Y144169D01*
X189929Y142869D02*X189429Y143369D01*
X186229Y144669D02*X188229D01*
X186229D02*X185729Y144169D01*
Y143169D02*Y144169D01*
X186229Y142669D02*X185729Y143169D01*
X186229Y142669D02*X187729D01*
Y140669D02*Y144669D01*
X186929Y142669D02*X185729Y140669D01*
X184529Y143869D02*X183729Y144669D01*
Y140669D02*Y144669D01*
X183029Y140669D02*X184529D01*
X144654Y245000D02*X145954D01*
X146654Y245700D02*X145954Y245000D01*
X146654Y245700D02*Y248300D01*
X145954Y249000D01*
X144654D02*X145954D01*
X142954Y245000D02*X140954Y249000D01*
X143454D01*
X154496D02*X156496D01*
X154496D02*X153996Y248500D01*
Y247500D02*Y248500D01*
X154496Y247000D02*X153996Y247500D01*
X154496Y247000D02*X155996D01*
Y245000D02*Y249000D01*
X155196Y247000D02*X153996Y245000D01*
X150796Y249000D02*X152796D01*
Y247000D02*Y249000D01*
Y247000D02*X152296Y247500D01*
X151296D02*X152296D01*
X151296D02*X150796Y247000D01*
Y245500D02*Y247000D01*
X151296Y245000D02*X150796Y245500D01*
X151296Y245000D02*X152296D01*
X152796Y245500D02*X152296Y245000D01*
X164339Y249000D02*X166339D01*
X164339D02*X163839Y248500D01*
Y247500D02*Y248500D01*
X164339Y247000D02*X163839Y247500D01*
X164339Y247000D02*X165839D01*
Y245000D02*Y249000D01*
X165039Y247000D02*X163839Y245000D01*
X162639Y246500D02*X160639Y249000D01*
X160139Y246500D02*X162639D01*
X160639Y245000D02*Y249000D01*
X133827Y206614D02*X135127D01*
X135827Y207314D02*X135127Y206614D01*
X135827Y207314D02*Y209914D01*
X135127Y210614D01*
X133827D02*X135127D01*
X132627Y209814D02*X131827Y210614D01*
Y206614D02*Y210614D01*
X131127Y206614D02*X132627D01*
X129927Y207114D02*X129427Y206614D01*
X129927Y207114D02*Y210114D01*
X129427Y210614D01*
X128427D02*X129427D01*
X128427D02*X127927Y210114D01*
Y207114D02*Y210114D01*
X128427Y206614D02*X127927Y207114D01*
X128427Y206614D02*X129427D01*
X129927Y207614D02*X127927Y209614D01*
X131890Y134764D02*Y138764D01*
X129890D02*X131890D01*
X130390Y136964D02*X131890D01*
X128690Y137964D02*X127890Y138764D01*
Y134764D02*Y138764D01*
X127190Y134764D02*X128690D01*
X278543Y108189D02*Y112189D01*
X276543D02*X278543D01*
X277043Y110389D02*X278543D01*
X275343Y111689D02*X274843Y112189D01*
X273843D02*X274843D01*
X273843D02*X273343Y111689D01*
X273843Y108189D02*X273343Y108689D01*
X273843Y108189D02*X274843D01*
X275343Y108689D02*X274843Y108189D01*
X273843Y110389D02*X274843D01*
X273343Y110889D02*Y111689D01*
Y108689D02*Y109889D01*
X273843Y110389D01*
X273343Y110889D02*X273843Y110389D01*
X243110Y120000D02*Y124000D01*
X241110D02*X243110D01*
X241610Y122200D02*X243110D01*
X239910Y123500D02*X239410Y124000D01*
X237910D02*X239410D01*
X237910D02*X237410Y123500D01*
Y122500D02*Y123500D01*
X239910Y120000D02*X237410Y122500D01*
Y120000D02*X239910D01*
X396154Y182992D02*Y186992D01*
X394854D02*X394154Y186292D01*
Y183692D02*Y186292D01*
X394854Y182992D02*X394154Y183692D01*
X394854Y182992D02*X396654D01*
X394854Y186992D02*X396654D01*
X392954Y186492D02*X392454Y186992D01*
X391454D02*X392454D01*
X391454D02*X390954Y186492D01*
X391454Y182992D02*X390954Y183492D01*
X391454Y182992D02*X392454D01*
X392954Y183492D02*X392454Y182992D01*
X391454Y185192D02*X392454D01*
X390954Y185692D02*Y186492D01*
Y183492D02*Y184692D01*
X391454Y185192D01*
X390954Y185692D02*X391454Y185192D01*
X402528Y206614D02*X403828D01*
X404528Y207314D02*X403828Y206614D01*
X404528Y207314D02*Y209914D01*
X403828Y210614D01*
X402528D02*X403828D01*
X401328Y209814D02*X400528Y210614D01*
Y206614D02*Y210614D01*
X399828Y206614D02*X401328D01*
X398628Y210114D02*X398128Y210614D01*
X396628D02*X398128D01*
X396628D02*X396128Y210114D01*
Y209114D02*Y210114D01*
X398628Y206614D02*X396128Y209114D01*
Y206614D02*X398628D01*
X355283Y114094D02*X357283D01*
X355283D02*X354783Y114594D01*
Y115794D01*
X355283Y116294D02*X354783Y115794D01*
X355283Y116294D02*X356783D01*
Y114094D02*Y118094D01*
X355283D02*X357283D01*
X355283D02*X354783Y117594D01*
Y116794D02*Y117594D01*
X355283Y116294D02*X354783Y116794D01*
X351583Y118094D02*X353583D01*
X351583D02*X351083Y117594D01*
Y116594D02*Y117594D01*
X351583Y116094D02*X351083Y116594D01*
X351583Y116094D02*X353083D01*
Y114094D02*Y118094D01*
X352283Y116094D02*X351083Y114094D01*
X349883Y117594D02*X349383Y118094D01*
X347883D02*X349383D01*
X347883D02*X347383Y117594D01*
Y116594D02*Y117594D01*
X349883Y114094D02*X347383Y116594D01*
Y114094D02*X349883D01*
X353315Y178134D02*X355315D01*
X353315D02*X352815Y177634D01*
Y176634D02*Y177634D01*
X353315Y176134D02*X352815Y176634D01*
X353315Y176134D02*X354815D01*
Y174134D02*Y178134D01*
X354015Y176134D02*X352815Y174134D01*
X351615Y177634D02*X351115Y178134D01*
X350115D02*X351115D01*
X350115D02*X349615Y177634D01*
X350115Y174134D02*X349615Y174634D01*
X350115Y174134D02*X351115D01*
X351615Y174634D02*X351115Y174134D01*
X350115Y176334D02*X351115D01*
X349615Y176834D02*Y177634D01*
Y174634D02*Y175834D01*
X350115Y176334D01*
X349615Y176834D02*X350115Y176334D01*
X259811Y206614D02*X261111D01*
X261811Y207314D02*X261111Y206614D01*
X261811Y207314D02*Y209914D01*
X261111Y210614D01*
X259811D02*X261111D01*
X258611Y209814D02*X257811Y210614D01*
Y206614D02*Y210614D01*
X257111Y206614D02*X258611D01*
X255911Y209814D02*X255111Y210614D01*
Y206614D02*Y210614D01*
X254411Y206614D02*X255911D01*
X269654Y243031D02*X270954D01*
X271654Y243731D02*X270954Y243031D01*
X271654Y243731D02*Y246331D01*
X270954Y247031D01*
X269654D02*X270954D01*
X268454Y243531D02*X267954Y243031D01*
X268454Y243531D02*Y244331D01*
X267754Y245031D01*
X267154D02*X267754D01*
X267154D02*X266454Y244331D01*
Y243531D02*Y244331D01*
X266954Y243031D02*X266454Y243531D01*
X266954Y243031D02*X267954D01*
X268454Y245731D02*X267754Y245031D01*
X268454Y245731D02*Y246531D01*
X267954Y247031D01*
X266954D02*X267954D01*
X266954D02*X266454Y246531D01*
Y245731D02*Y246531D01*
X267154Y245031D02*X266454Y245731D01*
X290323Y247031D02*X292323D01*
X290323D02*X289823Y246531D01*
Y245531D02*Y246531D01*
X290323Y245031D02*X289823Y245531D01*
X290323Y245031D02*X291823D01*
Y243031D02*Y247031D01*
X291023Y245031D02*X289823Y243031D01*
X287123Y247031D02*X286623Y246531D01*
X287123Y247031D02*X288123D01*
X288623Y246531D02*X288123Y247031D01*
X288623Y243531D02*Y246531D01*
Y243531D02*X288123Y243031D01*
X287123Y245231D02*X286623Y244731D01*
X287123Y245231D02*X288623D01*
X287123Y243031D02*X288123D01*
X287123D02*X286623Y243531D01*
Y244731D01*
X280480Y247031D02*X282480D01*
X280480D02*X279980Y246531D01*
Y245531D02*Y246531D01*
X280480Y245031D02*X279980Y245531D01*
X280480Y245031D02*X281980D01*
Y243031D02*Y247031D01*
X281180Y245031D02*X279980Y243031D01*
X278280D02*X276280Y247031D01*
X278780D01*
X310524Y182992D02*Y186992D01*
X309224D02*X308524Y186292D01*
Y183692D02*Y186292D01*
X309224Y182992D02*X308524Y183692D01*
X309224Y182992D02*X311024D01*
X309224Y186992D02*X311024D01*
X307324Y186492D02*X306824Y186992D01*
X305324D02*X306824D01*
X305324D02*X304824Y186492D01*
Y185492D02*Y186492D01*
X307324Y182992D02*X304824Y185492D01*
Y182992D02*X307324D01*
X312961Y206614D02*X314261D01*
X314961Y207314D02*X314261Y206614D01*
X314961Y207314D02*Y209914D01*
X314261Y210614D01*
X312961D02*X314261D01*
X309761D02*X311761D01*
Y208614D02*Y210614D01*
Y208614D02*X311261Y209114D01*
X310261D02*X311261D01*
X310261D02*X309761Y208614D01*
Y207114D02*Y208614D01*
X310261Y206614D02*X309761Y207114D01*
X310261Y206614D02*X311261D01*
X311761Y207114D02*X311261Y206614D01*
X310008Y178134D02*X312008D01*
X310008D02*X309508Y177634D01*
Y176634D02*Y177634D01*
X310008Y176134D02*X309508Y176634D01*
X310008Y176134D02*X311508D01*
Y174134D02*Y178134D01*
X310708Y176134D02*X309508Y174134D01*
X308308Y177634D02*X307808Y178134D01*
X306308D02*X307808D01*
X306308D02*X305808Y177634D01*
Y176634D02*Y177634D01*
X308308Y174134D02*X305808Y176634D01*
Y174134D02*X308308D01*
X357252Y243031D02*X358552D01*
X359252Y243731D02*X358552Y243031D01*
X359252Y243731D02*Y246331D01*
X358552Y247031D01*
X357252D02*X358552D01*
X355552Y243031D02*X354052Y245031D01*
Y246531D01*
X354552Y247031D02*X354052Y246531D01*
X354552Y247031D02*X355552D01*
X356052Y246531D02*X355552Y247031D01*
X356052Y245531D02*Y246531D01*
Y245531D02*X355552Y245031D01*
X354052D02*X355552D01*
X367094Y247031D02*X369094D01*
X367094D02*X366594Y246531D01*
Y245531D02*Y246531D01*
X367094Y245031D02*X366594Y245531D01*
X367094Y245031D02*X368594D01*
Y243031D02*Y247031D01*
X367794Y245031D02*X366594Y243031D01*
X365394Y243531D02*X364894Y243031D01*
X365394Y243531D02*Y244331D01*
X364694Y245031D01*
X364094D02*X364694D01*
X364094D02*X363394Y244331D01*
Y243531D02*Y244331D01*
X363894Y243031D02*X363394Y243531D01*
X363894Y243031D02*X364894D01*
X365394Y245731D02*X364694Y245031D01*
X365394Y245731D02*Y246531D01*
X364894Y247031D01*
X363894D02*X364894D01*
X363894D02*X363394Y246531D01*
Y245731D02*Y246531D01*
X364094Y245031D02*X363394Y245731D01*
X344457Y206614D02*X345757D01*
X346457Y207314D02*X345757Y206614D01*
X346457Y207314D02*Y209914D01*
X345757Y210614D01*
X344457D02*X345757D01*
X341757D02*X341257Y210114D01*
X341757Y210614D02*X342757D01*
X343257Y210114D02*X342757Y210614D01*
X343257Y207114D02*Y210114D01*
Y207114D02*X342757Y206614D01*
X341757Y208814D02*X341257Y208314D01*
X341757Y208814D02*X343257D01*
X341757Y206614D02*X342757D01*
X341757D02*X341257Y207114D01*
Y208314D01*
X376937Y247031D02*X378937D01*
X376937D02*X376437Y246531D01*
Y245531D02*Y246531D01*
X376937Y245031D02*X376437Y245531D01*
X376937Y245031D02*X378437D01*
Y243031D02*Y247031D01*
X377637Y245031D02*X376437Y243031D01*
X374737D02*X373237Y245031D01*
Y246531D01*
X373737Y247031D02*X373237Y246531D01*
X373737Y247031D02*X374737D01*
X375237Y246531D02*X374737Y247031D01*
X375237Y245531D02*Y246531D01*
Y245531D02*X374737Y245031D01*
X373237D02*X374737D01*
M02*
