G04 start of page 11 for group -4014 idx -4014 *
G04 Title: EW10A - bias supply, bottompaste *
G04 Creator: pcb 1.99z *
G04 CreationDate: Wed 13 Aug 2014 11:07:00 PM GMT UTC *
G04 For: eelco *
G04 Format: Gerber/RS-274X *
G04 PCB-Dimensions (mil): 4724.41 3149.61 *
G04 PCB-Coordinate-Origin: lower left *
%MOIN*%
%FSLAX25Y25*%
%LNBOTTOMPASTE*%
%ADD91R,0.0512X0.0512*%
%ADD90R,0.0531X0.0531*%
%ADD89R,0.0472X0.0472*%
%ADD88R,0.0413X0.0413*%
%ADD87R,0.0453X0.0453*%
%ADD86R,0.0610X0.0610*%
G54D86*X166339Y185039D02*X169488D01*
X149409D02*X152559D01*
G54D87*X143110Y239665D02*X144291D01*
X143110Y232776D02*X144291D01*
G54D88*X152756Y239961D02*X154331D01*
X152756Y232480D02*X154331D01*
X162598Y239961D02*X164173D01*
X162598Y232480D02*X164173D01*
G54D89*X179035Y203839D02*Y197736D01*
X167421Y203839D02*Y197736D01*
X139862Y203839D02*Y197736D01*
X151476Y203839D02*Y197736D01*
G54D86*X292323Y185039D02*X295472D01*
X275394D02*X278543D01*
G54D89*X265846Y203839D02*Y197736D01*
X277461Y203839D02*Y197736D01*
G54D87*X269094Y237697D02*X270276D01*
X269094Y230807D02*X270276D01*
G54D88*X288583Y237992D02*X290157D01*
X288583Y230512D02*X290157D01*
G54D86*X378937Y185039D02*X382087D01*
X362008D02*X365157D01*
G54D87*X355709Y230807D02*X356890D01*
X355709Y237697D02*X356890D01*
G54D88*X365354Y230512D02*X366929D01*
X365354Y237992D02*X366929D01*
G54D89*X364075Y203839D02*Y197736D01*
X352461Y203839D02*Y197736D01*
X380020Y203839D02*Y197736D01*
X391634Y203839D02*Y197736D01*
G54D88*X375197Y230512D02*X376772D01*
X375197Y237992D02*X376772D01*
X278740D02*X280315D01*
X278740Y230512D02*X280315D01*
G54D89*X305020Y203839D02*Y197736D01*
X293406Y203839D02*Y197736D01*
G54D90*X113780Y153740D02*Y145472D01*
X130315Y153740D02*Y145472D01*
G54D88*X308268Y161614D02*X309843D01*
X308268Y169094D02*X309843D01*
X152756Y157677D02*X154331D01*
X152756Y165157D02*X154331D01*
G54D91*X320669Y153051D02*Y148917D01*
X340748Y153051D02*Y148917D01*
Y118799D02*Y114665D01*
X320669Y118799D02*Y114665D01*
G54D88*X351575Y161614D02*X353150D01*
X351575Y169094D02*X353150D01*
G54D90*X271457Y86220D02*X279724D01*
X271457Y102756D02*X279724D01*
X236024Y98031D02*X244291D01*
X236024Y114567D02*X244291D01*
G54D91*X180413Y132087D02*X184547D01*
X180413Y112008D02*X184547D01*
X146161D02*X150295D01*
X146161Y132087D02*X150295D01*
M02*
