G04 start of page 2 for group 0 idx 0 *
G04 Title: EW10A - bias supply, top *
G04 Creator: pcb 1.99z *
G04 CreationDate: Wed 13 Aug 2014 11:07:00 PM GMT UTC *
G04 For: eelco *
G04 Format: Gerber/RS-274X *
G04 PCB-Dimensions (mil): 4724.41 3149.61 *
G04 PCB-Coordinate-Origin: lower left *
%MOIN*%
%FSLAX25Y25*%
%LNTOP*%
%ADD24C,0.0400*%
%ADD23C,0.1000*%
%ADD22C,0.0472*%
%ADD21C,0.0315*%
%ADD20C,0.1339*%
%ADD19C,0.0295*%
%ADD18C,0.0492*%
%ADD17C,0.0650*%
%ADD16C,0.1600*%
%ADD15C,0.0827*%
%ADD14C,0.0551*%
%ADD13C,0.0591*%
%ADD12C,0.0394*%
%ADD11C,0.0001*%
G54D11*G36*
X203529Y251969D02*X224409D01*
Y137795D01*
X203529D01*
Y218818D01*
X203543Y218817D01*
X205034Y218934D01*
X206488Y219284D01*
X207870Y219856D01*
X209144Y220637D01*
X210282Y221608D01*
X211253Y222745D01*
X212034Y224020D01*
X212606Y225402D01*
X212955Y226856D01*
X213043Y228346D01*
X212955Y229837D01*
X212606Y231291D01*
X212034Y232673D01*
X211253Y233948D01*
X210282Y235085D01*
X209144Y236056D01*
X207870Y236837D01*
X206488Y237409D01*
X205034Y237758D01*
X203543Y237876D01*
X203529Y237875D01*
Y251969D01*
G37*
G36*
X192219D02*X203529D01*
Y237875D01*
X202053Y237758D01*
X200599Y237409D01*
X199217Y236837D01*
X197942Y236056D01*
X196805Y235085D01*
X195834Y233948D01*
X195053Y232673D01*
X194480Y231291D01*
X194131Y229837D01*
X194014Y228346D01*
X194131Y226856D01*
X194480Y225402D01*
X195053Y224020D01*
X195834Y222745D01*
X196805Y221608D01*
X197942Y220637D01*
X199217Y219856D01*
X200599Y219284D01*
X202053Y218934D01*
X203529Y218818D01*
Y137795D01*
X192219D01*
Y198688D01*
X192230Y198693D01*
X192298Y198732D01*
X192359Y198782D01*
X192412Y198840D01*
X192453Y198907D01*
X192612Y199226D01*
X192738Y199560D01*
X192833Y199903D01*
X192897Y200254D01*
X192929Y200609D01*
Y200966D01*
X192897Y201321D01*
X192833Y201672D01*
X192738Y202015D01*
X192612Y202349D01*
X192457Y202670D01*
X192414Y202736D01*
X192361Y202795D01*
X192300Y202845D01*
X192231Y202885D01*
X192219Y202890D01*
Y251969D01*
G37*
G36*
X188978D02*X192219D01*
Y202890D01*
X192158Y202913D01*
X192080Y202930D01*
X192001Y202934D01*
X191922Y202926D01*
X191846Y202906D01*
X191773Y202874D01*
X191707Y202831D01*
X191648Y202778D01*
X191598Y202716D01*
X191558Y202648D01*
X191530Y202574D01*
X191513Y202497D01*
X191509Y202418D01*
X191517Y202339D01*
X191538Y202262D01*
X191571Y202191D01*
X191690Y201953D01*
X191783Y201704D01*
X191854Y201447D01*
X191902Y201185D01*
X191926Y200920D01*
Y200654D01*
X191902Y200389D01*
X191854Y200128D01*
X191783Y199871D01*
X191690Y199622D01*
X191574Y199383D01*
X191540Y199312D01*
X191520Y199235D01*
X191512Y199157D01*
X191516Y199079D01*
X191533Y199002D01*
X191561Y198928D01*
X191601Y198860D01*
X191650Y198799D01*
X191709Y198746D01*
X191775Y198704D01*
X191847Y198672D01*
X191923Y198652D01*
X192001Y198643D01*
X192080Y198648D01*
X192157Y198664D01*
X192219Y198688D01*
Y137795D01*
X188978D01*
Y196835D01*
X189155D01*
X189510Y196867D01*
X189861Y196931D01*
X190204Y197026D01*
X190538Y197152D01*
X190859Y197307D01*
X190925Y197350D01*
X190984Y197402D01*
X191034Y197464D01*
X191074Y197532D01*
X191102Y197606D01*
X191119Y197684D01*
X191123Y197763D01*
X191115Y197841D01*
X191095Y197918D01*
X191063Y197990D01*
X191020Y198057D01*
X190967Y198116D01*
X190905Y198166D01*
X190837Y198205D01*
X190763Y198234D01*
X190686Y198250D01*
X190607Y198255D01*
X190528Y198247D01*
X190451Y198226D01*
X190380Y198193D01*
X190142Y198074D01*
X189893Y197980D01*
X189636Y197909D01*
X189374Y197862D01*
X189109Y197838D01*
X188978D01*
Y203737D01*
X189109D01*
X189374Y203713D01*
X189636Y203666D01*
X189893Y203594D01*
X190142Y203501D01*
X190381Y203385D01*
X190452Y203351D01*
X190528Y203331D01*
X190607Y203323D01*
X190685Y203327D01*
X190762Y203344D01*
X190836Y203372D01*
X190904Y203412D01*
X190965Y203461D01*
X191017Y203520D01*
X191060Y203586D01*
X191092Y203658D01*
X191112Y203734D01*
X191120Y203812D01*
X191116Y203891D01*
X191100Y203968D01*
X191071Y204041D01*
X191032Y204109D01*
X190982Y204170D01*
X190924Y204223D01*
X190857Y204264D01*
X190538Y204423D01*
X190204Y204549D01*
X189861Y204644D01*
X189510Y204708D01*
X189155Y204740D01*
X188978D01*
Y251969D01*
G37*
G36*
X185734D02*X188978D01*
Y204740D01*
X188798D01*
X188443Y204708D01*
X188092Y204644D01*
X187749Y204549D01*
X187415Y204423D01*
X187094Y204268D01*
X187027Y204225D01*
X186968Y204172D01*
X186919Y204111D01*
X186879Y204042D01*
X186850Y203969D01*
X186834Y203891D01*
X186829Y203812D01*
X186838Y203733D01*
X186858Y203657D01*
X186890Y203584D01*
X186933Y203518D01*
X186986Y203459D01*
X187047Y203409D01*
X187116Y203369D01*
X187190Y203341D01*
X187267Y203324D01*
X187346Y203320D01*
X187425Y203328D01*
X187501Y203349D01*
X187573Y203382D01*
X187811Y203501D01*
X188060Y203594D01*
X188317Y203666D01*
X188578Y203713D01*
X188843Y203737D01*
X188978D01*
Y197838D01*
X188843D01*
X188578Y197862D01*
X188317Y197909D01*
X188060Y197980D01*
X187811Y198074D01*
X187572Y198190D01*
X187500Y198223D01*
X187424Y198244D01*
X187346Y198252D01*
X187268Y198248D01*
X187191Y198231D01*
X187117Y198203D01*
X187049Y198163D01*
X186988Y198114D01*
X186935Y198055D01*
X186893Y197989D01*
X186861Y197917D01*
X186841Y197841D01*
X186832Y197763D01*
X186837Y197684D01*
X186853Y197607D01*
X186882Y197534D01*
X186921Y197466D01*
X186971Y197405D01*
X187029Y197352D01*
X187096Y197311D01*
X187415Y197152D01*
X187749Y197026D01*
X188092Y196931D01*
X188443Y196867D01*
X188798Y196835D01*
X188978D01*
Y137795D01*
X188976D01*
Y102362D01*
X185734D01*
Y198685D01*
X185795Y198661D01*
X185873Y198645D01*
X185952Y198640D01*
X186030Y198649D01*
X186107Y198669D01*
X186179Y198701D01*
X186246Y198744D01*
X186305Y198797D01*
X186355Y198858D01*
X186394Y198927D01*
X186423Y199001D01*
X186439Y199078D01*
X186444Y199157D01*
X186436Y199236D01*
X186415Y199313D01*
X186382Y199384D01*
X186263Y199622D01*
X186169Y199871D01*
X186098Y200128D01*
X186051Y200389D01*
X186027Y200654D01*
Y200920D01*
X186051Y201185D01*
X186098Y201447D01*
X186169Y201704D01*
X186263Y201953D01*
X186379Y202192D01*
X186412Y202263D01*
X186433Y202339D01*
X186441Y202418D01*
X186436Y202496D01*
X186420Y202573D01*
X186392Y202647D01*
X186352Y202715D01*
X186303Y202776D01*
X186244Y202828D01*
X186178Y202871D01*
X186106Y202903D01*
X186030Y202923D01*
X185952Y202931D01*
X185873Y202927D01*
X185796Y202911D01*
X185734Y202886D01*
Y251969D01*
G37*
G36*
X168597D02*X185734D01*
Y202886D01*
X185723Y202882D01*
X185655Y202843D01*
X185593Y202793D01*
X185541Y202735D01*
X185500Y202668D01*
X185341Y202349D01*
X185215Y202015D01*
X185120Y201672D01*
X185056Y201321D01*
X185024Y200966D01*
Y200609D01*
X185056Y200254D01*
X185120Y199903D01*
X185215Y199560D01*
X185341Y199226D01*
X185496Y198905D01*
X185539Y198838D01*
X185591Y198779D01*
X185653Y198730D01*
X185721Y198690D01*
X185734Y198685D01*
Y102362D01*
X168597D01*
Y109909D01*
X168608Y109913D01*
X168676Y109952D01*
X168737Y110002D01*
X168790Y110061D01*
X168831Y110128D01*
X168990Y110447D01*
X169116Y110780D01*
X169211Y111124D01*
X169275Y111475D01*
X169307Y111830D01*
Y112186D01*
X169275Y112541D01*
X169211Y112892D01*
X169116Y113236D01*
X168990Y113569D01*
X168835Y113890D01*
X168792Y113957D01*
X168739Y114016D01*
X168678Y114066D01*
X168609Y114105D01*
X168597Y114110D01*
Y147314D01*
X168606Y147313D01*
X168724Y147317D01*
X168840Y147339D01*
X168951Y147380D01*
X169054Y147437D01*
X169147Y147510D01*
X169227Y147596D01*
X169293Y147694D01*
X169341Y147802D01*
X169462Y148163D01*
X169547Y148534D01*
X169597Y148911D01*
X169614Y149291D01*
X169597Y149672D01*
X169547Y150049D01*
X169462Y150420D01*
X169345Y150782D01*
X169296Y150890D01*
X169230Y150988D01*
X169149Y151075D01*
X169055Y151148D01*
X168952Y151205D01*
X168840Y151246D01*
X168724Y151269D01*
X168606Y151273D01*
X168597Y151272D01*
Y165113D01*
X168793Y165195D01*
X168995Y165318D01*
X169174Y165472D01*
X169328Y165651D01*
X169451Y165852D01*
X169541Y166070D01*
X169596Y166300D01*
X169610Y166535D01*
X169596Y172283D01*
X169541Y172512D01*
X169451Y172730D01*
X169328Y172932D01*
X169174Y173111D01*
X168995Y173265D01*
X168793Y173388D01*
X168597Y173469D01*
Y215983D01*
X168918Y216758D01*
X169125Y217620D01*
X169177Y218504D01*
X169125Y219388D01*
X168918Y220250D01*
X168597Y221025D01*
Y251969D01*
G37*
G36*
Y173469D02*X168575Y173478D01*
X168346Y173533D01*
X168110Y173547D01*
X165356Y173541D01*
Y213157D01*
X166109Y213469D01*
X166865Y213932D01*
X167539Y214508D01*
X168115Y215182D01*
X168579Y215938D01*
X168597Y215983D01*
Y173469D01*
G37*
G36*
Y102362D02*X165356D01*
Y108055D01*
X165533D01*
X165888Y108087D01*
X166238Y108151D01*
X166582Y108246D01*
X166916Y108372D01*
X167237Y108528D01*
X167303Y108570D01*
X167362Y108623D01*
X167412Y108684D01*
X167452Y108753D01*
X167480Y108827D01*
X167497Y108904D01*
X167501Y108983D01*
X167493Y109062D01*
X167473Y109138D01*
X167441Y109211D01*
X167398Y109277D01*
X167345Y109336D01*
X167283Y109386D01*
X167215Y109426D01*
X167141Y109454D01*
X167064Y109471D01*
X166984Y109475D01*
X166906Y109467D01*
X166829Y109447D01*
X166758Y109413D01*
X166519Y109295D01*
X166271Y109201D01*
X166014Y109130D01*
X165752Y109082D01*
X165487Y109058D01*
X165356D01*
Y114958D01*
X165487D01*
X165752Y114934D01*
X166014Y114886D01*
X166271Y114815D01*
X166519Y114721D01*
X166759Y114605D01*
X166830Y114572D01*
X166906Y114552D01*
X166985Y114544D01*
X167063Y114548D01*
X167140Y114564D01*
X167214Y114593D01*
X167282Y114632D01*
X167343Y114682D01*
X167395Y114740D01*
X167438Y114806D01*
X167470Y114878D01*
X167490Y114954D01*
X167498Y115033D01*
X167494Y115111D01*
X167478Y115188D01*
X167449Y115262D01*
X167410Y115330D01*
X167360Y115391D01*
X167302Y115443D01*
X167235Y115485D01*
X166916Y115644D01*
X166582Y115769D01*
X166238Y115865D01*
X165888Y115929D01*
X165533Y115961D01*
X165356D01*
Y145031D01*
X165735Y145048D01*
X166112Y145099D01*
X166483Y145183D01*
X166845Y145301D01*
X166953Y145350D01*
X167051Y145416D01*
X167138Y145497D01*
X167211Y145590D01*
X167268Y145694D01*
X167309Y145805D01*
X167332Y145922D01*
X167336Y146040D01*
X167321Y146158D01*
X167289Y146271D01*
X167239Y146379D01*
X167172Y146477D01*
X167092Y146564D01*
X166998Y146637D01*
X166895Y146694D01*
X166783Y146735D01*
X166667Y146757D01*
X166549Y146762D01*
X166431Y146747D01*
X166318Y146712D01*
X166085Y146634D01*
X165844Y146579D01*
X165600Y146546D01*
X165356Y146536D01*
Y152047D01*
X165600Y152036D01*
X165844Y152003D01*
X166085Y151949D01*
X166319Y151873D01*
X166432Y151838D01*
X166549Y151824D01*
X166667Y151828D01*
X166783Y151851D01*
X166893Y151891D01*
X166997Y151948D01*
X167090Y152021D01*
X167170Y152107D01*
X167236Y152205D01*
X167286Y152312D01*
X167319Y152426D01*
X167333Y152543D01*
X167329Y152661D01*
X167306Y152777D01*
X167266Y152888D01*
X167209Y152991D01*
X167136Y153084D01*
X167050Y153164D01*
X166952Y153230D01*
X166844Y153278D01*
X166483Y153399D01*
X166112Y153484D01*
X165735Y153534D01*
X165356Y153551D01*
Y165042D01*
X168346Y165049D01*
X168575Y165104D01*
X168597Y165113D01*
Y151272D01*
X168488Y151258D01*
X168374Y151226D01*
X168267Y151176D01*
X168169Y151109D01*
X168082Y151029D01*
X168009Y150935D01*
X167952Y150832D01*
X167911Y150720D01*
X167888Y150604D01*
X167884Y150486D01*
X167899Y150368D01*
X167933Y150255D01*
X168012Y150022D01*
X168066Y149781D01*
X168099Y149537D01*
X168110Y149291D01*
X168099Y149045D01*
X168066Y148801D01*
X168012Y148561D01*
X167936Y148327D01*
X167901Y148214D01*
X167887Y148097D01*
X167891Y147979D01*
X167914Y147863D01*
X167954Y147752D01*
X168011Y147649D01*
X168084Y147556D01*
X168170Y147475D01*
X168268Y147409D01*
X168375Y147360D01*
X168489Y147327D01*
X168597Y147314D01*
Y114110D01*
X168535Y114134D01*
X168458Y114151D01*
X168379Y114155D01*
X168300Y114147D01*
X168224Y114126D01*
X168151Y114094D01*
X168085Y114051D01*
X168026Y113998D01*
X167976Y113937D01*
X167936Y113868D01*
X167908Y113794D01*
X167891Y113717D01*
X167887Y113638D01*
X167895Y113559D01*
X167915Y113483D01*
X167949Y113411D01*
X168067Y113173D01*
X168161Y112924D01*
X168232Y112668D01*
X168280Y112406D01*
X168304Y112141D01*
Y111875D01*
X168280Y111610D01*
X168232Y111348D01*
X168161Y111092D01*
X168067Y110843D01*
X167952Y110603D01*
X167918Y110532D01*
X167898Y110456D01*
X167890Y110378D01*
X167894Y110299D01*
X167911Y110222D01*
X167939Y110149D01*
X167979Y110081D01*
X168028Y110020D01*
X168087Y109967D01*
X168153Y109924D01*
X168225Y109892D01*
X168301Y109872D01*
X168379Y109864D01*
X168458Y109868D01*
X168535Y109885D01*
X168597Y109909D01*
Y102362D01*
G37*
G36*
X165356Y251969D02*X168597D01*
Y221025D01*
X168579Y221070D01*
X168115Y221826D01*
X167539Y222500D01*
X166865Y223076D01*
X166109Y223539D01*
X165356Y223851D01*
Y251969D01*
G37*
G36*
X162112Y165113D02*X162133Y165104D01*
X162363Y165049D01*
X162598Y165035D01*
X165356Y165042D01*
Y153551D01*
X165354Y153551D01*
X164974Y153534D01*
X164597Y153484D01*
X164226Y153399D01*
X163863Y153282D01*
X163756Y153233D01*
X163657Y153167D01*
X163571Y153086D01*
X163498Y152992D01*
X163440Y152889D01*
X163400Y152777D01*
X163377Y152661D01*
X163373Y152543D01*
X163387Y152425D01*
X163420Y152311D01*
X163470Y152204D01*
X163536Y152106D01*
X163617Y152019D01*
X163710Y151946D01*
X163814Y151889D01*
X163925Y151848D01*
X164042Y151825D01*
X164160Y151821D01*
X164278Y151836D01*
X164391Y151870D01*
X164624Y151949D01*
X164864Y152003D01*
X165108Y152036D01*
X165354Y152047D01*
X165356Y152047D01*
Y146536D01*
X165354Y146535D01*
X165108Y146546D01*
X164864Y146579D01*
X164624Y146634D01*
X164390Y146710D01*
X164277Y146744D01*
X164160Y146759D01*
X164042Y146755D01*
X163926Y146732D01*
X163815Y146692D01*
X163712Y146634D01*
X163619Y146562D01*
X163538Y146475D01*
X163472Y146377D01*
X163423Y146270D01*
X163390Y146157D01*
X163376Y146040D01*
X163380Y145922D01*
X163402Y145806D01*
X163443Y145695D01*
X163500Y145592D01*
X163573Y145499D01*
X163659Y145418D01*
X163757Y145352D01*
X163865Y145305D01*
X164226Y145183D01*
X164597Y145099D01*
X164974Y145048D01*
X165354Y145031D01*
X165356Y145031D01*
Y115961D01*
X165176D01*
X164821Y115929D01*
X164470Y115865D01*
X164127Y115769D01*
X163793Y115644D01*
X163472Y115488D01*
X163405Y115446D01*
X163346Y115393D01*
X163296Y115331D01*
X163257Y115263D01*
X163228Y115189D01*
X163212Y115112D01*
X163207Y115033D01*
X163216Y114954D01*
X163236Y114877D01*
X163268Y114805D01*
X163311Y114738D01*
X163364Y114680D01*
X163425Y114630D01*
X163494Y114590D01*
X163568Y114561D01*
X163645Y114545D01*
X163724Y114541D01*
X163803Y114549D01*
X163879Y114569D01*
X163951Y114602D01*
X164189Y114721D01*
X164438Y114815D01*
X164695Y114886D01*
X164956Y114934D01*
X165221Y114958D01*
X165356D01*
Y109058D01*
X165221D01*
X164956Y109082D01*
X164695Y109130D01*
X164438Y109201D01*
X164189Y109295D01*
X163950Y109411D01*
X163878Y109444D01*
X163802Y109464D01*
X163724Y109472D01*
X163646Y109468D01*
X163569Y109451D01*
X163495Y109423D01*
X163427Y109384D01*
X163366Y109334D01*
X163313Y109275D01*
X163271Y109209D01*
X163239Y109137D01*
X163219Y109061D01*
X163210Y108983D01*
X163215Y108905D01*
X163231Y108828D01*
X163259Y108754D01*
X163299Y108686D01*
X163349Y108625D01*
X163407Y108572D01*
X163474Y108531D01*
X163793Y108372D01*
X164127Y108246D01*
X164470Y108151D01*
X164821Y108087D01*
X165176Y108055D01*
X165356D01*
Y102362D01*
X162112D01*
Y109906D01*
X162173Y109882D01*
X162251Y109865D01*
X162330Y109861D01*
X162408Y109869D01*
X162485Y109889D01*
X162557Y109922D01*
X162624Y109965D01*
X162683Y110017D01*
X162733Y110079D01*
X162772Y110147D01*
X162801Y110221D01*
X162817Y110299D01*
X162822Y110378D01*
X162814Y110456D01*
X162793Y110533D01*
X162760Y110605D01*
X162641Y110843D01*
X162547Y111092D01*
X162476Y111348D01*
X162429Y111610D01*
X162405Y111875D01*
Y112141D01*
X162429Y112406D01*
X162476Y112668D01*
X162547Y112924D01*
X162641Y113173D01*
X162757Y113413D01*
X162790Y113484D01*
X162811Y113560D01*
X162819Y113638D01*
X162814Y113717D01*
X162798Y113794D01*
X162770Y113867D01*
X162730Y113935D01*
X162681Y113996D01*
X162622Y114049D01*
X162556Y114092D01*
X162484Y114123D01*
X162408Y114144D01*
X162330Y114152D01*
X162251Y114148D01*
X162174Y114131D01*
X162112Y114107D01*
Y147311D01*
X162221Y147324D01*
X162334Y147357D01*
X162442Y147407D01*
X162540Y147473D01*
X162627Y147554D01*
X162700Y147647D01*
X162757Y147751D01*
X162798Y147862D01*
X162820Y147979D01*
X162825Y148097D01*
X162810Y148215D01*
X162775Y148328D01*
X162697Y148561D01*
X162642Y148801D01*
X162609Y149045D01*
X162598Y149291D01*
X162609Y149537D01*
X162642Y149781D01*
X162697Y150022D01*
X162773Y150256D01*
X162807Y150369D01*
X162822Y150486D01*
X162818Y150604D01*
X162795Y150720D01*
X162755Y150830D01*
X162697Y150934D01*
X162625Y151027D01*
X162538Y151107D01*
X162440Y151173D01*
X162333Y151223D01*
X162220Y151256D01*
X162112Y151269D01*
Y165113D01*
G37*
G36*
Y213054D02*X162659Y212922D01*
X163543Y212853D01*
X164427Y212922D01*
X165290Y213129D01*
X165356Y213157D01*
Y173541D01*
X162363Y173533D01*
X162133Y173478D01*
X162112Y173469D01*
Y213054D01*
G37*
G36*
Y251969D02*X165356D01*
Y223851D01*
X165290Y223879D01*
X164427Y224086D01*
X163543Y224155D01*
X162659Y224086D01*
X162112Y223954D01*
Y251969D01*
G37*
G36*
X136673D02*X162112D01*
Y223954D01*
X161797Y223879D01*
X160978Y223539D01*
X160222Y223076D01*
X159547Y222500D01*
X158971Y221826D01*
X158543Y221127D01*
X158115Y221826D01*
X157539Y222500D01*
X156865Y223076D01*
X156109Y223539D01*
X155290Y223879D01*
X154427Y224086D01*
X153543Y224155D01*
X152659Y224086D01*
X151797Y223879D01*
X150978Y223539D01*
X150222Y223076D01*
X149547Y222500D01*
X149165Y222052D01*
X149163Y222873D01*
X149108Y223103D01*
X149018Y223321D01*
X148894Y223522D01*
X148741Y223702D01*
X148562Y223855D01*
X148360Y223978D01*
X148142Y224069D01*
X147913Y224124D01*
X147677Y224138D01*
X139174Y224124D01*
X138944Y224069D01*
X138726Y223978D01*
X138525Y223855D01*
X138346Y223702D01*
X138192Y223522D01*
X138069Y223321D01*
X137978Y223103D01*
X137923Y222873D01*
X137909Y222638D01*
X137923Y214135D01*
X137978Y213905D01*
X138069Y213687D01*
X138192Y213486D01*
X138346Y213306D01*
X138525Y213153D01*
X138726Y213029D01*
X138944Y212939D01*
X139174Y212884D01*
X139409Y212870D01*
X147913Y212884D01*
X148142Y212939D01*
X148360Y213029D01*
X148562Y213153D01*
X148741Y213306D01*
X148894Y213486D01*
X149018Y213687D01*
X149108Y213905D01*
X149163Y214135D01*
X149177Y214370D01*
X149176Y214942D01*
X149547Y214508D01*
X150222Y213932D01*
X150978Y213469D01*
X151797Y213129D01*
X152659Y212922D01*
X153543Y212853D01*
X154427Y212922D01*
X155290Y213129D01*
X156109Y213469D01*
X156865Y213932D01*
X157539Y214508D01*
X158115Y215182D01*
X158543Y215881D01*
X158971Y215182D01*
X159547Y214508D01*
X160222Y213932D01*
X160978Y213469D01*
X161797Y213129D01*
X162112Y213054D01*
Y173469D01*
X161915Y173388D01*
X161714Y173265D01*
X161534Y173111D01*
X161381Y172932D01*
X161258Y172730D01*
X161167Y172512D01*
X161112Y172283D01*
X161098Y172047D01*
X161112Y166300D01*
X161167Y166070D01*
X161258Y165852D01*
X161381Y165651D01*
X161534Y165472D01*
X161714Y165318D01*
X161915Y165195D01*
X162112Y165113D01*
Y151269D01*
X162103Y151270D01*
X161985Y151266D01*
X161869Y151243D01*
X161758Y151203D01*
X161655Y151146D01*
X161562Y151073D01*
X161481Y150987D01*
X161415Y150889D01*
X161368Y150781D01*
X161246Y150420D01*
X161162Y150049D01*
X161111Y149672D01*
X161094Y149291D01*
X161111Y148911D01*
X161162Y148534D01*
X161246Y148163D01*
X161364Y147800D01*
X161413Y147693D01*
X161479Y147594D01*
X161560Y147508D01*
X161653Y147435D01*
X161757Y147377D01*
X161868Y147337D01*
X161984Y147314D01*
X162103Y147310D01*
X162112Y147311D01*
Y114107D01*
X162101Y114103D01*
X162033Y114063D01*
X161971Y114014D01*
X161919Y113955D01*
X161877Y113888D01*
X161719Y113569D01*
X161593Y113236D01*
X161498Y112892D01*
X161434Y112541D01*
X161402Y112186D01*
Y111830D01*
X161434Y111475D01*
X161498Y111124D01*
X161593Y110780D01*
X161719Y110447D01*
X161874Y110126D01*
X161916Y110059D01*
X161969Y110000D01*
X162031Y109950D01*
X162099Y109910D01*
X162112Y109906D01*
Y102362D01*
X136673D01*
Y237905D01*
X136693Y237911D01*
X136765Y237943D01*
X136831Y237985D01*
X136890Y238038D01*
X136940Y238099D01*
X136978Y238167D01*
X137103Y238451D01*
X137198Y238746D01*
X137267Y239048D01*
X137308Y239356D01*
X137322Y239665D01*
X137308Y239975D01*
X137267Y240282D01*
X137198Y240585D01*
X137103Y240880D01*
X136981Y241165D01*
X136942Y241233D01*
X136892Y241295D01*
X136833Y241347D01*
X136767Y241390D01*
X136694Y241422D01*
X136673Y241428D01*
Y251969D01*
G37*
G36*
X133164D02*X136673D01*
Y241428D01*
X136618Y241443D01*
X136539Y241451D01*
X136460Y241446D01*
X136383Y241430D01*
X136309Y241401D01*
X136241Y241361D01*
X136179Y241312D01*
X136127Y241253D01*
X136084Y241186D01*
X136052Y241114D01*
X136031Y241037D01*
X136023Y240959D01*
X136028Y240880D01*
X136044Y240802D01*
X136074Y240729D01*
X136163Y240528D01*
X136231Y240318D01*
X136280Y240104D01*
X136309Y239885D01*
X136319Y239665D01*
X136309Y239445D01*
X136280Y239227D01*
X136231Y239012D01*
X136163Y238803D01*
X136076Y238600D01*
X136047Y238528D01*
X136030Y238451D01*
X136026Y238372D01*
X136034Y238294D01*
X136054Y238218D01*
X136086Y238146D01*
X136129Y238080D01*
X136181Y238021D01*
X136242Y237971D01*
X136310Y237932D01*
X136384Y237903D01*
X136460Y237887D01*
X136539Y237882D01*
X136617Y237891D01*
X136673Y237905D01*
Y102362D01*
X133164D01*
Y198688D01*
X133175Y198693D01*
X133243Y198732D01*
X133304Y198782D01*
X133357Y198840D01*
X133398Y198907D01*
X133557Y199226D01*
X133683Y199560D01*
X133778Y199903D01*
X133842Y200254D01*
X133874Y200609D01*
Y200966D01*
X133842Y201321D01*
X133778Y201672D01*
X133683Y202015D01*
X133557Y202349D01*
X133402Y202670D01*
X133359Y202736D01*
X133306Y202795D01*
X133245Y202845D01*
X133176Y202885D01*
X133164Y202890D01*
Y236274D01*
X133241Y236257D01*
X133549Y236215D01*
X133858Y236201D01*
X134168Y236215D01*
X134475Y236257D01*
X134778Y236325D01*
X135072Y236421D01*
X135358Y236543D01*
X135426Y236582D01*
X135488Y236632D01*
X135540Y236691D01*
X135583Y236757D01*
X135615Y236829D01*
X135636Y236906D01*
X135644Y236985D01*
X135639Y237063D01*
X135623Y237141D01*
X135594Y237215D01*
X135554Y237283D01*
X135504Y237344D01*
X135446Y237397D01*
X135379Y237440D01*
X135307Y237472D01*
X135230Y237492D01*
X135152Y237500D01*
X135073Y237496D01*
X134995Y237479D01*
X134922Y237449D01*
X134721Y237361D01*
X134511Y237293D01*
X134296Y237244D01*
X134078Y237215D01*
X133858Y237205D01*
X133638Y237215D01*
X133420Y237244D01*
X133205Y237293D01*
X133164Y237306D01*
Y242024D01*
X133205Y242038D01*
X133420Y242087D01*
X133638Y242116D01*
X133858Y242126D01*
X134078Y242116D01*
X134296Y242087D01*
X134511Y242038D01*
X134721Y241970D01*
X134923Y241884D01*
X134996Y241854D01*
X135073Y241837D01*
X135152Y241833D01*
X135230Y241841D01*
X135306Y241861D01*
X135378Y241893D01*
X135444Y241936D01*
X135503Y241988D01*
X135552Y242049D01*
X135592Y242117D01*
X135620Y242191D01*
X135637Y242268D01*
X135641Y242346D01*
X135633Y242424D01*
X135613Y242500D01*
X135581Y242572D01*
X135538Y242639D01*
X135486Y242697D01*
X135425Y242747D01*
X135356Y242785D01*
X135072Y242910D01*
X134778Y243005D01*
X134475Y243074D01*
X134168Y243116D01*
X133858Y243129D01*
X133549Y243116D01*
X133241Y243074D01*
X133164Y243056D01*
Y251969D01*
G37*
G36*
X131044D02*X133164D01*
Y243056D01*
X132939Y243005D01*
X132644Y242910D01*
X132359Y242788D01*
X132290Y242749D01*
X132229Y242699D01*
X132176Y242640D01*
X132133Y242574D01*
X132101Y242501D01*
X132081Y242425D01*
X132073Y242346D01*
X132077Y242267D01*
X132094Y242190D01*
X132122Y242116D01*
X132162Y242048D01*
X132212Y241986D01*
X132271Y241934D01*
X132337Y241891D01*
X132410Y241859D01*
X132486Y241838D01*
X132565Y241830D01*
X132644Y241835D01*
X132721Y241851D01*
X132794Y241881D01*
X132996Y241970D01*
X133164Y242024D01*
Y237306D01*
X132996Y237361D01*
X132793Y237447D01*
X132720Y237477D01*
X132644Y237494D01*
X132565Y237498D01*
X132487Y237490D01*
X132411Y237470D01*
X132339Y237438D01*
X132273Y237395D01*
X132214Y237343D01*
X132164Y237282D01*
X132125Y237214D01*
X132096Y237140D01*
X132080Y237063D01*
X132075Y236985D01*
X132083Y236906D01*
X132104Y236830D01*
X132135Y236758D01*
X132178Y236692D01*
X132231Y236634D01*
X132292Y236584D01*
X132360Y236546D01*
X132644Y236421D01*
X132939Y236325D01*
X133164Y236274D01*
Y202890D01*
X133102Y202913D01*
X133025Y202930D01*
X132946Y202934D01*
X132867Y202926D01*
X132791Y202906D01*
X132718Y202874D01*
X132652Y202831D01*
X132593Y202778D01*
X132543Y202716D01*
X132503Y202648D01*
X132475Y202574D01*
X132458Y202497D01*
X132454Y202418D01*
X132462Y202339D01*
X132482Y202262D01*
X132516Y202191D01*
X132634Y201953D01*
X132728Y201704D01*
X132799Y201447D01*
X132847Y201185D01*
X132871Y200920D01*
Y200654D01*
X132847Y200389D01*
X132799Y200128D01*
X132728Y199871D01*
X132634Y199622D01*
X132519Y199383D01*
X132485Y199312D01*
X132465Y199235D01*
X132457Y199157D01*
X132461Y199079D01*
X132478Y199002D01*
X132506Y198928D01*
X132545Y198860D01*
X132595Y198799D01*
X132654Y198746D01*
X132720Y198704D01*
X132792Y198672D01*
X132868Y198652D01*
X132946Y198643D01*
X133025Y198648D01*
X133102Y198664D01*
X133164Y198688D01*
Y102362D01*
X131044D01*
Y196997D01*
X131149Y197026D01*
X131483Y197152D01*
X131804Y197307D01*
X131870Y197350D01*
X131929Y197402D01*
X131979Y197464D01*
X132019Y197532D01*
X132047Y197606D01*
X132064Y197684D01*
X132068Y197763D01*
X132060Y197841D01*
X132040Y197918D01*
X132008Y197990D01*
X131965Y198057D01*
X131912Y198116D01*
X131850Y198166D01*
X131782Y198205D01*
X131708Y198234D01*
X131630Y198250D01*
X131551Y198255D01*
X131473Y198247D01*
X131396Y198226D01*
X131324Y198193D01*
X131086Y198074D01*
X131044Y198058D01*
Y203517D01*
X131086Y203501D01*
X131326Y203385D01*
X131397Y203351D01*
X131473Y203331D01*
X131551Y203323D01*
X131630Y203327D01*
X131707Y203344D01*
X131780Y203372D01*
X131849Y203412D01*
X131910Y203461D01*
X131962Y203520D01*
X132005Y203586D01*
X132037Y203658D01*
X132057Y203734D01*
X132065Y203812D01*
X132061Y203891D01*
X132044Y203968D01*
X132016Y204041D01*
X131977Y204109D01*
X131927Y204170D01*
X131868Y204223D01*
X131802Y204264D01*
X131483Y204423D01*
X131149Y204549D01*
X131044Y204578D01*
Y237903D01*
X131099Y237888D01*
X131177Y237880D01*
X131256Y237884D01*
X131334Y237901D01*
X131407Y237930D01*
X131476Y237969D01*
X131537Y238019D01*
X131590Y238078D01*
X131633Y238145D01*
X131665Y238217D01*
X131685Y238293D01*
X131693Y238372D01*
X131689Y238451D01*
X131672Y238528D01*
X131642Y238601D01*
X131554Y238803D01*
X131486Y239012D01*
X131437Y239227D01*
X131407Y239445D01*
X131398Y239665D01*
X131407Y239885D01*
X131437Y240104D01*
X131486Y240318D01*
X131554Y240528D01*
X131640Y240730D01*
X131670Y240803D01*
X131686Y240880D01*
X131691Y240959D01*
X131683Y241037D01*
X131663Y241113D01*
X131631Y241185D01*
X131588Y241251D01*
X131536Y241310D01*
X131474Y241359D01*
X131406Y241399D01*
X131333Y241427D01*
X131256Y241444D01*
X131177Y241448D01*
X131099Y241440D01*
X131044Y241425D01*
Y251969D01*
G37*
G36*
Y198058D02*X130837Y197980D01*
X130581Y197909D01*
X130319Y197862D01*
X130054Y197838D01*
X129923D01*
Y203737D01*
X130054D01*
X130319Y203713D01*
X130581Y203666D01*
X130837Y203594D01*
X131044Y203517D01*
Y198058D01*
G37*
G36*
Y102362D02*X129923D01*
Y196835D01*
X130100D01*
X130455Y196867D01*
X130805Y196931D01*
X131044Y196997D01*
Y102362D01*
G37*
G36*
X129923Y251969D02*X131044D01*
Y241425D01*
X131023Y241420D01*
X130951Y241388D01*
X130885Y241345D01*
X130826Y241293D01*
X130777Y241232D01*
X130739Y241163D01*
X130614Y240880D01*
X130518Y240585D01*
X130450Y240282D01*
X130408Y239975D01*
X130394Y239665D01*
X130408Y239356D01*
X130450Y239048D01*
X130518Y238746D01*
X130614Y238451D01*
X130735Y238166D01*
X130775Y238097D01*
X130825Y238036D01*
X130884Y237983D01*
X130950Y237940D01*
X131022Y237908D01*
X131044Y237903D01*
Y204578D01*
X130805Y204644D01*
X130455Y204708D01*
X130100Y204740D01*
X129923D01*
Y251969D01*
G37*
G36*
X126679D02*X129923D01*
Y204740D01*
X129743D01*
X129388Y204708D01*
X129037Y204644D01*
X128694Y204549D01*
X128360Y204423D01*
X128039Y204268D01*
X127972Y204225D01*
X127913Y204172D01*
X127863Y204111D01*
X127824Y204042D01*
X127795Y203969D01*
X127779Y203891D01*
X127774Y203812D01*
X127782Y203733D01*
X127803Y203657D01*
X127835Y203584D01*
X127878Y203518D01*
X127931Y203459D01*
X127992Y203409D01*
X128061Y203369D01*
X128135Y203341D01*
X128212Y203324D01*
X128291Y203320D01*
X128370Y203328D01*
X128446Y203349D01*
X128518Y203382D01*
X128756Y203501D01*
X129005Y203594D01*
X129261Y203666D01*
X129523Y203713D01*
X129788Y203737D01*
X129923D01*
Y197838D01*
X129788D01*
X129523Y197862D01*
X129261Y197909D01*
X129005Y197980D01*
X128756Y198074D01*
X128517Y198190D01*
X128445Y198223D01*
X128369Y198244D01*
X128291Y198252D01*
X128212Y198248D01*
X128136Y198231D01*
X128062Y198203D01*
X127994Y198163D01*
X127933Y198114D01*
X127880Y198055D01*
X127838Y197989D01*
X127806Y197917D01*
X127785Y197841D01*
X127777Y197763D01*
X127782Y197684D01*
X127798Y197607D01*
X127826Y197534D01*
X127866Y197466D01*
X127916Y197405D01*
X127974Y197352D01*
X128041Y197311D01*
X128360Y197152D01*
X128694Y197026D01*
X129037Y196931D01*
X129388Y196867D01*
X129743Y196835D01*
X129923D01*
Y102362D01*
X126679D01*
Y198685D01*
X126740Y198661D01*
X126818Y198645D01*
X126897Y198640D01*
X126975Y198649D01*
X127052Y198669D01*
X127124Y198701D01*
X127191Y198744D01*
X127250Y198797D01*
X127300Y198858D01*
X127339Y198927D01*
X127368Y199001D01*
X127384Y199078D01*
X127389Y199157D01*
X127380Y199236D01*
X127360Y199313D01*
X127327Y199384D01*
X127208Y199622D01*
X127114Y199871D01*
X127043Y200128D01*
X126995Y200389D01*
X126971Y200654D01*
Y200920D01*
X126995Y201185D01*
X127043Y201447D01*
X127114Y201704D01*
X127208Y201953D01*
X127324Y202192D01*
X127357Y202263D01*
X127378Y202339D01*
X127386Y202418D01*
X127381Y202496D01*
X127365Y202573D01*
X127337Y202647D01*
X127297Y202715D01*
X127247Y202776D01*
X127189Y202828D01*
X127123Y202871D01*
X127051Y202903D01*
X126975Y202923D01*
X126897Y202931D01*
X126818Y202927D01*
X126741Y202911D01*
X126679Y202886D01*
Y251969D01*
G37*
G36*
X103529D02*X126679D01*
Y202886D01*
X126668Y202882D01*
X126599Y202843D01*
X126538Y202793D01*
X126486Y202735D01*
X126444Y202668D01*
X126286Y202349D01*
X126160Y202015D01*
X126065Y201672D01*
X126001Y201321D01*
X125969Y200966D01*
Y200609D01*
X126001Y200254D01*
X126065Y199903D01*
X126160Y199560D01*
X126286Y199226D01*
X126441Y198905D01*
X126483Y198838D01*
X126536Y198779D01*
X126598Y198730D01*
X126666Y198690D01*
X126679Y198685D01*
Y102362D01*
X103529D01*
Y218818D01*
X103543Y218817D01*
X105034Y218934D01*
X106488Y219284D01*
X107870Y219856D01*
X109144Y220637D01*
X110282Y221608D01*
X111253Y222745D01*
X112034Y224020D01*
X112606Y225402D01*
X112955Y226856D01*
X113043Y228346D01*
X112955Y229837D01*
X112606Y231291D01*
X112034Y232673D01*
X111253Y233948D01*
X110282Y235085D01*
X109144Y236056D01*
X107870Y236837D01*
X106488Y237409D01*
X105034Y237758D01*
X103543Y237876D01*
X103529Y237875D01*
Y251969D01*
G37*
G36*
X78740D02*X103529D01*
Y237875D01*
X102053Y237758D01*
X100599Y237409D01*
X99217Y236837D01*
X97942Y236056D01*
X96805Y235085D01*
X95834Y233948D01*
X95053Y232673D01*
X94480Y231291D01*
X94131Y229837D01*
X94014Y228346D01*
X94131Y226856D01*
X94480Y225402D01*
X95053Y224020D01*
X95834Y222745D01*
X96805Y221608D01*
X97942Y220637D01*
X99217Y219856D01*
X100599Y219284D01*
X102053Y218934D01*
X103529Y218818D01*
Y102362D01*
X43307D01*
Y216535D01*
X78740D01*
Y251969D01*
G37*
G36*
X429134Y216535D02*Y133858D01*
X404818D01*
Y198688D01*
X404829Y198693D01*
X404897Y198732D01*
X404958Y198782D01*
X405010Y198840D01*
X405052Y198907D01*
X405210Y199226D01*
X405336Y199560D01*
X405432Y199903D01*
X405495Y200254D01*
X405528Y200609D01*
Y200966D01*
X405495Y201321D01*
X405432Y201672D01*
X405336Y202015D01*
X405210Y202349D01*
X405055Y202670D01*
X405013Y202736D01*
X404960Y202795D01*
X404898Y202845D01*
X404830Y202885D01*
X404818Y202890D01*
Y216535D01*
X429134D01*
G37*
G36*
X404818Y133858D02*X401576D01*
Y196835D01*
X401753D01*
X402108Y196867D01*
X402459Y196931D01*
X402803Y197026D01*
X403136Y197152D01*
X403457Y197307D01*
X403524Y197350D01*
X403583Y197402D01*
X403633Y197464D01*
X403672Y197532D01*
X403701Y197606D01*
X403717Y197684D01*
X403722Y197763D01*
X403714Y197841D01*
X403693Y197918D01*
X403661Y197990D01*
X403618Y198057D01*
X403565Y198116D01*
X403504Y198166D01*
X403435Y198205D01*
X403361Y198234D01*
X403284Y198250D01*
X403205Y198255D01*
X403126Y198247D01*
X403050Y198226D01*
X402978Y198193D01*
X402740Y198074D01*
X402491Y197980D01*
X402235Y197909D01*
X401973Y197862D01*
X401708Y197838D01*
X401576D01*
Y203737D01*
X401708D01*
X401973Y203713D01*
X402235Y203666D01*
X402491Y203594D01*
X402740Y203501D01*
X402979Y203385D01*
X403051Y203351D01*
X403127Y203331D01*
X403205Y203323D01*
X403284Y203327D01*
X403361Y203344D01*
X403434Y203372D01*
X403502Y203412D01*
X403563Y203461D01*
X403616Y203520D01*
X403658Y203586D01*
X403690Y203658D01*
X403711Y203734D01*
X403719Y203812D01*
X403714Y203891D01*
X403698Y203968D01*
X403670Y204041D01*
X403630Y204109D01*
X403581Y204170D01*
X403522Y204223D01*
X403455Y204264D01*
X403136Y204423D01*
X402803Y204549D01*
X402459Y204644D01*
X402108Y204708D01*
X401753Y204740D01*
X401576D01*
Y216535D01*
X404818D01*
Y202890D01*
X404756Y202913D01*
X404679Y202930D01*
X404599Y202934D01*
X404521Y202926D01*
X404444Y202906D01*
X404372Y202874D01*
X404305Y202831D01*
X404246Y202778D01*
X404197Y202716D01*
X404157Y202648D01*
X404128Y202574D01*
X404112Y202497D01*
X404107Y202418D01*
X404116Y202339D01*
X404136Y202262D01*
X404169Y202191D01*
X404288Y201953D01*
X404382Y201704D01*
X404453Y201447D01*
X404501Y201185D01*
X404525Y200920D01*
Y200654D01*
X404501Y200389D01*
X404453Y200128D01*
X404382Y199871D01*
X404288Y199622D01*
X404172Y199383D01*
X404139Y199312D01*
X404119Y199235D01*
X404110Y199157D01*
X404115Y199079D01*
X404131Y199002D01*
X404160Y198928D01*
X404199Y198860D01*
X404249Y198799D01*
X404307Y198746D01*
X404373Y198704D01*
X404445Y198672D01*
X404521Y198652D01*
X404600Y198643D01*
X404678Y198648D01*
X404755Y198664D01*
X404818Y198688D01*
Y133858D01*
G37*
G36*
X401576D02*X398332D01*
Y198685D01*
X398394Y198661D01*
X398471Y198645D01*
X398550Y198640D01*
X398629Y198649D01*
X398705Y198669D01*
X398778Y198701D01*
X398844Y198744D01*
X398903Y198797D01*
X398953Y198858D01*
X398993Y198927D01*
X399021Y199001D01*
X399038Y199078D01*
X399042Y199157D01*
X399034Y199236D01*
X399014Y199313D01*
X398980Y199384D01*
X398862Y199622D01*
X398768Y199871D01*
X398697Y200128D01*
X398649Y200389D01*
X398625Y200654D01*
Y200920D01*
X398649Y201185D01*
X398697Y201447D01*
X398768Y201704D01*
X398862Y201953D01*
X398978Y202192D01*
X399011Y202263D01*
X399031Y202339D01*
X399039Y202418D01*
X399035Y202496D01*
X399018Y202573D01*
X398990Y202647D01*
X398951Y202715D01*
X398901Y202776D01*
X398842Y202828D01*
X398776Y202871D01*
X398704Y202903D01*
X398628Y202923D01*
X398550Y202931D01*
X398471Y202927D01*
X398395Y202911D01*
X398332Y202886D01*
Y216535D01*
X401576D01*
Y204740D01*
X401397D01*
X401041Y204708D01*
X400691Y204644D01*
X400347Y204549D01*
X400013Y204423D01*
X399693Y204268D01*
X399626Y204225D01*
X399567Y204172D01*
X399517Y204111D01*
X399477Y204042D01*
X399449Y203969D01*
X399432Y203891D01*
X399428Y203812D01*
X399436Y203733D01*
X399456Y203657D01*
X399488Y203584D01*
X399531Y203518D01*
X399584Y203459D01*
X399646Y203409D01*
X399714Y203369D01*
X399788Y203341D01*
X399866Y203324D01*
X399945Y203320D01*
X400023Y203328D01*
X400100Y203349D01*
X400172Y203382D01*
X400410Y203501D01*
X400659Y203594D01*
X400915Y203666D01*
X401177Y203713D01*
X401442Y203737D01*
X401576D01*
Y197838D01*
X401442D01*
X401177Y197862D01*
X400915Y197909D01*
X400659Y197980D01*
X400410Y198074D01*
X400170Y198190D01*
X400099Y198223D01*
X400023Y198244D01*
X399945Y198252D01*
X399866Y198248D01*
X399789Y198231D01*
X399716Y198203D01*
X399648Y198163D01*
X399586Y198114D01*
X399534Y198055D01*
X399491Y197989D01*
X399459Y197917D01*
X399439Y197841D01*
X399431Y197763D01*
X399435Y197684D01*
X399452Y197607D01*
X399480Y197534D01*
X399519Y197466D01*
X399569Y197405D01*
X399628Y197352D01*
X399694Y197311D01*
X400013Y197152D01*
X400347Y197026D01*
X400691Y196931D01*
X401041Y196867D01*
X401397Y196835D01*
X401576D01*
Y133858D01*
G37*
G36*
X398332D02*X369648D01*
Y147283D01*
X369765Y147292D01*
X369880Y147320D01*
X369989Y147365D01*
X370090Y147427D01*
X370180Y147503D01*
X370256Y147593D01*
X370318Y147694D01*
X370363Y147803D01*
X370391Y147918D01*
X370398Y148035D01*
Y150547D01*
X370391Y150665D01*
X370363Y150780D01*
X370318Y150889D01*
X370256Y150989D01*
X370180Y151079D01*
X370090Y151156D01*
X369989Y151218D01*
X369880Y151263D01*
X369765Y151290D01*
X369648Y151300D01*
Y166867D01*
X369945Y167353D01*
X370202Y167972D01*
X370358Y168624D01*
X370398Y169291D01*
X370358Y169959D01*
X370202Y170611D01*
X369945Y171229D01*
X369648Y171715D01*
Y212121D01*
X370138Y212539D01*
X370714Y213214D01*
X371142Y213912D01*
X371570Y213214D01*
X372146Y212539D01*
X372820Y211963D01*
X373576Y211500D01*
X374395Y211161D01*
X375258Y210954D01*
X376142Y210884D01*
X377026Y210954D01*
X377888Y211161D01*
X378707Y211500D01*
X379463Y211963D01*
X380138Y212539D01*
X380714Y213214D01*
X381177Y213970D01*
X381516Y214789D01*
X381723Y215651D01*
X381776Y216535D01*
X381723Y217419D01*
X381516Y218282D01*
X381177Y219101D01*
X380714Y219857D01*
X380138Y220531D01*
X379463Y221107D01*
X378707Y221571D01*
X377888Y221910D01*
X377026Y222117D01*
X376142Y222187D01*
X375258Y222117D01*
X374395Y221910D01*
X373576Y221571D01*
X372820Y221107D01*
X372146Y220531D01*
X371570Y219857D01*
X371142Y219159D01*
X370714Y219857D01*
X370138Y220531D01*
X369648Y220950D01*
Y251969D01*
X393701D01*
Y216535D01*
X398332D01*
Y202886D01*
X398321Y202882D01*
X398253Y202843D01*
X398192Y202793D01*
X398139Y202735D01*
X398098Y202668D01*
X397939Y202349D01*
X397813Y202015D01*
X397718Y201672D01*
X397654Y201321D01*
X397622Y200966D01*
Y200609D01*
X397654Y200254D01*
X397718Y199903D01*
X397813Y199560D01*
X397939Y199226D01*
X398094Y198905D01*
X398137Y198838D01*
X398190Y198779D01*
X398251Y198730D01*
X398320Y198690D01*
X398332Y198685D01*
Y133858D01*
G37*
G36*
X369648Y220950D02*X369463Y221107D01*
X368707Y221571D01*
X367888Y221910D01*
X367026Y222117D01*
X366142Y222187D01*
X366135Y222186D01*
Y251969D01*
X369648D01*
Y220950D01*
G37*
G36*
Y171715D02*X369595Y171801D01*
X369160Y172310D01*
X368651Y172745D01*
X368080Y173095D01*
X367461Y173351D01*
X366810Y173508D01*
X366142Y173560D01*
X366135Y173560D01*
Y210885D01*
X366142Y210884D01*
X367026Y210954D01*
X367888Y211161D01*
X368707Y211500D01*
X369463Y211963D01*
X369648Y212121D01*
Y171715D01*
G37*
G36*
Y133858D02*X366135D01*
Y145035D01*
X367398D01*
X367515Y145042D01*
X367630Y145070D01*
X367739Y145115D01*
X367840Y145177D01*
X367930Y145253D01*
X368006Y145343D01*
X368068Y145444D01*
X368113Y145553D01*
X368141Y145668D01*
X368150Y145785D01*
X368141Y145903D01*
X368113Y146018D01*
X368068Y146127D01*
X368006Y146228D01*
X367930Y146317D01*
X367840Y146394D01*
X367739Y146456D01*
X367630Y146501D01*
X367515Y146528D01*
X367398Y146535D01*
X366135D01*
Y152047D01*
X367398D01*
X367515Y152054D01*
X367630Y152082D01*
X367739Y152127D01*
X367840Y152189D01*
X367930Y152265D01*
X368006Y152355D01*
X368068Y152456D01*
X368113Y152565D01*
X368141Y152680D01*
X368150Y152797D01*
X368141Y152915D01*
X368113Y153030D01*
X368068Y153139D01*
X368006Y153239D01*
X367930Y153329D01*
X367840Y153406D01*
X367739Y153468D01*
X367630Y153513D01*
X367515Y153540D01*
X367398Y153547D01*
X366135D01*
Y165023D01*
X366142Y165022D01*
X366810Y165075D01*
X367461Y165231D01*
X368080Y165488D01*
X368651Y165838D01*
X369160Y166273D01*
X369595Y166782D01*
X369648Y166867D01*
Y151300D01*
X369530Y151290D01*
X369415Y151263D01*
X369306Y151218D01*
X369205Y151156D01*
X369116Y151079D01*
X369039Y150989D01*
X368977Y150889D01*
X368932Y150780D01*
X368905Y150665D01*
X368898Y150547D01*
Y148035D01*
X368905Y147918D01*
X368932Y147803D01*
X368977Y147694D01*
X369039Y147593D01*
X369116Y147503D01*
X369205Y147427D01*
X369306Y147365D01*
X369415Y147320D01*
X369530Y147292D01*
X369648Y147283D01*
Y133858D01*
G37*
G36*
X362636Y212121D02*X362820Y211963D01*
X363576Y211500D01*
X364395Y211161D01*
X365258Y210954D01*
X366135Y210885D01*
Y173560D01*
X365474Y173508D01*
X364823Y173351D01*
X364204Y173095D01*
X363632Y172745D01*
X363123Y172310D01*
X362688Y171801D01*
X362636Y171715D01*
Y212121D01*
G37*
G36*
Y251969D02*X366135D01*
Y222186D01*
X365258Y222117D01*
X364395Y221910D01*
X363576Y221571D01*
X362820Y221107D01*
X362636Y220950D01*
Y251969D01*
G37*
G36*
X366135Y133858D02*X362636D01*
Y147283D01*
X362754Y147292D01*
X362868Y147320D01*
X362977Y147365D01*
X363078Y147427D01*
X363168Y147503D01*
X363244Y147593D01*
X363306Y147694D01*
X363351Y147803D01*
X363379Y147918D01*
X363386Y148035D01*
Y150547D01*
X363379Y150665D01*
X363351Y150780D01*
X363306Y150889D01*
X363244Y150989D01*
X363168Y151079D01*
X363078Y151156D01*
X362977Y151218D01*
X362868Y151263D01*
X362754Y151290D01*
X362636Y151300D01*
Y166867D01*
X362688Y166782D01*
X363123Y166273D01*
X363632Y165838D01*
X364204Y165488D01*
X364823Y165231D01*
X365474Y165075D01*
X366135Y165023D01*
Y153547D01*
X364886D01*
X364768Y153540D01*
X364653Y153513D01*
X364544Y153468D01*
X364444Y153406D01*
X364354Y153329D01*
X364277Y153239D01*
X364216Y153139D01*
X364170Y153030D01*
X364143Y152915D01*
X364134Y152797D01*
X364143Y152680D01*
X364170Y152565D01*
X364216Y152456D01*
X364277Y152355D01*
X364354Y152265D01*
X364444Y152189D01*
X364544Y152127D01*
X364653Y152082D01*
X364768Y152054D01*
X364886Y152047D01*
X366135D01*
Y146535D01*
X364886D01*
X364768Y146528D01*
X364653Y146501D01*
X364544Y146456D01*
X364444Y146394D01*
X364354Y146317D01*
X364277Y146228D01*
X364216Y146127D01*
X364170Y146018D01*
X364143Y145903D01*
X364134Y145785D01*
X364143Y145668D01*
X364170Y145553D01*
X364216Y145444D01*
X364277Y145343D01*
X364354Y145253D01*
X364444Y145177D01*
X364544Y145115D01*
X364653Y145070D01*
X364768Y145042D01*
X364886Y145035D01*
X366135D01*
Y133858D01*
G37*
G36*
X362636D02*X349271D01*
Y235937D01*
X349292Y235942D01*
X349364Y235974D01*
X349430Y236017D01*
X349489Y236069D01*
X349538Y236130D01*
X349576Y236199D01*
X349701Y236483D01*
X349797Y236778D01*
X349865Y237080D01*
X349907Y237387D01*
X349921Y237697D01*
X349907Y238007D01*
X349865Y238314D01*
X349797Y238616D01*
X349701Y238911D01*
X349579Y239196D01*
X349540Y239265D01*
X349490Y239326D01*
X349431Y239379D01*
X349365Y239422D01*
X349293Y239454D01*
X349271Y239460D01*
Y251969D01*
X362636D01*
Y220950D01*
X362146Y220531D01*
X361763Y220083D01*
X361762Y220905D01*
X361707Y221134D01*
X361616Y221352D01*
X361493Y221554D01*
X361340Y221733D01*
X361160Y221887D01*
X360959Y222010D01*
X360741Y222100D01*
X360511Y222155D01*
X360276Y222169D01*
X351772Y222155D01*
X351543Y222100D01*
X351325Y222010D01*
X351123Y221887D01*
X350944Y221733D01*
X350791Y221554D01*
X350667Y221352D01*
X350577Y221134D01*
X350522Y220905D01*
X350508Y220669D01*
X350522Y212166D01*
X350577Y211937D01*
X350667Y211718D01*
X350791Y211517D01*
X350944Y211338D01*
X351123Y211184D01*
X351325Y211061D01*
X351543Y210971D01*
X351772Y210915D01*
X352008Y210902D01*
X360511Y210915D01*
X360741Y210971D01*
X360959Y211061D01*
X361160Y211184D01*
X361340Y211338D01*
X361493Y211517D01*
X361616Y211718D01*
X361707Y211937D01*
X361762Y212166D01*
X361776Y212402D01*
X361775Y212974D01*
X362146Y212539D01*
X362636Y212121D01*
Y171715D01*
X362338Y171229D01*
X362082Y170611D01*
X361925Y169959D01*
X361873Y169291D01*
X361925Y168624D01*
X362082Y167972D01*
X362338Y167353D01*
X362636Y166867D01*
Y151300D01*
X362518Y151290D01*
X362403Y151263D01*
X362294Y151218D01*
X362194Y151156D01*
X362104Y151079D01*
X362027Y150989D01*
X361966Y150889D01*
X361920Y150780D01*
X361893Y150665D01*
X361886Y150547D01*
Y148035D01*
X361893Y147918D01*
X361920Y147803D01*
X361966Y147694D01*
X362027Y147593D01*
X362104Y147503D01*
X362194Y147427D01*
X362294Y147365D01*
X362403Y147320D01*
X362518Y147292D01*
X362636Y147283D01*
Y133858D01*
G37*
G36*
X349271D02*X345762D01*
Y198688D01*
X345773Y198693D01*
X345841Y198732D01*
X345903Y198782D01*
X345955Y198840D01*
X345997Y198907D01*
X346155Y199226D01*
X346281Y199560D01*
X346376Y199903D01*
X346440Y200254D01*
X346472Y200609D01*
Y200966D01*
X346440Y201321D01*
X346376Y201672D01*
X346281Y202015D01*
X346155Y202349D01*
X346000Y202670D01*
X345958Y202736D01*
X345905Y202795D01*
X345843Y202845D01*
X345775Y202885D01*
X345762Y202890D01*
Y234306D01*
X345840Y234288D01*
X346147Y234247D01*
X346457Y234233D01*
X346766Y234247D01*
X347074Y234288D01*
X347376Y234357D01*
X347671Y234453D01*
X347956Y234574D01*
X348025Y234613D01*
X348086Y234663D01*
X348139Y234722D01*
X348182Y234789D01*
X348214Y234861D01*
X348234Y234937D01*
X348242Y235016D01*
X348238Y235095D01*
X348221Y235172D01*
X348192Y235246D01*
X348153Y235314D01*
X348103Y235376D01*
X348044Y235429D01*
X347978Y235471D01*
X347905Y235503D01*
X347829Y235524D01*
X347750Y235532D01*
X347671Y235527D01*
X347594Y235511D01*
X347521Y235481D01*
X347319Y235392D01*
X347110Y235324D01*
X346895Y235276D01*
X346677Y235246D01*
X346457Y235236D01*
X346237Y235246D01*
X346018Y235276D01*
X345804Y235324D01*
X345762Y235338D01*
Y240056D01*
X345804Y240069D01*
X346018Y240118D01*
X346237Y240148D01*
X346457Y240157D01*
X346677Y240148D01*
X346895Y240118D01*
X347110Y240069D01*
X347319Y240001D01*
X347522Y239915D01*
X347594Y239885D01*
X347671Y239869D01*
X347750Y239864D01*
X347828Y239872D01*
X347904Y239893D01*
X347976Y239924D01*
X348042Y239967D01*
X348101Y240020D01*
X348151Y240081D01*
X348190Y240149D01*
X348219Y240222D01*
X348235Y240299D01*
X348240Y240378D01*
X348232Y240456D01*
X348211Y240532D01*
X348180Y240604D01*
X348137Y240670D01*
X348084Y240729D01*
X348023Y240778D01*
X347955Y240817D01*
X347671Y240941D01*
X347376Y241037D01*
X347074Y241106D01*
X346766Y241147D01*
X346457Y241161D01*
X346147Y241147D01*
X345840Y241106D01*
X345762Y241088D01*
Y251969D01*
X349271D01*
Y239460D01*
X349216Y239474D01*
X349138Y239482D01*
X349059Y239478D01*
X348981Y239461D01*
X348907Y239433D01*
X348839Y239393D01*
X348778Y239343D01*
X348725Y239284D01*
X348682Y239218D01*
X348650Y239145D01*
X348630Y239069D01*
X348622Y238990D01*
X348626Y238911D01*
X348643Y238834D01*
X348673Y238761D01*
X348761Y238559D01*
X348829Y238350D01*
X348878Y238135D01*
X348907Y237917D01*
X348917Y237697D01*
X348907Y237477D01*
X348878Y237259D01*
X348829Y237044D01*
X348761Y236834D01*
X348675Y236632D01*
X348645Y236559D01*
X348629Y236482D01*
X348624Y236404D01*
X348632Y236325D01*
X348652Y236249D01*
X348684Y236177D01*
X348727Y236111D01*
X348779Y236052D01*
X348840Y236003D01*
X348909Y235963D01*
X348982Y235935D01*
X349059Y235918D01*
X349137Y235914D01*
X349216Y235922D01*
X349271Y235937D01*
Y133858D01*
G37*
G36*
X345762D02*X343642D01*
Y196997D01*
X343747Y197026D01*
X344081Y197152D01*
X344402Y197307D01*
X344469Y197350D01*
X344528Y197402D01*
X344578Y197464D01*
X344617Y197532D01*
X344646Y197606D01*
X344662Y197684D01*
X344667Y197763D01*
X344658Y197841D01*
X344638Y197918D01*
X344606Y197990D01*
X344563Y198057D01*
X344510Y198116D01*
X344449Y198166D01*
X344380Y198205D01*
X344306Y198234D01*
X344229Y198250D01*
X344150Y198255D01*
X344071Y198247D01*
X343995Y198226D01*
X343923Y198193D01*
X343685Y198074D01*
X343642Y198058D01*
Y203517D01*
X343685Y203501D01*
X343924Y203385D01*
X343996Y203351D01*
X344072Y203331D01*
X344150Y203323D01*
X344228Y203327D01*
X344305Y203344D01*
X344379Y203372D01*
X344447Y203412D01*
X344508Y203461D01*
X344561Y203520D01*
X344603Y203586D01*
X344635Y203658D01*
X344655Y203734D01*
X344664Y203812D01*
X344659Y203891D01*
X344643Y203968D01*
X344615Y204041D01*
X344575Y204109D01*
X344525Y204170D01*
X344467Y204223D01*
X344400Y204264D01*
X344081Y204423D01*
X343747Y204549D01*
X343642Y204578D01*
Y235934D01*
X343697Y235920D01*
X343776Y235912D01*
X343855Y235916D01*
X343932Y235933D01*
X344006Y235961D01*
X344074Y236001D01*
X344136Y236051D01*
X344188Y236110D01*
X344231Y236176D01*
X344263Y236248D01*
X344284Y236325D01*
X344292Y236404D01*
X344287Y236482D01*
X344271Y236560D01*
X344241Y236633D01*
X344152Y236834D01*
X344084Y237044D01*
X344035Y237259D01*
X344006Y237477D01*
X343996Y237697D01*
X344006Y237917D01*
X344035Y238135D01*
X344084Y238350D01*
X344152Y238559D01*
X344238Y238762D01*
X344268Y238835D01*
X344285Y238912D01*
X344289Y238990D01*
X344281Y239068D01*
X344261Y239145D01*
X344229Y239216D01*
X344186Y239283D01*
X344134Y239341D01*
X344073Y239391D01*
X344005Y239430D01*
X343931Y239459D01*
X343855Y239475D01*
X343776Y239480D01*
X343698Y239472D01*
X343642Y239457D01*
Y251969D01*
X345762D01*
Y241088D01*
X345537Y241037D01*
X345243Y240941D01*
X344957Y240820D01*
X344889Y240780D01*
X344827Y240730D01*
X344775Y240672D01*
X344732Y240605D01*
X344700Y240533D01*
X344679Y240456D01*
X344671Y240378D01*
X344676Y240299D01*
X344692Y240221D01*
X344721Y240148D01*
X344761Y240079D01*
X344811Y240018D01*
X344869Y239965D01*
X344936Y239922D01*
X345008Y239890D01*
X345085Y239870D01*
X345163Y239862D01*
X345242Y239866D01*
X345320Y239883D01*
X345393Y239913D01*
X345594Y240001D01*
X345762Y240056D01*
Y235338D01*
X345594Y235392D01*
X345392Y235479D01*
X345319Y235508D01*
X345242Y235525D01*
X345163Y235529D01*
X345085Y235521D01*
X345009Y235501D01*
X344937Y235469D01*
X344871Y235427D01*
X344812Y235374D01*
X344763Y235313D01*
X344723Y235245D01*
X344695Y235172D01*
X344678Y235095D01*
X344674Y235016D01*
X344682Y234938D01*
X344702Y234862D01*
X344734Y234790D01*
X344777Y234724D01*
X344829Y234665D01*
X344890Y234615D01*
X344959Y234577D01*
X345243Y234453D01*
X345537Y234357D01*
X345762Y234306D01*
Y202890D01*
X345701Y202913D01*
X345623Y202930D01*
X345544Y202934D01*
X345466Y202926D01*
X345389Y202906D01*
X345317Y202874D01*
X345250Y202831D01*
X345191Y202778D01*
X345141Y202716D01*
X345102Y202648D01*
X345073Y202574D01*
X345057Y202497D01*
X345052Y202418D01*
X345060Y202339D01*
X345081Y202262D01*
X345114Y202191D01*
X345233Y201953D01*
X345327Y201704D01*
X345398Y201447D01*
X345445Y201185D01*
X345469Y200920D01*
Y200654D01*
X345445Y200389D01*
X345398Y200128D01*
X345327Y199871D01*
X345233Y199622D01*
X345117Y199383D01*
X345084Y199312D01*
X345063Y199235D01*
X345055Y199157D01*
X345060Y199079D01*
X345076Y199002D01*
X345104Y198928D01*
X345144Y198860D01*
X345193Y198799D01*
X345252Y198746D01*
X345318Y198704D01*
X345390Y198672D01*
X345466Y198652D01*
X345544Y198643D01*
X345623Y198648D01*
X345700Y198664D01*
X345762Y198688D01*
Y133858D01*
G37*
G36*
X343642Y204578D02*X343404Y204644D01*
X343053Y204708D01*
X342698Y204740D01*
X342521D01*
Y251969D01*
X343642D01*
Y239457D01*
X343622Y239452D01*
X343550Y239420D01*
X343483Y239377D01*
X343425Y239324D01*
X343375Y239263D01*
X343337Y239195D01*
X343212Y238911D01*
X343117Y238616D01*
X343048Y238314D01*
X343006Y238007D01*
X342993Y237697D01*
X343006Y237387D01*
X343048Y237080D01*
X343117Y236778D01*
X343212Y236483D01*
X343334Y236197D01*
X343373Y236129D01*
X343423Y236068D01*
X343482Y236015D01*
X343548Y235972D01*
X343621Y235940D01*
X343642Y235934D01*
Y204578D01*
G37*
G36*
Y198058D02*X343436Y197980D01*
X343179Y197909D01*
X342918Y197862D01*
X342653Y197838D01*
X342521D01*
Y203737D01*
X342653D01*
X342918Y203713D01*
X343179Y203666D01*
X343436Y203594D01*
X343642Y203517D01*
Y198058D01*
G37*
G36*
Y133858D02*X342521D01*
Y196835D01*
X342698D01*
X343053Y196867D01*
X343404Y196931D01*
X343642Y196997D01*
Y133858D01*
G37*
G36*
X342521D02*X339277D01*
Y198685D01*
X339339Y198661D01*
X339416Y198645D01*
X339495Y198640D01*
X339574Y198649D01*
X339650Y198669D01*
X339723Y198701D01*
X339789Y198744D01*
X339848Y198797D01*
X339898Y198858D01*
X339938Y198927D01*
X339966Y199001D01*
X339983Y199078D01*
X339987Y199157D01*
X339979Y199236D01*
X339959Y199313D01*
X339925Y199384D01*
X339807Y199622D01*
X339713Y199871D01*
X339642Y200128D01*
X339594Y200389D01*
X339570Y200654D01*
Y200920D01*
X339594Y201185D01*
X339642Y201447D01*
X339713Y201704D01*
X339807Y201953D01*
X339922Y202192D01*
X339956Y202263D01*
X339976Y202339D01*
X339984Y202418D01*
X339980Y202496D01*
X339963Y202573D01*
X339935Y202647D01*
X339896Y202715D01*
X339846Y202776D01*
X339787Y202828D01*
X339721Y202871D01*
X339649Y202903D01*
X339573Y202923D01*
X339495Y202931D01*
X339416Y202927D01*
X339339Y202911D01*
X339277Y202886D01*
Y251969D01*
X342521D01*
Y204740D01*
X342341D01*
X341986Y204708D01*
X341636Y204644D01*
X341292Y204549D01*
X340958Y204423D01*
X340637Y204268D01*
X340571Y204225D01*
X340512Y204172D01*
X340462Y204111D01*
X340422Y204042D01*
X340394Y203969D01*
X340377Y203891D01*
X340373Y203812D01*
X340381Y203733D01*
X340401Y203657D01*
X340433Y203584D01*
X340476Y203518D01*
X340529Y203459D01*
X340591Y203409D01*
X340659Y203369D01*
X340733Y203341D01*
X340810Y203324D01*
X340890Y203320D01*
X340968Y203328D01*
X341045Y203349D01*
X341116Y203382D01*
X341355Y203501D01*
X341603Y203594D01*
X341860Y203666D01*
X342122Y203713D01*
X342387Y203737D01*
X342521D01*
Y197838D01*
X342387D01*
X342122Y197862D01*
X341860Y197909D01*
X341603Y197980D01*
X341355Y198074D01*
X341115Y198190D01*
X341044Y198223D01*
X340968Y198244D01*
X340889Y198252D01*
X340811Y198248D01*
X340734Y198231D01*
X340660Y198203D01*
X340592Y198163D01*
X340531Y198114D01*
X340479Y198055D01*
X340436Y197989D01*
X340404Y197917D01*
X340384Y197841D01*
X340376Y197763D01*
X340380Y197684D01*
X340397Y197607D01*
X340425Y197534D01*
X340464Y197466D01*
X340514Y197405D01*
X340572Y197352D01*
X340639Y197311D01*
X340958Y197152D01*
X341292Y197026D01*
X341636Y196931D01*
X341986Y196867D01*
X342341Y196835D01*
X342521D01*
Y133858D01*
G37*
G36*
X339277D02*X318203D01*
Y198688D01*
X318214Y198693D01*
X318282Y198732D01*
X318344Y198782D01*
X318396Y198840D01*
X318437Y198907D01*
X318596Y199226D01*
X318722Y199560D01*
X318817Y199903D01*
X318881Y200254D01*
X318913Y200609D01*
Y200966D01*
X318881Y201321D01*
X318817Y201672D01*
X318722Y202015D01*
X318596Y202349D01*
X318441Y202670D01*
X318398Y202736D01*
X318346Y202795D01*
X318284Y202845D01*
X318216Y202885D01*
X318203Y202890D01*
Y251969D01*
X339277D01*
Y202886D01*
X339266Y202882D01*
X339198Y202843D01*
X339137Y202793D01*
X339084Y202735D01*
X339043Y202668D01*
X338884Y202349D01*
X338758Y202015D01*
X338663Y201672D01*
X338599Y201321D01*
X338567Y200966D01*
Y200609D01*
X338599Y200254D01*
X338663Y199903D01*
X338758Y199560D01*
X338884Y199226D01*
X339039Y198905D01*
X339082Y198838D01*
X339135Y198779D01*
X339196Y198730D01*
X339265Y198690D01*
X339277Y198685D01*
Y133858D01*
G37*
G36*
X318203D02*X314962D01*
Y196835D01*
X315139D01*
X315494Y196867D01*
X315845Y196931D01*
X316188Y197026D01*
X316522Y197152D01*
X316843Y197307D01*
X316910Y197350D01*
X316969Y197402D01*
X317018Y197464D01*
X317058Y197532D01*
X317087Y197606D01*
X317103Y197684D01*
X317108Y197763D01*
X317099Y197841D01*
X317079Y197918D01*
X317047Y197990D01*
X317004Y198057D01*
X316951Y198116D01*
X316890Y198166D01*
X316821Y198205D01*
X316747Y198234D01*
X316670Y198250D01*
X316591Y198255D01*
X316512Y198247D01*
X316436Y198226D01*
X316364Y198193D01*
X316126Y198074D01*
X315877Y197980D01*
X315620Y197909D01*
X315359Y197862D01*
X315094Y197838D01*
X314962D01*
Y203737D01*
X315094D01*
X315359Y203713D01*
X315620Y203666D01*
X315877Y203594D01*
X316126Y203501D01*
X316365Y203385D01*
X316437Y203351D01*
X316513Y203331D01*
X316591Y203323D01*
X316669Y203327D01*
X316746Y203344D01*
X316820Y203372D01*
X316888Y203412D01*
X316949Y203461D01*
X317002Y203520D01*
X317044Y203586D01*
X317076Y203658D01*
X317096Y203734D01*
X317105Y203812D01*
X317100Y203891D01*
X317084Y203968D01*
X317055Y204041D01*
X317016Y204109D01*
X316966Y204170D01*
X316908Y204223D01*
X316841Y204264D01*
X316522Y204423D01*
X316188Y204549D01*
X315845Y204644D01*
X315494Y204708D01*
X315139Y204740D01*
X314962D01*
Y251969D01*
X318203D01*
Y202890D01*
X318142Y202913D01*
X318064Y202930D01*
X317985Y202934D01*
X317907Y202926D01*
X317830Y202906D01*
X317758Y202874D01*
X317691Y202831D01*
X317632Y202778D01*
X317582Y202716D01*
X317543Y202648D01*
X317514Y202574D01*
X317498Y202497D01*
X317493Y202418D01*
X317501Y202339D01*
X317522Y202262D01*
X317555Y202191D01*
X317674Y201953D01*
X317768Y201704D01*
X317839Y201447D01*
X317886Y201185D01*
X317910Y200920D01*
Y200654D01*
X317886Y200389D01*
X317839Y200128D01*
X317768Y199871D01*
X317674Y199622D01*
X317558Y199383D01*
X317525Y199312D01*
X317504Y199235D01*
X317496Y199157D01*
X317501Y199079D01*
X317517Y199002D01*
X317545Y198928D01*
X317585Y198860D01*
X317634Y198799D01*
X317693Y198746D01*
X317759Y198704D01*
X317831Y198672D01*
X317907Y198652D01*
X317985Y198643D01*
X318064Y198648D01*
X318141Y198664D01*
X318203Y198688D01*
Y133858D01*
G37*
G36*
X314962D02*X311718D01*
Y198685D01*
X311779Y198661D01*
X311857Y198645D01*
X311936Y198640D01*
X312015Y198649D01*
X312091Y198669D01*
X312164Y198701D01*
X312230Y198744D01*
X312289Y198797D01*
X312339Y198858D01*
X312379Y198927D01*
X312407Y199001D01*
X312424Y199078D01*
X312428Y199157D01*
X312420Y199236D01*
X312399Y199313D01*
X312366Y199384D01*
X312247Y199622D01*
X312154Y199871D01*
X312083Y200128D01*
X312035Y200389D01*
X312011Y200654D01*
Y200920D01*
X312035Y201185D01*
X312083Y201447D01*
X312154Y201704D01*
X312247Y201953D01*
X312363Y202192D01*
X312397Y202263D01*
X312417Y202339D01*
X312425Y202418D01*
X312421Y202496D01*
X312404Y202573D01*
X312376Y202647D01*
X312336Y202715D01*
X312287Y202776D01*
X312228Y202828D01*
X312162Y202871D01*
X312090Y202903D01*
X312014Y202923D01*
X311936Y202931D01*
X311857Y202927D01*
X311780Y202911D01*
X311718Y202886D01*
Y251969D01*
X314962D01*
Y204740D01*
X314782D01*
X314427Y204708D01*
X314076Y204644D01*
X313733Y204549D01*
X313399Y204423D01*
X313078Y204268D01*
X313012Y204225D01*
X312953Y204172D01*
X312903Y204111D01*
X312863Y204042D01*
X312835Y203969D01*
X312818Y203891D01*
X312814Y203812D01*
X312822Y203733D01*
X312842Y203657D01*
X312874Y203584D01*
X312917Y203518D01*
X312970Y203459D01*
X313032Y203409D01*
X313100Y203369D01*
X313174Y203341D01*
X313251Y203324D01*
X313330Y203320D01*
X313409Y203328D01*
X313486Y203349D01*
X313557Y203382D01*
X313795Y203501D01*
X314044Y203594D01*
X314301Y203666D01*
X314563Y203713D01*
X314828Y203737D01*
X314962D01*
Y197838D01*
X314828D01*
X314563Y197862D01*
X314301Y197909D01*
X314044Y197980D01*
X313795Y198074D01*
X313556Y198190D01*
X313485Y198223D01*
X313409Y198244D01*
X313330Y198252D01*
X313252Y198248D01*
X313175Y198231D01*
X313101Y198203D01*
X313033Y198163D01*
X312972Y198114D01*
X312920Y198055D01*
X312877Y197989D01*
X312845Y197917D01*
X312825Y197841D01*
X312817Y197763D01*
X312821Y197684D01*
X312837Y197607D01*
X312866Y197534D01*
X312905Y197466D01*
X312955Y197405D01*
X313013Y197352D01*
X313080Y197311D01*
X313399Y197152D01*
X313733Y197026D01*
X314076Y196931D01*
X314427Y196867D01*
X314782Y196835D01*
X314962D01*
Y133858D01*
G37*
G36*
X311718D02*X298671D01*
Y147322D01*
X298761Y147339D01*
X298872Y147380D01*
X298975Y147437D01*
X299068Y147510D01*
X299149Y147596D01*
X299215Y147694D01*
X299262Y147802D01*
X299383Y148163D01*
X299468Y148534D01*
X299519Y148911D01*
X299536Y149291D01*
X299519Y149672D01*
X299468Y150049D01*
X299383Y150420D01*
X299266Y150782D01*
X299217Y150890D01*
X299151Y150988D01*
X299070Y151075D01*
X298977Y151148D01*
X298873Y151205D01*
X298762Y151246D01*
X298671Y151264D01*
Y165177D01*
X298715Y165195D01*
X298916Y165318D01*
X299095Y165472D01*
X299249Y165651D01*
X299372Y165852D01*
X299462Y166070D01*
X299518Y166300D01*
X299531Y166535D01*
X299518Y172283D01*
X299462Y172512D01*
X299372Y172730D01*
X299249Y172932D01*
X299095Y173111D01*
X298916Y173265D01*
X298715Y173388D01*
X298671Y173406D01*
Y251969D01*
X311718D01*
Y202886D01*
X311707Y202882D01*
X311639Y202843D01*
X311578Y202793D01*
X311525Y202735D01*
X311484Y202668D01*
X311325Y202349D01*
X311199Y202015D01*
X311104Y201672D01*
X311040Y201321D01*
X311008Y200966D01*
Y200609D01*
X311040Y200254D01*
X311104Y199903D01*
X311199Y199560D01*
X311325Y199226D01*
X311480Y198905D01*
X311523Y198838D01*
X311576Y198779D01*
X311637Y198730D01*
X311706Y198690D01*
X311718Y198685D01*
Y133858D01*
G37*
G36*
X298671Y173406D02*X298496Y173478D01*
X298267Y173533D01*
X298031Y173547D01*
X295276Y173541D01*
Y251969D01*
X298671D01*
Y173406D01*
G37*
G36*
Y133858D02*X295276D01*
Y145031D01*
X295656Y145048D01*
X296033Y145099D01*
X296404Y145183D01*
X296767Y145301D01*
X296874Y145350D01*
X296972Y145416D01*
X297059Y145497D01*
X297132Y145590D01*
X297190Y145694D01*
X297230Y145805D01*
X297253Y145922D01*
X297257Y146040D01*
X297243Y146158D01*
X297210Y146271D01*
X297160Y146379D01*
X297094Y146477D01*
X297013Y146564D01*
X296919Y146637D01*
X296816Y146694D01*
X296705Y146735D01*
X296588Y146757D01*
X296470Y146762D01*
X296352Y146747D01*
X296239Y146712D01*
X296006Y146634D01*
X295766Y146579D01*
X295522Y146546D01*
X295276Y146535D01*
Y152047D01*
X295522Y152036D01*
X295766Y152003D01*
X296006Y151949D01*
X296240Y151873D01*
X296353Y151838D01*
X296470Y151824D01*
X296588Y151828D01*
X296704Y151851D01*
X296815Y151891D01*
X296918Y151948D01*
X297011Y152021D01*
X297091Y152107D01*
X297157Y152205D01*
X297207Y152312D01*
X297240Y152426D01*
X297254Y152543D01*
X297250Y152661D01*
X297227Y152777D01*
X297187Y152888D01*
X297130Y152991D01*
X297057Y153084D01*
X296971Y153164D01*
X296873Y153230D01*
X296765Y153278D01*
X296404Y153399D01*
X296033Y153484D01*
X295656Y153534D01*
X295276Y153551D01*
Y165042D01*
X298267Y165049D01*
X298496Y165104D01*
X298671Y165177D01*
Y151264D01*
X298645Y151269D01*
X298527Y151273D01*
X298409Y151258D01*
X298296Y151226D01*
X298188Y151176D01*
X298090Y151109D01*
X298003Y151029D01*
X297930Y150935D01*
X297873Y150832D01*
X297832Y150720D01*
X297810Y150604D01*
X297805Y150486D01*
X297820Y150368D01*
X297855Y150255D01*
X297933Y150022D01*
X297988Y149781D01*
X298020Y149537D01*
X298031Y149291D01*
X298020Y149045D01*
X297988Y148801D01*
X297933Y148561D01*
X297857Y148327D01*
X297823Y148214D01*
X297808Y148097D01*
X297812Y147979D01*
X297835Y147863D01*
X297875Y147752D01*
X297933Y147649D01*
X298005Y147556D01*
X298092Y147475D01*
X298189Y147409D01*
X298296Y147360D01*
X298410Y147327D01*
X298527Y147313D01*
X298645Y147317D01*
X298671Y147322D01*
Y133858D01*
G37*
G36*
X291881Y211412D02*X292093Y211500D01*
X292849Y211963D01*
X293524Y212539D01*
X294100Y213214D01*
X294563Y213970D01*
X294902Y214789D01*
X295109Y215651D01*
X295161Y216535D01*
X295109Y217419D01*
X294902Y218282D01*
X294563Y219101D01*
X294100Y219857D01*
X293524Y220531D01*
X292849Y221107D01*
X292093Y221571D01*
X291881Y221659D01*
Y251969D01*
X295276D01*
Y173541D01*
X292284Y173533D01*
X292055Y173478D01*
X291881Y173406D01*
Y211412D01*
G37*
G36*
X295276Y133858D02*X291881D01*
Y147319D01*
X291906Y147314D01*
X292024Y147310D01*
X292142Y147324D01*
X292256Y147357D01*
X292363Y147407D01*
X292461Y147473D01*
X292548Y147554D01*
X292621Y147647D01*
X292678Y147751D01*
X292719Y147862D01*
X292742Y147979D01*
X292746Y148097D01*
X292731Y148215D01*
X292697Y148328D01*
X292618Y148561D01*
X292564Y148801D01*
X292531Y149045D01*
X292520Y149291D01*
X292531Y149537D01*
X292564Y149781D01*
X292618Y150022D01*
X292694Y150256D01*
X292729Y150369D01*
X292743Y150486D01*
X292739Y150604D01*
X292716Y150720D01*
X292676Y150830D01*
X292619Y150934D01*
X292546Y151027D01*
X292460Y151107D01*
X292362Y151173D01*
X292255Y151223D01*
X292141Y151256D01*
X292024Y151270D01*
X291906Y151266D01*
X291881Y151261D01*
Y165177D01*
X292055Y165104D01*
X292284Y165049D01*
X292520Y165035D01*
X295276Y165042D01*
Y153551D01*
X294895Y153534D01*
X294518Y153484D01*
X294147Y153399D01*
X293785Y153282D01*
X293677Y153233D01*
X293579Y153167D01*
X293492Y153086D01*
X293419Y152992D01*
X293362Y152889D01*
X293321Y152777D01*
X293298Y152661D01*
X293294Y152543D01*
X293309Y152425D01*
X293341Y152311D01*
X293391Y152204D01*
X293458Y152106D01*
X293538Y152019D01*
X293632Y151946D01*
X293735Y151889D01*
X293847Y151848D01*
X293963Y151825D01*
X294081Y151821D01*
X294199Y151836D01*
X294312Y151870D01*
X294545Y151949D01*
X294786Y152003D01*
X295030Y152036D01*
X295276Y152047D01*
Y146535D01*
X295030Y146546D01*
X294786Y146579D01*
X294545Y146634D01*
X294311Y146710D01*
X294198Y146744D01*
X294081Y146759D01*
X293963Y146755D01*
X293847Y146732D01*
X293736Y146692D01*
X293633Y146634D01*
X293540Y146562D01*
X293460Y146475D01*
X293394Y146377D01*
X293344Y146270D01*
X293311Y146157D01*
X293297Y146040D01*
X293301Y145922D01*
X293324Y145806D01*
X293364Y145695D01*
X293421Y145592D01*
X293494Y145499D01*
X293580Y145418D01*
X293678Y145352D01*
X293786Y145305D01*
X294147Y145183D01*
X294518Y145099D01*
X294895Y145048D01*
X295276Y145031D01*
Y133858D01*
G37*
G36*
X291881Y221659D02*X291274Y221910D01*
X290412Y222117D01*
X289528Y222187D01*
X288644Y222117D01*
X287781Y221910D01*
X286962Y221571D01*
X286206Y221107D01*
X285532Y220531D01*
X284956Y219857D01*
X284528Y219159D01*
X284100Y219857D01*
X283524Y220531D01*
X282849Y221107D01*
X282093Y221571D01*
X281274Y221910D01*
X280412Y222117D01*
X279528Y222187D01*
Y251969D01*
X291881D01*
Y221659D01*
G37*
G36*
Y133858D02*X279528D01*
Y210884D01*
X280412Y210954D01*
X281274Y211161D01*
X282093Y211500D01*
X282849Y211963D01*
X283524Y212539D01*
X284100Y213214D01*
X284528Y213912D01*
X284956Y213214D01*
X285532Y212539D01*
X286206Y211963D01*
X286962Y211500D01*
X287781Y211161D01*
X288644Y210954D01*
X289528Y210884D01*
X290412Y210954D01*
X291274Y211161D01*
X291881Y211412D01*
Y173406D01*
X291837Y173388D01*
X291635Y173265D01*
X291456Y173111D01*
X291302Y172932D01*
X291179Y172730D01*
X291089Y172512D01*
X291034Y172283D01*
X291020Y172047D01*
X291034Y166300D01*
X291089Y166070D01*
X291179Y165852D01*
X291302Y165651D01*
X291456Y165472D01*
X291635Y165318D01*
X291837Y165195D01*
X291881Y165177D01*
Y151261D01*
X291790Y151243D01*
X291679Y151203D01*
X291576Y151146D01*
X291483Y151073D01*
X291403Y150987D01*
X291337Y150889D01*
X291289Y150781D01*
X291168Y150420D01*
X291083Y150049D01*
X291032Y149672D01*
X291015Y149291D01*
X291032Y148911D01*
X291083Y148534D01*
X291168Y148163D01*
X291285Y147800D01*
X291334Y147693D01*
X291400Y147594D01*
X291481Y147508D01*
X291574Y147435D01*
X291678Y147377D01*
X291789Y147337D01*
X291881Y147319D01*
Y133858D01*
G37*
G36*
X279528D02*X262657D01*
Y235937D01*
X262678Y235942D01*
X262750Y235974D01*
X262816Y236017D01*
X262874Y236069D01*
X262924Y236130D01*
X262962Y236199D01*
X263087Y236483D01*
X263182Y236778D01*
X263251Y237080D01*
X263293Y237387D01*
X263307Y237697D01*
X263293Y238007D01*
X263251Y238314D01*
X263182Y238616D01*
X263087Y238911D01*
X262965Y239196D01*
X262926Y239265D01*
X262876Y239326D01*
X262817Y239379D01*
X262751Y239422D01*
X262678Y239454D01*
X262657Y239460D01*
Y251969D01*
X279528D01*
Y222187D01*
X278644Y222117D01*
X277781Y221910D01*
X276962Y221571D01*
X276206Y221107D01*
X275532Y220531D01*
X275149Y220083D01*
X275148Y220905D01*
X275092Y221134D01*
X275002Y221352D01*
X274879Y221554D01*
X274725Y221733D01*
X274546Y221887D01*
X274345Y222010D01*
X274126Y222100D01*
X273897Y222155D01*
X273661Y222169D01*
X265158Y222155D01*
X264929Y222100D01*
X264711Y222010D01*
X264509Y221887D01*
X264330Y221733D01*
X264176Y221554D01*
X264053Y221352D01*
X263963Y221134D01*
X263908Y220905D01*
X263894Y220669D01*
X263908Y212166D01*
X263963Y211937D01*
X264053Y211718D01*
X264176Y211517D01*
X264330Y211338D01*
X264509Y211184D01*
X264711Y211061D01*
X264929Y210971D01*
X265158Y210915D01*
X265394Y210902D01*
X273897Y210915D01*
X274126Y210971D01*
X274345Y211061D01*
X274546Y211184D01*
X274725Y211338D01*
X274879Y211517D01*
X275002Y211718D01*
X275092Y211937D01*
X275148Y212166D01*
X275161Y212402D01*
X275160Y212974D01*
X275532Y212539D01*
X276206Y211963D01*
X276962Y211500D01*
X277781Y211161D01*
X278644Y210954D01*
X279528Y210884D01*
Y133858D01*
G37*
G36*
X262657D02*X259148D01*
Y198688D01*
X259159Y198693D01*
X259227Y198732D01*
X259288Y198782D01*
X259341Y198840D01*
X259382Y198907D01*
X259541Y199226D01*
X259667Y199560D01*
X259762Y199903D01*
X259826Y200254D01*
X259858Y200609D01*
Y200966D01*
X259826Y201321D01*
X259762Y201672D01*
X259667Y202015D01*
X259541Y202349D01*
X259386Y202670D01*
X259343Y202736D01*
X259290Y202795D01*
X259229Y202845D01*
X259161Y202885D01*
X259148Y202890D01*
Y234306D01*
X259226Y234288D01*
X259533Y234247D01*
X259843Y234233D01*
X260152Y234247D01*
X260459Y234288D01*
X260762Y234357D01*
X261057Y234453D01*
X261342Y234574D01*
X261411Y234613D01*
X261472Y234663D01*
X261525Y234722D01*
X261568Y234789D01*
X261600Y234861D01*
X261620Y234937D01*
X261628Y235016D01*
X261624Y235095D01*
X261607Y235172D01*
X261578Y235246D01*
X261539Y235314D01*
X261489Y235376D01*
X261430Y235429D01*
X261363Y235471D01*
X261291Y235503D01*
X261215Y235524D01*
X261136Y235532D01*
X261057Y235527D01*
X260980Y235511D01*
X260906Y235481D01*
X260705Y235392D01*
X260495Y235324D01*
X260281Y235276D01*
X260063Y235246D01*
X259843Y235236D01*
X259623Y235246D01*
X259404Y235276D01*
X259190Y235324D01*
X259148Y235338D01*
Y240056D01*
X259190Y240069D01*
X259404Y240118D01*
X259623Y240148D01*
X259843Y240157D01*
X260063Y240148D01*
X260281Y240118D01*
X260495Y240069D01*
X260705Y240001D01*
X260908Y239915D01*
X260980Y239885D01*
X261057Y239869D01*
X261136Y239864D01*
X261214Y239872D01*
X261290Y239893D01*
X261362Y239924D01*
X261428Y239967D01*
X261487Y240020D01*
X261537Y240081D01*
X261576Y240149D01*
X261604Y240222D01*
X261621Y240299D01*
X261625Y240378D01*
X261617Y240456D01*
X261597Y240532D01*
X261565Y240604D01*
X261523Y240670D01*
X261470Y240729D01*
X261409Y240778D01*
X261340Y240817D01*
X261057Y240941D01*
X260762Y241037D01*
X260459Y241106D01*
X260152Y241147D01*
X259843Y241161D01*
X259533Y241147D01*
X259226Y241106D01*
X259148Y241088D01*
Y251969D01*
X262657D01*
Y239460D01*
X262602Y239474D01*
X262523Y239482D01*
X262444Y239478D01*
X262367Y239461D01*
X262293Y239433D01*
X262225Y239393D01*
X262164Y239343D01*
X262111Y239284D01*
X262068Y239218D01*
X262036Y239145D01*
X262016Y239069D01*
X262008Y238990D01*
X262012Y238911D01*
X262029Y238834D01*
X262058Y238761D01*
X262147Y238559D01*
X262215Y238350D01*
X262264Y238135D01*
X262293Y237917D01*
X262303Y237697D01*
X262293Y237477D01*
X262264Y237259D01*
X262215Y237044D01*
X262147Y236834D01*
X262061Y236632D01*
X262031Y236559D01*
X262014Y236482D01*
X262010Y236404D01*
X262018Y236325D01*
X262038Y236249D01*
X262070Y236177D01*
X262113Y236111D01*
X262165Y236052D01*
X262226Y236003D01*
X262294Y235963D01*
X262368Y235935D01*
X262445Y235918D01*
X262523Y235914D01*
X262602Y235922D01*
X262657Y235937D01*
Y133858D01*
G37*
G36*
X259148D02*X257028D01*
Y196997D01*
X257133Y197026D01*
X257467Y197152D01*
X257788Y197307D01*
X257855Y197350D01*
X257913Y197402D01*
X257963Y197464D01*
X258003Y197532D01*
X258032Y197606D01*
X258048Y197684D01*
X258052Y197763D01*
X258044Y197841D01*
X258024Y197918D01*
X257992Y197990D01*
X257949Y198057D01*
X257896Y198116D01*
X257834Y198166D01*
X257766Y198205D01*
X257692Y198234D01*
X257615Y198250D01*
X257536Y198255D01*
X257457Y198247D01*
X257380Y198226D01*
X257309Y198193D01*
X257071Y198074D01*
X257028Y198058D01*
Y203517D01*
X257071Y203501D01*
X257310Y203385D01*
X257381Y203351D01*
X257457Y203331D01*
X257536Y203323D01*
X257614Y203327D01*
X257691Y203344D01*
X257765Y203372D01*
X257833Y203412D01*
X257894Y203461D01*
X257946Y203520D01*
X257989Y203586D01*
X258021Y203658D01*
X258041Y203734D01*
X258049Y203812D01*
X258045Y203891D01*
X258029Y203968D01*
X258000Y204041D01*
X257961Y204109D01*
X257911Y204170D01*
X257853Y204223D01*
X257786Y204264D01*
X257467Y204423D01*
X257133Y204549D01*
X257028Y204578D01*
Y235934D01*
X257083Y235920D01*
X257162Y235912D01*
X257241Y235916D01*
X257318Y235933D01*
X257392Y235961D01*
X257460Y236001D01*
X257521Y236051D01*
X257574Y236110D01*
X257617Y236176D01*
X257649Y236248D01*
X257669Y236325D01*
X257677Y236404D01*
X257673Y236482D01*
X257656Y236560D01*
X257627Y236633D01*
X257538Y236834D01*
X257470Y237044D01*
X257421Y237259D01*
X257392Y237477D01*
X257382Y237697D01*
X257392Y237917D01*
X257421Y238135D01*
X257470Y238350D01*
X257538Y238559D01*
X257624Y238762D01*
X257654Y238835D01*
X257671Y238912D01*
X257675Y238990D01*
X257667Y239068D01*
X257647Y239145D01*
X257615Y239216D01*
X257572Y239283D01*
X257520Y239341D01*
X257459Y239391D01*
X257391Y239430D01*
X257317Y239459D01*
X257240Y239475D01*
X257162Y239480D01*
X257083Y239472D01*
X257028Y239457D01*
Y251969D01*
X259148D01*
Y241088D01*
X258923Y241037D01*
X258628Y240941D01*
X258343Y240820D01*
X258275Y240780D01*
X258213Y240730D01*
X258160Y240672D01*
X258118Y240605D01*
X258086Y240533D01*
X258065Y240456D01*
X258057Y240378D01*
X258062Y240299D01*
X258078Y240221D01*
X258107Y240148D01*
X258146Y240079D01*
X258196Y240018D01*
X258255Y239965D01*
X258322Y239922D01*
X258394Y239890D01*
X258470Y239870D01*
X258549Y239862D01*
X258628Y239866D01*
X258705Y239883D01*
X258779Y239913D01*
X258980Y240001D01*
X259148Y240056D01*
Y235338D01*
X258980Y235392D01*
X258777Y235479D01*
X258705Y235508D01*
X258628Y235525D01*
X258549Y235529D01*
X258471Y235521D01*
X258395Y235501D01*
X258323Y235469D01*
X258257Y235427D01*
X258198Y235374D01*
X258148Y235313D01*
X258109Y235245D01*
X258081Y235172D01*
X258064Y235095D01*
X258060Y235016D01*
X258068Y234938D01*
X258088Y234862D01*
X258120Y234790D01*
X258162Y234724D01*
X258215Y234665D01*
X258276Y234615D01*
X258345Y234577D01*
X258628Y234453D01*
X258923Y234357D01*
X259148Y234306D01*
Y202890D01*
X259087Y202913D01*
X259009Y202930D01*
X258930Y202934D01*
X258851Y202926D01*
X258775Y202906D01*
X258703Y202874D01*
X258636Y202831D01*
X258577Y202778D01*
X258527Y202716D01*
X258488Y202648D01*
X258459Y202574D01*
X258442Y202497D01*
X258438Y202418D01*
X258446Y202339D01*
X258467Y202262D01*
X258500Y202191D01*
X258619Y201953D01*
X258713Y201704D01*
X258784Y201447D01*
X258831Y201185D01*
X258855Y200920D01*
Y200654D01*
X258831Y200389D01*
X258784Y200128D01*
X258713Y199871D01*
X258619Y199622D01*
X258503Y199383D01*
X258470Y199312D01*
X258449Y199235D01*
X258441Y199157D01*
X258445Y199079D01*
X258462Y199002D01*
X258490Y198928D01*
X258530Y198860D01*
X258579Y198799D01*
X258638Y198746D01*
X258704Y198704D01*
X258776Y198672D01*
X258852Y198652D01*
X258930Y198643D01*
X259009Y198648D01*
X259086Y198664D01*
X259148Y198688D01*
Y133858D01*
G37*
G36*
X257028Y204578D02*X256790Y204644D01*
X256439Y204708D01*
X256084Y204740D01*
X255907D01*
Y251969D01*
X257028D01*
Y239457D01*
X257007Y239452D01*
X256935Y239420D01*
X256869Y239377D01*
X256811Y239324D01*
X256761Y239263D01*
X256723Y239195D01*
X256598Y238911D01*
X256503Y238616D01*
X256434Y238314D01*
X256392Y238007D01*
X256378Y237697D01*
X256392Y237387D01*
X256434Y237080D01*
X256503Y236778D01*
X256598Y236483D01*
X256720Y236197D01*
X256759Y236129D01*
X256809Y236068D01*
X256868Y236015D01*
X256934Y235972D01*
X257007Y235940D01*
X257028Y235934D01*
Y204578D01*
G37*
G36*
Y198058D02*X256822Y197980D01*
X256565Y197909D01*
X256304Y197862D01*
X256039Y197838D01*
X255907D01*
Y203737D01*
X256039D01*
X256304Y203713D01*
X256565Y203666D01*
X256822Y203594D01*
X257028Y203517D01*
Y198058D01*
G37*
G36*
Y133858D02*X255907D01*
Y196835D01*
X256084D01*
X256439Y196867D01*
X256790Y196931D01*
X257028Y196997D01*
Y133858D01*
G37*
G36*
X255907D02*X252663D01*
Y198685D01*
X252724Y198661D01*
X252802Y198645D01*
X252881Y198640D01*
X252960Y198649D01*
X253036Y198669D01*
X253108Y198701D01*
X253175Y198744D01*
X253234Y198797D01*
X253284Y198858D01*
X253324Y198927D01*
X253352Y199001D01*
X253369Y199078D01*
X253373Y199157D01*
X253365Y199236D01*
X253344Y199313D01*
X253311Y199384D01*
X253192Y199622D01*
X253098Y199871D01*
X253027Y200128D01*
X252980Y200389D01*
X252956Y200654D01*
Y200920D01*
X252980Y201185D01*
X253027Y201447D01*
X253098Y201704D01*
X253192Y201953D01*
X253308Y202192D01*
X253342Y202263D01*
X253362Y202339D01*
X253370Y202418D01*
X253366Y202496D01*
X253349Y202573D01*
X253321Y202647D01*
X253281Y202715D01*
X253232Y202776D01*
X253173Y202828D01*
X253107Y202871D01*
X253035Y202903D01*
X252959Y202923D01*
X252881Y202931D01*
X252802Y202927D01*
X252725Y202911D01*
X252663Y202886D01*
Y251969D01*
X255907D01*
Y204740D01*
X255727D01*
X255372Y204708D01*
X255021Y204644D01*
X254678Y204549D01*
X254344Y204423D01*
X254023Y204268D01*
X253956Y204225D01*
X253898Y204172D01*
X253848Y204111D01*
X253808Y204042D01*
X253779Y203969D01*
X253763Y203891D01*
X253759Y203812D01*
X253767Y203733D01*
X253787Y203657D01*
X253819Y203584D01*
X253862Y203518D01*
X253915Y203459D01*
X253977Y203409D01*
X254045Y203369D01*
X254119Y203341D01*
X254196Y203324D01*
X254275Y203320D01*
X254354Y203328D01*
X254431Y203349D01*
X254502Y203382D01*
X254740Y203501D01*
X254989Y203594D01*
X255246Y203666D01*
X255507Y203713D01*
X255772Y203737D01*
X255907D01*
Y197838D01*
X255772D01*
X255507Y197862D01*
X255246Y197909D01*
X254989Y197980D01*
X254740Y198074D01*
X254501Y198190D01*
X254430Y198223D01*
X254354Y198244D01*
X254275Y198252D01*
X254197Y198248D01*
X254120Y198231D01*
X254046Y198203D01*
X253978Y198163D01*
X253917Y198114D01*
X253865Y198055D01*
X253822Y197989D01*
X253790Y197917D01*
X253770Y197841D01*
X253762Y197763D01*
X253766Y197684D01*
X253782Y197607D01*
X253811Y197534D01*
X253850Y197466D01*
X253900Y197405D01*
X253958Y197352D01*
X254025Y197311D01*
X254344Y197152D01*
X254678Y197026D01*
X255021Y196931D01*
X255372Y196867D01*
X255727Y196835D01*
X255907D01*
Y133858D01*
G37*
G36*
X252663D02*X228346D01*
Y251969D01*
X252663D01*
Y202886D01*
X252652Y202882D01*
X252584Y202843D01*
X252523Y202793D01*
X252470Y202735D01*
X252429Y202668D01*
X252270Y202349D01*
X252144Y202015D01*
X252049Y201672D01*
X251985Y201321D01*
X251953Y200966D01*
Y200609D01*
X251985Y200254D01*
X252049Y199903D01*
X252144Y199560D01*
X252270Y199226D01*
X252425Y198905D01*
X252468Y198838D01*
X252521Y198779D01*
X252582Y198730D01*
X252651Y198690D01*
X252663Y198685D01*
Y133858D01*
G37*
G54D12*X330709Y94488D02*Y82992D01*
X331024Y82677D01*
X341024D02*X351024D01*
Y137795D01*
X330709Y94488D02*X303150Y122047D01*
G54D13*X271654D01*
G54D12*X317913Y75787D02*X321024Y78898D01*
Y82677D01*
X140236D02*X150236D01*
X157480Y89921D01*
X184409D01*
X317913Y75787D02*X97441D01*
X90551Y82677D01*
Y106299D01*
X184409Y89921D02*X232283Y137795D01*
G54D14*X366142Y169291D03*
G54D11*G36*
X352008Y220669D02*Y212402D01*
X360276D01*
Y220669D01*
X352008D01*
G37*
G54D15*X366142Y216535D03*
X376142D03*
G54D16*X103543Y228346D03*
X203543D03*
G54D11*G36*
X139409Y222638D02*Y214370D01*
X147677D01*
Y222638D01*
X139409D01*
G37*
G54D15*X153543Y218504D03*
X163543D03*
G54D11*G36*
X162598Y172047D02*Y166535D01*
X168110D01*
Y172047D01*
X162598D01*
G37*
G54D14*X165354Y149291D03*
G54D11*G36*
X106986Y85927D02*Y79427D01*
X113486D01*
Y85927D01*
X106986D01*
G37*
G54D17*X120236Y82677D03*
X130236D03*
X140236D03*
X150236D03*
X160236D03*
G54D11*G36*
X307774Y85927D02*Y79427D01*
X314274D01*
Y85927D01*
X307774D01*
G37*
G54D17*X321024Y82677D03*
X331024D03*
X341024D03*
X351024D03*
X361024D03*
G54D11*G36*
X292520Y172047D02*Y166535D01*
X298031D01*
Y172047D01*
X292520D01*
G37*
G36*
X265394Y220669D02*Y212402D01*
X273661D01*
Y220669D01*
X265394D01*
G37*
G54D15*X279528Y216535D03*
X289528D03*
G54D14*X295276Y149291D03*
G54D11*G36*
X363386Y152047D02*Y146535D01*
X368898D01*
Y152047D01*
X363386D01*
G37*
G54D13*X188976Y200787D03*
X129921D03*
G54D18*X133858Y239665D03*
G54D13*X342520Y200787D03*
X314961D03*
X255906D03*
X401575D03*
G54D18*X346457Y237697D03*
X259843D03*
G54D13*X165354Y112008D03*
G54D18*X299213Y122047D03*
X291339D03*
X283465D03*
X275591D03*
G54D12*G54D19*G54D12*G54D19*G54D12*G54D19*G54D20*G54D21*G54D22*G54D20*G54D23*G54D22*G54D20*G54D21*G54D24*G54D17*G54D20*G54D24*G54D17*G54D21*G54D22*G54D21*M02*
