G04 start of page 8 for group -4062 idx -4062 *
G04 Title: EW10A - bias supply, soldermask *
G04 Creator: pcb 1.99z *
G04 CreationDate: Wed 13 Aug 2014 11:07:00 PM GMT UTC *
G04 For: eelco *
G04 Format: Gerber/RS-274X *
G04 PCB-Dimensions (mil): 4724.41 3149.61 *
G04 PCB-Coordinate-Origin: lower left *
%MOIN*%
%FSLAX25Y25*%
%LNBOTTOMMASK*%
%ADD78R,0.0512X0.0512*%
%ADD77R,0.0531X0.0531*%
%ADD76R,0.0413X0.0413*%
%ADD75R,0.0453X0.0453*%
%ADD74R,0.0472X0.0472*%
%ADD73R,0.0610X0.0610*%
%ADD72C,0.0520*%
%ADD71C,0.0620*%
%ADD70C,0.1160*%
%ADD69C,0.0710*%
%ADD68C,0.1800*%
%ADD67C,0.0886*%
%ADD66C,0.0001*%
%ADD65C,0.0610*%
%ADD64C,0.3091*%
G54D64*X413386Y236220D03*
G54D65*X366142Y169291D03*
G54D66*G36*
X351713Y220965D02*Y212106D01*
X360571D01*
Y220965D01*
X351713D01*
G37*
G54D67*X366142Y216535D03*
X376142D03*
G54D64*X59055Y236220D03*
G54D68*X103543Y228346D03*
X203543D03*
G54D66*G36*
X139114Y222933D02*Y214075D01*
X147972D01*
Y222933D01*
X139114D01*
G37*
G54D67*X153543Y218504D03*
X163543D03*
G54D64*X59055Y78740D03*
G54D66*G36*
X162303Y172343D02*Y166240D01*
X168406D01*
Y172343D01*
X162303D01*
G37*
G54D65*X165354Y149291D03*
G54D66*G36*
X106686Y86227D02*Y79127D01*
X113786D01*
Y86227D01*
X106686D01*
G37*
G54D69*X120236Y82677D03*
X130236D03*
X140236D03*
X150236D03*
X160236D03*
G54D70*X102736Y69177D03*
G54D64*X413386Y78740D03*
G54D66*G36*
X307474Y86227D02*Y79127D01*
X314574D01*
Y86227D01*
X307474D01*
G37*
G54D69*X321024Y82677D03*
X331024D03*
X341024D03*
X351024D03*
X361024D03*
G54D70*X303524Y69177D03*
G54D66*G36*
X292224Y172343D02*Y166240D01*
X298327D01*
Y172343D01*
X292224D01*
G37*
G36*
X265098Y220965D02*Y212106D01*
X273957D01*
Y220965D01*
X265098D01*
G37*
G54D67*X279528Y216535D03*
X289528D03*
G54D65*X295276Y149291D03*
G54D66*G36*
X363091Y152343D02*Y146240D01*
X369193D01*
Y152343D01*
X363091D01*
G37*
G54D71*X188976Y200787D03*
X129921D03*
G54D72*X133858Y239665D03*
G54D71*X342520Y200787D03*
X314961D03*
X255906D03*
X401575D03*
G54D72*X346457Y237697D03*
X259843D03*
G54D71*X165354Y112008D03*
G54D72*X299213Y122047D03*
X291339D03*
X283465D03*
X275591D03*
G54D73*X166339Y185039D02*X169488D01*
X149409D02*X152559D01*
X292323D02*X295472D01*
X275394D02*X278543D01*
X378937D02*X382087D01*
X362008D02*X365157D01*
G54D74*X179035Y203839D02*Y197736D01*
X265846Y203839D02*Y197736D01*
X277461Y203839D02*Y197736D01*
X305020Y203839D02*Y197736D01*
X293406Y203839D02*Y197736D01*
G54D75*X269094Y237697D02*X270276D01*
X269094Y230807D02*X270276D01*
G54D76*X375197Y230512D02*X376772D01*
X278740Y237992D02*X280315D01*
X278740Y230512D02*X280315D01*
G54D75*X143110Y239665D02*X144291D01*
X143110Y232776D02*X144291D01*
G54D76*X152756Y239961D02*X154331D01*
X152756Y232480D02*X154331D01*
X162598Y239961D02*X164173D01*
X162598Y232480D02*X164173D01*
G54D74*X167421Y203839D02*Y197736D01*
X139862Y203839D02*Y197736D01*
X151476Y203839D02*Y197736D01*
G54D76*X152756Y157677D02*X154331D01*
X152756Y165157D02*X154331D01*
G54D77*X113780Y153740D02*Y145472D01*
X130315Y153740D02*Y145472D01*
G54D78*X180413Y132087D02*X184547D01*
X180413Y112008D02*X184547D01*
X146161D02*X150295D01*
X146161Y132087D02*X150295D01*
G54D76*X288583Y237992D02*X290157D01*
G54D75*X355709Y237697D02*X356890D01*
G54D76*X365354Y237992D02*X366929D01*
X288583Y230512D02*X290157D01*
G54D75*X355709Y230807D02*X356890D01*
G54D76*X365354Y230512D02*X366929D01*
G54D74*X364075Y203839D02*Y197736D01*
X352461Y203839D02*Y197736D01*
X380020Y203839D02*Y197736D01*
X391634Y203839D02*Y197736D01*
G54D76*X375197Y237992D02*X376772D01*
X308268Y161614D02*X309843D01*
G54D78*X320669Y153051D02*Y148917D01*
X340748Y153051D02*Y148917D01*
G54D76*X308268Y169094D02*X309843D01*
X351575Y161614D02*X353150D01*
X351575Y169094D02*X353150D01*
G54D78*X340748Y118799D02*Y114665D01*
X320669Y118799D02*Y114665D01*
G54D77*X271457Y86220D02*X279724D01*
X271457Y102756D02*X279724D01*
X236024Y98031D02*X244291D01*
X236024Y114567D02*X244291D01*
M02*
