G04 start of page 7 for group -4063 idx -4063 *
G04 Title: EW10A - bias supply, componentmask *
G04 Creator: pcb 1.99z *
G04 CreationDate: Wed 13 Aug 2014 11:07:00 PM GMT UTC *
G04 For: eelco *
G04 Format: Gerber/RS-274X *
G04 PCB-Dimensions (mil): 4724.41 3149.61 *
G04 PCB-Coordinate-Origin: lower left *
%MOIN*%
%FSLAX25Y25*%
%LNTOPMASK*%
%ADD63C,0.0520*%
%ADD62C,0.0620*%
%ADD61C,0.1160*%
%ADD60C,0.0710*%
%ADD59C,0.1800*%
%ADD58C,0.0886*%
%ADD57C,0.0001*%
%ADD56C,0.0610*%
%ADD55C,0.3091*%
G54D55*X413386Y236220D03*
G54D56*X366142Y169291D03*
G54D57*G36*
X351713Y220965D02*Y212106D01*
X360571D01*
Y220965D01*
X351713D01*
G37*
G54D58*X366142Y216535D03*
X376142D03*
G54D55*X59055Y236220D03*
G54D59*X103543Y228346D03*
X203543D03*
G54D57*G36*
X139114Y222933D02*Y214075D01*
X147972D01*
Y222933D01*
X139114D01*
G37*
G54D58*X153543Y218504D03*
X163543D03*
G54D55*X59055Y78740D03*
G54D57*G36*
X162303Y172343D02*Y166240D01*
X168406D01*
Y172343D01*
X162303D01*
G37*
G54D56*X165354Y149291D03*
G54D57*G36*
X106686Y86227D02*Y79127D01*
X113786D01*
Y86227D01*
X106686D01*
G37*
G54D60*X120236Y82677D03*
X130236D03*
X140236D03*
X150236D03*
X160236D03*
G54D61*X102736Y69177D03*
G54D55*X413386Y78740D03*
G54D57*G36*
X307474Y86227D02*Y79127D01*
X314574D01*
Y86227D01*
X307474D01*
G37*
G54D60*X321024Y82677D03*
X331024D03*
X341024D03*
X351024D03*
X361024D03*
G54D61*X303524Y69177D03*
G54D57*G36*
X292224Y172343D02*Y166240D01*
X298327D01*
Y172343D01*
X292224D01*
G37*
G36*
X265098Y220965D02*Y212106D01*
X273957D01*
Y220965D01*
X265098D01*
G37*
G54D58*X279528Y216535D03*
X289528D03*
G54D56*X295276Y149291D03*
G54D57*G36*
X363091Y152343D02*Y146240D01*
X369193D01*
Y152343D01*
X363091D01*
G37*
G54D62*X188976Y200787D03*
X129921D03*
G54D63*X133858Y239665D03*
G54D62*X342520Y200787D03*
X314961D03*
X255906D03*
X401575D03*
G54D63*X346457Y237697D03*
X259843D03*
G54D62*X165354Y112008D03*
G54D63*X299213Y122047D03*
X291339D03*
X283465D03*
X275591D03*
M02*
