M48
INCH
T52C0.030
T51C0.039
T50C0.040
T49C0.100
T48C0.047
T47C0.031
%
T52
X013386Y023967
X025984Y023770
X027559Y012205
X028346Y012205
X029134Y012205
X029921Y012205
X034646Y023770
T47
X016535Y016929
X016535Y014929
X029528Y016929
X029528Y014929
X036614Y016929
X036614Y014929
T51
X012992Y020079
X016535Y011201
X018898Y020079
X025591Y020079
X031496Y020079
X034252Y020079
X040157Y020079
T50
X011024Y008268
X012024Y008268
X013024Y008268
X014024Y008268
X015024Y008268
X016024Y008268
X031102Y008268
X032102Y008268
X033102Y008268
X034102Y008268
X035102Y008268
X036102Y008268
T48
X014354Y021850
X015354Y021850
X016354Y021850
X026953Y021654
X027953Y021654
X028953Y021654
X035614Y021654
X036614Y021654
X037614Y021654
T49
X010354Y022835
X020354Y022835
M30
